;Layer: Drill PTH
;EasyEDA v6.4.7, 2020-11-04T13:22:21+08:00
;c75b3099a9074dceb9129db7a55e819f,07195eaca447455c8232cfd30933a766,10
;Gerber Generator version 0.2
M48
INCH,LZ,00.0000
;Holesize 1 = 0.012 INCH
T01C0.012
;Holesize 2 = 0.028 INCH
T02C0.028
;Holesize 3 = 0.028 INCH
T03C0.028
;Holesize 4 = 0.032 INCH
T04C0.032
;Holesize 5 = 0.032 INCH
T05C0.032
;Holesize 6 = 0.035 INCH
T06C0.035
;Holesize 7 = 0.035 INCH
T07C0.035
;Holesize 8 = 0.039 INCH
T08C0.039
;Holesize 9 = 0.040 INCH
T09C0.040
;Holesize 10 = 0.047 INCH
T10C0.047
%
G05
G90
T01
X+018740Y+011446
X+018293Y+013450
X+009877Y+014378
X+012010Y+012178
T02
X+004300Y+001300
X+003709Y+001300
T03
X+007500Y+019550
X+005500Y+019550
T04
X+009650Y+000950
X+010650Y+000950
X+011650Y+000950
X+012150Y+004790
X+010150Y+004790
X+011150Y+005909
X+009127Y+017150
X+010072Y+017150
X+009127Y+015000
X+010072Y+015000
X+010877Y+013450
X+011822Y+013450
X+013127Y+013450
X+014072Y+013450
X+015377Y+013450
X+016322Y+013450
X+000927Y+001350
X+001872Y+001350
T05
X+001150Y+007850
X+005150Y+007850
X+001150Y+006200
X+005150Y+006200
X+001150Y+004500
X+005150Y+004500
X+019350Y+008150
X+019350Y+012150
X+001150Y+009550
X+005150Y+009550
X+021250Y+008150
X+021250Y+012150
X+023200Y+008150
X+023200Y+012150
X+019350Y+002900
X+019350Y+006900
X+021300Y+002900
X+021300Y+006900
X+023250Y+002900
X+023250Y+006900
X+025200Y+002900
X+025200Y+006900
T06
X+025150Y+011150
X+025150Y+010150
X+025150Y+009150
T07
X+002069Y+014600
X+004630Y+014600
X+014160Y+004200
X+015739Y+004200
T08
X+003311Y+020100
X+000950Y+020100
X+003311Y+018525
X+000950Y+018525
T09
X+009350Y+020000
X+010350Y+020000
X+011350Y+020000
X+012350Y+020000
X+013350Y+020000
X+014350Y+020000
X+015350Y+020000
X+016350Y+020000
X+017950Y+020000
X+018950Y+020000
X+019950Y+020000
X+020950Y+020000
X+021950Y+020000
X+022950Y+020000
X+023950Y+020000
X+024950Y+020000
X+012949Y+001000
X+013949Y+001000
X+014949Y+001000
X+015949Y+001000
X+016949Y+001000
X+017949Y+001000
X+019949Y+001000
X+020949Y+001000
X+021949Y+001000
X+022949Y+001000
X+023949Y+001000
X+024949Y+001000
T10
X+008000Y+000950
X+007000Y+000950
X+006000Y+000950
X+010085Y+009020
X+010085Y+011579
X+008314Y+011579
X+008314Y+009020
X+013660Y+009020
X+013660Y+011579
X+011889Y+011579
X+011889Y+009020
X+017235Y+009020
X+017235Y+011579
X+015464Y+011579
X+015464Y+009020
M30
