G04 Layer: BottomSolderMaskLayer*
G04 EasyEDA v6.4.7, 2020-11-04T13:22:21+08:00*
G04 c75b3099a9074dceb9129db7a55e819f,07195eaca447455c8232cfd30933a766,10*
G04 Gerber Generator version 0.2*
G04 Scale: 100 percent, Rotated: No, Reflected: No *
G04 Dimensions in inches *
G04 leading zeros omitted , absolute positions ,2 integer and 4 decimal *
%FSLAX24Y24*%
%MOIN*%
G90*
D02*

%ADD14C,0.070000*%
%ADD33C,0.055200*%
%ADD34C,0.078000*%
%ADD35C,0.078866*%
%ADD37C,0.086740*%
%ADD38R,0.070000X0.070000*%
%ADD41C,0.068000*%
%ADD42C,0.082000*%
%ADD43C,0.063120*%
%ADD44C,0.047370*%

%LPD*%
G36*
G01X9373Y673D02*
G01X9373Y1226D01*
G01X9926Y1226D01*
G01X9926Y673D01*
G01X9373Y673D01*
G37*
G54D33*
G01X10650Y950D03*
G01X11650Y950D03*
G54D34*
G01X7500Y19550D03*
G01X5500Y19550D03*
G54D35*
G01X8000Y950D03*
G01X7000Y950D03*
G36*
G01X5650Y555D02*
G01X5650Y1344D01*
G01X6350Y1344D01*
G01X6350Y555D01*
G01X5650Y555D01*
G37*
G54D37*
G01X10085Y9020D03*
G01X10085Y11579D03*
G01X8314Y11579D03*
G01X8314Y9020D03*
G01X13660Y9020D03*
G01X13660Y11579D03*
G01X11889Y11579D03*
G01X11889Y9020D03*
G01X17235Y9020D03*
G01X17235Y11579D03*
G01X15464Y11579D03*
G01X15464Y9020D03*
G54D14*
G01X25150Y11150D03*
G01X25150Y10150D03*
G54D38*
G01X25150Y9150D03*
G36*
G01X9031Y19459D02*
G01X9031Y20540D01*
G01X9668Y20540D01*
G01X9668Y19459D01*
G01X9031Y19459D01*
G37*
G36*
G01X10031Y19459D02*
G01X10031Y20540D01*
G01X10668Y20540D01*
G01X10668Y19459D01*
G01X10031Y19459D01*
G37*
G36*
G01X11031Y19459D02*
G01X11031Y20540D01*
G01X11668Y20540D01*
G01X11668Y19459D01*
G01X11031Y19459D01*
G37*
G36*
G01X12031Y19459D02*
G01X12031Y20540D01*
G01X12668Y20540D01*
G01X12668Y19459D01*
G01X12031Y19459D01*
G37*
G36*
G01X13031Y19459D02*
G01X13031Y20540D01*
G01X13668Y20540D01*
G01X13668Y19459D01*
G01X13031Y19459D01*
G37*
G36*
G01X14031Y19459D02*
G01X14031Y20540D01*
G01X14668Y20540D01*
G01X14668Y19459D01*
G01X14031Y19459D01*
G37*
G36*
G01X15031Y19459D02*
G01X15031Y20540D01*
G01X15668Y20540D01*
G01X15668Y19459D01*
G01X15031Y19459D01*
G37*
G36*
G01X16031Y19459D02*
G01X16031Y20540D01*
G01X16668Y20540D01*
G01X16668Y19459D01*
G01X16031Y19459D01*
G37*
G36*
G01X17631Y19459D02*
G01X17631Y20540D01*
G01X18268Y20540D01*
G01X18268Y19459D01*
G01X17631Y19459D01*
G37*
G36*
G01X18631Y19459D02*
G01X18631Y20540D01*
G01X19268Y20540D01*
G01X19268Y19459D01*
G01X18631Y19459D01*
G37*
G36*
G01X19631Y19459D02*
G01X19631Y20540D01*
G01X20268Y20540D01*
G01X20268Y19459D01*
G01X19631Y19459D01*
G37*
G36*
G01X20631Y19459D02*
G01X20631Y20540D01*
G01X21268Y20540D01*
G01X21268Y19459D01*
G01X20631Y19459D01*
G37*
G36*
G01X21631Y19459D02*
G01X21631Y20540D01*
G01X22268Y20540D01*
G01X22268Y19459D01*
G01X21631Y19459D01*
G37*
G36*
G01X22631Y19459D02*
G01X22631Y20540D01*
G01X23268Y20540D01*
G01X23268Y19459D01*
G01X22631Y19459D01*
G37*
G36*
G01X23631Y19459D02*
G01X23631Y20540D01*
G01X24268Y20540D01*
G01X24268Y19459D01*
G01X23631Y19459D01*
G37*
G36*
G01X24631Y19459D02*
G01X24631Y20540D01*
G01X25268Y20540D01*
G01X25268Y19459D01*
G01X24631Y19459D01*
G37*
G36*
G01X12631Y457D02*
G01X12631Y1540D01*
G01X13268Y1540D01*
G01X13268Y457D01*
G01X12631Y457D01*
G37*
G36*
G01X13631Y457D02*
G01X13631Y1540D01*
G01X14268Y1540D01*
G01X14268Y457D01*
G01X13631Y457D01*
G37*
G36*
G01X14631Y457D02*
G01X14631Y1540D01*
G01X15268Y1540D01*
G01X15268Y457D01*
G01X14631Y457D01*
G37*
G36*
G01X15631Y457D02*
G01X15631Y1540D01*
G01X16268Y1540D01*
G01X16268Y457D01*
G01X15631Y457D01*
G37*
G36*
G01X16631Y457D02*
G01X16631Y1540D01*
G01X17268Y1540D01*
G01X17268Y457D01*
G01X16631Y457D01*
G37*
G36*
G01X17631Y457D02*
G01X17631Y1540D01*
G01X18268Y1540D01*
G01X18268Y457D01*
G01X17631Y457D01*
G37*
G36*
G01X19631Y457D02*
G01X19631Y1540D01*
G01X20268Y1540D01*
G01X20268Y457D01*
G01X19631Y457D01*
G37*
G36*
G01X20631Y457D02*
G01X20631Y1540D01*
G01X21268Y1540D01*
G01X21268Y457D01*
G01X20631Y457D01*
G37*
G36*
G01X21631Y457D02*
G01X21631Y1540D01*
G01X22268Y1540D01*
G01X22268Y457D01*
G01X21631Y457D01*
G37*
G36*
G01X22631Y457D02*
G01X22631Y1540D01*
G01X23268Y1540D01*
G01X23268Y457D01*
G01X22631Y457D01*
G37*
G36*
G01X23631Y457D02*
G01X23631Y1540D01*
G01X24268Y1540D01*
G01X24268Y457D01*
G01X23631Y457D01*
G37*
G36*
G01X24631Y457D02*
G01X24631Y1540D01*
G01X25268Y1540D01*
G01X25268Y457D01*
G01X24631Y457D01*
G37*
G36*
G01X872Y7571D02*
G01X872Y8128D01*
G01X1428Y8128D01*
G01X1428Y7571D01*
G01X872Y7571D01*
G37*
G36*
G01X4872Y7571D02*
G01X4872Y8128D01*
G01X5428Y8128D01*
G01X5428Y7571D01*
G01X4872Y7571D01*
G37*
G36*
G01X872Y5921D02*
G01X872Y6478D01*
G01X1428Y6478D01*
G01X1428Y5921D01*
G01X872Y5921D01*
G37*
G36*
G01X4872Y5921D02*
G01X4872Y6478D01*
G01X5428Y6478D01*
G01X5428Y5921D01*
G01X4872Y5921D01*
G37*
G36*
G01X872Y4221D02*
G01X872Y4778D01*
G01X1428Y4778D01*
G01X1428Y4221D01*
G01X872Y4221D01*
G37*
G36*
G01X4872Y4221D02*
G01X4872Y4778D01*
G01X5428Y4778D01*
G01X5428Y4221D01*
G01X4872Y4221D01*
G37*
G36*
G01X19072Y7871D02*
G01X19072Y8428D01*
G01X19628Y8428D01*
G01X19628Y7871D01*
G01X19072Y7871D01*
G37*
G36*
G01X19072Y11871D02*
G01X19072Y12428D01*
G01X19628Y12428D01*
G01X19628Y11871D01*
G01X19072Y11871D01*
G37*
G36*
G01X872Y9271D02*
G01X872Y9828D01*
G01X1428Y9828D01*
G01X1428Y9271D01*
G01X872Y9271D01*
G37*
G36*
G01X4872Y9271D02*
G01X4872Y9828D01*
G01X5428Y9828D01*
G01X5428Y9271D01*
G01X4872Y9271D01*
G37*
G36*
G01X20972Y7871D02*
G01X20972Y8428D01*
G01X21528Y8428D01*
G01X21528Y7871D01*
G01X20972Y7871D01*
G37*
G36*
G01X20972Y11871D02*
G01X20972Y12428D01*
G01X21528Y12428D01*
G01X21528Y11871D01*
G01X20972Y11871D01*
G37*
G36*
G01X22922Y7871D02*
G01X22922Y8428D01*
G01X23478Y8428D01*
G01X23478Y7871D01*
G01X22922Y7871D01*
G37*
G36*
G01X22922Y11871D02*
G01X22922Y12428D01*
G01X23478Y12428D01*
G01X23478Y11871D01*
G01X22922Y11871D01*
G37*
G36*
G01X19072Y2621D02*
G01X19072Y3178D01*
G01X19628Y3178D01*
G01X19628Y2621D01*
G01X19072Y2621D01*
G37*
G36*
G01X19072Y6621D02*
G01X19072Y7178D01*
G01X19628Y7178D01*
G01X19628Y6621D01*
G01X19072Y6621D01*
G37*
G36*
G01X21022Y2621D02*
G01X21022Y3178D01*
G01X21578Y3178D01*
G01X21578Y2621D01*
G01X21022Y2621D01*
G37*
G36*
G01X21022Y6621D02*
G01X21022Y7178D01*
G01X21578Y7178D01*
G01X21578Y6621D01*
G01X21022Y6621D01*
G37*
G36*
G01X22972Y2621D02*
G01X22972Y3178D01*
G01X23528Y3178D01*
G01X23528Y2621D01*
G01X22972Y2621D01*
G37*
G36*
G01X22972Y6621D02*
G01X22972Y7178D01*
G01X23528Y7178D01*
G01X23528Y6621D01*
G01X22972Y6621D01*
G37*
G36*
G01X24922Y2621D02*
G01X24922Y3178D01*
G01X25478Y3178D01*
G01X25478Y2621D01*
G01X24922Y2621D01*
G37*
G36*
G01X24922Y6621D02*
G01X24922Y7178D01*
G01X25478Y7178D01*
G01X25478Y6621D01*
G01X24922Y6621D01*
G37*
G54D33*
G01X12150Y4790D03*
G01X10150Y4790D03*
G01X11150Y5909D03*
G54D41*
G01X3311Y20100D03*
G01X950Y20100D03*
G01X3311Y18525D03*
G01X950Y18525D03*
G54D42*
G01X2069Y14600D03*
G01X4630Y14600D03*
G01X14160Y4200D03*
G01X15739Y4200D03*
G54D43*
G01X9127Y17150D03*
G01X10072Y17150D03*
G01X9127Y15000D03*
G01X10072Y15000D03*
G01X10877Y13450D03*
G01X11822Y13450D03*
G01X13127Y13450D03*
G01X14072Y13450D03*
G01X15377Y13450D03*
G01X16322Y13450D03*
G01X927Y1350D03*
G01X1872Y1350D03*
G54D44*
G01X4300Y1300D03*
G01X3709Y1300D03*
M00*
M02*
