G04 Layer: BottomLayer*
G04 EasyEDA v6.4.7, 2020-11-04T13:22:21+08:00*
G04 c75b3099a9074dceb9129db7a55e819f,07195eaca447455c8232cfd30933a766,10*
G04 Gerber Generator version 0.2*
G04 Scale: 100 percent, Rotated: No, Reflected: No *
G04 Dimensions in inches *
G04 leading zeros omitted , absolute positions ,2 integer and 4 decimal *
%FSLAX24Y24*%
%MOIN*%
G90*
D02*

%ADD10C,0.010000*%
%ADD11C,0.024000*%
%ADD13C,0.047200*%
%ADD14C,0.070000*%
%ADD15C,0.070866*%
%ADD17C,0.078740*%
%ADD18C,0.062000*%
%ADD19R,0.062000X0.062000*%
%ADD21R,0.047700X0.047700*%
%ADD22C,0.060000*%
%ADD23C,0.074000*%
%ADD24C,0.055120*%
%ADD25C,0.039370*%

%LPD*%
G36*
G01X25347Y20898D02*
G01X1002Y20898D01*
G01X990Y20894D01*
G01X984Y20891D01*
G01X108Y20015D01*
G01X102Y20003D01*
G01X101Y19997D01*
G01X101Y1000D01*
G01X102Y994D01*
G01X105Y988D01*
G01X111Y978D01*
G01X931Y113D01*
G01X936Y109D01*
G01X942Y105D01*
G01X947Y103D01*
G01X954Y101D01*
G01X25864Y101D01*
G01X25870Y102D01*
G01X25875Y104D01*
G01X25885Y110D01*
G01X25889Y114D01*
G01X25895Y124D01*
G01X25897Y129D01*
G01X25898Y135D01*
G01X25898Y1000D01*
G01X25899Y1009D01*
G01X25903Y1029D01*
G01X25906Y1038D01*
G01X25910Y1047D01*
G01X25915Y1056D01*
G01X25922Y1063D01*
G01X25928Y1071D01*
G01X26891Y2034D01*
G01X26897Y2046D01*
G01X26898Y2052D01*
G01X26898Y14847D01*
G01X26897Y14853D01*
G01X26891Y14865D01*
G01X25928Y15828D01*
G01X25922Y15836D01*
G01X25915Y15843D01*
G01X25910Y15852D01*
G01X25906Y15861D01*
G01X25903Y15870D01*
G01X25899Y15890D01*
G01X25898Y15900D01*
G01X25898Y20347D01*
G01X25897Y20353D01*
G01X25891Y20365D01*
G01X25365Y20891D01*
G01X25359Y20894D01*
G01X25347Y20898D01*
G37*

%LPC*%
G36*
G01X16785Y724D02*
G01X16569Y724D01*
G01X16569Y498D01*
G01X16570Y489D01*
G01X16571Y479D01*
G01X16573Y470D01*
G01X16576Y461D01*
G01X16580Y453D01*
G01X16590Y437D01*
G01X16602Y423D01*
G01X16610Y417D01*
G01X16617Y412D01*
G01X16626Y407D01*
G01X16634Y404D01*
G01X16643Y401D01*
G01X16661Y397D01*
G01X16785Y397D01*
G01X16785Y724D01*
G37*
G36*
G01X17329Y724D02*
G01X17114Y724D01*
G01X17114Y397D01*
G01X17237Y397D01*
G01X17247Y399D01*
G01X17256Y401D01*
G01X17264Y404D01*
G01X17273Y407D01*
G01X17289Y417D01*
G01X17296Y423D01*
G01X17303Y430D01*
G01X17309Y437D01*
G01X17314Y445D01*
G01X17322Y461D01*
G01X17325Y470D01*
G01X17327Y479D01*
G01X17329Y489D01*
G01X17329Y724D01*
G37*
G36*
G01X15785Y724D02*
G01X15569Y724D01*
G01X15569Y498D01*
G01X15570Y489D01*
G01X15571Y479D01*
G01X15573Y470D01*
G01X15576Y461D01*
G01X15580Y453D01*
G01X15590Y437D01*
G01X15602Y423D01*
G01X15610Y417D01*
G01X15617Y412D01*
G01X15626Y407D01*
G01X15634Y404D01*
G01X15643Y401D01*
G01X15661Y397D01*
G01X15785Y397D01*
G01X15785Y724D01*
G37*
G36*
G01X16329Y724D02*
G01X16114Y724D01*
G01X16114Y397D01*
G01X16237Y397D01*
G01X16247Y399D01*
G01X16256Y401D01*
G01X16264Y404D01*
G01X16273Y407D01*
G01X16289Y417D01*
G01X16296Y423D01*
G01X16303Y430D01*
G01X16309Y437D01*
G01X16314Y445D01*
G01X16322Y461D01*
G01X16325Y470D01*
G01X16327Y479D01*
G01X16329Y489D01*
G01X16329Y724D01*
G37*
G36*
G01X20228Y1602D02*
G01X19671Y1602D01*
G01X19661Y1601D01*
G01X19652Y1600D01*
G01X19643Y1598D01*
G01X19634Y1595D01*
G01X19626Y1591D01*
G01X19617Y1587D01*
G01X19610Y1582D01*
G01X19602Y1576D01*
G01X19590Y1562D01*
G01X19580Y1546D01*
G01X19576Y1538D01*
G01X19573Y1528D01*
G01X19571Y1519D01*
G01X19569Y1501D01*
G01X19569Y498D01*
G01X19570Y489D01*
G01X19571Y479D01*
G01X19573Y470D01*
G01X19576Y461D01*
G01X19580Y453D01*
G01X19590Y437D01*
G01X19602Y423D01*
G01X19610Y417D01*
G01X19617Y412D01*
G01X19626Y407D01*
G01X19634Y404D01*
G01X19643Y401D01*
G01X19661Y397D01*
G01X20237Y397D01*
G01X20247Y399D01*
G01X20256Y401D01*
G01X20264Y404D01*
G01X20273Y407D01*
G01X20289Y417D01*
G01X20296Y423D01*
G01X20303Y430D01*
G01X20309Y437D01*
G01X20314Y445D01*
G01X20322Y461D01*
G01X20325Y470D01*
G01X20327Y479D01*
G01X20329Y489D01*
G01X20329Y1510D01*
G01X20325Y1528D01*
G01X20322Y1538D01*
G01X20314Y1554D01*
G01X20309Y1562D01*
G01X20303Y1569D01*
G01X20296Y1576D01*
G01X20289Y1582D01*
G01X20281Y1587D01*
G01X20273Y1591D01*
G01X20264Y1595D01*
G01X20256Y1598D01*
G01X20247Y1600D01*
G01X20237Y1601D01*
G01X20228Y1602D01*
G37*
G36*
G01X23228Y1602D02*
G01X22671Y1602D01*
G01X22661Y1601D01*
G01X22652Y1600D01*
G01X22643Y1598D01*
G01X22634Y1595D01*
G01X22626Y1591D01*
G01X22617Y1587D01*
G01X22610Y1582D01*
G01X22602Y1576D01*
G01X22590Y1562D01*
G01X22580Y1546D01*
G01X22576Y1538D01*
G01X22573Y1528D01*
G01X22571Y1519D01*
G01X22569Y1501D01*
G01X22569Y498D01*
G01X22570Y489D01*
G01X22571Y479D01*
G01X22573Y470D01*
G01X22576Y461D01*
G01X22580Y453D01*
G01X22590Y437D01*
G01X22602Y423D01*
G01X22610Y417D01*
G01X22617Y412D01*
G01X22626Y407D01*
G01X22634Y404D01*
G01X22643Y401D01*
G01X22661Y397D01*
G01X23237Y397D01*
G01X23247Y399D01*
G01X23256Y401D01*
G01X23264Y404D01*
G01X23273Y407D01*
G01X23289Y417D01*
G01X23296Y423D01*
G01X23303Y430D01*
G01X23309Y437D01*
G01X23314Y445D01*
G01X23322Y461D01*
G01X23325Y470D01*
G01X23327Y479D01*
G01X23329Y489D01*
G01X23329Y1510D01*
G01X23325Y1528D01*
G01X23322Y1538D01*
G01X23314Y1554D01*
G01X23309Y1562D01*
G01X23303Y1569D01*
G01X23296Y1576D01*
G01X23289Y1582D01*
G01X23281Y1587D01*
G01X23273Y1591D01*
G01X23264Y1595D01*
G01X23256Y1598D01*
G01X23247Y1600D01*
G01X23237Y1601D01*
G01X23228Y1602D01*
G37*
G36*
G01X21228Y1602D02*
G01X20671Y1602D01*
G01X20661Y1601D01*
G01X20652Y1600D01*
G01X20643Y1598D01*
G01X20634Y1595D01*
G01X20626Y1591D01*
G01X20617Y1587D01*
G01X20610Y1582D01*
G01X20602Y1576D01*
G01X20590Y1562D01*
G01X20580Y1546D01*
G01X20576Y1538D01*
G01X20573Y1528D01*
G01X20571Y1519D01*
G01X20569Y1501D01*
G01X20569Y498D01*
G01X20570Y489D01*
G01X20571Y479D01*
G01X20573Y470D01*
G01X20576Y461D01*
G01X20580Y453D01*
G01X20590Y437D01*
G01X20602Y423D01*
G01X20610Y417D01*
G01X20617Y412D01*
G01X20626Y407D01*
G01X20634Y404D01*
G01X20643Y401D01*
G01X20661Y397D01*
G01X21237Y397D01*
G01X21247Y399D01*
G01X21256Y401D01*
G01X21264Y404D01*
G01X21273Y407D01*
G01X21289Y417D01*
G01X21296Y423D01*
G01X21303Y430D01*
G01X21309Y437D01*
G01X21314Y445D01*
G01X21322Y461D01*
G01X21325Y470D01*
G01X21327Y479D01*
G01X21329Y489D01*
G01X21329Y1510D01*
G01X21325Y1528D01*
G01X21322Y1538D01*
G01X21314Y1554D01*
G01X21309Y1562D01*
G01X21303Y1569D01*
G01X21296Y1576D01*
G01X21289Y1582D01*
G01X21281Y1587D01*
G01X21273Y1591D01*
G01X21264Y1595D01*
G01X21256Y1598D01*
G01X21247Y1600D01*
G01X21237Y1601D01*
G01X21228Y1602D01*
G37*
G36*
G01X18228Y1602D02*
G01X17671Y1602D01*
G01X17661Y1601D01*
G01X17652Y1600D01*
G01X17643Y1598D01*
G01X17634Y1595D01*
G01X17626Y1591D01*
G01X17617Y1587D01*
G01X17610Y1582D01*
G01X17602Y1576D01*
G01X17590Y1562D01*
G01X17580Y1546D01*
G01X17576Y1538D01*
G01X17573Y1528D01*
G01X17571Y1519D01*
G01X17569Y1501D01*
G01X17569Y498D01*
G01X17570Y489D01*
G01X17571Y479D01*
G01X17573Y470D01*
G01X17576Y461D01*
G01X17580Y453D01*
G01X17590Y437D01*
G01X17602Y423D01*
G01X17610Y417D01*
G01X17617Y412D01*
G01X17626Y407D01*
G01X17634Y404D01*
G01X17643Y401D01*
G01X17661Y397D01*
G01X18237Y397D01*
G01X18247Y399D01*
G01X18256Y401D01*
G01X18264Y404D01*
G01X18273Y407D01*
G01X18289Y417D01*
G01X18296Y423D01*
G01X18303Y430D01*
G01X18309Y437D01*
G01X18314Y445D01*
G01X18322Y461D01*
G01X18325Y470D01*
G01X18327Y479D01*
G01X18329Y489D01*
G01X18329Y1510D01*
G01X18325Y1528D01*
G01X18322Y1538D01*
G01X18314Y1554D01*
G01X18309Y1562D01*
G01X18303Y1569D01*
G01X18296Y1576D01*
G01X18289Y1582D01*
G01X18281Y1587D01*
G01X18273Y1591D01*
G01X18264Y1595D01*
G01X18256Y1598D01*
G01X18247Y1600D01*
G01X18237Y1601D01*
G01X18228Y1602D01*
G37*
G36*
G01X22228Y1602D02*
G01X21671Y1602D01*
G01X21661Y1601D01*
G01X21652Y1600D01*
G01X21643Y1598D01*
G01X21634Y1595D01*
G01X21626Y1591D01*
G01X21617Y1587D01*
G01X21610Y1582D01*
G01X21602Y1576D01*
G01X21590Y1562D01*
G01X21580Y1546D01*
G01X21576Y1538D01*
G01X21573Y1528D01*
G01X21571Y1519D01*
G01X21569Y1501D01*
G01X21569Y498D01*
G01X21570Y489D01*
G01X21571Y479D01*
G01X21573Y470D01*
G01X21576Y461D01*
G01X21580Y453D01*
G01X21590Y437D01*
G01X21602Y423D01*
G01X21610Y417D01*
G01X21617Y412D01*
G01X21626Y407D01*
G01X21634Y404D01*
G01X21643Y401D01*
G01X21661Y397D01*
G01X22237Y397D01*
G01X22247Y399D01*
G01X22256Y401D01*
G01X22264Y404D01*
G01X22273Y407D01*
G01X22289Y417D01*
G01X22296Y423D01*
G01X22303Y430D01*
G01X22309Y437D01*
G01X22314Y445D01*
G01X22322Y461D01*
G01X22325Y470D01*
G01X22327Y479D01*
G01X22329Y489D01*
G01X22329Y1510D01*
G01X22325Y1528D01*
G01X22322Y1538D01*
G01X22314Y1554D01*
G01X22309Y1562D01*
G01X22303Y1569D01*
G01X22296Y1576D01*
G01X22289Y1582D01*
G01X22281Y1587D01*
G01X22273Y1591D01*
G01X22264Y1595D01*
G01X22256Y1598D01*
G01X22247Y1600D01*
G01X22237Y1601D01*
G01X22228Y1602D01*
G37*
G36*
G01X14228Y1602D02*
G01X13671Y1602D01*
G01X13661Y1601D01*
G01X13652Y1600D01*
G01X13643Y1598D01*
G01X13634Y1595D01*
G01X13626Y1591D01*
G01X13617Y1587D01*
G01X13610Y1582D01*
G01X13602Y1576D01*
G01X13590Y1562D01*
G01X13580Y1546D01*
G01X13576Y1538D01*
G01X13573Y1528D01*
G01X13571Y1519D01*
G01X13569Y1501D01*
G01X13569Y498D01*
G01X13570Y489D01*
G01X13571Y479D01*
G01X13573Y470D01*
G01X13576Y461D01*
G01X13580Y453D01*
G01X13590Y437D01*
G01X13602Y423D01*
G01X13610Y417D01*
G01X13617Y412D01*
G01X13626Y407D01*
G01X13634Y404D01*
G01X13643Y401D01*
G01X13661Y397D01*
G01X14237Y397D01*
G01X14247Y399D01*
G01X14256Y401D01*
G01X14264Y404D01*
G01X14273Y407D01*
G01X14289Y417D01*
G01X14296Y423D01*
G01X14303Y430D01*
G01X14309Y437D01*
G01X14314Y445D01*
G01X14322Y461D01*
G01X14325Y470D01*
G01X14327Y479D01*
G01X14329Y489D01*
G01X14329Y1510D01*
G01X14325Y1528D01*
G01X14322Y1538D01*
G01X14314Y1554D01*
G01X14309Y1562D01*
G01X14303Y1569D01*
G01X14296Y1576D01*
G01X14289Y1582D01*
G01X14281Y1587D01*
G01X14273Y1591D01*
G01X14264Y1595D01*
G01X14256Y1598D01*
G01X14247Y1600D01*
G01X14237Y1601D01*
G01X14228Y1602D01*
G37*
G36*
G01X24228Y1602D02*
G01X23671Y1602D01*
G01X23661Y1601D01*
G01X23652Y1600D01*
G01X23643Y1598D01*
G01X23634Y1595D01*
G01X23626Y1591D01*
G01X23617Y1587D01*
G01X23610Y1582D01*
G01X23602Y1576D01*
G01X23590Y1562D01*
G01X23580Y1546D01*
G01X23576Y1538D01*
G01X23573Y1528D01*
G01X23571Y1519D01*
G01X23569Y1501D01*
G01X23569Y498D01*
G01X23570Y489D01*
G01X23571Y479D01*
G01X23573Y470D01*
G01X23576Y461D01*
G01X23580Y453D01*
G01X23590Y437D01*
G01X23602Y423D01*
G01X23610Y417D01*
G01X23617Y412D01*
G01X23626Y407D01*
G01X23634Y404D01*
G01X23643Y401D01*
G01X23661Y397D01*
G01X24237Y397D01*
G01X24247Y399D01*
G01X24256Y401D01*
G01X24264Y404D01*
G01X24273Y407D01*
G01X24289Y417D01*
G01X24296Y423D01*
G01X24303Y430D01*
G01X24309Y437D01*
G01X24314Y445D01*
G01X24322Y461D01*
G01X24325Y470D01*
G01X24327Y479D01*
G01X24329Y489D01*
G01X24329Y1510D01*
G01X24325Y1528D01*
G01X24322Y1538D01*
G01X24314Y1554D01*
G01X24309Y1562D01*
G01X24303Y1569D01*
G01X24296Y1576D01*
G01X24289Y1582D01*
G01X24281Y1587D01*
G01X24273Y1591D01*
G01X24264Y1595D01*
G01X24256Y1598D01*
G01X24247Y1600D01*
G01X24237Y1601D01*
G01X24228Y1602D01*
G37*
G36*
G01X25228Y1602D02*
G01X24671Y1602D01*
G01X24661Y1601D01*
G01X24652Y1600D01*
G01X24643Y1598D01*
G01X24634Y1595D01*
G01X24626Y1591D01*
G01X24617Y1587D01*
G01X24610Y1582D01*
G01X24602Y1576D01*
G01X24590Y1562D01*
G01X24580Y1546D01*
G01X24576Y1538D01*
G01X24573Y1528D01*
G01X24571Y1519D01*
G01X24569Y1501D01*
G01X24569Y498D01*
G01X24570Y489D01*
G01X24571Y479D01*
G01X24573Y470D01*
G01X24576Y461D01*
G01X24580Y453D01*
G01X24590Y437D01*
G01X24602Y423D01*
G01X24610Y417D01*
G01X24617Y412D01*
G01X24626Y407D01*
G01X24634Y404D01*
G01X24643Y401D01*
G01X24661Y397D01*
G01X25237Y397D01*
G01X25247Y399D01*
G01X25256Y401D01*
G01X25264Y404D01*
G01X25273Y407D01*
G01X25289Y417D01*
G01X25296Y423D01*
G01X25303Y430D01*
G01X25309Y437D01*
G01X25314Y445D01*
G01X25322Y461D01*
G01X25325Y470D01*
G01X25327Y479D01*
G01X25329Y489D01*
G01X25329Y1510D01*
G01X25325Y1528D01*
G01X25322Y1538D01*
G01X25314Y1554D01*
G01X25309Y1562D01*
G01X25303Y1569D01*
G01X25296Y1576D01*
G01X25289Y1582D01*
G01X25281Y1587D01*
G01X25273Y1591D01*
G01X25264Y1595D01*
G01X25256Y1598D01*
G01X25247Y1600D01*
G01X25237Y1601D01*
G01X25228Y1602D01*
G37*
G36*
G01X14198Y4669D02*
G01X14160Y4671D01*
G01X14140Y4670D01*
G01X14121Y4669D01*
G01X14101Y4667D01*
G01X14063Y4661D01*
G01X14025Y4651D01*
G01X14006Y4645D01*
G01X13970Y4631D01*
G01X13953Y4623D01*
G01X13935Y4614D01*
G01X13918Y4604D01*
G01X13902Y4594D01*
G01X13886Y4583D01*
G01X13870Y4571D01*
G01X13855Y4559D01*
G01X13840Y4546D01*
G01X13827Y4532D01*
G01X13813Y4519D01*
G01X13800Y4504D01*
G01X13788Y4489D01*
G01X13776Y4473D01*
G01X13765Y4457D01*
G01X13755Y4440D01*
G01X13745Y4424D01*
G01X13736Y4406D01*
G01X13728Y4389D01*
G01X13714Y4353D01*
G01X13708Y4334D01*
G01X13698Y4296D01*
G01X13692Y4258D01*
G01X13690Y4238D01*
G01X13689Y4219D01*
G01X13689Y4180D01*
G01X13690Y4159D01*
G01X13692Y4140D01*
G01X13695Y4120D01*
G01X13699Y4100D01*
G01X13709Y4062D01*
G01X13715Y4043D01*
G01X13722Y4024D01*
G01X13730Y4006D01*
G01X13748Y3970D01*
G01X13758Y3953D01*
G01X13769Y3936D01*
G01X13793Y3904D01*
G01X13806Y3888D01*
G01X13819Y3874D01*
G01X13833Y3860D01*
G01X13848Y3846D01*
G01X13863Y3833D01*
G01X13879Y3821D01*
G01X13896Y3809D01*
G01X13912Y3799D01*
G01X13930Y3788D01*
G01X13947Y3779D01*
G01X13965Y3771D01*
G01X13984Y3763D01*
G01X13994Y3757D01*
G01X13998Y3753D01*
G01X14002Y3748D01*
G01X14005Y3743D01*
G01X14007Y3737D01*
G01X14008Y3732D01*
G01X14009Y3726D01*
G01X14009Y2390D01*
G01X14010Y2378D01*
G01X14013Y2366D01*
G01X14016Y2355D01*
G01X14020Y2344D01*
G01X14025Y2333D01*
G01X14037Y2313D01*
G01X14045Y2303D01*
G01X14679Y1669D01*
G01X14683Y1664D01*
G01X14686Y1659D01*
G01X14689Y1653D01*
G01X14690Y1647D01*
G01X14690Y1635D01*
G01X14689Y1629D01*
G01X14687Y1624D01*
G01X14681Y1614D01*
G01X14677Y1610D01*
G01X14667Y1604D01*
G01X14662Y1602D01*
G01X14656Y1601D01*
G01X14647Y1599D01*
G01X14639Y1597D01*
G01X14630Y1594D01*
G01X14622Y1590D01*
G01X14614Y1585D01*
G01X14607Y1580D01*
G01X14600Y1574D01*
G01X14594Y1567D01*
G01X14584Y1553D01*
G01X14580Y1544D01*
G01X14576Y1536D01*
G01X14573Y1528D01*
G01X14571Y1519D01*
G01X14569Y1501D01*
G01X14569Y498D01*
G01X14570Y489D01*
G01X14571Y479D01*
G01X14573Y470D01*
G01X14576Y461D01*
G01X14580Y453D01*
G01X14590Y437D01*
G01X14602Y423D01*
G01X14610Y417D01*
G01X14617Y412D01*
G01X14626Y407D01*
G01X14634Y404D01*
G01X14643Y401D01*
G01X14661Y397D01*
G01X15237Y397D01*
G01X15247Y399D01*
G01X15256Y401D01*
G01X15264Y404D01*
G01X15273Y407D01*
G01X15289Y417D01*
G01X15296Y423D01*
G01X15303Y430D01*
G01X15309Y437D01*
G01X15314Y445D01*
G01X15322Y461D01*
G01X15325Y470D01*
G01X15327Y479D01*
G01X15329Y489D01*
G01X15329Y1510D01*
G01X15325Y1528D01*
G01X15322Y1538D01*
G01X15314Y1554D01*
G01X15309Y1562D01*
G01X15303Y1569D01*
G01X15296Y1576D01*
G01X15289Y1582D01*
G01X15281Y1587D01*
G01X15273Y1591D01*
G01X15264Y1595D01*
G01X15256Y1598D01*
G01X15247Y1600D01*
G01X15237Y1601D01*
G01X15228Y1602D01*
G01X15138Y1602D01*
G01X15126Y1604D01*
G01X15120Y1606D01*
G01X15114Y1609D01*
G01X15110Y1614D01*
G01X15106Y1618D01*
G01X15102Y1624D01*
G01X15098Y1636D01*
G01X15096Y1647D01*
G01X15093Y1659D01*
G01X15089Y1669D01*
G01X15084Y1680D01*
G01X15072Y1700D01*
G01X15064Y1710D01*
G01X14322Y2452D01*
G01X14318Y2457D01*
G01X14315Y2463D01*
G01X14313Y2468D01*
G01X14311Y2474D01*
G01X14310Y2481D01*
G01X14310Y3726D01*
G01X14311Y3732D01*
G01X14312Y3737D01*
G01X14314Y3743D01*
G01X14317Y3748D01*
G01X14321Y3753D01*
G01X14325Y3757D01*
G01X14335Y3763D01*
G01X14354Y3771D01*
G01X14372Y3779D01*
G01X14389Y3788D01*
G01X14407Y3799D01*
G01X14423Y3809D01*
G01X14440Y3821D01*
G01X14456Y3833D01*
G01X14471Y3846D01*
G01X14486Y3860D01*
G01X14500Y3874D01*
G01X14513Y3888D01*
G01X14526Y3904D01*
G01X14550Y3936D01*
G01X14561Y3953D01*
G01X14571Y3970D01*
G01X14589Y4006D01*
G01X14597Y4024D01*
G01X14604Y4043D01*
G01X14610Y4062D01*
G01X14620Y4100D01*
G01X14624Y4120D01*
G01X14627Y4140D01*
G01X14629Y4159D01*
G01X14630Y4180D01*
G01X14631Y4200D01*
G01X14629Y4238D01*
G01X14627Y4258D01*
G01X14621Y4296D01*
G01X14611Y4334D01*
G01X14605Y4353D01*
G01X14591Y4389D01*
G01X14583Y4406D01*
G01X14574Y4424D01*
G01X14564Y4440D01*
G01X14554Y4457D01*
G01X14543Y4473D01*
G01X14531Y4489D01*
G01X14519Y4504D01*
G01X14506Y4519D01*
G01X14493Y4532D01*
G01X14478Y4546D01*
G01X14464Y4559D01*
G01X14449Y4571D01*
G01X14433Y4583D01*
G01X14417Y4594D01*
G01X14401Y4604D01*
G01X14384Y4614D01*
G01X14366Y4623D01*
G01X14349Y4631D01*
G01X14313Y4645D01*
G01X14294Y4651D01*
G01X14256Y4661D01*
G01X14218Y4667D01*
G01X14198Y4669D01*
G37*
G36*
G01X15702Y20763D02*
G01X14350Y20763D01*
G01X14338Y20762D01*
G01X14327Y20761D01*
G01X14316Y20759D01*
G01X14305Y20756D01*
G01X14295Y20752D01*
G01X14284Y20748D01*
G01X14274Y20742D01*
G01X14256Y20730D01*
G01X14247Y20723D01*
G01X14239Y20715D01*
G01X14225Y20697D01*
G01X14219Y20688D01*
G01X14209Y20668D01*
G01X14206Y20657D01*
G01X14202Y20646D01*
G01X14200Y20635D01*
G01X14199Y20630D01*
G01X14197Y20625D01*
G01X14194Y20619D01*
G01X14191Y20615D01*
G01X14187Y20611D01*
G01X14177Y20605D01*
G01X14172Y20603D01*
G01X14167Y20602D01*
G01X14071Y20602D01*
G01X14062Y20601D01*
G01X14052Y20600D01*
G01X14043Y20598D01*
G01X14035Y20595D01*
G01X14026Y20591D01*
G01X14010Y20581D01*
G01X13996Y20569D01*
G01X13990Y20561D01*
G01X13985Y20554D01*
G01X13981Y20546D01*
G01X13977Y20537D01*
G01X13974Y20528D01*
G01X13972Y20519D01*
G01X13970Y20501D01*
G01X13970Y19578D01*
G01X13969Y19573D01*
G01X13968Y19567D01*
G01X13964Y19557D01*
G01X13960Y19552D01*
G01X13956Y19548D01*
G01X13952Y19545D01*
G01X13947Y19542D01*
G01X13941Y19540D01*
G01X13936Y19539D01*
G01X13930Y19538D01*
G01X13903Y19538D01*
G01X13891Y19537D01*
G01X13879Y19534D01*
G01X13868Y19531D01*
G01X13857Y19527D01*
G01X13846Y19522D01*
G01X13826Y19510D01*
G01X13808Y19494D01*
G01X13797Y19484D01*
G01X13793Y19480D01*
G01X13781Y19474D01*
G01X13769Y19472D01*
G01X13763Y19473D01*
G01X13758Y19474D01*
G01X13752Y19476D01*
G01X13747Y19478D01*
G01X13735Y19490D01*
G01X13733Y19496D01*
G01X13731Y19501D01*
G01X13730Y19507D01*
G01X13729Y19512D01*
G01X13729Y20501D01*
G01X13727Y20519D01*
G01X13725Y20528D01*
G01X13722Y20537D01*
G01X13718Y20546D01*
G01X13714Y20554D01*
G01X13709Y20561D01*
G01X13703Y20569D01*
G01X13689Y20581D01*
G01X13673Y20591D01*
G01X13664Y20595D01*
G01X13656Y20598D01*
G01X13647Y20600D01*
G01X13637Y20601D01*
G01X13628Y20602D01*
G01X13071Y20602D01*
G01X13062Y20601D01*
G01X13052Y20600D01*
G01X13043Y20598D01*
G01X13035Y20595D01*
G01X13026Y20591D01*
G01X13010Y20581D01*
G01X12996Y20569D01*
G01X12990Y20561D01*
G01X12985Y20554D01*
G01X12981Y20546D01*
G01X12977Y20537D01*
G01X12974Y20528D01*
G01X12972Y20519D01*
G01X12970Y20501D01*
G01X12970Y19498D01*
G01X12972Y19480D01*
G01X12974Y19471D01*
G01X12977Y19462D01*
G01X12981Y19453D01*
G01X12985Y19445D01*
G01X12990Y19438D01*
G01X12996Y19430D01*
G01X13010Y19418D01*
G01X13026Y19408D01*
G01X13035Y19404D01*
G01X13043Y19401D01*
G01X13052Y19399D01*
G01X13062Y19398D01*
G01X13159Y19398D01*
G01X13164Y19397D01*
G01X13170Y19396D01*
G01X13175Y19394D01*
G01X13185Y19388D01*
G01X13189Y19384D01*
G01X13195Y19374D01*
G01X13197Y19369D01*
G01X13198Y19363D01*
G01X13198Y19175D01*
G01X13197Y19169D01*
G01X13194Y19163D01*
G01X13191Y19158D01*
G01X13187Y19153D01*
G01X12569Y18536D01*
G01X12559Y18528D01*
G01X12547Y18524D01*
G01X12535Y18524D01*
G01X12529Y18526D01*
G01X12519Y18530D01*
G01X12514Y18534D01*
G01X12510Y18538D01*
G01X12507Y18542D01*
G01X12504Y18547D01*
G01X12502Y18553D01*
G01X12501Y18558D01*
G01X12501Y19363D01*
G01X12502Y19369D01*
G01X12504Y19374D01*
G01X12510Y19384D01*
G01X12514Y19388D01*
G01X12524Y19394D01*
G01X12529Y19396D01*
G01X12535Y19397D01*
G01X12540Y19398D01*
G01X12637Y19398D01*
G01X12647Y19399D01*
G01X12656Y19401D01*
G01X12664Y19404D01*
G01X12673Y19408D01*
G01X12689Y19418D01*
G01X12703Y19430D01*
G01X12709Y19438D01*
G01X12714Y19445D01*
G01X12718Y19453D01*
G01X12722Y19462D01*
G01X12725Y19471D01*
G01X12727Y19480D01*
G01X12729Y19498D01*
G01X12729Y20501D01*
G01X12727Y20519D01*
G01X12725Y20528D01*
G01X12722Y20537D01*
G01X12718Y20546D01*
G01X12714Y20554D01*
G01X12709Y20561D01*
G01X12703Y20569D01*
G01X12689Y20581D01*
G01X12673Y20591D01*
G01X12664Y20595D01*
G01X12656Y20598D01*
G01X12647Y20600D01*
G01X12637Y20601D01*
G01X12628Y20602D01*
G01X12071Y20602D01*
G01X12062Y20601D01*
G01X12052Y20600D01*
G01X12043Y20598D01*
G01X12035Y20595D01*
G01X12026Y20591D01*
G01X12010Y20581D01*
G01X11996Y20569D01*
G01X11990Y20561D01*
G01X11985Y20554D01*
G01X11981Y20546D01*
G01X11977Y20537D01*
G01X11974Y20528D01*
G01X11972Y20519D01*
G01X11970Y20501D01*
G01X11970Y19498D01*
G01X11972Y19480D01*
G01X11974Y19471D01*
G01X11977Y19462D01*
G01X11981Y19453D01*
G01X11985Y19445D01*
G01X11990Y19438D01*
G01X11996Y19430D01*
G01X12010Y19418D01*
G01X12026Y19408D01*
G01X12035Y19404D01*
G01X12043Y19401D01*
G01X12052Y19399D01*
G01X12062Y19398D01*
G01X12159Y19398D01*
G01X12164Y19397D01*
G01X12170Y19396D01*
G01X12175Y19394D01*
G01X12185Y19388D01*
G01X12189Y19384D01*
G01X12195Y19374D01*
G01X12197Y19369D01*
G01X12198Y19363D01*
G01X12198Y18523D01*
G01X12197Y18517D01*
G01X12194Y18511D01*
G01X12191Y18506D01*
G01X12187Y18501D01*
G01X9063Y15378D01*
G01X9057Y15373D01*
G01X9051Y15369D01*
G01X9027Y15363D01*
G01X9010Y15357D01*
G01X8993Y15352D01*
G01X8961Y15338D01*
G01X8946Y15330D01*
G01X8931Y15321D01*
G01X8916Y15311D01*
G01X8888Y15291D01*
G01X8874Y15279D01*
G01X8850Y15255D01*
G01X8838Y15242D01*
G01X8827Y15228D01*
G01X8817Y15213D01*
G01X8807Y15199D01*
G01X8798Y15184D01*
G01X8790Y15169D01*
G01X8782Y15153D01*
G01X8776Y15136D01*
G01X8770Y15120D01*
G01X8764Y15103D01*
G01X8756Y15069D01*
G01X8753Y15052D01*
G01X8752Y15034D01*
G01X8750Y15017D01*
G01X8750Y14982D01*
G01X8752Y14965D01*
G01X8753Y14948D01*
G01X8756Y14930D01*
G01X8764Y14896D01*
G01X8769Y14880D01*
G01X8775Y14863D01*
G01X8782Y14847D01*
G01X8789Y14832D01*
G01X8797Y14816D01*
G01X8806Y14801D01*
G01X8826Y14773D01*
G01X8837Y14759D01*
G01X8848Y14746D01*
G01X8860Y14733D01*
G01X8873Y14721D01*
G01X8886Y14710D01*
G01X8900Y14699D01*
G01X8928Y14679D01*
G01X8943Y14671D01*
G01X8959Y14662D01*
G01X8974Y14655D01*
G01X8990Y14648D01*
G01X9007Y14642D01*
G01X9023Y14637D01*
G01X9057Y14629D01*
G01X9075Y14626D01*
G01X9092Y14625D01*
G01X9109Y14623D01*
G01X9144Y14623D01*
G01X9162Y14625D01*
G01X9179Y14627D01*
G01X9197Y14630D01*
G01X9214Y14633D01*
G01X9248Y14643D01*
G01X9264Y14649D01*
G01X9281Y14656D01*
G01X9297Y14663D01*
G01X9302Y14666D01*
G01X9308Y14667D01*
G01X9315Y14668D01*
G01X9320Y14667D01*
G01X9326Y14666D01*
G01X9331Y14664D01*
G01X9341Y14658D01*
G01X9345Y14654D01*
G01X9348Y14650D01*
G01X9351Y14644D01*
G01X9353Y14639D01*
G01X9354Y14634D01*
G01X9355Y14628D01*
G01X9354Y14621D01*
G01X9353Y14615D01*
G01X9345Y14599D01*
G01X9341Y14588D01*
G01X9335Y14564D01*
G01X9334Y14553D01*
G01X9334Y6100D01*
G01X9333Y6093D01*
G01X9331Y6087D01*
G01X9329Y6082D01*
G01X9326Y6076D01*
G01X9322Y6071D01*
G01X4639Y1388D01*
G01X4634Y1385D01*
G01X4629Y1383D01*
G01X4623Y1381D01*
G01X4618Y1380D01*
G01X4617Y1375D01*
G01X4615Y1369D01*
G01X4613Y1364D01*
G01X4610Y1359D01*
G01X4434Y1183D01*
G01X4428Y1180D01*
G01X4422Y1178D01*
G01X4419Y1171D01*
G01X4416Y1165D01*
G01X4411Y1160D01*
G01X4394Y1142D01*
G01X4389Y1138D01*
G01X4384Y1135D01*
G01X4378Y1132D01*
G01X4372Y1131D01*
G01X4365Y1130D01*
G01X4216Y1130D01*
G01X4210Y1131D01*
G01X4205Y1132D01*
G01X4200Y1134D01*
G01X4194Y1137D01*
G01X4190Y1140D01*
G01X4186Y1144D01*
G01X4182Y1149D01*
G01X4178Y1159D01*
G01X4176Y1171D01*
G01X4176Y1176D01*
G01X4030Y1176D01*
G01X4025Y1178D01*
G01X4019Y1180D01*
G01X4014Y1182D01*
G01X4002Y1194D01*
G01X4000Y1200D01*
G01X3997Y1205D01*
G01X3996Y1210D01*
G01X3996Y1216D01*
G01X3997Y1226D01*
G01X4001Y1244D01*
G01X4004Y1263D01*
G01X4006Y1281D01*
G01X4006Y1318D01*
G01X4004Y1336D01*
G01X4001Y1355D01*
G01X3997Y1373D01*
G01X3996Y1383D01*
G01X3996Y1389D01*
G01X3997Y1394D01*
G01X4000Y1400D01*
G01X4002Y1405D01*
G01X4014Y1417D01*
G01X4019Y1419D01*
G01X4025Y1421D01*
G01X4030Y1423D01*
G01X4176Y1423D01*
G01X4176Y1571D01*
G01X4162Y1564D01*
G01X4148Y1556D01*
G01X4135Y1548D01*
G01X4122Y1538D01*
G01X4109Y1529D01*
G01X4097Y1518D01*
G01X4075Y1496D01*
G01X4065Y1483D01*
G01X4056Y1471D01*
G01X4047Y1457D01*
G01X4039Y1444D01*
G01X4036Y1439D01*
G01X4027Y1430D01*
G01X4022Y1427D01*
G01X4016Y1425D01*
G01X4004Y1423D01*
G01X3992Y1425D01*
G01X3986Y1427D01*
G01X3981Y1430D01*
G01X3972Y1439D01*
G01X3969Y1444D01*
G01X3961Y1457D01*
G01X3952Y1471D01*
G01X3943Y1484D01*
G01X3933Y1496D01*
G01X3922Y1507D01*
G01X3898Y1529D01*
G01X3886Y1539D01*
G01X3873Y1548D01*
G01X3860Y1556D01*
G01X3846Y1564D01*
G01X3831Y1571D01*
G01X3817Y1577D01*
G01X3787Y1587D01*
G01X3772Y1591D01*
G01X3756Y1594D01*
G01X3740Y1596D01*
G01X3724Y1597D01*
G01X3693Y1597D01*
G01X3677Y1596D01*
G01X3662Y1594D01*
G01X3647Y1591D01*
G01X3631Y1587D01*
G01X3617Y1583D01*
G01X3602Y1578D01*
G01X3588Y1572D01*
G01X3573Y1565D01*
G01X3560Y1557D01*
G01X3547Y1550D01*
G01X3534Y1540D01*
G01X3521Y1531D01*
G01X3509Y1521D01*
G01X3487Y1499D01*
G01X3477Y1487D01*
G01X3468Y1475D01*
G01X3459Y1462D01*
G01X3451Y1449D01*
G01X3443Y1435D01*
G01X3436Y1421D01*
G01X3431Y1407D01*
G01X3428Y1401D01*
G01X3425Y1396D01*
G01X3421Y1392D01*
G01X3416Y1388D01*
G01X3411Y1385D01*
G01X3405Y1383D01*
G01X3393Y1381D01*
G01X3381Y1383D01*
G01X3375Y1385D01*
G01X3365Y1393D01*
G01X1312Y3446D01*
G01X1308Y3451D01*
G01X1305Y3457D01*
G01X1302Y3462D01*
G01X1301Y3468D01*
G01X1301Y4126D01*
G01X1302Y4131D01*
G01X1304Y4137D01*
G01X1307Y4142D01*
G01X1310Y4146D01*
G01X1314Y4150D01*
G01X1319Y4154D01*
G01X1329Y4158D01*
G01X1335Y4159D01*
G01X1340Y4160D01*
G01X1388Y4160D01*
G01X1406Y4162D01*
G01X1416Y4164D01*
G01X1425Y4167D01*
G01X1441Y4175D01*
G01X1449Y4180D01*
G01X1456Y4186D01*
G01X1463Y4193D01*
G01X1468Y4200D01*
G01X1474Y4208D01*
G01X1478Y4216D01*
G01X1482Y4225D01*
G01X1485Y4233D01*
G01X1487Y4242D01*
G01X1489Y4252D01*
G01X1489Y4747D01*
G01X1487Y4757D01*
G01X1485Y4766D01*
G01X1482Y4775D01*
G01X1474Y4791D01*
G01X1468Y4799D01*
G01X1463Y4806D01*
G01X1456Y4813D01*
G01X1449Y4819D01*
G01X1441Y4824D01*
G01X1425Y4832D01*
G01X1416Y4835D01*
G01X1406Y4837D01*
G01X1388Y4839D01*
G01X992Y4839D01*
G01X980Y4841D01*
G01X970Y4845D01*
G01X965Y4849D01*
G01X961Y4853D01*
G01X958Y4857D01*
G01X955Y4862D01*
G01X953Y4868D01*
G01X952Y4873D01*
G01X952Y5826D01*
G01X953Y5831D01*
G01X955Y5837D01*
G01X958Y5842D01*
G01X961Y5846D01*
G01X965Y5850D01*
G01X970Y5854D01*
G01X980Y5858D01*
G01X992Y5860D01*
G01X1388Y5860D01*
G01X1406Y5862D01*
G01X1416Y5864D01*
G01X1425Y5867D01*
G01X1441Y5875D01*
G01X1449Y5880D01*
G01X1456Y5886D01*
G01X1463Y5893D01*
G01X1468Y5900D01*
G01X1474Y5908D01*
G01X1478Y5916D01*
G01X1482Y5925D01*
G01X1485Y5933D01*
G01X1487Y5942D01*
G01X1489Y5952D01*
G01X1489Y6447D01*
G01X1487Y6457D01*
G01X1485Y6466D01*
G01X1482Y6475D01*
G01X1474Y6491D01*
G01X1468Y6499D01*
G01X1463Y6506D01*
G01X1456Y6513D01*
G01X1449Y6519D01*
G01X1441Y6524D01*
G01X1425Y6532D01*
G01X1416Y6535D01*
G01X1406Y6537D01*
G01X1388Y6539D01*
G01X992Y6539D01*
G01X980Y6541D01*
G01X970Y6545D01*
G01X965Y6549D01*
G01X961Y6553D01*
G01X958Y6557D01*
G01X955Y6562D01*
G01X953Y6568D01*
G01X952Y6573D01*
G01X952Y7476D01*
G01X953Y7481D01*
G01X955Y7487D01*
G01X958Y7492D01*
G01X961Y7496D01*
G01X965Y7500D01*
G01X970Y7504D01*
G01X980Y7508D01*
G01X992Y7510D01*
G01X1005Y7510D01*
G01X1005Y7705D01*
G01X992Y7705D01*
G01X980Y7707D01*
G01X970Y7711D01*
G01X965Y7715D01*
G01X961Y7719D01*
G01X955Y7729D01*
G01X953Y7734D01*
G01X952Y7740D01*
G01X952Y7959D01*
G01X953Y7965D01*
G01X955Y7970D01*
G01X961Y7980D01*
G01X965Y7984D01*
G01X970Y7988D01*
G01X980Y7992D01*
G01X992Y7994D01*
G01X1005Y7994D01*
G01X1005Y8189D01*
G01X992Y8189D01*
G01X980Y8191D01*
G01X970Y8195D01*
G01X965Y8199D01*
G01X961Y8203D01*
G01X958Y8207D01*
G01X955Y8212D01*
G01X953Y8218D01*
G01X952Y8223D01*
G01X952Y8778D01*
G01X953Y8784D01*
G01X956Y8790D01*
G01X959Y8795D01*
G01X963Y8800D01*
G01X1256Y9094D01*
G01X1272Y9112D01*
G01X1278Y9121D01*
G01X1284Y9132D01*
G01X1289Y9142D01*
G01X1293Y9153D01*
G01X1296Y9165D01*
G01X1298Y9176D01*
G01X1302Y9188D01*
G01X1306Y9194D01*
G01X1314Y9202D01*
G01X1320Y9206D01*
G01X1326Y9208D01*
G01X1338Y9210D01*
G01X1388Y9210D01*
G01X1406Y9212D01*
G01X1416Y9214D01*
G01X1425Y9217D01*
G01X1441Y9225D01*
G01X1449Y9230D01*
G01X1456Y9236D01*
G01X1463Y9243D01*
G01X1468Y9250D01*
G01X1474Y9258D01*
G01X1478Y9266D01*
G01X1482Y9275D01*
G01X1485Y9283D01*
G01X1487Y9292D01*
G01X1489Y9302D01*
G01X1489Y9797D01*
G01X1487Y9807D01*
G01X1485Y9816D01*
G01X1482Y9825D01*
G01X1474Y9841D01*
G01X1468Y9849D01*
G01X1463Y9856D01*
G01X1456Y9863D01*
G01X1449Y9869D01*
G01X1441Y9874D01*
G01X1425Y9882D01*
G01X1416Y9885D01*
G01X1406Y9887D01*
G01X1388Y9889D01*
G01X911Y9889D01*
G01X893Y9887D01*
G01X883Y9885D01*
G01X875Y9882D01*
G01X866Y9878D01*
G01X858Y9874D01*
G01X850Y9869D01*
G01X843Y9863D01*
G01X836Y9856D01*
G01X831Y9849D01*
G01X825Y9841D01*
G01X817Y9825D01*
G01X814Y9816D01*
G01X812Y9807D01*
G01X810Y9797D01*
G01X810Y9302D01*
G01X812Y9292D01*
G01X814Y9284D01*
G01X817Y9275D01*
G01X821Y9266D01*
G01X825Y9258D01*
G01X830Y9251D01*
G01X836Y9243D01*
G01X850Y9231D01*
G01X857Y9226D01*
G01X865Y9221D01*
G01X874Y9217D01*
G01X879Y9215D01*
G01X889Y9207D01*
G01X895Y9197D01*
G01X897Y9192D01*
G01X899Y9186D01*
G01X899Y9174D01*
G01X897Y9167D01*
G01X895Y9162D01*
G01X892Y9156D01*
G01X693Y8957D01*
G01X685Y8948D01*
G01X678Y8939D01*
G01X666Y8919D01*
G01X661Y8908D01*
G01X657Y8897D01*
G01X654Y8886D01*
G01X651Y8874D01*
G01X650Y8862D01*
G01X650Y1620D01*
G01X649Y1613D01*
G01X647Y1606D01*
G01X644Y1600D01*
G01X640Y1594D01*
G01X618Y1566D01*
G01X608Y1551D01*
G01X599Y1536D01*
G01X583Y1504D01*
G01X576Y1488D01*
G01X570Y1471D01*
G01X565Y1455D01*
G01X560Y1437D01*
G01X556Y1420D01*
G01X554Y1403D01*
G01X550Y1367D01*
G01X550Y1332D01*
G01X552Y1315D01*
G01X553Y1298D01*
G01X556Y1280D01*
G01X564Y1246D01*
G01X569Y1230D01*
G01X575Y1213D01*
G01X582Y1197D01*
G01X589Y1182D01*
G01X597Y1166D01*
G01X606Y1151D01*
G01X626Y1123D01*
G01X637Y1109D01*
G01X648Y1096D01*
G01X660Y1083D01*
G01X673Y1071D01*
G01X686Y1060D01*
G01X700Y1049D01*
G01X728Y1029D01*
G01X743Y1021D01*
G01X759Y1012D01*
G01X774Y1005D01*
G01X790Y998D01*
G01X807Y992D01*
G01X823Y987D01*
G01X857Y979D01*
G01X875Y976D01*
G01X892Y975D01*
G01X909Y973D01*
G01X944Y973D01*
G01X961Y975D01*
G01X978Y976D01*
G01X996Y979D01*
G01X1030Y987D01*
G01X1046Y992D01*
G01X1063Y998D01*
G01X1079Y1005D01*
G01X1094Y1012D01*
G01X1110Y1021D01*
G01X1125Y1029D01*
G01X1153Y1049D01*
G01X1167Y1060D01*
G01X1180Y1071D01*
G01X1193Y1083D01*
G01X1205Y1096D01*
G01X1216Y1109D01*
G01X1227Y1123D01*
G01X1247Y1151D01*
G01X1256Y1166D01*
G01X1264Y1182D01*
G01X1271Y1197D01*
G01X1278Y1213D01*
G01X1284Y1230D01*
G01X1289Y1246D01*
G01X1297Y1280D01*
G01X1300Y1298D01*
G01X1302Y1315D01*
G01X1303Y1332D01*
G01X1303Y1367D01*
G01X1302Y1385D01*
G01X1299Y1403D01*
G01X1297Y1420D01*
G01X1293Y1438D01*
G01X1288Y1455D01*
G01X1283Y1471D01*
G01X1277Y1488D01*
G01X1270Y1505D01*
G01X1262Y1521D01*
G01X1235Y1566D01*
G01X1213Y1594D01*
G01X1189Y1620D01*
G01X1176Y1632D01*
G01X1162Y1644D01*
G01X1148Y1654D01*
G01X1118Y1674D01*
G01X1103Y1682D01*
G01X1071Y1698D01*
G01X1054Y1704D01*
G01X1020Y1714D01*
G01X1003Y1718D01*
G01X985Y1721D01*
G01X975Y1725D01*
G01X969Y1728D01*
G01X965Y1731D01*
G01X961Y1735D01*
G01X958Y1740D01*
G01X955Y1744D01*
G01X953Y1750D01*
G01X952Y1755D01*
G01X952Y3294D01*
G01X953Y3300D01*
G01X955Y3305D01*
G01X958Y3310D01*
G01X961Y3314D01*
G01X965Y3319D01*
G01X975Y3325D01*
G01X980Y3326D01*
G01X986Y3328D01*
G01X998Y3328D01*
G01X1004Y3326D01*
G01X1016Y3320D01*
G01X1021Y3316D01*
G01X1025Y3311D01*
G01X1033Y3299D01*
G01X1043Y3289D01*
G01X3458Y873D01*
G01X3476Y857D01*
G01X3485Y851D01*
G01X3496Y845D01*
G01X3507Y840D01*
G01X3518Y836D01*
G01X3529Y833D01*
G01X3541Y830D01*
G01X3553Y829D01*
G01X3564Y828D01*
G01X4444Y828D01*
G01X4468Y830D01*
G01X4480Y833D01*
G01X4491Y836D01*
G01X4502Y840D01*
G01X4513Y845D01*
G01X4533Y857D01*
G01X4543Y865D01*
G01X4551Y873D01*
G01X9430Y5753D01*
G01X9435Y5757D01*
G01X9440Y5760D01*
G01X9452Y5764D01*
G01X9464Y5764D01*
G01X9470Y5763D01*
G01X9475Y5761D01*
G01X9485Y5755D01*
G01X9489Y5751D01*
G01X9495Y5741D01*
G01X9497Y5736D01*
G01X9498Y5730D01*
G01X9498Y1321D01*
G01X9497Y1315D01*
G01X9495Y1310D01*
G01X9489Y1300D01*
G01X9485Y1296D01*
G01X9475Y1290D01*
G01X9470Y1288D01*
G01X9464Y1287D01*
G01X9459Y1286D01*
G01X9404Y1286D01*
G01X9395Y1285D01*
G01X9386Y1283D01*
G01X9377Y1280D01*
G01X9368Y1276D01*
G01X9360Y1271D01*
G01X9353Y1266D01*
G01X9346Y1260D01*
G01X9339Y1253D01*
G01X9333Y1246D01*
G01X9328Y1239D01*
G01X9323Y1230D01*
G01X9319Y1222D01*
G01X9316Y1213D01*
G01X9314Y1204D01*
G01X9313Y1195D01*
G01X9313Y704D01*
G01X9314Y695D01*
G01X9316Y686D01*
G01X9319Y677D01*
G01X9323Y669D01*
G01X9328Y660D01*
G01X9333Y653D01*
G01X9339Y646D01*
G01X9346Y639D01*
G01X9353Y633D01*
G01X9360Y628D01*
G01X9368Y623D01*
G01X9377Y619D01*
G01X9386Y616D01*
G01X9395Y614D01*
G01X9404Y613D01*
G01X9895Y613D01*
G01X9904Y614D01*
G01X9913Y616D01*
G01X9922Y619D01*
G01X9931Y623D01*
G01X9939Y628D01*
G01X9946Y633D01*
G01X9953Y639D01*
G01X9960Y646D01*
G01X9966Y653D01*
G01X9971Y660D01*
G01X9976Y669D01*
G01X9980Y677D01*
G01X9983Y686D01*
G01X9985Y695D01*
G01X9986Y704D01*
G01X9986Y1195D01*
G01X9985Y1204D01*
G01X9983Y1213D01*
G01X9980Y1222D01*
G01X9976Y1230D01*
G01X9971Y1239D01*
G01X9966Y1246D01*
G01X9960Y1253D01*
G01X9953Y1260D01*
G01X9946Y1266D01*
G01X9939Y1271D01*
G01X9931Y1276D01*
G01X9922Y1280D01*
G01X9913Y1283D01*
G01X9904Y1285D01*
G01X9895Y1286D01*
G01X9840Y1286D01*
G01X9835Y1287D01*
G01X9829Y1288D01*
G01X9824Y1290D01*
G01X9814Y1296D01*
G01X9810Y1300D01*
G01X9804Y1310D01*
G01X9802Y1315D01*
G01X9801Y1321D01*
G01X9801Y4579D01*
G01X9802Y4585D01*
G01X9804Y4590D01*
G01X9810Y4600D01*
G01X9814Y4604D01*
G01X9824Y4610D01*
G01X9829Y4612D01*
G01X9835Y4613D01*
G01X9847Y4613D01*
G01X9859Y4609D01*
G01X9869Y4601D01*
G01X9873Y4596D01*
G01X9883Y4583D01*
G01X9894Y4569D01*
G01X9918Y4545D01*
G01X9930Y4534D01*
G01X9943Y4523D01*
G01X9957Y4513D01*
G01X9972Y4503D01*
G01X9986Y4495D01*
G01X10001Y4487D01*
G01X10033Y4473D01*
G01X10065Y4463D01*
G01X10082Y4459D01*
G01X10098Y4456D01*
G01X10115Y4454D01*
G01X10132Y4453D01*
G01X10167Y4453D01*
G01X10184Y4454D01*
G01X10201Y4457D01*
G01X10218Y4459D01*
G01X10234Y4463D01*
G01X10244Y4465D01*
G01X10251Y4464D01*
G01X10257Y4463D01*
G01X10263Y4460D01*
G01X10268Y4457D01*
G01X10272Y4453D01*
G01X10487Y4239D01*
G01X10491Y4234D01*
G01X10494Y4228D01*
G01X10497Y4223D01*
G01X10498Y4217D01*
G01X10498Y1269D01*
G01X10497Y1263D01*
G01X10494Y1257D01*
G01X10492Y1252D01*
G01X10484Y1244D01*
G01X10479Y1240D01*
G01X10464Y1231D01*
G01X10451Y1222D01*
G01X10438Y1211D01*
G01X10425Y1201D01*
G01X10401Y1177D01*
G01X10390Y1165D01*
G01X10380Y1152D01*
G01X10370Y1138D01*
G01X10361Y1124D01*
G01X10353Y1109D01*
G01X10345Y1095D01*
G01X10339Y1080D01*
G01X10332Y1064D01*
G01X10327Y1048D01*
G01X10319Y1016D01*
G01X10316Y999D01*
G01X10314Y983D01*
G01X10313Y966D01*
G01X10313Y933D01*
G01X10314Y917D01*
G01X10316Y900D01*
G01X10322Y868D01*
G01X10332Y836D01*
G01X10338Y821D01*
G01X10345Y805D01*
G01X10352Y791D01*
G01X10360Y776D01*
G01X10369Y762D01*
G01X10389Y736D01*
G01X10400Y723D01*
G01X10411Y711D01*
G01X10423Y700D01*
G01X10436Y689D01*
G01X10462Y669D01*
G01X10476Y661D01*
G01X10491Y652D01*
G01X10521Y638D01*
G01X10536Y632D01*
G01X10552Y627D01*
G01X10584Y619D01*
G01X10600Y616D01*
G01X10617Y614D01*
G01X10633Y613D01*
G01X10666Y613D01*
G01X10682Y614D01*
G01X10699Y616D01*
G01X10715Y619D01*
G01X10747Y627D01*
G01X10763Y632D01*
G01X10778Y638D01*
G01X10808Y652D01*
G01X10823Y661D01*
G01X10837Y669D01*
G01X10863Y689D01*
G01X10876Y700D01*
G01X10888Y711D01*
G01X10899Y723D01*
G01X10910Y736D01*
G01X10930Y762D01*
G01X10939Y776D01*
G01X10947Y791D01*
G01X10954Y805D01*
G01X10961Y821D01*
G01X10967Y836D01*
G01X10977Y868D01*
G01X10983Y900D01*
G01X10985Y917D01*
G01X10986Y933D01*
G01X10986Y966D01*
G01X10985Y983D01*
G01X10983Y999D01*
G01X10980Y1016D01*
G01X10972Y1048D01*
G01X10967Y1064D01*
G01X10960Y1080D01*
G01X10954Y1095D01*
G01X10946Y1109D01*
G01X10938Y1124D01*
G01X10929Y1138D01*
G01X10919Y1152D01*
G01X10909Y1165D01*
G01X10898Y1177D01*
G01X10874Y1201D01*
G01X10861Y1211D01*
G01X10848Y1222D01*
G01X10835Y1231D01*
G01X10820Y1240D01*
G01X10815Y1244D01*
G01X10807Y1252D01*
G01X10805Y1257D01*
G01X10802Y1263D01*
G01X10801Y1269D01*
G01X10801Y4290D01*
G01X10800Y4301D01*
G01X10799Y4313D01*
G01X10796Y4325D01*
G01X10793Y4336D01*
G01X10789Y4347D01*
G01X10784Y4358D01*
G01X10772Y4378D01*
G01X10764Y4388D01*
G01X10756Y4396D01*
G01X10486Y4667D01*
G01X10482Y4671D01*
G01X10479Y4676D01*
G01X10476Y4682D01*
G01X10475Y4688D01*
G01X10474Y4695D01*
G01X10476Y4705D01*
G01X10480Y4721D01*
G01X10482Y4738D01*
G01X10485Y4755D01*
G01X10486Y4772D01*
G01X10486Y4806D01*
G01X10485Y4823D01*
G01X10483Y4839D01*
G01X10480Y4856D01*
G01X10472Y4888D01*
G01X10467Y4904D01*
G01X10460Y4919D01*
G01X10454Y4935D01*
G01X10446Y4950D01*
G01X10438Y4964D01*
G01X10429Y4978D01*
G01X10419Y4992D01*
G01X10409Y5005D01*
G01X10398Y5017D01*
G01X10374Y5041D01*
G01X10361Y5051D01*
G01X10348Y5062D01*
G01X10335Y5071D01*
G01X10320Y5080D01*
G01X10315Y5084D01*
G01X10307Y5092D01*
G01X10305Y5097D01*
G01X10302Y5103D01*
G01X10301Y5109D01*
G01X10301Y7208D01*
G01X10302Y7214D01*
G01X10305Y7219D01*
G01X10308Y7225D01*
G01X10312Y7230D01*
G01X11643Y8560D01*
G01X11647Y8564D01*
G01X11659Y8570D01*
G01X11664Y8571D01*
G01X11671Y8572D01*
G01X11679Y8571D01*
G01X11687Y8568D01*
G01X11706Y8560D01*
G01X11746Y8546D01*
G01X11765Y8541D01*
G01X11786Y8536D01*
G01X11806Y8532D01*
G01X11827Y8529D01*
G01X11847Y8527D01*
G01X11889Y8525D01*
G01X11909Y8526D01*
G01X11928Y8527D01*
G01X11948Y8529D01*
G01X11988Y8535D01*
G01X12026Y8545D01*
G01X12064Y8557D01*
G01X12083Y8565D01*
G01X12101Y8573D01*
G01X12118Y8582D01*
G01X12136Y8592D01*
G01X12153Y8602D01*
G01X12170Y8613D01*
G01X12202Y8637D01*
G01X12217Y8650D01*
G01X12231Y8663D01*
G01X12246Y8677D01*
G01X12272Y8707D01*
G01X12296Y8739D01*
G01X12307Y8755D01*
G01X12317Y8773D01*
G01X12327Y8790D01*
G01X12336Y8808D01*
G01X12344Y8826D01*
G01X12351Y8844D01*
G01X12358Y8863D01*
G01X12364Y8882D01*
G01X12369Y8902D01*
G01X12373Y8921D01*
G01X12377Y8941D01*
G01X12380Y8960D01*
G01X12382Y8980D01*
G01X12384Y9020D01*
G01X12382Y9060D01*
G01X12380Y9080D01*
G01X12377Y9099D01*
G01X12373Y9119D01*
G01X12369Y9138D01*
G01X12364Y9158D01*
G01X12358Y9177D01*
G01X12351Y9196D01*
G01X12344Y9214D01*
G01X12336Y9232D01*
G01X12327Y9250D01*
G01X12307Y9284D01*
G01X12296Y9301D01*
G01X12272Y9333D01*
G01X12246Y9363D01*
G01X12231Y9377D01*
G01X12217Y9390D01*
G01X12202Y9403D01*
G01X12170Y9427D01*
G01X12153Y9438D01*
G01X12136Y9448D01*
G01X12118Y9458D01*
G01X12101Y9467D01*
G01X12083Y9475D01*
G01X12045Y9489D01*
G01X12026Y9495D01*
G01X11988Y9505D01*
G01X11948Y9511D01*
G01X11928Y9513D01*
G01X11909Y9514D01*
G01X11889Y9515D01*
G01X11849Y9513D01*
G01X11829Y9511D01*
G01X11809Y9508D01*
G01X11790Y9505D01*
G01X11770Y9500D01*
G01X11751Y9495D01*
G01X11732Y9489D01*
G01X11713Y9482D01*
G01X11695Y9475D01*
G01X11677Y9467D01*
G01X11659Y9458D01*
G01X11641Y9448D01*
G01X11624Y9438D01*
G01X11608Y9427D01*
G01X11576Y9403D01*
G01X11546Y9377D01*
G01X11532Y9363D01*
G01X11518Y9348D01*
G01X11506Y9333D01*
G01X11493Y9317D01*
G01X11481Y9301D01*
G01X11471Y9284D01*
G01X11460Y9267D01*
G01X11451Y9250D01*
G01X11442Y9232D01*
G01X11426Y9196D01*
G01X11419Y9177D01*
G01X11414Y9158D01*
G01X11408Y9138D01*
G01X11404Y9119D01*
G01X11401Y9099D01*
G01X11398Y9080D01*
G01X11394Y9040D01*
G01X11394Y8999D01*
G01X11396Y8978D01*
G01X11398Y8958D01*
G01X11401Y8937D01*
G01X11405Y8917D01*
G01X11410Y8896D01*
G01X11415Y8876D01*
G01X11422Y8857D01*
G01X11429Y8837D01*
G01X11437Y8818D01*
G01X11440Y8810D01*
G01X11440Y8796D01*
G01X11439Y8789D01*
G01X11436Y8784D01*
G01X11433Y8778D01*
G01X11429Y8773D01*
G01X10043Y7387D01*
G01X10027Y7369D01*
G01X10015Y7349D01*
G01X10010Y7338D01*
G01X10006Y7327D01*
G01X10003Y7316D01*
G01X10000Y7304D01*
G01X9998Y7280D01*
G01X9998Y5109D01*
G01X9997Y5103D01*
G01X9994Y5097D01*
G01X9992Y5092D01*
G01X9984Y5084D01*
G01X9979Y5080D01*
G01X9964Y5071D01*
G01X9934Y5049D01*
G01X9921Y5037D01*
G01X9908Y5024D01*
G01X9896Y5011D01*
G01X9884Y4997D01*
G01X9873Y4982D01*
G01X9864Y4973D01*
G01X9859Y4970D01*
G01X9853Y4967D01*
G01X9847Y4966D01*
G01X9840Y4965D01*
G01X9835Y4966D01*
G01X9829Y4967D01*
G01X9824Y4969D01*
G01X9814Y4975D01*
G01X9810Y4979D01*
G01X9804Y4989D01*
G01X9802Y4994D01*
G01X9801Y5000D01*
G01X9801Y7422D01*
G01X9802Y7428D01*
G01X9805Y7434D01*
G01X9808Y7439D01*
G01X9812Y7444D01*
G01X10710Y8342D01*
G01X10718Y8352D01*
G01X10730Y8372D01*
G01X10735Y8383D01*
G01X10739Y8394D01*
G01X10742Y8405D01*
G01X10745Y8417D01*
G01X10746Y8429D01*
G01X10747Y8440D01*
G01X10747Y12084D01*
G01X10745Y12108D01*
G01X10742Y12120D01*
G01X10739Y12131D01*
G01X10735Y12142D01*
G01X10730Y12153D01*
G01X10718Y12173D01*
G01X10702Y12191D01*
G01X9808Y13085D01*
G01X9804Y13090D01*
G01X9801Y13096D01*
G01X9798Y13101D01*
G01X9797Y13107D01*
G01X9797Y13208D01*
G01X9798Y13214D01*
G01X9800Y13219D01*
G01X9803Y13224D01*
G01X9806Y13228D01*
G01X9810Y13233D01*
G01X9820Y13239D01*
G01X9825Y13241D01*
G01X9831Y13242D01*
G01X9843Y13242D01*
G01X9855Y13238D01*
G01X9860Y13235D01*
G01X9865Y13231D01*
G01X10899Y12197D01*
G01X10903Y12192D01*
G01X10906Y12186D01*
G01X10909Y12181D01*
G01X10910Y12175D01*
G01X10910Y10905D01*
G01X10911Y10894D01*
G01X10912Y10882D01*
G01X10915Y10870D01*
G01X10918Y10859D01*
G01X10922Y10848D01*
G01X10927Y10837D01*
G01X10939Y10817D01*
G01X10947Y10807D01*
G01X12787Y8967D01*
G01X12791Y8962D01*
G01X12794Y8957D01*
G01X12797Y8951D01*
G01X12798Y8945D01*
G01X12798Y1636D01*
G01X12797Y1631D01*
G01X12795Y1625D01*
G01X12792Y1620D01*
G01X12789Y1616D01*
G01X12785Y1612D01*
G01X12780Y1608D01*
G01X12775Y1605D01*
G01X12770Y1603D01*
G01X12764Y1602D01*
G01X12671Y1602D01*
G01X12661Y1601D01*
G01X12652Y1600D01*
G01X12643Y1598D01*
G01X12634Y1595D01*
G01X12626Y1591D01*
G01X12617Y1587D01*
G01X12610Y1582D01*
G01X12602Y1576D01*
G01X12590Y1562D01*
G01X12580Y1546D01*
G01X12576Y1538D01*
G01X12573Y1528D01*
G01X12571Y1519D01*
G01X12569Y1501D01*
G01X12569Y498D01*
G01X12570Y489D01*
G01X12571Y479D01*
G01X12573Y470D01*
G01X12576Y461D01*
G01X12580Y453D01*
G01X12590Y437D01*
G01X12602Y423D01*
G01X12610Y417D01*
G01X12617Y412D01*
G01X12626Y407D01*
G01X12634Y404D01*
G01X12643Y401D01*
G01X12661Y397D01*
G01X13237Y397D01*
G01X13247Y399D01*
G01X13256Y401D01*
G01X13264Y404D01*
G01X13273Y407D01*
G01X13289Y417D01*
G01X13296Y423D01*
G01X13303Y430D01*
G01X13309Y437D01*
G01X13314Y445D01*
G01X13322Y461D01*
G01X13325Y470D01*
G01X13327Y479D01*
G01X13329Y489D01*
G01X13329Y1510D01*
G01X13325Y1528D01*
G01X13322Y1538D01*
G01X13314Y1554D01*
G01X13309Y1562D01*
G01X13303Y1569D01*
G01X13296Y1576D01*
G01X13289Y1582D01*
G01X13281Y1587D01*
G01X13273Y1591D01*
G01X13264Y1595D01*
G01X13256Y1598D01*
G01X13247Y1600D01*
G01X13237Y1601D01*
G01X13228Y1602D01*
G01X13135Y1602D01*
G01X13129Y1603D01*
G01X13124Y1605D01*
G01X13119Y1608D01*
G01X13114Y1612D01*
G01X13110Y1616D01*
G01X13107Y1620D01*
G01X13104Y1625D01*
G01X13102Y1631D01*
G01X13101Y1636D01*
G01X13101Y8900D01*
G01X13102Y8906D01*
G01X13104Y8911D01*
G01X13110Y8921D01*
G01X13114Y8925D01*
G01X13124Y8931D01*
G01X13129Y8933D01*
G01X13135Y8934D01*
G01X13140Y8935D01*
G01X13147Y8934D01*
G01X13152Y8933D01*
G01X13158Y8931D01*
G01X13163Y8928D01*
G01X13168Y8924D01*
G01X13172Y8920D01*
G01X13175Y8915D01*
G01X13177Y8910D01*
G01X13179Y8904D01*
G01X13185Y8885D01*
G01X13190Y8865D01*
G01X13197Y8847D01*
G01X13204Y8828D01*
G01X13213Y8810D01*
G01X13221Y8792D01*
G01X13231Y8774D01*
G01X13241Y8757D01*
G01X13252Y8740D01*
G01X13264Y8724D01*
G01X13276Y8709D01*
G01X13289Y8693D01*
G01X13302Y8678D01*
G01X13317Y8664D01*
G01X13331Y8651D01*
G01X13347Y8638D01*
G01X13362Y8625D01*
G01X13378Y8613D01*
G01X13395Y8603D01*
G01X13412Y8592D01*
G01X13430Y8582D01*
G01X13447Y8573D01*
G01X13466Y8565D01*
G01X13484Y8558D01*
G01X13503Y8551D01*
G01X13522Y8545D01*
G01X13542Y8540D01*
G01X13561Y8535D01*
G01X13601Y8529D01*
G01X13620Y8527D01*
G01X13660Y8525D01*
G01X13700Y8527D01*
G01X13720Y8529D01*
G01X13740Y8532D01*
G01X13759Y8535D01*
G01X13779Y8540D01*
G01X13798Y8545D01*
G01X13836Y8557D01*
G01X13872Y8573D01*
G01X13890Y8582D01*
G01X13908Y8592D01*
G01X13925Y8602D01*
G01X13941Y8613D01*
G01X13973Y8637D01*
G01X14003Y8663D01*
G01X14017Y8677D01*
G01X14031Y8692D01*
G01X14043Y8707D01*
G01X14056Y8723D01*
G01X14068Y8739D01*
G01X14078Y8755D01*
G01X14089Y8773D01*
G01X14098Y8790D01*
G01X14107Y8808D01*
G01X14123Y8844D01*
G01X14130Y8863D01*
G01X14135Y8882D01*
G01X14141Y8902D01*
G01X14145Y8921D01*
G01X14148Y8941D01*
G01X14151Y8960D01*
G01X14155Y9000D01*
G01X14155Y9040D01*
G01X14151Y9082D01*
G01X14148Y9102D01*
G01X14140Y9142D01*
G01X14128Y9182D01*
G01X14121Y9201D01*
G01X14113Y9220D01*
G01X14104Y9238D01*
G01X14095Y9257D01*
G01X14085Y9275D01*
G01X14074Y9292D01*
G01X14062Y9309D01*
G01X14050Y9325D01*
G01X14037Y9341D01*
G01X14023Y9357D01*
G01X13994Y9386D01*
G01X13962Y9412D01*
G01X13946Y9424D01*
G01X13929Y9436D01*
G01X13911Y9446D01*
G01X13893Y9457D01*
G01X13875Y9466D01*
G01X13837Y9482D01*
G01X13832Y9484D01*
G01X13822Y9492D01*
G01X13818Y9497D01*
G01X13815Y9502D01*
G01X13813Y9507D01*
G01X13811Y9519D01*
G01X13811Y10392D01*
G01X13813Y10404D01*
G01X13815Y10409D01*
G01X13821Y10419D01*
G01X13825Y10423D01*
G01X13835Y10429D01*
G01X13840Y10431D01*
G01X13846Y10432D01*
G01X13858Y10432D01*
G01X13870Y10428D01*
G01X13875Y10425D01*
G01X13880Y10421D01*
G01X14830Y9471D01*
G01X14848Y9455D01*
G01X14868Y9443D01*
G01X14879Y9438D01*
G01X14890Y9434D01*
G01X14901Y9431D01*
G01X14913Y9428D01*
G01X14925Y9427D01*
G01X14936Y9426D01*
G01X15080Y9426D01*
G01X15086Y9425D01*
G01X15091Y9423D01*
G01X15101Y9417D01*
G01X15105Y9413D01*
G01X15111Y9403D01*
G01X15113Y9398D01*
G01X15114Y9392D01*
G01X15114Y9380D01*
G01X15113Y9375D01*
G01X15110Y9369D01*
G01X15107Y9364D01*
G01X15103Y9359D01*
G01X15089Y9344D01*
G01X15076Y9328D01*
G01X15052Y9294D01*
G01X15041Y9277D01*
G01X15030Y9259D01*
G01X15012Y9221D01*
G01X15004Y9202D01*
G01X14997Y9183D01*
G01X14990Y9163D01*
G01X14980Y9123D01*
G01X14976Y9103D01*
G01X14973Y9082D01*
G01X14971Y9061D01*
G01X14969Y9041D01*
G01X14969Y9000D01*
G01X14973Y8960D01*
G01X14976Y8941D01*
G01X14979Y8921D01*
G01X14983Y8902D01*
G01X14989Y8882D01*
G01X14994Y8863D01*
G01X15001Y8844D01*
G01X15017Y8808D01*
G01X15026Y8790D01*
G01X15035Y8773D01*
G01X15046Y8755D01*
G01X15056Y8739D01*
G01X15068Y8723D01*
G01X15081Y8707D01*
G01X15093Y8692D01*
G01X15107Y8677D01*
G01X15121Y8663D01*
G01X15151Y8637D01*
G01X15183Y8613D01*
G01X15199Y8602D01*
G01X15216Y8592D01*
G01X15234Y8582D01*
G01X15252Y8573D01*
G01X15288Y8557D01*
G01X15326Y8545D01*
G01X15345Y8540D01*
G01X15365Y8535D01*
G01X15384Y8532D01*
G01X15404Y8529D01*
G01X15424Y8527D01*
G01X15464Y8525D01*
G01X15484Y8526D01*
G01X15503Y8527D01*
G01X15523Y8529D01*
G01X15563Y8535D01*
G01X15601Y8545D01*
G01X15639Y8557D01*
G01X15658Y8565D01*
G01X15676Y8573D01*
G01X15694Y8582D01*
G01X15728Y8602D01*
G01X15745Y8613D01*
G01X15777Y8637D01*
G01X15792Y8650D01*
G01X15806Y8663D01*
G01X15821Y8677D01*
G01X15847Y8707D01*
G01X15871Y8739D01*
G01X15882Y8756D01*
G01X15902Y8790D01*
G01X15911Y8808D01*
G01X15919Y8826D01*
G01X15926Y8845D01*
G01X15933Y8863D01*
G01X15939Y8882D01*
G01X15944Y8902D01*
G01X15948Y8921D01*
G01X15952Y8941D01*
G01X15955Y8961D01*
G01X15957Y8980D01*
G01X15958Y8986D01*
G01X15960Y8992D01*
G01X15962Y8997D01*
G01X15965Y9002D01*
G01X15969Y9007D01*
G01X15979Y9013D01*
G01X15991Y9017D01*
G01X16003Y9017D01*
G01X16015Y9013D01*
G01X16025Y9005D01*
G01X18238Y6793D01*
G01X18256Y6777D01*
G01X18276Y6765D01*
G01X18287Y6760D01*
G01X18298Y6756D01*
G01X18309Y6753D01*
G01X18321Y6750D01*
G01X18333Y6749D01*
G01X18344Y6748D01*
G01X18976Y6748D01*
G01X18981Y6747D01*
G01X18987Y6745D01*
G01X18992Y6742D01*
G01X18996Y6739D01*
G01X19000Y6735D01*
G01X19004Y6730D01*
G01X19008Y6720D01*
G01X19010Y6714D01*
G01X19010Y6652D01*
G01X19012Y6642D01*
G01X19014Y6633D01*
G01X19017Y6625D01*
G01X19021Y6616D01*
G01X19025Y6608D01*
G01X19031Y6600D01*
G01X19036Y6593D01*
G01X19043Y6586D01*
G01X19050Y6580D01*
G01X19058Y6575D01*
G01X19066Y6571D01*
G01X19075Y6567D01*
G01X19083Y6564D01*
G01X19093Y6562D01*
G01X19111Y6560D01*
G01X19588Y6560D01*
G01X19606Y6562D01*
G01X19616Y6564D01*
G01X19625Y6567D01*
G01X19641Y6575D01*
G01X19649Y6580D01*
G01X19656Y6586D01*
G01X19663Y6593D01*
G01X19668Y6600D01*
G01X19674Y6608D01*
G01X19678Y6616D01*
G01X19682Y6625D01*
G01X19685Y6633D01*
G01X19687Y6642D01*
G01X19689Y6652D01*
G01X19689Y7147D01*
G01X19687Y7157D01*
G01X19685Y7166D01*
G01X19682Y7175D01*
G01X19674Y7191D01*
G01X19668Y7199D01*
G01X19663Y7206D01*
G01X19656Y7213D01*
G01X19649Y7219D01*
G01X19641Y7224D01*
G01X19625Y7232D01*
G01X19616Y7235D01*
G01X19606Y7237D01*
G01X19588Y7239D01*
G01X19111Y7239D01*
G01X19093Y7237D01*
G01X19083Y7235D01*
G01X19075Y7232D01*
G01X19066Y7228D01*
G01X19058Y7224D01*
G01X19050Y7219D01*
G01X19043Y7213D01*
G01X19036Y7206D01*
G01X19031Y7199D01*
G01X19025Y7191D01*
G01X19017Y7175D01*
G01X19014Y7166D01*
G01X19012Y7157D01*
G01X19010Y7147D01*
G01X19010Y7085D01*
G01X19008Y7079D01*
G01X19004Y7069D01*
G01X19000Y7064D01*
G01X18996Y7060D01*
G01X18992Y7057D01*
G01X18987Y7054D01*
G01X18981Y7052D01*
G01X18976Y7051D01*
G01X18417Y7051D01*
G01X18411Y7053D01*
G01X18406Y7055D01*
G01X18400Y7058D01*
G01X18395Y7062D01*
G01X16911Y8546D01*
G01X16907Y8551D01*
G01X16904Y8556D01*
G01X16900Y8568D01*
G01X16900Y8580D01*
G01X16901Y8586D01*
G01X16903Y8591D01*
G01X16909Y8601D01*
G01X16914Y8605D01*
G01X16918Y8608D01*
G01X16923Y8611D01*
G01X16928Y8613D01*
G01X16940Y8615D01*
G01X16946Y8614D01*
G01X16951Y8613D01*
G01X16957Y8611D01*
G01X16962Y8608D01*
G01X16979Y8597D01*
G01X16997Y8586D01*
G01X17015Y8577D01*
G01X17034Y8568D01*
G01X17053Y8560D01*
G01X17093Y8546D01*
G01X17112Y8541D01*
G01X17132Y8536D01*
G01X17153Y8532D01*
G01X17173Y8529D01*
G01X17194Y8527D01*
G01X17215Y8526D01*
G01X17235Y8525D01*
G01X17275Y8527D01*
G01X17295Y8529D01*
G01X17315Y8532D01*
G01X17334Y8535D01*
G01X17354Y8540D01*
G01X17373Y8545D01*
G01X17411Y8557D01*
G01X17447Y8573D01*
G01X17465Y8582D01*
G01X17483Y8592D01*
G01X17500Y8602D01*
G01X17516Y8613D01*
G01X17548Y8637D01*
G01X17578Y8663D01*
G01X17592Y8677D01*
G01X17606Y8692D01*
G01X17618Y8707D01*
G01X17631Y8723D01*
G01X17643Y8739D01*
G01X17653Y8755D01*
G01X17664Y8773D01*
G01X17673Y8790D01*
G01X17682Y8808D01*
G01X17698Y8844D01*
G01X17705Y8863D01*
G01X17710Y8882D01*
G01X17716Y8902D01*
G01X17720Y8921D01*
G01X17723Y8941D01*
G01X17726Y8960D01*
G01X17730Y9000D01*
G01X17730Y9040D01*
G01X17726Y9080D01*
G01X17723Y9099D01*
G01X17720Y9119D01*
G01X17716Y9138D01*
G01X17710Y9158D01*
G01X17705Y9177D01*
G01X17698Y9196D01*
G01X17682Y9232D01*
G01X17673Y9250D01*
G01X17664Y9267D01*
G01X17653Y9284D01*
G01X17643Y9301D01*
G01X17631Y9317D01*
G01X17618Y9333D01*
G01X17606Y9348D01*
G01X17592Y9363D01*
G01X17578Y9377D01*
G01X17548Y9403D01*
G01X17516Y9427D01*
G01X17500Y9438D01*
G01X17483Y9448D01*
G01X17465Y9458D01*
G01X17447Y9467D01*
G01X17429Y9475D01*
G01X17411Y9482D01*
G01X17392Y9489D01*
G01X17373Y9495D01*
G01X17354Y9500D01*
G01X17334Y9505D01*
G01X17315Y9508D01*
G01X17295Y9511D01*
G01X17275Y9513D01*
G01X17235Y9515D01*
G01X17214Y9514D01*
G01X17194Y9513D01*
G01X17173Y9511D01*
G01X17152Y9508D01*
G01X17132Y9504D01*
G01X17092Y9494D01*
G01X17052Y9480D01*
G01X17034Y9472D01*
G01X17026Y9469D01*
G01X17017Y9468D01*
G01X17005Y9470D01*
G01X16993Y9476D01*
G01X15453Y11016D01*
G01X15449Y11021D01*
G01X15446Y11026D01*
G01X15443Y11032D01*
G01X15441Y11044D01*
G01X15442Y11051D01*
G01X15443Y11057D01*
G01X15445Y11062D01*
G01X15448Y11068D01*
G01X15452Y11073D01*
G01X15457Y11076D01*
G01X15462Y11080D01*
G01X15474Y11084D01*
G01X15480Y11084D01*
G01X15520Y11088D01*
G01X15539Y11090D01*
G01X15579Y11098D01*
G01X15598Y11103D01*
G01X15618Y11109D01*
G01X15636Y11115D01*
G01X15655Y11123D01*
G01X15673Y11131D01*
G01X15709Y11149D01*
G01X15726Y11159D01*
G01X15743Y11171D01*
G01X15759Y11182D01*
G01X15775Y11194D01*
G01X15790Y11207D01*
G01X15805Y11221D01*
G01X15819Y11235D01*
G01X15833Y11250D01*
G01X15846Y11265D01*
G01X15858Y11280D01*
G01X15870Y11297D01*
G01X15881Y11313D01*
G01X15892Y11330D01*
G01X15910Y11366D01*
G01X15918Y11384D01*
G01X15926Y11403D01*
G01X15933Y11421D01*
G01X15939Y11441D01*
G01X15944Y11460D01*
G01X15948Y11480D01*
G01X15952Y11499D01*
G01X15955Y11519D01*
G01X15957Y11539D01*
G01X15959Y11579D01*
G01X15957Y11621D01*
G01X15955Y11642D01*
G01X15951Y11663D01*
G01X15943Y11703D01*
G01X15937Y11724D01*
G01X15930Y11744D01*
G01X15923Y11763D01*
G01X15915Y11782D01*
G01X15906Y11801D01*
G01X15903Y11807D01*
G01X15901Y11819D01*
G01X15903Y11831D01*
G01X15905Y11836D01*
G01X15911Y11846D01*
G01X15915Y11850D01*
G01X15925Y11856D01*
G01X15930Y11858D01*
G01X15936Y11859D01*
G01X15947Y11859D01*
G01X15954Y11857D01*
G01X15960Y11855D01*
G01X15965Y11852D01*
G01X15970Y11848D01*
G01X18373Y9444D01*
G01X18381Y9436D01*
G01X18391Y9428D01*
G01X18411Y9416D01*
G01X18422Y9411D01*
G01X18433Y9407D01*
G01X18444Y9404D01*
G01X18456Y9401D01*
G01X18468Y9400D01*
G01X20432Y9400D01*
G01X20439Y9399D01*
G01X20445Y9398D01*
G01X20451Y9395D01*
G01X20456Y9392D01*
G01X20461Y9388D01*
G01X21290Y8557D01*
G01X21382Y8466D01*
G01X21386Y8461D01*
G01X21389Y8455D01*
G01X21392Y8450D01*
G01X21393Y8444D01*
G01X21394Y8437D01*
G01X21394Y8294D01*
G01X21537Y8294D01*
G01X21543Y8293D01*
G01X21550Y8292D01*
G01X21555Y8289D01*
G01X21561Y8286D01*
G01X21565Y8282D01*
G01X21630Y8218D01*
G01X21634Y8213D01*
G01X21637Y8207D01*
G01X21639Y8202D01*
G01X21641Y8196D01*
G01X21642Y8190D01*
G01X21642Y8045D01*
G01X21641Y8040D01*
G01X21640Y8034D01*
G01X21638Y8029D01*
G01X21632Y8019D01*
G01X21628Y8015D01*
G01X21623Y8011D01*
G01X21613Y8007D01*
G01X21607Y8006D01*
G01X21602Y8005D01*
G01X21394Y8005D01*
G01X21394Y7810D01*
G01X21488Y7810D01*
G01X21497Y7811D01*
G01X21507Y7812D01*
G01X21516Y7814D01*
G01X21525Y7817D01*
G01X21534Y7821D01*
G01X21550Y7831D01*
G01X21557Y7837D01*
G01X21569Y7851D01*
G01X21573Y7856D01*
G01X21578Y7860D01*
G01X21584Y7863D01*
G01X21589Y7865D01*
G01X21595Y7867D01*
G01X21607Y7867D01*
G01X21613Y7866D01*
G01X21618Y7864D01*
G01X21623Y7861D01*
G01X21628Y7857D01*
G01X21632Y7853D01*
G01X21635Y7849D01*
G01X21638Y7844D01*
G01X21640Y7839D01*
G01X21642Y7827D01*
G01X21642Y7821D01*
G01X21641Y7815D01*
G01X21637Y7803D01*
G01X21634Y7798D01*
G01X21630Y7793D01*
G01X21193Y7355D01*
G01X21177Y7337D01*
G01X21171Y7328D01*
G01X21165Y7317D01*
G01X21160Y7307D01*
G01X21156Y7296D01*
G01X21153Y7284D01*
G01X21151Y7273D01*
G01X21147Y7261D01*
G01X21143Y7255D01*
G01X21135Y7247D01*
G01X21129Y7243D01*
G01X21123Y7241D01*
G01X21111Y7239D01*
G01X21061Y7239D01*
G01X21043Y7237D01*
G01X21033Y7235D01*
G01X21025Y7232D01*
G01X21016Y7228D01*
G01X21008Y7224D01*
G01X21000Y7219D01*
G01X20993Y7213D01*
G01X20986Y7206D01*
G01X20981Y7199D01*
G01X20975Y7191D01*
G01X20967Y7175D01*
G01X20964Y7166D01*
G01X20962Y7157D01*
G01X20960Y7147D01*
G01X20960Y6652D01*
G01X20962Y6642D01*
G01X20964Y6633D01*
G01X20967Y6625D01*
G01X20971Y6616D01*
G01X20975Y6608D01*
G01X20981Y6600D01*
G01X20986Y6593D01*
G01X20993Y6586D01*
G01X21000Y6580D01*
G01X21008Y6575D01*
G01X21016Y6571D01*
G01X21025Y6567D01*
G01X21033Y6564D01*
G01X21043Y6562D01*
G01X21061Y6560D01*
G01X21538Y6560D01*
G01X21556Y6562D01*
G01X21566Y6564D01*
G01X21575Y6567D01*
G01X21591Y6575D01*
G01X21599Y6580D01*
G01X21606Y6586D01*
G01X21613Y6593D01*
G01X21618Y6600D01*
G01X21624Y6608D01*
G01X21628Y6616D01*
G01X21632Y6625D01*
G01X21635Y6633D01*
G01X21637Y6642D01*
G01X21639Y6652D01*
G01X21639Y7147D01*
G01X21637Y7157D01*
G01X21635Y7165D01*
G01X21632Y7174D01*
G01X21628Y7183D01*
G01X21624Y7191D01*
G01X21619Y7198D01*
G01X21613Y7206D01*
G01X21599Y7218D01*
G01X21592Y7223D01*
G01X21584Y7228D01*
G01X21575Y7232D01*
G01X21570Y7234D01*
G01X21560Y7242D01*
G01X21554Y7252D01*
G01X21552Y7257D01*
G01X21550Y7263D01*
G01X21550Y7275D01*
G01X21552Y7282D01*
G01X21554Y7287D01*
G01X21557Y7292D01*
G01X21561Y7297D01*
G01X21899Y7636D01*
G01X21907Y7644D01*
G01X21915Y7654D01*
G01X21927Y7674D01*
G01X21932Y7685D01*
G01X21936Y7696D01*
G01X21939Y7707D01*
G01X21942Y7719D01*
G01X21943Y7731D01*
G01X21943Y8036D01*
G01X21945Y8048D01*
G01X21947Y8053D01*
G01X21953Y8063D01*
G01X21957Y8067D01*
G01X21967Y8073D01*
G01X21972Y8075D01*
G01X21978Y8076D01*
G01X21990Y8076D01*
G01X21996Y8075D01*
G01X22002Y8072D01*
G01X22007Y8069D01*
G01X22012Y8065D01*
G01X22738Y7339D01*
G01X22742Y7334D01*
G01X22745Y7328D01*
G01X22747Y7323D01*
G01X22749Y7317D01*
G01X22750Y7310D01*
G01X22750Y6888D01*
G01X22751Y6877D01*
G01X22753Y6866D01*
G01X22756Y6855D01*
G01X22760Y6845D01*
G01X22764Y6834D01*
G01X22769Y6825D01*
G01X22775Y6815D01*
G01X22782Y6806D01*
G01X22789Y6798D01*
G01X22797Y6790D01*
G01X22806Y6782D01*
G01X22814Y6775D01*
G01X22824Y6769D01*
G01X22844Y6759D01*
G01X22855Y6756D01*
G01X22865Y6753D01*
G01X22876Y6751D01*
G01X22882Y6749D01*
G01X22888Y6746D01*
G01X22893Y6743D01*
G01X22898Y6739D01*
G01X22906Y6729D01*
G01X22910Y6717D01*
G01X22910Y6652D01*
G01X22912Y6642D01*
G01X22914Y6633D01*
G01X22917Y6625D01*
G01X22921Y6616D01*
G01X22925Y6608D01*
G01X22931Y6600D01*
G01X22936Y6593D01*
G01X22943Y6586D01*
G01X22950Y6580D01*
G01X22958Y6575D01*
G01X22966Y6571D01*
G01X22975Y6567D01*
G01X22983Y6564D01*
G01X22993Y6562D01*
G01X23011Y6560D01*
G01X23488Y6560D01*
G01X23506Y6562D01*
G01X23516Y6564D01*
G01X23525Y6567D01*
G01X23541Y6575D01*
G01X23549Y6580D01*
G01X23556Y6586D01*
G01X23563Y6593D01*
G01X23568Y6600D01*
G01X23574Y6608D01*
G01X23578Y6616D01*
G01X23582Y6625D01*
G01X23585Y6633D01*
G01X23587Y6642D01*
G01X23589Y6652D01*
G01X23589Y7147D01*
G01X23587Y7157D01*
G01X23585Y7166D01*
G01X23582Y7175D01*
G01X23574Y7191D01*
G01X23568Y7199D01*
G01X23563Y7206D01*
G01X23556Y7213D01*
G01X23549Y7219D01*
G01X23541Y7224D01*
G01X23525Y7232D01*
G01X23516Y7235D01*
G01X23506Y7237D01*
G01X23488Y7239D01*
G01X23092Y7239D01*
G01X23080Y7241D01*
G01X23070Y7245D01*
G01X23065Y7249D01*
G01X23061Y7253D01*
G01X23058Y7257D01*
G01X23055Y7262D01*
G01X23053Y7268D01*
G01X23052Y7273D01*
G01X23052Y7390D01*
G01X23051Y7401D01*
G01X23050Y7413D01*
G01X23047Y7425D01*
G01X23044Y7436D01*
G01X23040Y7447D01*
G01X23035Y7458D01*
G01X23023Y7478D01*
G01X23015Y7488D01*
G01X20656Y9847D01*
G01X20646Y9855D01*
G01X20626Y9867D01*
G01X20615Y9872D01*
G01X20604Y9876D01*
G01X20593Y9879D01*
G01X20581Y9882D01*
G01X20557Y9884D01*
G01X19973Y9884D01*
G01X19961Y9888D01*
G01X19956Y9891D01*
G01X19951Y9895D01*
G01X18850Y10996D01*
G01X18846Y11001D01*
G01X18843Y11006D01*
G01X18840Y11012D01*
G01X18839Y11018D01*
G01X18839Y11030D01*
G01X18840Y11036D01*
G01X18842Y11041D01*
G01X18848Y11051D01*
G01X18852Y11055D01*
G01X18862Y11061D01*
G01X18867Y11063D01*
G01X18879Y11065D01*
G01X20716Y11065D01*
G01X20723Y11064D01*
G01X20729Y11063D01*
G01X20735Y11060D01*
G01X20740Y11057D01*
G01X20745Y11053D01*
G01X23332Y8466D01*
G01X23336Y8461D01*
G01X23339Y8456D01*
G01X23342Y8450D01*
G01X23344Y8438D01*
G01X23344Y8294D01*
G01X23488Y8294D01*
G01X23500Y8292D01*
G01X23506Y8289D01*
G01X23511Y8286D01*
G01X23516Y8282D01*
G01X23607Y8191D01*
G01X24688Y7111D01*
G01X24692Y7106D01*
G01X24695Y7101D01*
G01X24699Y7089D01*
G01X24700Y7082D01*
G01X24700Y6888D01*
G01X24701Y6877D01*
G01X24703Y6866D01*
G01X24706Y6855D01*
G01X24710Y6845D01*
G01X24714Y6834D01*
G01X24719Y6825D01*
G01X24725Y6815D01*
G01X24732Y6806D01*
G01X24739Y6798D01*
G01X24747Y6790D01*
G01X24756Y6782D01*
G01X24764Y6775D01*
G01X24774Y6769D01*
G01X24794Y6759D01*
G01X24805Y6756D01*
G01X24815Y6753D01*
G01X24826Y6751D01*
G01X24832Y6749D01*
G01X24838Y6746D01*
G01X24843Y6743D01*
G01X24848Y6739D01*
G01X24856Y6729D01*
G01X24860Y6717D01*
G01X24860Y6652D01*
G01X24862Y6642D01*
G01X24864Y6633D01*
G01X24867Y6625D01*
G01X24871Y6616D01*
G01X24875Y6608D01*
G01X24881Y6600D01*
G01X24886Y6593D01*
G01X24893Y6586D01*
G01X24900Y6580D01*
G01X24908Y6575D01*
G01X24916Y6571D01*
G01X24925Y6567D01*
G01X24933Y6564D01*
G01X24943Y6562D01*
G01X24961Y6560D01*
G01X25438Y6560D01*
G01X25456Y6562D01*
G01X25466Y6564D01*
G01X25475Y6567D01*
G01X25491Y6575D01*
G01X25499Y6580D01*
G01X25506Y6586D01*
G01X25513Y6593D01*
G01X25518Y6600D01*
G01X25524Y6608D01*
G01X25528Y6616D01*
G01X25532Y6625D01*
G01X25535Y6633D01*
G01X25537Y6642D01*
G01X25539Y6652D01*
G01X25539Y7147D01*
G01X25537Y7157D01*
G01X25535Y7166D01*
G01X25532Y7175D01*
G01X25524Y7191D01*
G01X25518Y7199D01*
G01X25513Y7206D01*
G01X25506Y7213D01*
G01X25499Y7219D01*
G01X25491Y7224D01*
G01X25475Y7232D01*
G01X25466Y7235D01*
G01X25456Y7237D01*
G01X25438Y7239D01*
G01X25001Y7239D01*
G01X24989Y7241D01*
G01X24984Y7243D01*
G01X24978Y7246D01*
G01X24974Y7250D01*
G01X24969Y7254D01*
G01X24957Y7268D01*
G01X20902Y11322D01*
G01X20884Y11338D01*
G01X20864Y11350D01*
G01X20853Y11355D01*
G01X20842Y11359D01*
G01X20831Y11362D01*
G01X20819Y11365D01*
G01X20807Y11366D01*
G01X20796Y11367D01*
G01X18993Y11367D01*
G01X18987Y11368D01*
G01X18982Y11370D01*
G01X18972Y11376D01*
G01X18968Y11380D01*
G01X18962Y11390D01*
G01X18960Y11395D01*
G01X18959Y11401D01*
G01X18959Y11413D01*
G01X18961Y11430D01*
G01X18961Y11460D01*
G01X18960Y11474D01*
G01X18958Y11488D01*
G01X18955Y11501D01*
G01X18951Y11515D01*
G01X18946Y11528D01*
G01X18941Y11540D01*
G01X18935Y11553D01*
G01X18927Y11564D01*
G01X18920Y11576D01*
G01X18911Y11587D01*
G01X18902Y11597D01*
G01X18898Y11602D01*
G01X18896Y11607D01*
G01X18893Y11613D01*
G01X18892Y11618D01*
G01X18892Y14275D01*
G01X18893Y14281D01*
G01X18896Y14286D01*
G01X18899Y14292D01*
G01X18903Y14297D01*
G01X21056Y16450D01*
G01X21072Y16468D01*
G01X21084Y16488D01*
G01X21089Y16499D01*
G01X21093Y16510D01*
G01X21096Y16521D01*
G01X21099Y16533D01*
G01X21101Y16557D01*
G01X21101Y19363D01*
G01X21102Y19369D01*
G01X21104Y19374D01*
G01X21110Y19384D01*
G01X21114Y19388D01*
G01X21124Y19394D01*
G01X21129Y19396D01*
G01X21135Y19397D01*
G01X21140Y19398D01*
G01X21237Y19398D01*
G01X21247Y19399D01*
G01X21256Y19401D01*
G01X21264Y19404D01*
G01X21273Y19408D01*
G01X21289Y19418D01*
G01X21303Y19430D01*
G01X21309Y19438D01*
G01X21314Y19445D01*
G01X21318Y19453D01*
G01X21322Y19462D01*
G01X21325Y19471D01*
G01X21327Y19480D01*
G01X21329Y19498D01*
G01X21329Y20501D01*
G01X21327Y20519D01*
G01X21325Y20528D01*
G01X21322Y20537D01*
G01X21318Y20546D01*
G01X21314Y20554D01*
G01X21309Y20561D01*
G01X21303Y20569D01*
G01X21289Y20581D01*
G01X21273Y20591D01*
G01X21264Y20595D01*
G01X21256Y20598D01*
G01X21247Y20600D01*
G01X21237Y20601D01*
G01X21228Y20602D01*
G01X20671Y20602D01*
G01X20662Y20601D01*
G01X20652Y20600D01*
G01X20643Y20598D01*
G01X20635Y20595D01*
G01X20626Y20591D01*
G01X20610Y20581D01*
G01X20596Y20569D01*
G01X20590Y20561D01*
G01X20585Y20554D01*
G01X20581Y20546D01*
G01X20577Y20537D01*
G01X20574Y20528D01*
G01X20572Y20519D01*
G01X20570Y20501D01*
G01X20570Y19498D01*
G01X20572Y19480D01*
G01X20574Y19471D01*
G01X20577Y19462D01*
G01X20581Y19453D01*
G01X20585Y19445D01*
G01X20590Y19438D01*
G01X20596Y19430D01*
G01X20610Y19418D01*
G01X20626Y19408D01*
G01X20635Y19404D01*
G01X20643Y19401D01*
G01X20652Y19399D01*
G01X20662Y19398D01*
G01X20759Y19398D01*
G01X20764Y19397D01*
G01X20770Y19396D01*
G01X20775Y19394D01*
G01X20785Y19388D01*
G01X20789Y19384D01*
G01X20795Y19374D01*
G01X20797Y19369D01*
G01X20798Y19363D01*
G01X20798Y16629D01*
G01X20797Y16623D01*
G01X20794Y16617D01*
G01X20791Y16612D01*
G01X20787Y16607D01*
G01X18626Y14446D01*
G01X18618Y14436D01*
G01X18606Y14416D01*
G01X18601Y14405D01*
G01X18597Y14394D01*
G01X18594Y14383D01*
G01X18591Y14371D01*
G01X18590Y14359D01*
G01X18589Y14348D01*
G01X18589Y13489D01*
G01X18588Y13484D01*
G01X18586Y13478D01*
G01X18583Y13473D01*
G01X18580Y13469D01*
G01X18576Y13465D01*
G01X18571Y13461D01*
G01X18561Y13457D01*
G01X18555Y13455D01*
G01X18543Y13455D01*
G01X18531Y13459D01*
G01X18526Y13463D01*
G01X18518Y13471D01*
G01X18514Y13476D01*
G01X18510Y13488D01*
G01X18504Y13514D01*
G01X18500Y13527D01*
G01X18494Y13539D01*
G01X18489Y13551D01*
G01X18482Y13563D01*
G01X18475Y13574D01*
G01X18459Y13596D01*
G01X18449Y13605D01*
G01X18439Y13615D01*
G01X18429Y13623D01*
G01X18418Y13631D01*
G01X18396Y13645D01*
G01X18384Y13651D01*
G01X18371Y13656D01*
G01X18359Y13661D01*
G01X18346Y13664D01*
G01X18332Y13667D01*
G01X18319Y13669D01*
G01X18293Y13671D01*
G01X18279Y13670D01*
G01X18266Y13669D01*
G01X18253Y13667D01*
G01X18227Y13661D01*
G01X18214Y13656D01*
G01X18202Y13651D01*
G01X18178Y13639D01*
G01X18156Y13623D01*
G01X18146Y13615D01*
G01X18136Y13606D01*
G01X18118Y13586D01*
G01X18111Y13575D01*
G01X18103Y13564D01*
G01X18091Y13540D01*
G01X18086Y13528D01*
G01X18081Y13515D01*
G01X18075Y13489D01*
G01X18073Y13476D01*
G01X18072Y13463D01*
G01X18072Y13436D01*
G01X18073Y13422D01*
G01X18075Y13408D01*
G01X18078Y13395D01*
G01X18082Y13382D01*
G01X18092Y13356D01*
G01X18098Y13344D01*
G01X18106Y13332D01*
G01X18113Y13320D01*
G01X18122Y13309D01*
G01X18131Y13299D01*
G01X18135Y13294D01*
G01X18138Y13289D01*
G01X18140Y13284D01*
G01X18142Y13272D01*
G01X18142Y11802D01*
G01X18140Y11790D01*
G01X18138Y11785D01*
G01X18135Y11780D01*
G01X18132Y11776D01*
G01X18128Y11771D01*
G01X18118Y11765D01*
G01X18113Y11763D01*
G01X18107Y11762D01*
G01X18095Y11762D01*
G01X18089Y11763D01*
G01X18083Y11766D01*
G01X18078Y11769D01*
G01X18073Y11773D01*
G01X17077Y12769D01*
G01X17067Y12777D01*
G01X17047Y12789D01*
G01X17036Y12794D01*
G01X17025Y12798D01*
G01X17014Y12801D01*
G01X17002Y12804D01*
G01X16990Y12805D01*
G01X16801Y12805D01*
G01X16789Y12807D01*
G01X16784Y12809D01*
G01X16779Y12812D01*
G01X16775Y12815D01*
G01X16770Y12819D01*
G01X16764Y12829D01*
G01X16762Y12834D01*
G01X16761Y12840D01*
G01X16761Y12852D01*
G01X16765Y12864D01*
G01X16768Y12869D01*
G01X16772Y12874D01*
G01X19056Y15158D01*
G01X19072Y15176D01*
G01X19084Y15196D01*
G01X19089Y15207D01*
G01X19093Y15218D01*
G01X19096Y15229D01*
G01X19099Y15241D01*
G01X19101Y15265D01*
G01X19101Y19363D01*
G01X19102Y19369D01*
G01X19104Y19374D01*
G01X19110Y19384D01*
G01X19114Y19388D01*
G01X19124Y19394D01*
G01X19129Y19396D01*
G01X19135Y19397D01*
G01X19140Y19398D01*
G01X19237Y19398D01*
G01X19247Y19399D01*
G01X19256Y19401D01*
G01X19264Y19404D01*
G01X19273Y19408D01*
G01X19289Y19418D01*
G01X19303Y19430D01*
G01X19309Y19438D01*
G01X19314Y19445D01*
G01X19318Y19453D01*
G01X19322Y19462D01*
G01X19325Y19471D01*
G01X19327Y19480D01*
G01X19329Y19498D01*
G01X19329Y20421D01*
G01X19330Y20426D01*
G01X19331Y20432D01*
G01X19335Y20442D01*
G01X19339Y20447D01*
G01X19343Y20451D01*
G01X19347Y20454D01*
G01X19352Y20457D01*
G01X19358Y20459D01*
G01X19363Y20460D01*
G01X19369Y20461D01*
G01X19530Y20461D01*
G01X19536Y20460D01*
G01X19541Y20459D01*
G01X19547Y20457D01*
G01X19552Y20454D01*
G01X19556Y20451D01*
G01X19560Y20447D01*
G01X19564Y20442D01*
G01X19568Y20432D01*
G01X19569Y20426D01*
G01X19570Y20421D01*
G01X19570Y19498D01*
G01X19572Y19480D01*
G01X19574Y19471D01*
G01X19577Y19462D01*
G01X19581Y19453D01*
G01X19585Y19445D01*
G01X19590Y19438D01*
G01X19596Y19430D01*
G01X19610Y19418D01*
G01X19626Y19408D01*
G01X19635Y19404D01*
G01X19643Y19401D01*
G01X19652Y19399D01*
G01X19662Y19398D01*
G01X20237Y19398D01*
G01X20247Y19399D01*
G01X20256Y19401D01*
G01X20264Y19404D01*
G01X20273Y19408D01*
G01X20289Y19418D01*
G01X20303Y19430D01*
G01X20309Y19438D01*
G01X20314Y19445D01*
G01X20318Y19453D01*
G01X20322Y19462D01*
G01X20325Y19471D01*
G01X20327Y19480D01*
G01X20329Y19498D01*
G01X20329Y20501D01*
G01X20327Y20519D01*
G01X20325Y20528D01*
G01X20322Y20537D01*
G01X20318Y20546D01*
G01X20314Y20554D01*
G01X20309Y20561D01*
G01X20303Y20569D01*
G01X20289Y20581D01*
G01X20273Y20591D01*
G01X20264Y20595D01*
G01X20256Y20598D01*
G01X20247Y20600D01*
G01X20237Y20601D01*
G01X20228Y20602D01*
G01X20132Y20602D01*
G01X20127Y20603D01*
G01X20122Y20605D01*
G01X20112Y20611D01*
G01X20108Y20615D01*
G01X20105Y20619D01*
G01X20102Y20625D01*
G01X20100Y20630D01*
G01X20099Y20635D01*
G01X20097Y20646D01*
G01X20093Y20657D01*
G01X20090Y20668D01*
G01X20080Y20688D01*
G01X20074Y20697D01*
G01X20060Y20715D01*
G01X20052Y20723D01*
G01X20043Y20730D01*
G01X20025Y20742D01*
G01X20015Y20748D01*
G01X20004Y20752D01*
G01X19994Y20756D01*
G01X19983Y20759D01*
G01X19972Y20761D01*
G01X19950Y20763D01*
G01X17598Y20763D01*
G01X17587Y20762D01*
G01X17575Y20761D01*
G01X17563Y20758D01*
G01X17552Y20755D01*
G01X17541Y20751D01*
G01X17530Y20746D01*
G01X17510Y20734D01*
G01X17492Y20718D01*
G01X17204Y20430D01*
G01X17188Y20412D01*
G01X17176Y20392D01*
G01X17171Y20381D01*
G01X17167Y20370D01*
G01X17164Y20359D01*
G01X17161Y20347D01*
G01X17160Y20335D01*
G01X17160Y19963D01*
G01X17159Y19956D01*
G01X17155Y19944D01*
G01X17152Y19939D01*
G01X17148Y19934D01*
G01X16797Y19584D01*
G01X16793Y19580D01*
G01X16781Y19574D01*
G01X16769Y19572D01*
G01X16763Y19573D01*
G01X16758Y19574D01*
G01X16752Y19576D01*
G01X16747Y19578D01*
G01X16735Y19590D01*
G01X16733Y19596D01*
G01X16731Y19601D01*
G01X16730Y19607D01*
G01X16729Y19612D01*
G01X16729Y20501D01*
G01X16727Y20519D01*
G01X16725Y20528D01*
G01X16722Y20537D01*
G01X16718Y20546D01*
G01X16714Y20554D01*
G01X16709Y20561D01*
G01X16703Y20569D01*
G01X16689Y20581D01*
G01X16673Y20591D01*
G01X16664Y20595D01*
G01X16656Y20598D01*
G01X16647Y20600D01*
G01X16637Y20601D01*
G01X16628Y20602D01*
G01X16071Y20602D01*
G01X16062Y20601D01*
G01X16052Y20600D01*
G01X16043Y20598D01*
G01X16034Y20595D01*
G01X16026Y20591D01*
G01X16010Y20581D01*
G01X16003Y20575D01*
G01X15996Y20568D01*
G01X15990Y20561D01*
G01X15980Y20545D01*
G01X15977Y20536D01*
G01X15974Y20528D01*
G01X15972Y20518D01*
G01X15970Y20509D01*
G01X15969Y20503D01*
G01X15968Y20498D01*
G01X15965Y20492D01*
G01X15962Y20487D01*
G01X15957Y20483D01*
G01X15953Y20479D01*
G01X15948Y20476D01*
G01X15942Y20474D01*
G01X15936Y20473D01*
G01X15931Y20472D01*
G01X15919Y20474D01*
G01X15914Y20476D01*
G01X15904Y20482D01*
G01X15900Y20486D01*
G01X15894Y20496D01*
G01X15892Y20501D01*
G01X15891Y20507D01*
G01X15890Y20512D01*
G01X15890Y20585D01*
G01X15889Y20597D01*
G01X15886Y20609D01*
G01X15883Y20620D01*
G01X15879Y20631D01*
G01X15874Y20642D01*
G01X15862Y20662D01*
G01X15846Y20680D01*
G01X15800Y20726D01*
G01X15790Y20734D01*
G01X15770Y20746D01*
G01X15759Y20751D01*
G01X15748Y20755D01*
G01X15737Y20758D01*
G01X15725Y20761D01*
G01X15713Y20762D01*
G01X15702Y20763D01*
G37*
G36*
G01X6310Y1405D02*
G01X5689Y1405D01*
G01X5671Y1403D01*
G01X5662Y1401D01*
G01X5653Y1398D01*
G01X5644Y1394D01*
G01X5636Y1390D01*
G01X5615Y1372D01*
G01X5609Y1365D01*
G01X5599Y1349D01*
G01X5595Y1340D01*
G01X5592Y1332D01*
G01X5590Y1322D01*
G01X5589Y1313D01*
G01X5589Y586D01*
G01X5590Y577D01*
G01X5592Y567D01*
G01X5595Y559D01*
G01X5599Y550D01*
G01X5609Y534D01*
G01X5615Y527D01*
G01X5636Y509D01*
G01X5644Y505D01*
G01X5653Y501D01*
G01X5662Y498D01*
G01X5671Y496D01*
G01X5689Y494D01*
G01X6310Y494D01*
G01X6328Y496D01*
G01X6337Y498D01*
G01X6346Y501D01*
G01X6355Y505D01*
G01X6363Y509D01*
G01X6384Y527D01*
G01X6390Y534D01*
G01X6400Y550D01*
G01X6404Y559D01*
G01X6407Y567D01*
G01X6409Y577D01*
G01X6410Y586D01*
G01X6410Y1313D01*
G01X6409Y1322D01*
G01X6407Y1332D01*
G01X6404Y1340D01*
G01X6400Y1349D01*
G01X6390Y1365D01*
G01X6384Y1372D01*
G01X6363Y1390D01*
G01X6355Y1394D01*
G01X6346Y1398D01*
G01X6337Y1401D01*
G01X6328Y1403D01*
G01X6310Y1405D01*
G37*
G36*
G01X7019Y1405D02*
G01X6980Y1405D01*
G01X6942Y1401D01*
G01X6922Y1398D01*
G01X6903Y1395D01*
G01X6885Y1390D01*
G01X6866Y1385D01*
G01X6848Y1379D01*
G01X6812Y1365D01*
G01X6794Y1356D01*
G01X6777Y1347D01*
G01X6761Y1337D01*
G01X6744Y1327D01*
G01X6729Y1315D01*
G01X6714Y1304D01*
G01X6699Y1291D01*
G01X6671Y1265D01*
G01X6658Y1250D01*
G01X6645Y1236D01*
G01X6634Y1220D01*
G01X6622Y1205D01*
G01X6602Y1171D01*
G01X6593Y1155D01*
G01X6577Y1119D01*
G01X6570Y1101D01*
G01X6564Y1083D01*
G01X6559Y1064D01*
G01X6554Y1046D01*
G01X6551Y1026D01*
G01X6548Y1007D01*
G01X6544Y969D01*
G01X6544Y930D01*
G01X6548Y892D01*
G01X6551Y873D01*
G01X6554Y853D01*
G01X6559Y835D01*
G01X6564Y816D01*
G01X6570Y798D01*
G01X6577Y780D01*
G01X6593Y744D01*
G01X6602Y728D01*
G01X6622Y694D01*
G01X6634Y679D01*
G01X6645Y663D01*
G01X6658Y649D01*
G01X6671Y634D01*
G01X6699Y608D01*
G01X6714Y595D01*
G01X6729Y584D01*
G01X6744Y572D01*
G01X6761Y562D01*
G01X6777Y552D01*
G01X6794Y543D01*
G01X6812Y534D01*
G01X6848Y520D01*
G01X6866Y514D01*
G01X6885Y509D01*
G01X6903Y504D01*
G01X6922Y501D01*
G01X6942Y498D01*
G01X6980Y494D01*
G01X7019Y494D01*
G01X7057Y498D01*
G01X7077Y501D01*
G01X7096Y504D01*
G01X7114Y509D01*
G01X7133Y514D01*
G01X7151Y520D01*
G01X7187Y534D01*
G01X7205Y543D01*
G01X7222Y552D01*
G01X7238Y562D01*
G01X7255Y572D01*
G01X7270Y584D01*
G01X7285Y595D01*
G01X7300Y608D01*
G01X7328Y634D01*
G01X7341Y649D01*
G01X7354Y663D01*
G01X7365Y679D01*
G01X7377Y694D01*
G01X7397Y728D01*
G01X7406Y744D01*
G01X7422Y780D01*
G01X7429Y798D01*
G01X7435Y816D01*
G01X7440Y835D01*
G01X7445Y853D01*
G01X7448Y873D01*
G01X7451Y892D01*
G01X7455Y930D01*
G01X7455Y969D01*
G01X7451Y1007D01*
G01X7448Y1026D01*
G01X7445Y1046D01*
G01X7440Y1064D01*
G01X7435Y1083D01*
G01X7429Y1101D01*
G01X7422Y1119D01*
G01X7406Y1155D01*
G01X7397Y1171D01*
G01X7377Y1205D01*
G01X7365Y1220D01*
G01X7354Y1236D01*
G01X7341Y1250D01*
G01X7328Y1265D01*
G01X7300Y1291D01*
G01X7285Y1304D01*
G01X7270Y1315D01*
G01X7255Y1327D01*
G01X7238Y1337D01*
G01X7222Y1347D01*
G01X7205Y1356D01*
G01X7187Y1365D01*
G01X7151Y1379D01*
G01X7133Y1385D01*
G01X7114Y1390D01*
G01X7096Y1395D01*
G01X7077Y1398D01*
G01X7057Y1401D01*
G01X7019Y1405D01*
G37*
G36*
G01X8019Y1405D02*
G01X7980Y1405D01*
G01X7942Y1401D01*
G01X7922Y1398D01*
G01X7903Y1395D01*
G01X7885Y1390D01*
G01X7866Y1385D01*
G01X7848Y1379D01*
G01X7812Y1365D01*
G01X7794Y1356D01*
G01X7777Y1347D01*
G01X7761Y1337D01*
G01X7744Y1327D01*
G01X7729Y1315D01*
G01X7714Y1304D01*
G01X7699Y1291D01*
G01X7671Y1265D01*
G01X7658Y1250D01*
G01X7645Y1236D01*
G01X7634Y1220D01*
G01X7622Y1205D01*
G01X7602Y1171D01*
G01X7593Y1155D01*
G01X7577Y1119D01*
G01X7570Y1101D01*
G01X7564Y1083D01*
G01X7559Y1064D01*
G01X7554Y1046D01*
G01X7551Y1026D01*
G01X7548Y1007D01*
G01X7544Y969D01*
G01X7544Y930D01*
G01X7548Y892D01*
G01X7551Y873D01*
G01X7554Y853D01*
G01X7559Y835D01*
G01X7564Y816D01*
G01X7570Y798D01*
G01X7577Y780D01*
G01X7593Y744D01*
G01X7602Y728D01*
G01X7622Y694D01*
G01X7634Y679D01*
G01X7645Y663D01*
G01X7658Y649D01*
G01X7671Y634D01*
G01X7699Y608D01*
G01X7714Y595D01*
G01X7729Y584D01*
G01X7744Y572D01*
G01X7761Y562D01*
G01X7777Y552D01*
G01X7794Y543D01*
G01X7812Y534D01*
G01X7848Y520D01*
G01X7866Y514D01*
G01X7885Y509D01*
G01X7903Y504D01*
G01X7922Y501D01*
G01X7942Y498D01*
G01X7980Y494D01*
G01X8019Y494D01*
G01X8057Y498D01*
G01X8077Y501D01*
G01X8096Y504D01*
G01X8114Y509D01*
G01X8133Y514D01*
G01X8151Y520D01*
G01X8187Y534D01*
G01X8205Y543D01*
G01X8222Y552D01*
G01X8238Y562D01*
G01X8255Y572D01*
G01X8270Y584D01*
G01X8285Y595D01*
G01X8300Y608D01*
G01X8328Y634D01*
G01X8341Y649D01*
G01X8354Y663D01*
G01X8365Y679D01*
G01X8377Y694D01*
G01X8397Y728D01*
G01X8406Y744D01*
G01X8422Y780D01*
G01X8429Y798D01*
G01X8435Y816D01*
G01X8440Y835D01*
G01X8445Y853D01*
G01X8448Y873D01*
G01X8451Y892D01*
G01X8455Y930D01*
G01X8455Y969D01*
G01X8451Y1007D01*
G01X8448Y1026D01*
G01X8445Y1046D01*
G01X8440Y1064D01*
G01X8435Y1083D01*
G01X8429Y1101D01*
G01X8422Y1119D01*
G01X8406Y1155D01*
G01X8397Y1171D01*
G01X8377Y1205D01*
G01X8365Y1220D01*
G01X8354Y1236D01*
G01X8341Y1250D01*
G01X8328Y1265D01*
G01X8300Y1291D01*
G01X8285Y1304D01*
G01X8270Y1315D01*
G01X8255Y1327D01*
G01X8238Y1337D01*
G01X8222Y1347D01*
G01X8205Y1356D01*
G01X8187Y1365D01*
G01X8151Y1379D01*
G01X8133Y1385D01*
G01X8114Y1390D01*
G01X8096Y1395D01*
G01X8077Y1398D01*
G01X8057Y1401D01*
G01X8019Y1405D01*
G37*
G36*
G01X11955Y807D02*
G01X11793Y807D01*
G01X11793Y644D01*
G01X11807Y652D01*
G01X11822Y660D01*
G01X11850Y678D01*
G01X11876Y700D01*
G01X11888Y711D01*
G01X11899Y723D01*
G01X11921Y749D01*
G01X11939Y777D01*
G01X11955Y807D01*
G37*
G36*
G01X11506Y807D02*
G01X11344Y807D01*
G01X11360Y777D01*
G01X11378Y749D01*
G01X11400Y723D01*
G01X11411Y711D01*
G01X11423Y700D01*
G01X11449Y678D01*
G01X11477Y660D01*
G01X11492Y652D01*
G01X11506Y644D01*
G01X11506Y807D01*
G37*
G36*
G01X2212Y1187D02*
G01X2035Y1187D01*
G01X2035Y1010D01*
G01X2052Y1018D01*
G01X2067Y1027D01*
G01X2083Y1037D01*
G01X2097Y1048D01*
G01X2112Y1059D01*
G01X2126Y1071D01*
G01X2139Y1083D01*
G01X2151Y1096D01*
G01X2163Y1110D01*
G01X2175Y1125D01*
G01X2185Y1139D01*
G01X2195Y1155D01*
G01X2204Y1171D01*
G01X2212Y1187D01*
G37*
G36*
G01X1710Y1187D02*
G01X1533Y1187D01*
G01X1541Y1171D01*
G01X1550Y1155D01*
G01X1560Y1139D01*
G01X1571Y1125D01*
G01X1582Y1110D01*
G01X1594Y1096D01*
G01X1606Y1083D01*
G01X1619Y1071D01*
G01X1633Y1059D01*
G01X1647Y1048D01*
G01X1662Y1037D01*
G01X1678Y1027D01*
G01X1693Y1018D01*
G01X1710Y1010D01*
G01X1710Y1187D01*
G37*
G36*
G01X11807Y1247D02*
G01X11793Y1255D01*
G01X11793Y1092D01*
G01X11955Y1092D01*
G01X11939Y1122D01*
G01X11921Y1150D01*
G01X11899Y1176D01*
G01X11888Y1188D01*
G01X11876Y1199D01*
G01X11850Y1221D01*
G01X11822Y1239D01*
G01X11807Y1247D01*
G37*
G36*
G01X11506Y1092D02*
G01X11506Y1255D01*
G01X11492Y1247D01*
G01X11477Y1239D01*
G01X11449Y1221D01*
G01X11423Y1199D01*
G01X11411Y1188D01*
G01X11400Y1176D01*
G01X11378Y1150D01*
G01X11360Y1122D01*
G01X11344Y1092D01*
G01X11506Y1092D01*
G37*
G36*
G01X16785Y1602D02*
G01X16671Y1602D01*
G01X16661Y1601D01*
G01X16652Y1600D01*
G01X16643Y1598D01*
G01X16634Y1595D01*
G01X16626Y1591D01*
G01X16617Y1587D01*
G01X16610Y1582D01*
G01X16602Y1576D01*
G01X16590Y1562D01*
G01X16580Y1546D01*
G01X16576Y1538D01*
G01X16573Y1528D01*
G01X16571Y1519D01*
G01X16569Y1501D01*
G01X16569Y1275D01*
G01X16785Y1275D01*
G01X16785Y1602D01*
G37*
G36*
G01X16228Y1602D02*
G01X16114Y1602D01*
G01X16114Y1275D01*
G01X16329Y1275D01*
G01X16329Y1510D01*
G01X16325Y1528D01*
G01X16322Y1538D01*
G01X16314Y1554D01*
G01X16309Y1562D01*
G01X16303Y1569D01*
G01X16296Y1576D01*
G01X16289Y1582D01*
G01X16281Y1587D01*
G01X16273Y1591D01*
G01X16264Y1595D01*
G01X16256Y1598D01*
G01X16247Y1600D01*
G01X16237Y1601D01*
G01X16228Y1602D01*
G37*
G36*
G01X17228Y1602D02*
G01X17114Y1602D01*
G01X17114Y1275D01*
G01X17329Y1275D01*
G01X17329Y1510D01*
G01X17325Y1528D01*
G01X17322Y1538D01*
G01X17314Y1554D01*
G01X17309Y1562D01*
G01X17303Y1569D01*
G01X17296Y1576D01*
G01X17289Y1582D01*
G01X17281Y1587D01*
G01X17273Y1591D01*
G01X17264Y1595D01*
G01X17256Y1598D01*
G01X17247Y1600D01*
G01X17237Y1601D01*
G01X17228Y1602D01*
G37*
G36*
G01X15785Y1602D02*
G01X15671Y1602D01*
G01X15661Y1601D01*
G01X15652Y1600D01*
G01X15643Y1598D01*
G01X15634Y1595D01*
G01X15626Y1591D01*
G01X15617Y1587D01*
G01X15610Y1582D01*
G01X15602Y1576D01*
G01X15590Y1562D01*
G01X15580Y1546D01*
G01X15576Y1538D01*
G01X15573Y1528D01*
G01X15571Y1519D01*
G01X15569Y1501D01*
G01X15569Y1275D01*
G01X15785Y1275D01*
G01X15785Y1602D01*
G37*
G36*
G01X4438Y1563D02*
G01X4423Y1571D01*
G01X4423Y1423D01*
G01X4571Y1423D01*
G01X4563Y1438D01*
G01X4547Y1466D01*
G01X4527Y1492D01*
G01X4516Y1504D01*
G01X4504Y1516D01*
G01X4492Y1527D01*
G01X4479Y1537D01*
G01X4466Y1546D01*
G01X4452Y1555D01*
G01X4438Y1563D01*
G37*
G36*
G01X1710Y1512D02*
G01X1710Y1689D01*
G01X1693Y1681D01*
G01X1678Y1672D01*
G01X1662Y1662D01*
G01X1647Y1651D01*
G01X1633Y1640D01*
G01X1619Y1628D01*
G01X1606Y1616D01*
G01X1594Y1603D01*
G01X1582Y1589D01*
G01X1571Y1575D01*
G01X1560Y1560D01*
G01X1550Y1544D01*
G01X1541Y1528D01*
G01X1533Y1512D01*
G01X1710Y1512D01*
G37*
G36*
G01X2052Y1681D02*
G01X2035Y1689D01*
G01X2035Y1512D01*
G01X2212Y1512D01*
G01X2204Y1528D01*
G01X2195Y1544D01*
G01X2185Y1560D01*
G01X2175Y1575D01*
G01X2151Y1603D01*
G01X2139Y1616D01*
G01X2126Y1628D01*
G01X2112Y1640D01*
G01X2097Y1651D01*
G01X2083Y1662D01*
G01X2067Y1672D01*
G01X2052Y1681D01*
G37*
G36*
G01X23105Y2755D02*
G01X22910Y2755D01*
G01X22910Y2652D01*
G01X22912Y2642D01*
G01X22914Y2633D01*
G01X22917Y2625D01*
G01X22921Y2616D01*
G01X22925Y2608D01*
G01X22931Y2600D01*
G01X22936Y2593D01*
G01X22943Y2586D01*
G01X22950Y2580D01*
G01X22958Y2575D01*
G01X22966Y2571D01*
G01X22975Y2567D01*
G01X22983Y2564D01*
G01X22993Y2562D01*
G01X23011Y2560D01*
G01X23105Y2560D01*
G01X23105Y2755D01*
G37*
G36*
G01X21639Y2755D02*
G01X21444Y2755D01*
G01X21444Y2560D01*
G01X21538Y2560D01*
G01X21556Y2562D01*
G01X21566Y2564D01*
G01X21575Y2567D01*
G01X21591Y2575D01*
G01X21599Y2580D01*
G01X21606Y2586D01*
G01X21613Y2593D01*
G01X21618Y2600D01*
G01X21624Y2608D01*
G01X21628Y2616D01*
G01X21632Y2625D01*
G01X21635Y2633D01*
G01X21637Y2642D01*
G01X21639Y2652D01*
G01X21639Y2755D01*
G37*
G36*
G01X21155Y2755D02*
G01X20960Y2755D01*
G01X20960Y2652D01*
G01X20962Y2642D01*
G01X20964Y2633D01*
G01X20967Y2625D01*
G01X20971Y2616D01*
G01X20975Y2608D01*
G01X20981Y2600D01*
G01X20986Y2593D01*
G01X20993Y2586D01*
G01X21000Y2580D01*
G01X21008Y2575D01*
G01X21016Y2571D01*
G01X21025Y2567D01*
G01X21033Y2564D01*
G01X21043Y2562D01*
G01X21061Y2560D01*
G01X21155Y2560D01*
G01X21155Y2755D01*
G37*
G36*
G01X19689Y2755D02*
G01X19494Y2755D01*
G01X19494Y2560D01*
G01X19588Y2560D01*
G01X19606Y2562D01*
G01X19616Y2564D01*
G01X19625Y2567D01*
G01X19641Y2575D01*
G01X19649Y2580D01*
G01X19656Y2586D01*
G01X19663Y2593D01*
G01X19668Y2600D01*
G01X19674Y2608D01*
G01X19678Y2616D01*
G01X19682Y2625D01*
G01X19685Y2633D01*
G01X19687Y2642D01*
G01X19689Y2652D01*
G01X19689Y2755D01*
G37*
G36*
G01X19205Y2755D02*
G01X19010Y2755D01*
G01X19010Y2652D01*
G01X19012Y2642D01*
G01X19014Y2633D01*
G01X19017Y2625D01*
G01X19021Y2616D01*
G01X19025Y2608D01*
G01X19031Y2600D01*
G01X19036Y2593D01*
G01X19043Y2586D01*
G01X19050Y2580D01*
G01X19058Y2575D01*
G01X19066Y2571D01*
G01X19075Y2567D01*
G01X19083Y2564D01*
G01X19093Y2562D01*
G01X19111Y2560D01*
G01X19205Y2560D01*
G01X19205Y2755D01*
G37*
G36*
G01X23589Y2755D02*
G01X23394Y2755D01*
G01X23394Y2560D01*
G01X23488Y2560D01*
G01X23506Y2562D01*
G01X23516Y2564D01*
G01X23525Y2567D01*
G01X23541Y2575D01*
G01X23549Y2580D01*
G01X23556Y2586D01*
G01X23563Y2593D01*
G01X23568Y2600D01*
G01X23574Y2608D01*
G01X23578Y2616D01*
G01X23582Y2625D01*
G01X23585Y2633D01*
G01X23587Y2642D01*
G01X23589Y2652D01*
G01X23589Y2755D01*
G37*
G36*
G01X25539Y2755D02*
G01X25344Y2755D01*
G01X25344Y2560D01*
G01X25438Y2560D01*
G01X25456Y2562D01*
G01X25466Y2564D01*
G01X25475Y2567D01*
G01X25491Y2575D01*
G01X25499Y2580D01*
G01X25506Y2586D01*
G01X25513Y2593D01*
G01X25518Y2600D01*
G01X25524Y2608D01*
G01X25528Y2616D01*
G01X25532Y2625D01*
G01X25535Y2633D01*
G01X25537Y2642D01*
G01X25539Y2652D01*
G01X25539Y2755D01*
G37*
G36*
G01X25055Y2755D02*
G01X24860Y2755D01*
G01X24860Y2652D01*
G01X24862Y2642D01*
G01X24864Y2633D01*
G01X24867Y2625D01*
G01X24871Y2616D01*
G01X24875Y2608D01*
G01X24881Y2600D01*
G01X24886Y2593D01*
G01X24893Y2586D01*
G01X24900Y2580D01*
G01X24908Y2575D01*
G01X24916Y2571D01*
G01X24925Y2567D01*
G01X24933Y2564D01*
G01X24943Y2562D01*
G01X24961Y2560D01*
G01X25055Y2560D01*
G01X25055Y2755D01*
G37*
G36*
G01X23105Y3239D02*
G01X23011Y3239D01*
G01X22993Y3237D01*
G01X22983Y3235D01*
G01X22975Y3232D01*
G01X22966Y3228D01*
G01X22958Y3224D01*
G01X22950Y3219D01*
G01X22943Y3213D01*
G01X22936Y3206D01*
G01X22931Y3199D01*
G01X22925Y3191D01*
G01X22917Y3175D01*
G01X22914Y3166D01*
G01X22912Y3157D01*
G01X22910Y3147D01*
G01X22910Y3044D01*
G01X23105Y3044D01*
G01X23105Y3239D01*
G37*
G36*
G01X21155Y3239D02*
G01X21061Y3239D01*
G01X21043Y3237D01*
G01X21033Y3235D01*
G01X21025Y3232D01*
G01X21016Y3228D01*
G01X21008Y3224D01*
G01X21000Y3219D01*
G01X20993Y3213D01*
G01X20986Y3206D01*
G01X20981Y3199D01*
G01X20975Y3191D01*
G01X20967Y3175D01*
G01X20964Y3166D01*
G01X20962Y3157D01*
G01X20960Y3147D01*
G01X20960Y3044D01*
G01X21155Y3044D01*
G01X21155Y3239D01*
G37*
G36*
G01X21538Y3239D02*
G01X21444Y3239D01*
G01X21444Y3044D01*
G01X21639Y3044D01*
G01X21639Y3147D01*
G01X21637Y3157D01*
G01X21635Y3166D01*
G01X21632Y3175D01*
G01X21624Y3191D01*
G01X21618Y3199D01*
G01X21613Y3206D01*
G01X21606Y3213D01*
G01X21599Y3219D01*
G01X21591Y3224D01*
G01X21575Y3232D01*
G01X21566Y3235D01*
G01X21556Y3237D01*
G01X21538Y3239D01*
G37*
G36*
G01X19205Y3239D02*
G01X19111Y3239D01*
G01X19093Y3237D01*
G01X19083Y3235D01*
G01X19075Y3232D01*
G01X19066Y3228D01*
G01X19058Y3224D01*
G01X19050Y3219D01*
G01X19043Y3213D01*
G01X19036Y3206D01*
G01X19031Y3199D01*
G01X19025Y3191D01*
G01X19017Y3175D01*
G01X19014Y3166D01*
G01X19012Y3157D01*
G01X19010Y3147D01*
G01X19010Y3044D01*
G01X19205Y3044D01*
G01X19205Y3239D01*
G37*
G36*
G01X19588Y3239D02*
G01X19494Y3239D01*
G01X19494Y3044D01*
G01X19689Y3044D01*
G01X19689Y3147D01*
G01X19687Y3157D01*
G01X19685Y3166D01*
G01X19682Y3175D01*
G01X19674Y3191D01*
G01X19668Y3199D01*
G01X19663Y3206D01*
G01X19656Y3213D01*
G01X19649Y3219D01*
G01X19641Y3224D01*
G01X19625Y3232D01*
G01X19616Y3235D01*
G01X19606Y3237D01*
G01X19588Y3239D01*
G37*
G36*
G01X25055Y3239D02*
G01X24961Y3239D01*
G01X24943Y3237D01*
G01X24933Y3235D01*
G01X24925Y3232D01*
G01X24916Y3228D01*
G01X24908Y3224D01*
G01X24900Y3219D01*
G01X24893Y3213D01*
G01X24886Y3206D01*
G01X24881Y3199D01*
G01X24875Y3191D01*
G01X24867Y3175D01*
G01X24864Y3166D01*
G01X24862Y3157D01*
G01X24860Y3147D01*
G01X24860Y3044D01*
G01X25055Y3044D01*
G01X25055Y3239D01*
G37*
G36*
G01X23488Y3239D02*
G01X23394Y3239D01*
G01X23394Y3044D01*
G01X23589Y3044D01*
G01X23589Y3147D01*
G01X23587Y3157D01*
G01X23585Y3166D01*
G01X23582Y3175D01*
G01X23574Y3191D01*
G01X23568Y3199D01*
G01X23563Y3206D01*
G01X23556Y3213D01*
G01X23549Y3219D01*
G01X23541Y3224D01*
G01X23525Y3232D01*
G01X23516Y3235D01*
G01X23506Y3237D01*
G01X23488Y3239D01*
G37*
G36*
G01X25438Y3239D02*
G01X25344Y3239D01*
G01X25344Y3044D01*
G01X25539Y3044D01*
G01X25539Y3147D01*
G01X25537Y3157D01*
G01X25535Y3166D01*
G01X25532Y3175D01*
G01X25524Y3191D01*
G01X25518Y3199D01*
G01X25513Y3206D01*
G01X25506Y3213D01*
G01X25499Y3219D01*
G01X25491Y3224D01*
G01X25475Y3232D01*
G01X25466Y3235D01*
G01X25456Y3237D01*
G01X25438Y3239D01*
G37*
G36*
G01X15759Y4670D02*
G01X15739Y4671D01*
G01X15701Y4669D01*
G01X15681Y4667D01*
G01X15643Y4661D01*
G01X15605Y4651D01*
G01X15586Y4645D01*
G01X15550Y4631D01*
G01X15533Y4623D01*
G01X15515Y4614D01*
G01X15498Y4604D01*
G01X15482Y4594D01*
G01X15466Y4583D01*
G01X15450Y4571D01*
G01X15435Y4559D01*
G01X15421Y4546D01*
G01X15406Y4532D01*
G01X15393Y4519D01*
G01X15380Y4504D01*
G01X15368Y4489D01*
G01X15356Y4473D01*
G01X15345Y4457D01*
G01X15335Y4440D01*
G01X15325Y4424D01*
G01X15316Y4406D01*
G01X15308Y4389D01*
G01X15294Y4353D01*
G01X15288Y4334D01*
G01X15278Y4296D01*
G01X15272Y4258D01*
G01X15270Y4238D01*
G01X15268Y4200D01*
G01X15269Y4180D01*
G01X15270Y4161D01*
G01X15272Y4141D01*
G01X15278Y4103D01*
G01X15288Y4065D01*
G01X15294Y4046D01*
G01X15308Y4010D01*
G01X15316Y3993D01*
G01X15325Y3975D01*
G01X15335Y3959D01*
G01X15345Y3942D01*
G01X15356Y3926D01*
G01X15368Y3910D01*
G01X15380Y3895D01*
G01X15393Y3880D01*
G01X15406Y3867D01*
G01X15421Y3853D01*
G01X15435Y3840D01*
G01X15450Y3828D01*
G01X15466Y3816D01*
G01X15482Y3805D01*
G01X15498Y3795D01*
G01X15515Y3785D01*
G01X15533Y3776D01*
G01X15550Y3768D01*
G01X15586Y3754D01*
G01X15605Y3748D01*
G01X15643Y3738D01*
G01X15681Y3732D01*
G01X15701Y3730D01*
G01X15739Y3728D01*
G01X15759Y3729D01*
G01X15778Y3730D01*
G01X15798Y3732D01*
G01X15836Y3738D01*
G01X15874Y3748D01*
G01X15893Y3754D01*
G01X15929Y3768D01*
G01X15946Y3776D01*
G01X15964Y3785D01*
G01X15981Y3795D01*
G01X15997Y3805D01*
G01X16013Y3816D01*
G01X16029Y3828D01*
G01X16044Y3840D01*
G01X16059Y3853D01*
G01X16072Y3867D01*
G01X16086Y3880D01*
G01X16099Y3895D01*
G01X16111Y3910D01*
G01X16123Y3926D01*
G01X16134Y3942D01*
G01X16144Y3959D01*
G01X16154Y3975D01*
G01X16163Y3993D01*
G01X16171Y4010D01*
G01X16185Y4046D01*
G01X16191Y4065D01*
G01X16201Y4103D01*
G01X16207Y4141D01*
G01X16209Y4161D01*
G01X16210Y4180D01*
G01X16210Y4219D01*
G01X16209Y4238D01*
G01X16207Y4258D01*
G01X16201Y4296D01*
G01X16191Y4334D01*
G01X16185Y4353D01*
G01X16171Y4389D01*
G01X16163Y4406D01*
G01X16154Y4424D01*
G01X16144Y4440D01*
G01X16134Y4457D01*
G01X16123Y4473D01*
G01X16111Y4489D01*
G01X16099Y4504D01*
G01X16086Y4519D01*
G01X16072Y4532D01*
G01X16059Y4546D01*
G01X16044Y4559D01*
G01X16029Y4571D01*
G01X16013Y4583D01*
G01X15997Y4594D01*
G01X15981Y4604D01*
G01X15964Y4614D01*
G01X15946Y4623D01*
G01X15929Y4631D01*
G01X15893Y4645D01*
G01X15874Y4651D01*
G01X15836Y4661D01*
G01X15798Y4667D01*
G01X15778Y4669D01*
G01X15759Y4670D01*
G37*
G36*
G01X7538Y19999D02*
G01X7500Y20001D01*
G01X7480Y20000D01*
G01X7461Y19999D01*
G01X7442Y19997D01*
G01X7423Y19994D01*
G01X7405Y19990D01*
G01X7386Y19986D01*
G01X7368Y19981D01*
G01X7349Y19975D01*
G01X7331Y19968D01*
G01X7314Y19961D01*
G01X7263Y19934D01*
G01X7231Y19912D01*
G01X7216Y19900D01*
G01X7202Y19888D01*
G01X7188Y19875D01*
G01X7161Y19848D01*
G01X7137Y19818D01*
G01X7115Y19786D01*
G01X7106Y19769D01*
G01X7097Y19753D01*
G01X7089Y19735D01*
G01X7081Y19718D01*
G01X7074Y19700D01*
G01X7068Y19682D01*
G01X7063Y19663D01*
G01X7059Y19644D01*
G01X7055Y19626D01*
G01X7052Y19607D01*
G01X7050Y19588D01*
G01X7048Y19550D01*
G01X7049Y19530D01*
G01X7050Y19511D01*
G01X7052Y19492D01*
G01X7055Y19473D01*
G01X7059Y19453D01*
G01X7063Y19435D01*
G01X7069Y19416D01*
G01X7075Y19398D01*
G01X7082Y19380D01*
G01X7084Y19372D01*
G01X7085Y19365D01*
G01X7084Y19359D01*
G01X7083Y19352D01*
G01X7080Y19346D01*
G01X7077Y19341D01*
G01X7073Y19336D01*
G01X5035Y17298D01*
G01X5027Y17288D01*
G01X5015Y17268D01*
G01X5010Y17257D01*
G01X5006Y17246D01*
G01X5003Y17235D01*
G01X5000Y17223D01*
G01X4999Y17211D01*
G01X4998Y17200D01*
G01X4998Y14985D01*
G01X4997Y14979D01*
G01X4995Y14974D01*
G01X4989Y14964D01*
G01X4985Y14960D01*
G01X4975Y14954D01*
G01X4970Y14952D01*
G01X4964Y14951D01*
G01X4952Y14951D01*
G01X4945Y14953D01*
G01X4939Y14956D01*
G01X4933Y14960D01*
G01X4917Y14973D01*
G01X4900Y14985D01*
G01X4883Y14996D01*
G01X4865Y15007D01*
G01X4847Y15017D01*
G01X4829Y15026D01*
G01X4791Y15042D01*
G01X4772Y15049D01*
G01X4732Y15059D01*
G01X4711Y15063D01*
G01X4691Y15067D01*
G01X4671Y15069D01*
G01X4650Y15070D01*
G01X4630Y15071D01*
G01X4610Y15070D01*
G01X4591Y15069D01*
G01X4571Y15067D01*
G01X4533Y15061D01*
G01X4495Y15051D01*
G01X4477Y15045D01*
G01X4458Y15038D01*
G01X4440Y15031D01*
G01X4423Y15023D01*
G01X4405Y15014D01*
G01X4389Y15004D01*
G01X4372Y14994D01*
G01X4356Y14983D01*
G01X4340Y14971D01*
G01X4325Y14959D01*
G01X4310Y14946D01*
G01X4297Y14932D01*
G01X4283Y14919D01*
G01X4270Y14904D01*
G01X4258Y14889D01*
G01X4246Y14873D01*
G01X4235Y14857D01*
G01X4225Y14840D01*
G01X4215Y14824D01*
G01X4206Y14806D01*
G01X4198Y14789D01*
G01X4184Y14753D01*
G01X4178Y14734D01*
G01X4168Y14696D01*
G01X4162Y14658D01*
G01X4160Y14638D01*
G01X4159Y14619D01*
G01X4159Y14580D01*
G01X4160Y14559D01*
G01X4162Y14540D01*
G01X4165Y14520D01*
G01X4169Y14500D01*
G01X4179Y14462D01*
G01X4185Y14443D01*
G01X4193Y14424D01*
G01X4200Y14406D01*
G01X4218Y14370D01*
G01X4228Y14353D01*
G01X4239Y14336D01*
G01X4263Y14304D01*
G01X4276Y14288D01*
G01X4289Y14274D01*
G01X4303Y14260D01*
G01X4318Y14246D01*
G01X4333Y14233D01*
G01X4365Y14209D01*
G01X4382Y14199D01*
G01X4400Y14188D01*
G01X4417Y14179D01*
G01X4453Y14163D01*
G01X4459Y14160D01*
G01X4464Y14157D01*
G01X4468Y14153D01*
G01X4472Y14148D01*
G01X4475Y14143D01*
G01X4477Y14137D01*
G01X4478Y14132D01*
G01X4478Y7507D01*
G01X4479Y7496D01*
G01X4480Y7484D01*
G01X4483Y7472D01*
G01X4486Y7461D01*
G01X4490Y7450D01*
G01X4495Y7439D01*
G01X4507Y7419D01*
G01X4515Y7409D01*
G01X4523Y7401D01*
G01X5315Y6607D01*
G01X5319Y6603D01*
G01X5323Y6597D01*
G01X5327Y6585D01*
G01X5327Y6573D01*
G01X5323Y6561D01*
G01X5315Y6551D01*
G01X5311Y6547D01*
G01X5306Y6544D01*
G01X5300Y6541D01*
G01X5294Y6540D01*
G01X5294Y6344D01*
G01X5307Y6344D01*
G01X5319Y6342D01*
G01X5329Y6338D01*
G01X5334Y6334D01*
G01X5338Y6330D01*
G01X5344Y6320D01*
G01X5346Y6315D01*
G01X5347Y6309D01*
G01X5347Y6090D01*
G01X5346Y6084D01*
G01X5344Y6079D01*
G01X5338Y6069D01*
G01X5334Y6065D01*
G01X5329Y6061D01*
G01X5319Y6057D01*
G01X5307Y6055D01*
G01X5294Y6055D01*
G01X5294Y5860D01*
G01X5307Y5860D01*
G01X5319Y5858D01*
G01X5329Y5854D01*
G01X5334Y5850D01*
G01X5338Y5846D01*
G01X5341Y5842D01*
G01X5344Y5837D01*
G01X5346Y5831D01*
G01X5347Y5826D01*
G01X5347Y5271D01*
G01X5346Y5265D01*
G01X5343Y5259D01*
G01X5340Y5254D01*
G01X5336Y5249D01*
G01X5043Y4955D01*
G01X5027Y4937D01*
G01X5021Y4928D01*
G01X5015Y4917D01*
G01X5010Y4907D01*
G01X5006Y4896D01*
G01X5003Y4884D01*
G01X5001Y4873D01*
G01X4997Y4861D01*
G01X4993Y4855D01*
G01X4985Y4847D01*
G01X4979Y4843D01*
G01X4973Y4841D01*
G01X4961Y4839D01*
G01X4911Y4839D01*
G01X4893Y4837D01*
G01X4883Y4835D01*
G01X4875Y4832D01*
G01X4866Y4828D01*
G01X4858Y4824D01*
G01X4850Y4819D01*
G01X4843Y4813D01*
G01X4836Y4806D01*
G01X4831Y4799D01*
G01X4825Y4791D01*
G01X4817Y4775D01*
G01X4814Y4766D01*
G01X4812Y4757D01*
G01X4810Y4747D01*
G01X4810Y4252D01*
G01X4812Y4242D01*
G01X4814Y4233D01*
G01X4817Y4225D01*
G01X4821Y4216D01*
G01X4825Y4208D01*
G01X4831Y4200D01*
G01X4836Y4193D01*
G01X4843Y4186D01*
G01X4850Y4180D01*
G01X4858Y4175D01*
G01X4866Y4171D01*
G01X4875Y4167D01*
G01X4883Y4164D01*
G01X4893Y4162D01*
G01X4911Y4160D01*
G01X5388Y4160D01*
G01X5406Y4162D01*
G01X5416Y4164D01*
G01X5425Y4167D01*
G01X5441Y4175D01*
G01X5449Y4180D01*
G01X5456Y4186D01*
G01X5463Y4193D01*
G01X5468Y4200D01*
G01X5474Y4208D01*
G01X5478Y4216D01*
G01X5482Y4225D01*
G01X5485Y4233D01*
G01X5487Y4242D01*
G01X5489Y4252D01*
G01X5489Y4747D01*
G01X5487Y4757D01*
G01X5485Y4765D01*
G01X5482Y4774D01*
G01X5478Y4783D01*
G01X5474Y4791D01*
G01X5469Y4798D01*
G01X5463Y4806D01*
G01X5449Y4818D01*
G01X5442Y4823D01*
G01X5434Y4828D01*
G01X5425Y4832D01*
G01X5420Y4834D01*
G01X5410Y4842D01*
G01X5404Y4852D01*
G01X5402Y4857D01*
G01X5400Y4863D01*
G01X5400Y4875D01*
G01X5402Y4882D01*
G01X5404Y4887D01*
G01X5407Y4893D01*
G01X5606Y5092D01*
G01X5614Y5101D01*
G01X5621Y5110D01*
G01X5633Y5130D01*
G01X5638Y5141D01*
G01X5642Y5152D01*
G01X5645Y5163D01*
G01X5648Y5175D01*
G01X5649Y5187D01*
G01X5650Y5198D01*
G01X5650Y6638D01*
G01X5649Y6649D01*
G01X5648Y6661D01*
G01X5645Y6673D01*
G01X5642Y6684D01*
G01X5638Y6695D01*
G01X5633Y6706D01*
G01X5621Y6726D01*
G01X5613Y6736D01*
G01X5605Y6744D01*
G01X4909Y7442D01*
G01X4905Y7446D01*
G01X4901Y7452D01*
G01X4897Y7464D01*
G01X4897Y7476D01*
G01X4898Y7481D01*
G01X4901Y7487D01*
G01X4903Y7492D01*
G01X4915Y7504D01*
G01X4920Y7506D01*
G01X4926Y7508D01*
G01X4931Y7509D01*
G01X4937Y7510D01*
G01X5388Y7510D01*
G01X5406Y7512D01*
G01X5416Y7514D01*
G01X5425Y7517D01*
G01X5441Y7525D01*
G01X5449Y7530D01*
G01X5456Y7536D01*
G01X5463Y7543D01*
G01X5468Y7550D01*
G01X5474Y7558D01*
G01X5478Y7566D01*
G01X5482Y7575D01*
G01X5485Y7583D01*
G01X5487Y7592D01*
G01X5489Y7602D01*
G01X5489Y8097D01*
G01X5487Y8107D01*
G01X5485Y8115D01*
G01X5482Y8124D01*
G01X5478Y8133D01*
G01X5474Y8141D01*
G01X5469Y8148D01*
G01X5463Y8156D01*
G01X5456Y8162D01*
G01X5450Y8168D01*
G01X5434Y8178D01*
G01X5425Y8182D01*
G01X5420Y8184D01*
G01X5415Y8188D01*
G01X5407Y8196D01*
G01X5404Y8202D01*
G01X5402Y8207D01*
G01X5400Y8219D01*
G01X5402Y8231D01*
G01X5405Y8237D01*
G01X5408Y8242D01*
G01X5412Y8247D01*
G01X5625Y8461D01*
G01X5633Y8469D01*
G01X5641Y8479D01*
G01X5653Y8499D01*
G01X5658Y8510D01*
G01X5662Y8521D01*
G01X5665Y8532D01*
G01X5668Y8544D01*
G01X5669Y8556D01*
G01X5669Y12516D01*
G01X5670Y12523D01*
G01X5672Y12529D01*
G01X5674Y12534D01*
G01X5677Y12540D01*
G01X5681Y12545D01*
G01X9918Y16781D01*
G01X9922Y16785D01*
G01X9934Y16791D01*
G01X9939Y16792D01*
G01X9946Y16793D01*
G01X9958Y16791D01*
G01X9977Y16785D01*
G01X9996Y16781D01*
G01X10014Y16777D01*
G01X10034Y16775D01*
G01X10053Y16773D01*
G01X10090Y16773D01*
G01X10107Y16775D01*
G01X10125Y16777D01*
G01X10142Y16779D01*
G01X10176Y16787D01*
G01X10192Y16792D01*
G01X10209Y16798D01*
G01X10225Y16805D01*
G01X10240Y16812D01*
G01X10256Y16821D01*
G01X10271Y16829D01*
G01X10285Y16839D01*
G01X10300Y16849D01*
G01X10326Y16871D01*
G01X10339Y16883D01*
G01X10351Y16896D01*
G01X10362Y16909D01*
G01X10373Y16923D01*
G01X10393Y16951D01*
G01X10402Y16966D01*
G01X10410Y16982D01*
G01X10417Y16997D01*
G01X10424Y17013D01*
G01X10430Y17030D01*
G01X10435Y17046D01*
G01X10443Y17080D01*
G01X10446Y17098D01*
G01X10447Y17115D01*
G01X10449Y17132D01*
G01X10449Y17167D01*
G01X10447Y17184D01*
G01X10446Y17202D01*
G01X10443Y17219D01*
G01X10435Y17253D01*
G01X10430Y17269D01*
G01X10424Y17286D01*
G01X10417Y17302D01*
G01X10410Y17317D01*
G01X10402Y17333D01*
G01X10393Y17348D01*
G01X10383Y17362D01*
G01X10373Y17377D01*
G01X10351Y17403D01*
G01X10339Y17416D01*
G01X10326Y17428D01*
G01X10300Y17450D01*
G01X10285Y17460D01*
G01X10271Y17470D01*
G01X10256Y17478D01*
G01X10240Y17487D01*
G01X10225Y17494D01*
G01X10209Y17501D01*
G01X10192Y17507D01*
G01X10176Y17512D01*
G01X10142Y17520D01*
G01X10125Y17523D01*
G01X10107Y17525D01*
G01X10090Y17526D01*
G01X10055Y17526D01*
G01X10038Y17525D01*
G01X10021Y17523D01*
G01X10003Y17520D01*
G01X9969Y17512D01*
G01X9953Y17507D01*
G01X9936Y17501D01*
G01X9920Y17494D01*
G01X9905Y17487D01*
G01X9889Y17478D01*
G01X9874Y17470D01*
G01X9846Y17450D01*
G01X9832Y17439D01*
G01X9819Y17428D01*
G01X9806Y17416D01*
G01X9794Y17403D01*
G01X9772Y17377D01*
G01X9762Y17362D01*
G01X9752Y17348D01*
G01X9743Y17333D01*
G01X9735Y17317D01*
G01X9728Y17302D01*
G01X9721Y17286D01*
G01X9715Y17269D01*
G01X9710Y17253D01*
G01X9702Y17219D01*
G01X9700Y17202D01*
G01X9697Y17184D01*
G01X9696Y17167D01*
G01X9696Y17130D01*
G01X9700Y17092D01*
G01X9704Y17073D01*
G01X9708Y17053D01*
G01X9714Y17035D01*
G01X9716Y17023D01*
G01X9714Y17011D01*
G01X9708Y16999D01*
G01X9704Y16994D01*
G01X5403Y12693D01*
G01X5389Y12673D01*
G01X5383Y12662D01*
G01X5378Y12650D01*
G01X5372Y12640D01*
G01X5368Y12636D01*
G01X5363Y12632D01*
G01X5358Y12629D01*
G01X5352Y12626D01*
G01X5347Y12625D01*
G01X5335Y12625D01*
G01X5329Y12626D01*
G01X5324Y12628D01*
G01X5314Y12634D01*
G01X5310Y12638D01*
G01X5304Y12648D01*
G01X5302Y12653D01*
G01X5301Y12659D01*
G01X5301Y17127D01*
G01X5302Y17133D01*
G01X5305Y17138D01*
G01X5308Y17144D01*
G01X5312Y17149D01*
G01X7286Y19123D01*
G01X7291Y19127D01*
G01X7297Y19130D01*
G01X7302Y19133D01*
G01X7309Y19134D01*
G01X7322Y19134D01*
G01X7330Y19132D01*
G01X7348Y19125D01*
G01X7366Y19119D01*
G01X7385Y19113D01*
G01X7403Y19109D01*
G01X7422Y19105D01*
G01X7442Y19102D01*
G01X7461Y19100D01*
G01X7480Y19099D01*
G01X7500Y19098D01*
G01X7538Y19100D01*
G01X7557Y19102D01*
G01X7576Y19105D01*
G01X7594Y19109D01*
G01X7613Y19113D01*
G01X7631Y19118D01*
G01X7650Y19124D01*
G01X7668Y19131D01*
G01X7685Y19138D01*
G01X7736Y19165D01*
G01X7768Y19187D01*
G01X7783Y19199D01*
G01X7797Y19211D01*
G01X7811Y19224D01*
G01X7825Y19238D01*
G01X7838Y19252D01*
G01X7850Y19266D01*
G01X7862Y19281D01*
G01X7884Y19313D01*
G01X7893Y19330D01*
G01X7902Y19346D01*
G01X7910Y19364D01*
G01X7918Y19381D01*
G01X7925Y19399D01*
G01X7931Y19417D01*
G01X7936Y19436D01*
G01X7940Y19455D01*
G01X7944Y19473D01*
G01X7947Y19492D01*
G01X7949Y19511D01*
G01X7950Y19530D01*
G01X7951Y19550D01*
G01X7949Y19588D01*
G01X7947Y19607D01*
G01X7944Y19626D01*
G01X7940Y19644D01*
G01X7936Y19663D01*
G01X7931Y19682D01*
G01X7925Y19700D01*
G01X7918Y19718D01*
G01X7910Y19735D01*
G01X7902Y19753D01*
G01X7893Y19769D01*
G01X7884Y19786D01*
G01X7862Y19818D01*
G01X7838Y19848D01*
G01X7811Y19875D01*
G01X7797Y19888D01*
G01X7783Y19900D01*
G01X7768Y19912D01*
G01X7736Y19934D01*
G01X7685Y19961D01*
G01X7668Y19968D01*
G01X7650Y19975D01*
G01X7631Y19981D01*
G01X7613Y19986D01*
G01X7594Y19990D01*
G01X7576Y19994D01*
G01X7557Y19997D01*
G01X7538Y19999D01*
G37*
G36*
G01X12006Y4646D02*
G01X11844Y4646D01*
G01X11852Y4632D01*
G01X11860Y4617D01*
G01X11878Y4589D01*
G01X11900Y4563D01*
G01X11911Y4551D01*
G01X11923Y4540D01*
G01X11936Y4529D01*
G01X11949Y4519D01*
G01X11963Y4509D01*
G01X11977Y4500D01*
G01X11992Y4492D01*
G01X12006Y4484D01*
G01X12006Y4646D01*
G37*
G36*
G01X12455Y4646D02*
G01X12293Y4646D01*
G01X12293Y4484D01*
G01X12307Y4492D01*
G01X12322Y4500D01*
G01X12336Y4509D01*
G01X12350Y4519D01*
G01X12363Y4529D01*
G01X12376Y4540D01*
G01X12388Y4551D01*
G01X12399Y4563D01*
G01X12421Y4589D01*
G01X12439Y4617D01*
G01X12447Y4632D01*
G01X12455Y4646D01*
G37*
G36*
G01X12006Y4932D02*
G01X12006Y5095D01*
G01X11992Y5087D01*
G01X11977Y5079D01*
G01X11949Y5061D01*
G01X11923Y5039D01*
G01X11911Y5028D01*
G01X11900Y5016D01*
G01X11878Y4990D01*
G01X11860Y4962D01*
G01X11852Y4948D01*
G01X11844Y4932D01*
G01X12006Y4932D01*
G37*
G36*
G01X12307Y5087D02*
G01X12293Y5095D01*
G01X12293Y4932D01*
G01X12455Y4932D01*
G01X12447Y4948D01*
G01X12439Y4962D01*
G01X12421Y4990D01*
G01X12399Y5016D01*
G01X12388Y5028D01*
G01X12376Y5039D01*
G01X12350Y5061D01*
G01X12322Y5079D01*
G01X12307Y5087D01*
G37*
G36*
G01X11166Y6246D02*
G01X11133Y6246D01*
G01X11117Y6245D01*
G01X11100Y6243D01*
G01X11084Y6240D01*
G01X11052Y6232D01*
G01X11036Y6227D01*
G01X11021Y6221D01*
G01X10991Y6207D01*
G01X10976Y6198D01*
G01X10962Y6190D01*
G01X10936Y6170D01*
G01X10923Y6159D01*
G01X10911Y6148D01*
G01X10900Y6136D01*
G01X10889Y6123D01*
G01X10869Y6097D01*
G01X10860Y6083D01*
G01X10852Y6068D01*
G01X10838Y6038D01*
G01X10832Y6023D01*
G01X10822Y5991D01*
G01X10816Y5959D01*
G01X10814Y5942D01*
G01X10813Y5926D01*
G01X10813Y5893D01*
G01X10814Y5876D01*
G01X10816Y5860D01*
G01X10822Y5828D01*
G01X10832Y5796D01*
G01X10838Y5780D01*
G01X10845Y5765D01*
G01X10852Y5751D01*
G01X10860Y5736D01*
G01X10869Y5722D01*
G01X10889Y5696D01*
G01X10900Y5683D01*
G01X10911Y5671D01*
G01X10923Y5660D01*
G01X10936Y5649D01*
G01X10962Y5629D01*
G01X10976Y5621D01*
G01X10991Y5612D01*
G01X11021Y5598D01*
G01X11036Y5592D01*
G01X11068Y5582D01*
G01X11100Y5576D01*
G01X11117Y5574D01*
G01X11133Y5573D01*
G01X11166Y5573D01*
G01X11182Y5574D01*
G01X11199Y5576D01*
G01X11231Y5582D01*
G01X11263Y5592D01*
G01X11278Y5598D01*
G01X11308Y5612D01*
G01X11323Y5621D01*
G01X11337Y5629D01*
G01X11363Y5649D01*
G01X11376Y5660D01*
G01X11388Y5671D01*
G01X11399Y5683D01*
G01X11410Y5696D01*
G01X11430Y5722D01*
G01X11439Y5736D01*
G01X11447Y5751D01*
G01X11454Y5765D01*
G01X11461Y5780D01*
G01X11467Y5796D01*
G01X11477Y5828D01*
G01X11483Y5860D01*
G01X11485Y5876D01*
G01X11486Y5893D01*
G01X11486Y5926D01*
G01X11485Y5942D01*
G01X11483Y5959D01*
G01X11477Y5991D01*
G01X11467Y6023D01*
G01X11461Y6038D01*
G01X11447Y6068D01*
G01X11439Y6083D01*
G01X11430Y6097D01*
G01X11410Y6123D01*
G01X11399Y6136D01*
G01X11388Y6148D01*
G01X11376Y6159D01*
G01X11363Y6170D01*
G01X11337Y6190D01*
G01X11323Y6198D01*
G01X11308Y6207D01*
G01X11278Y6221D01*
G01X11263Y6227D01*
G01X11247Y6232D01*
G01X11215Y6240D01*
G01X11199Y6243D01*
G01X11182Y6245D01*
G01X11166Y6246D01*
G37*
G36*
G01X5005Y6055D02*
G01X4810Y6055D01*
G01X4810Y5952D01*
G01X4812Y5942D01*
G01X4814Y5933D01*
G01X4817Y5925D01*
G01X4821Y5916D01*
G01X4825Y5908D01*
G01X4831Y5900D01*
G01X4836Y5893D01*
G01X4843Y5886D01*
G01X4850Y5880D01*
G01X4858Y5875D01*
G01X4866Y5871D01*
G01X4875Y5867D01*
G01X4883Y5864D01*
G01X4893Y5862D01*
G01X4911Y5860D01*
G01X5005Y5860D01*
G01X5005Y6055D01*
G37*
G36*
G01X5005Y6539D02*
G01X4911Y6539D01*
G01X4893Y6537D01*
G01X4883Y6535D01*
G01X4875Y6532D01*
G01X4866Y6528D01*
G01X4858Y6524D01*
G01X4850Y6519D01*
G01X4843Y6513D01*
G01X4836Y6506D01*
G01X4831Y6499D01*
G01X4825Y6491D01*
G01X4817Y6475D01*
G01X4814Y6466D01*
G01X4812Y6457D01*
G01X4810Y6447D01*
G01X4810Y6344D01*
G01X5005Y6344D01*
G01X5005Y6539D01*
G37*
G36*
G01X1489Y7705D02*
G01X1294Y7705D01*
G01X1294Y7510D01*
G01X1388Y7510D01*
G01X1406Y7512D01*
G01X1416Y7514D01*
G01X1425Y7517D01*
G01X1441Y7525D01*
G01X1449Y7530D01*
G01X1456Y7536D01*
G01X1463Y7543D01*
G01X1468Y7550D01*
G01X1474Y7558D01*
G01X1478Y7566D01*
G01X1482Y7575D01*
G01X1485Y7583D01*
G01X1487Y7592D01*
G01X1489Y7602D01*
G01X1489Y7705D01*
G37*
G36*
G01X23539Y8005D02*
G01X23344Y8005D01*
G01X23344Y7810D01*
G01X23438Y7810D01*
G01X23456Y7812D01*
G01X23466Y7814D01*
G01X23475Y7817D01*
G01X23491Y7825D01*
G01X23499Y7830D01*
G01X23506Y7836D01*
G01X23513Y7843D01*
G01X23518Y7850D01*
G01X23524Y7858D01*
G01X23528Y7866D01*
G01X23532Y7875D01*
G01X23535Y7883D01*
G01X23537Y7892D01*
G01X23539Y7902D01*
G01X23539Y8005D01*
G37*
G36*
G01X23055Y8005D02*
G01X22860Y8005D01*
G01X22860Y7902D01*
G01X22862Y7892D01*
G01X22864Y7883D01*
G01X22867Y7875D01*
G01X22871Y7866D01*
G01X22875Y7858D01*
G01X22881Y7850D01*
G01X22886Y7843D01*
G01X22893Y7836D01*
G01X22900Y7830D01*
G01X22908Y7825D01*
G01X22916Y7821D01*
G01X22925Y7817D01*
G01X22933Y7814D01*
G01X22943Y7812D01*
G01X22961Y7810D01*
G01X23055Y7810D01*
G01X23055Y8005D01*
G37*
G36*
G01X19689Y8005D02*
G01X19494Y8005D01*
G01X19494Y7810D01*
G01X19588Y7810D01*
G01X19606Y7812D01*
G01X19616Y7814D01*
G01X19625Y7817D01*
G01X19641Y7825D01*
G01X19649Y7830D01*
G01X19656Y7836D01*
G01X19663Y7843D01*
G01X19668Y7850D01*
G01X19674Y7858D01*
G01X19678Y7866D01*
G01X19682Y7875D01*
G01X19685Y7883D01*
G01X19687Y7892D01*
G01X19689Y7902D01*
G01X19689Y8005D01*
G37*
G36*
G01X19205Y8005D02*
G01X19010Y8005D01*
G01X19010Y7902D01*
G01X19012Y7892D01*
G01X19014Y7883D01*
G01X19017Y7875D01*
G01X19021Y7866D01*
G01X19025Y7858D01*
G01X19031Y7850D01*
G01X19036Y7843D01*
G01X19043Y7836D01*
G01X19050Y7830D01*
G01X19058Y7825D01*
G01X19066Y7821D01*
G01X19075Y7817D01*
G01X19083Y7814D01*
G01X19093Y7812D01*
G01X19111Y7810D01*
G01X19205Y7810D01*
G01X19205Y8005D01*
G37*
G36*
G01X21105Y8005D02*
G01X20910Y8005D01*
G01X20910Y7902D01*
G01X20912Y7892D01*
G01X20914Y7883D01*
G01X20917Y7875D01*
G01X20921Y7866D01*
G01X20925Y7858D01*
G01X20931Y7850D01*
G01X20936Y7843D01*
G01X20943Y7836D01*
G01X20950Y7830D01*
G01X20958Y7825D01*
G01X20966Y7821D01*
G01X20975Y7817D01*
G01X20983Y7814D01*
G01X20993Y7812D01*
G01X21011Y7810D01*
G01X21105Y7810D01*
G01X21105Y8005D01*
G37*
G36*
G01X1388Y8189D02*
G01X1294Y8189D01*
G01X1294Y7994D01*
G01X1489Y7994D01*
G01X1489Y8097D01*
G01X1487Y8107D01*
G01X1485Y8116D01*
G01X1482Y8125D01*
G01X1474Y8141D01*
G01X1468Y8149D01*
G01X1463Y8156D01*
G01X1456Y8163D01*
G01X1449Y8169D01*
G01X1441Y8174D01*
G01X1425Y8182D01*
G01X1416Y8185D01*
G01X1406Y8187D01*
G01X1388Y8189D01*
G37*
G36*
G01X19588Y8489D02*
G01X19494Y8489D01*
G01X19494Y8294D01*
G01X19689Y8294D01*
G01X19689Y8397D01*
G01X19687Y8407D01*
G01X19685Y8416D01*
G01X19682Y8425D01*
G01X19674Y8441D01*
G01X19668Y8449D01*
G01X19663Y8456D01*
G01X19656Y8463D01*
G01X19649Y8469D01*
G01X19641Y8474D01*
G01X19625Y8482D01*
G01X19616Y8485D01*
G01X19606Y8487D01*
G01X19588Y8489D01*
G37*
G36*
G01X23055Y8489D02*
G01X22961Y8489D01*
G01X22943Y8487D01*
G01X22933Y8485D01*
G01X22925Y8482D01*
G01X22916Y8478D01*
G01X22908Y8474D01*
G01X22900Y8469D01*
G01X22893Y8463D01*
G01X22886Y8456D01*
G01X22881Y8449D01*
G01X22875Y8441D01*
G01X22867Y8425D01*
G01X22864Y8416D01*
G01X22862Y8407D01*
G01X22860Y8397D01*
G01X22860Y8294D01*
G01X23055Y8294D01*
G01X23055Y8489D01*
G37*
G36*
G01X21105Y8489D02*
G01X21011Y8489D01*
G01X20993Y8487D01*
G01X20983Y8485D01*
G01X20975Y8482D01*
G01X20966Y8478D01*
G01X20958Y8474D01*
G01X20950Y8469D01*
G01X20943Y8463D01*
G01X20936Y8456D01*
G01X20931Y8449D01*
G01X20925Y8441D01*
G01X20917Y8425D01*
G01X20914Y8416D01*
G01X20912Y8407D01*
G01X20910Y8397D01*
G01X20910Y8294D01*
G01X21105Y8294D01*
G01X21105Y8489D01*
G37*
G36*
G01X19205Y8489D02*
G01X19111Y8489D01*
G01X19093Y8487D01*
G01X19083Y8485D01*
G01X19075Y8482D01*
G01X19066Y8478D01*
G01X19058Y8474D01*
G01X19050Y8469D01*
G01X19043Y8463D01*
G01X19036Y8456D01*
G01X19031Y8449D01*
G01X19025Y8441D01*
G01X19017Y8425D01*
G01X19014Y8416D01*
G01X19012Y8407D01*
G01X19010Y8397D01*
G01X19010Y8294D01*
G01X19205Y8294D01*
G01X19205Y8489D01*
G37*
G36*
G01X8334Y9514D02*
G01X8314Y9515D01*
G01X8274Y9513D01*
G01X8254Y9511D01*
G01X8234Y9508D01*
G01X8215Y9505D01*
G01X8195Y9500D01*
G01X8176Y9495D01*
G01X8157Y9489D01*
G01X8138Y9482D01*
G01X8120Y9475D01*
G01X8102Y9467D01*
G01X8084Y9458D01*
G01X8066Y9448D01*
G01X8049Y9438D01*
G01X8033Y9427D01*
G01X8001Y9403D01*
G01X7971Y9377D01*
G01X7957Y9363D01*
G01X7943Y9348D01*
G01X7931Y9333D01*
G01X7918Y9317D01*
G01X7906Y9301D01*
G01X7896Y9284D01*
G01X7885Y9267D01*
G01X7876Y9250D01*
G01X7867Y9232D01*
G01X7851Y9196D01*
G01X7844Y9177D01*
G01X7839Y9158D01*
G01X7833Y9138D01*
G01X7829Y9119D01*
G01X7826Y9099D01*
G01X7823Y9080D01*
G01X7819Y9040D01*
G01X7819Y9000D01*
G01X7823Y8960D01*
G01X7826Y8941D01*
G01X7829Y8921D01*
G01X7833Y8902D01*
G01X7839Y8882D01*
G01X7844Y8863D01*
G01X7851Y8844D01*
G01X7867Y8808D01*
G01X7876Y8790D01*
G01X7885Y8773D01*
G01X7896Y8755D01*
G01X7906Y8739D01*
G01X7918Y8723D01*
G01X7931Y8707D01*
G01X7943Y8692D01*
G01X7957Y8677D01*
G01X7971Y8663D01*
G01X8001Y8637D01*
G01X8033Y8613D01*
G01X8049Y8602D01*
G01X8066Y8592D01*
G01X8084Y8582D01*
G01X8102Y8573D01*
G01X8138Y8557D01*
G01X8176Y8545D01*
G01X8195Y8540D01*
G01X8215Y8535D01*
G01X8234Y8532D01*
G01X8254Y8529D01*
G01X8274Y8527D01*
G01X8314Y8525D01*
G01X8334Y8526D01*
G01X8353Y8527D01*
G01X8373Y8529D01*
G01X8413Y8535D01*
G01X8451Y8545D01*
G01X8489Y8557D01*
G01X8508Y8565D01*
G01X8526Y8573D01*
G01X8543Y8582D01*
G01X8561Y8592D01*
G01X8578Y8602D01*
G01X8595Y8613D01*
G01X8627Y8637D01*
G01X8642Y8650D01*
G01X8656Y8663D01*
G01X8671Y8677D01*
G01X8697Y8707D01*
G01X8721Y8739D01*
G01X8732Y8755D01*
G01X8742Y8773D01*
G01X8752Y8790D01*
G01X8761Y8808D01*
G01X8769Y8826D01*
G01X8776Y8844D01*
G01X8783Y8863D01*
G01X8789Y8882D01*
G01X8794Y8902D01*
G01X8798Y8921D01*
G01X8802Y8941D01*
G01X8805Y8960D01*
G01X8807Y8980D01*
G01X8809Y9020D01*
G01X8807Y9060D01*
G01X8805Y9080D01*
G01X8802Y9099D01*
G01X8798Y9119D01*
G01X8794Y9138D01*
G01X8789Y9158D01*
G01X8783Y9177D01*
G01X8776Y9196D01*
G01X8769Y9214D01*
G01X8761Y9232D01*
G01X8752Y9250D01*
G01X8732Y9284D01*
G01X8721Y9301D01*
G01X8697Y9333D01*
G01X8671Y9363D01*
G01X8656Y9377D01*
G01X8642Y9390D01*
G01X8627Y9403D01*
G01X8595Y9427D01*
G01X8578Y9438D01*
G01X8561Y9448D01*
G01X8543Y9458D01*
G01X8526Y9467D01*
G01X8508Y9475D01*
G01X8470Y9489D01*
G01X8451Y9495D01*
G01X8413Y9505D01*
G01X8373Y9511D01*
G01X8353Y9513D01*
G01X8334Y9514D01*
G37*
G36*
G01X25560Y8969D02*
G01X25330Y8969D01*
G01X25330Y8738D01*
G01X25460Y8738D01*
G01X25478Y8740D01*
G01X25487Y8742D01*
G01X25496Y8745D01*
G01X25505Y8749D01*
G01X25513Y8754D01*
G01X25520Y8759D01*
G01X25534Y8771D01*
G01X25540Y8779D01*
G01X25545Y8786D01*
G01X25550Y8794D01*
G01X25554Y8803D01*
G01X25557Y8812D01*
G01X25559Y8821D01*
G01X25560Y8830D01*
G01X25560Y8969D01*
G37*
G36*
G01X24969Y8969D02*
G01X24739Y8969D01*
G01X24739Y8830D01*
G01X24740Y8821D01*
G01X24742Y8812D01*
G01X24745Y8803D01*
G01X24749Y8794D01*
G01X24754Y8786D01*
G01X24759Y8779D01*
G01X24765Y8771D01*
G01X24779Y8759D01*
G01X24786Y8754D01*
G01X24794Y8749D01*
G01X24803Y8745D01*
G01X24812Y8742D01*
G01X24821Y8740D01*
G01X24839Y8738D01*
G01X24969Y8738D01*
G01X24969Y8969D01*
G37*
G36*
G01X24969Y9561D02*
G01X24839Y9561D01*
G01X24821Y9559D01*
G01X24812Y9557D01*
G01X24803Y9554D01*
G01X24794Y9550D01*
G01X24786Y9545D01*
G01X24779Y9540D01*
G01X24765Y9528D01*
G01X24759Y9520D01*
G01X24754Y9513D01*
G01X24749Y9505D01*
G01X24745Y9496D01*
G01X24742Y9487D01*
G01X24740Y9478D01*
G01X24739Y9469D01*
G01X24739Y9330D01*
G01X24969Y9330D01*
G01X24969Y9561D01*
G37*
G36*
G01X25460Y9561D02*
G01X25330Y9561D01*
G01X25330Y9330D01*
G01X25560Y9330D01*
G01X25560Y9469D01*
G01X25559Y9478D01*
G01X25557Y9487D01*
G01X25554Y9496D01*
G01X25550Y9505D01*
G01X25545Y9513D01*
G01X25540Y9520D01*
G01X25534Y9528D01*
G01X25520Y9540D01*
G01X25513Y9545D01*
G01X25505Y9550D01*
G01X25496Y9554D01*
G01X25487Y9557D01*
G01X25478Y9559D01*
G01X25460Y9561D01*
G37*
G36*
G01X25186Y10559D02*
G01X25150Y10561D01*
G01X25131Y10560D01*
G01X25113Y10559D01*
G01X25094Y10557D01*
G01X25076Y10554D01*
G01X25040Y10546D01*
G01X25022Y10540D01*
G01X24988Y10528D01*
G01X24971Y10520D01*
G01X24939Y10502D01*
G01X24923Y10492D01*
G01X24908Y10482D01*
G01X24893Y10471D01*
G01X24879Y10459D01*
G01X24865Y10446D01*
G01X24852Y10434D01*
G01X24828Y10406D01*
G01X24806Y10376D01*
G01X24779Y10328D01*
G01X24765Y10294D01*
G01X24759Y10276D01*
G01X24753Y10259D01*
G01X24745Y10223D01*
G01X24742Y10205D01*
G01X24740Y10186D01*
G01X24739Y10168D01*
G01X24739Y10131D01*
G01X24740Y10113D01*
G01X24742Y10094D01*
G01X24745Y10076D01*
G01X24753Y10040D01*
G01X24759Y10023D01*
G01X24765Y10005D01*
G01X24779Y9971D01*
G01X24806Y9923D01*
G01X24828Y9893D01*
G01X24852Y9865D01*
G01X24865Y9853D01*
G01X24879Y9840D01*
G01X24893Y9828D01*
G01X24908Y9817D01*
G01X24923Y9807D01*
G01X24939Y9797D01*
G01X24971Y9779D01*
G01X24988Y9771D01*
G01X25022Y9759D01*
G01X25040Y9753D01*
G01X25076Y9745D01*
G01X25094Y9742D01*
G01X25113Y9740D01*
G01X25131Y9739D01*
G01X25150Y9738D01*
G01X25186Y9740D01*
G01X25205Y9742D01*
G01X25223Y9745D01*
G01X25259Y9753D01*
G01X25277Y9759D01*
G01X25311Y9771D01*
G01X25328Y9779D01*
G01X25360Y9797D01*
G01X25376Y9807D01*
G01X25391Y9817D01*
G01X25406Y9828D01*
G01X25420Y9840D01*
G01X25434Y9853D01*
G01X25447Y9865D01*
G01X25471Y9893D01*
G01X25493Y9923D01*
G01X25520Y9971D01*
G01X25534Y10005D01*
G01X25540Y10023D01*
G01X25546Y10040D01*
G01X25554Y10076D01*
G01X25557Y10094D01*
G01X25559Y10113D01*
G01X25560Y10131D01*
G01X25560Y10168D01*
G01X25559Y10186D01*
G01X25557Y10205D01*
G01X25554Y10223D01*
G01X25546Y10259D01*
G01X25540Y10276D01*
G01X25534Y10294D01*
G01X25520Y10328D01*
G01X25493Y10376D01*
G01X25471Y10406D01*
G01X25447Y10434D01*
G01X25434Y10446D01*
G01X25420Y10459D01*
G01X25406Y10471D01*
G01X25391Y10482D01*
G01X25376Y10492D01*
G01X25360Y10502D01*
G01X25328Y10520D01*
G01X25311Y10528D01*
G01X25277Y10540D01*
G01X25259Y10546D01*
G01X25223Y10554D01*
G01X25205Y10557D01*
G01X25186Y10559D01*
G37*
G36*
G01X23228Y20602D02*
G01X22671Y20602D01*
G01X22662Y20601D01*
G01X22652Y20600D01*
G01X22643Y20598D01*
G01X22635Y20595D01*
G01X22626Y20591D01*
G01X22610Y20581D01*
G01X22596Y20569D01*
G01X22590Y20561D01*
G01X22585Y20554D01*
G01X22581Y20546D01*
G01X22577Y20537D01*
G01X22574Y20528D01*
G01X22572Y20519D01*
G01X22570Y20501D01*
G01X22570Y19498D01*
G01X22572Y19480D01*
G01X22574Y19471D01*
G01X22577Y19462D01*
G01X22581Y19453D01*
G01X22585Y19445D01*
G01X22590Y19438D01*
G01X22596Y19430D01*
G01X22610Y19418D01*
G01X22626Y19408D01*
G01X22635Y19404D01*
G01X22643Y19401D01*
G01X22652Y19399D01*
G01X22662Y19398D01*
G01X22759Y19398D01*
G01X22764Y19397D01*
G01X22770Y19396D01*
G01X22775Y19394D01*
G01X22785Y19388D01*
G01X22789Y19384D01*
G01X22795Y19374D01*
G01X22797Y19369D01*
G01X22798Y19363D01*
G01X22798Y13350D01*
G01X22800Y13326D01*
G01X22803Y13314D01*
G01X22806Y13303D01*
G01X22810Y13292D01*
G01X22815Y13281D01*
G01X22827Y13261D01*
G01X22835Y13251D01*
G01X24754Y11332D01*
G01X24758Y11327D01*
G01X24761Y11321D01*
G01X24764Y11316D01*
G01X24765Y11309D01*
G01X24765Y11296D01*
G01X24763Y11290D01*
G01X24757Y11270D01*
G01X24751Y11251D01*
G01X24743Y11211D01*
G01X24740Y11190D01*
G01X24739Y11170D01*
G01X24739Y11131D01*
G01X24740Y11113D01*
G01X24742Y11094D01*
G01X24745Y11076D01*
G01X24753Y11040D01*
G01X24759Y11023D01*
G01X24765Y11005D01*
G01X24779Y10971D01*
G01X24806Y10923D01*
G01X24828Y10893D01*
G01X24852Y10865D01*
G01X24865Y10853D01*
G01X24879Y10840D01*
G01X24893Y10828D01*
G01X24908Y10817D01*
G01X24923Y10807D01*
G01X24939Y10797D01*
G01X24971Y10779D01*
G01X24988Y10771D01*
G01X25022Y10759D01*
G01X25040Y10753D01*
G01X25076Y10745D01*
G01X25094Y10742D01*
G01X25113Y10740D01*
G01X25131Y10739D01*
G01X25150Y10738D01*
G01X25186Y10740D01*
G01X25205Y10742D01*
G01X25223Y10745D01*
G01X25259Y10753D01*
G01X25277Y10759D01*
G01X25311Y10771D01*
G01X25328Y10779D01*
G01X25360Y10797D01*
G01X25376Y10807D01*
G01X25391Y10817D01*
G01X25406Y10828D01*
G01X25420Y10840D01*
G01X25434Y10853D01*
G01X25447Y10865D01*
G01X25471Y10893D01*
G01X25493Y10923D01*
G01X25520Y10971D01*
G01X25534Y11005D01*
G01X25540Y11023D01*
G01X25546Y11040D01*
G01X25554Y11076D01*
G01X25557Y11094D01*
G01X25559Y11113D01*
G01X25560Y11131D01*
G01X25560Y11168D01*
G01X25559Y11186D01*
G01X25557Y11205D01*
G01X25554Y11223D01*
G01X25546Y11259D01*
G01X25540Y11276D01*
G01X25534Y11294D01*
G01X25520Y11328D01*
G01X25493Y11376D01*
G01X25471Y11406D01*
G01X25447Y11434D01*
G01X25434Y11446D01*
G01X25420Y11459D01*
G01X25406Y11471D01*
G01X25391Y11482D01*
G01X25376Y11492D01*
G01X25360Y11502D01*
G01X25328Y11520D01*
G01X25311Y11528D01*
G01X25277Y11540D01*
G01X25259Y11546D01*
G01X25223Y11554D01*
G01X25205Y11557D01*
G01X25186Y11559D01*
G01X25150Y11561D01*
G01X25129Y11560D01*
G01X25109Y11559D01*
G01X25089Y11556D01*
G01X25068Y11552D01*
G01X25048Y11548D01*
G01X25029Y11542D01*
G01X25009Y11536D01*
G01X25002Y11534D01*
G01X24989Y11534D01*
G01X24977Y11538D01*
G01X24972Y11541D01*
G01X24967Y11545D01*
G01X23112Y13400D01*
G01X23108Y13405D01*
G01X23105Y13411D01*
G01X23102Y13416D01*
G01X23101Y13422D01*
G01X23101Y19363D01*
G01X23102Y19369D01*
G01X23104Y19374D01*
G01X23110Y19384D01*
G01X23114Y19388D01*
G01X23124Y19394D01*
G01X23129Y19396D01*
G01X23135Y19397D01*
G01X23140Y19398D01*
G01X23237Y19398D01*
G01X23247Y19399D01*
G01X23256Y19401D01*
G01X23264Y19404D01*
G01X23273Y19408D01*
G01X23289Y19418D01*
G01X23303Y19430D01*
G01X23309Y19438D01*
G01X23314Y19445D01*
G01X23318Y19453D01*
G01X23322Y19462D01*
G01X23325Y19471D01*
G01X23327Y19480D01*
G01X23329Y19498D01*
G01X23329Y20501D01*
G01X23327Y20519D01*
G01X23325Y20528D01*
G01X23322Y20537D01*
G01X23318Y20546D01*
G01X23314Y20554D01*
G01X23309Y20561D01*
G01X23303Y20569D01*
G01X23289Y20581D01*
G01X23273Y20591D01*
G01X23264Y20595D01*
G01X23256Y20598D01*
G01X23247Y20600D01*
G01X23237Y20601D01*
G01X23228Y20602D01*
G37*
G36*
G01X8334Y12073D02*
G01X8314Y12074D01*
G01X8274Y12072D01*
G01X8254Y12070D01*
G01X8234Y12067D01*
G01X8215Y12064D01*
G01X8195Y12059D01*
G01X8176Y12054D01*
G01X8138Y12042D01*
G01X8102Y12026D01*
G01X8084Y12017D01*
G01X8066Y12007D01*
G01X8049Y11997D01*
G01X8017Y11975D01*
G01X8001Y11962D01*
G01X7971Y11936D01*
G01X7957Y11922D01*
G01X7943Y11907D01*
G01X7931Y11892D01*
G01X7918Y11876D01*
G01X7906Y11860D01*
G01X7896Y11844D01*
G01X7885Y11826D01*
G01X7876Y11809D01*
G01X7867Y11791D01*
G01X7851Y11755D01*
G01X7844Y11736D01*
G01X7839Y11717D01*
G01X7833Y11697D01*
G01X7829Y11678D01*
G01X7826Y11658D01*
G01X7823Y11639D01*
G01X7819Y11599D01*
G01X7819Y11559D01*
G01X7823Y11519D01*
G01X7826Y11500D01*
G01X7829Y11480D01*
G01X7833Y11461D01*
G01X7839Y11441D01*
G01X7844Y11422D01*
G01X7851Y11403D01*
G01X7867Y11367D01*
G01X7876Y11349D01*
G01X7885Y11332D01*
G01X7896Y11315D01*
G01X7906Y11298D01*
G01X7918Y11282D01*
G01X7931Y11266D01*
G01X7943Y11251D01*
G01X7957Y11236D01*
G01X7971Y11222D01*
G01X8001Y11196D01*
G01X8033Y11172D01*
G01X8049Y11161D01*
G01X8066Y11151D01*
G01X8084Y11141D01*
G01X8102Y11132D01*
G01X8120Y11124D01*
G01X8138Y11117D01*
G01X8157Y11110D01*
G01X8176Y11104D01*
G01X8195Y11099D01*
G01X8215Y11094D01*
G01X8234Y11091D01*
G01X8254Y11088D01*
G01X8274Y11086D01*
G01X8314Y11084D01*
G01X8334Y11085D01*
G01X8353Y11086D01*
G01X8373Y11088D01*
G01X8413Y11094D01*
G01X8451Y11104D01*
G01X8470Y11110D01*
G01X8508Y11124D01*
G01X8526Y11132D01*
G01X8543Y11141D01*
G01X8561Y11151D01*
G01X8578Y11161D01*
G01X8595Y11172D01*
G01X8627Y11196D01*
G01X8642Y11209D01*
G01X8656Y11222D01*
G01X8671Y11236D01*
G01X8697Y11266D01*
G01X8721Y11298D01*
G01X8732Y11315D01*
G01X8752Y11349D01*
G01X8761Y11367D01*
G01X8769Y11385D01*
G01X8776Y11403D01*
G01X8783Y11422D01*
G01X8789Y11441D01*
G01X8794Y11461D01*
G01X8798Y11480D01*
G01X8802Y11500D01*
G01X8805Y11519D01*
G01X8807Y11539D01*
G01X8809Y11579D01*
G01X8807Y11619D01*
G01X8805Y11639D01*
G01X8802Y11658D01*
G01X8798Y11678D01*
G01X8794Y11697D01*
G01X8789Y11717D01*
G01X8783Y11736D01*
G01X8776Y11755D01*
G01X8769Y11773D01*
G01X8761Y11791D01*
G01X8752Y11809D01*
G01X8742Y11826D01*
G01X8732Y11844D01*
G01X8721Y11860D01*
G01X8697Y11892D01*
G01X8671Y11922D01*
G01X8656Y11936D01*
G01X8642Y11949D01*
G01X8627Y11962D01*
G01X8611Y11975D01*
G01X8595Y11986D01*
G01X8578Y11997D01*
G01X8561Y12007D01*
G01X8543Y12017D01*
G01X8526Y12026D01*
G01X8508Y12034D01*
G01X8489Y12042D01*
G01X8451Y12054D01*
G01X8413Y12064D01*
G01X8373Y12070D01*
G01X8353Y12072D01*
G01X8334Y12073D01*
G37*
G36*
G01X23438Y12489D02*
G01X22961Y12489D01*
G01X22943Y12487D01*
G01X22933Y12485D01*
G01X22925Y12482D01*
G01X22916Y12478D01*
G01X22908Y12474D01*
G01X22900Y12469D01*
G01X22893Y12463D01*
G01X22886Y12456D01*
G01X22881Y12449D01*
G01X22875Y12441D01*
G01X22867Y12425D01*
G01X22864Y12416D01*
G01X22862Y12407D01*
G01X22860Y12397D01*
G01X22860Y11902D01*
G01X22862Y11892D01*
G01X22864Y11883D01*
G01X22867Y11875D01*
G01X22871Y11866D01*
G01X22875Y11858D01*
G01X22881Y11850D01*
G01X22886Y11843D01*
G01X22893Y11836D01*
G01X22900Y11830D01*
G01X22908Y11825D01*
G01X22916Y11821D01*
G01X22925Y11817D01*
G01X22933Y11814D01*
G01X22943Y11812D01*
G01X22961Y11810D01*
G01X23438Y11810D01*
G01X23456Y11812D01*
G01X23466Y11814D01*
G01X23475Y11817D01*
G01X23491Y11825D01*
G01X23499Y11830D01*
G01X23506Y11836D01*
G01X23513Y11843D01*
G01X23518Y11850D01*
G01X23524Y11858D01*
G01X23528Y11866D01*
G01X23532Y11875D01*
G01X23535Y11883D01*
G01X23537Y11892D01*
G01X23539Y11902D01*
G01X23539Y12397D01*
G01X23537Y12407D01*
G01X23535Y12416D01*
G01X23532Y12425D01*
G01X23524Y12441D01*
G01X23518Y12449D01*
G01X23513Y12456D01*
G01X23506Y12463D01*
G01X23499Y12469D01*
G01X23491Y12474D01*
G01X23475Y12482D01*
G01X23466Y12485D01*
G01X23456Y12487D01*
G01X23438Y12489D01*
G37*
G36*
G01X21488Y12489D02*
G01X21011Y12489D01*
G01X20993Y12487D01*
G01X20983Y12485D01*
G01X20975Y12482D01*
G01X20966Y12478D01*
G01X20958Y12474D01*
G01X20950Y12469D01*
G01X20943Y12463D01*
G01X20936Y12456D01*
G01X20931Y12449D01*
G01X20925Y12441D01*
G01X20917Y12425D01*
G01X20914Y12416D01*
G01X20912Y12407D01*
G01X20910Y12397D01*
G01X20910Y11902D01*
G01X20912Y11892D01*
G01X20914Y11883D01*
G01X20917Y11875D01*
G01X20921Y11866D01*
G01X20925Y11858D01*
G01X20931Y11850D01*
G01X20936Y11843D01*
G01X20943Y11836D01*
G01X20950Y11830D01*
G01X20958Y11825D01*
G01X20966Y11821D01*
G01X20975Y11817D01*
G01X20983Y11814D01*
G01X20993Y11812D01*
G01X21011Y11810D01*
G01X21488Y11810D01*
G01X21506Y11812D01*
G01X21516Y11814D01*
G01X21525Y11817D01*
G01X21541Y11825D01*
G01X21549Y11830D01*
G01X21556Y11836D01*
G01X21563Y11843D01*
G01X21568Y11850D01*
G01X21574Y11858D01*
G01X21578Y11866D01*
G01X21582Y11875D01*
G01X21585Y11883D01*
G01X21587Y11892D01*
G01X21589Y11902D01*
G01X21589Y12397D01*
G01X21587Y12407D01*
G01X21585Y12416D01*
G01X21582Y12425D01*
G01X21574Y12441D01*
G01X21568Y12449D01*
G01X21563Y12456D01*
G01X21556Y12463D01*
G01X21549Y12469D01*
G01X21541Y12474D01*
G01X21525Y12482D01*
G01X21516Y12485D01*
G01X21506Y12487D01*
G01X21488Y12489D01*
G37*
G36*
G01X19588Y12489D02*
G01X19111Y12489D01*
G01X19093Y12487D01*
G01X19083Y12485D01*
G01X19075Y12482D01*
G01X19066Y12478D01*
G01X19058Y12474D01*
G01X19050Y12469D01*
G01X19043Y12463D01*
G01X19036Y12456D01*
G01X19031Y12449D01*
G01X19025Y12441D01*
G01X19017Y12425D01*
G01X19014Y12416D01*
G01X19012Y12407D01*
G01X19010Y12397D01*
G01X19010Y11902D01*
G01X19012Y11892D01*
G01X19014Y11883D01*
G01X19017Y11875D01*
G01X19021Y11866D01*
G01X19025Y11858D01*
G01X19031Y11850D01*
G01X19036Y11843D01*
G01X19043Y11836D01*
G01X19050Y11830D01*
G01X19058Y11825D01*
G01X19066Y11821D01*
G01X19075Y11817D01*
G01X19083Y11814D01*
G01X19093Y11812D01*
G01X19111Y11810D01*
G01X19588Y11810D01*
G01X19606Y11812D01*
G01X19616Y11814D01*
G01X19625Y11817D01*
G01X19641Y11825D01*
G01X19649Y11830D01*
G01X19656Y11836D01*
G01X19663Y11843D01*
G01X19668Y11850D01*
G01X19674Y11858D01*
G01X19678Y11866D01*
G01X19682Y11875D01*
G01X19685Y11883D01*
G01X19687Y11892D01*
G01X19689Y11902D01*
G01X19689Y12397D01*
G01X19687Y12407D01*
G01X19685Y12416D01*
G01X19682Y12425D01*
G01X19674Y12441D01*
G01X19668Y12449D01*
G01X19663Y12456D01*
G01X19656Y12463D01*
G01X19649Y12469D01*
G01X19641Y12474D01*
G01X19625Y12482D01*
G01X19616Y12485D01*
G01X19606Y12487D01*
G01X19588Y12489D01*
G37*
G36*
G01X2491Y14390D02*
G01X2280Y14390D01*
G01X2280Y14178D01*
G01X2297Y14187D01*
G01X2315Y14198D01*
G01X2349Y14220D01*
G01X2365Y14232D01*
G01X2380Y14246D01*
G01X2395Y14259D01*
G01X2410Y14274D01*
G01X2436Y14304D01*
G01X2449Y14320D01*
G01X2460Y14337D01*
G01X2472Y14354D01*
G01X2482Y14371D01*
G01X2491Y14390D01*
G37*
G36*
G01X1860Y14390D02*
G01X1648Y14390D01*
G01X1657Y14371D01*
G01X1668Y14354D01*
G01X1678Y14337D01*
G01X1690Y14320D01*
G01X1702Y14304D01*
G01X1716Y14289D01*
G01X1729Y14274D01*
G01X1744Y14259D01*
G01X1759Y14246D01*
G01X1774Y14232D01*
G01X1790Y14220D01*
G01X1824Y14198D01*
G01X1842Y14187D01*
G01X1860Y14178D01*
G01X1860Y14390D01*
G37*
G36*
G01X2297Y15012D02*
G01X2280Y15021D01*
G01X2280Y14809D01*
G01X2491Y14809D01*
G01X2482Y14828D01*
G01X2472Y14845D01*
G01X2460Y14862D01*
G01X2449Y14879D01*
G01X2436Y14895D01*
G01X2410Y14925D01*
G01X2395Y14940D01*
G01X2380Y14953D01*
G01X2365Y14967D01*
G01X2349Y14979D01*
G01X2315Y15001D01*
G01X2297Y15012D01*
G37*
G36*
G01X1860Y14809D02*
G01X1860Y15021D01*
G01X1842Y15012D01*
G01X1824Y15001D01*
G01X1790Y14979D01*
G01X1774Y14967D01*
G01X1759Y14953D01*
G01X1744Y14940D01*
G01X1729Y14925D01*
G01X1716Y14910D01*
G01X1702Y14895D01*
G01X1690Y14879D01*
G01X1678Y14862D01*
G01X1668Y14845D01*
G01X1657Y14828D01*
G01X1648Y14809D01*
G01X1860Y14809D01*
G37*
G36*
G01X11628Y20602D02*
G01X11072Y20602D01*
G01X11062Y20601D01*
G01X11053Y20600D01*
G01X11044Y20598D01*
G01X11035Y20595D01*
G01X11027Y20591D01*
G01X11018Y20586D01*
G01X11011Y20581D01*
G01X11003Y20575D01*
G01X10997Y20569D01*
G01X10991Y20561D01*
G01X10986Y20554D01*
G01X10981Y20546D01*
G01X10977Y20537D01*
G01X10975Y20528D01*
G01X10972Y20519D01*
G01X10971Y20510D01*
G01X10971Y19490D01*
G01X10972Y19480D01*
G01X10974Y19472D01*
G01X10977Y19463D01*
G01X10980Y19455D01*
G01X10985Y19447D01*
G01X10989Y19440D01*
G01X10995Y19432D01*
G01X11001Y19426D01*
G01X11008Y19420D01*
G01X11015Y19415D01*
G01X11023Y19410D01*
G01X11031Y19406D01*
G01X11039Y19403D01*
G01X11048Y19400D01*
G01X11057Y19398D01*
G01X11062Y19397D01*
G01X11068Y19395D01*
G01X11072Y19392D01*
G01X11077Y19389D01*
G01X11081Y19385D01*
G01X11085Y19380D01*
G01X11087Y19376D01*
G01X11089Y19370D01*
G01X11090Y19365D01*
G01X11091Y19359D01*
G01X11089Y19347D01*
G01X11086Y19341D01*
G01X11083Y19336D01*
G01X11079Y19331D01*
G01X9270Y17521D01*
G01X9265Y17517D01*
G01X9260Y17514D01*
G01X9248Y17510D01*
G01X9242Y17510D01*
G01X9231Y17511D01*
G01X9214Y17516D01*
G01X9197Y17519D01*
G01X9179Y17523D01*
G01X9162Y17525D01*
G01X9144Y17526D01*
G01X9109Y17526D01*
G01X9092Y17525D01*
G01X9075Y17523D01*
G01X9057Y17520D01*
G01X9023Y17512D01*
G01X9007Y17507D01*
G01X8990Y17501D01*
G01X8974Y17494D01*
G01X8959Y17487D01*
G01X8943Y17478D01*
G01X8928Y17470D01*
G01X8900Y17450D01*
G01X8886Y17439D01*
G01X8873Y17428D01*
G01X8860Y17416D01*
G01X8848Y17403D01*
G01X8826Y17377D01*
G01X8816Y17362D01*
G01X8806Y17348D01*
G01X8797Y17333D01*
G01X8789Y17317D01*
G01X8782Y17302D01*
G01X8775Y17286D01*
G01X8769Y17269D01*
G01X8764Y17253D01*
G01X8756Y17219D01*
G01X8753Y17202D01*
G01X8752Y17184D01*
G01X8750Y17167D01*
G01X8750Y17132D01*
G01X8752Y17115D01*
G01X8753Y17098D01*
G01X8756Y17080D01*
G01X8764Y17046D01*
G01X8769Y17030D01*
G01X8775Y17013D01*
G01X8782Y16997D01*
G01X8789Y16982D01*
G01X8797Y16966D01*
G01X8806Y16951D01*
G01X8826Y16923D01*
G01X8837Y16909D01*
G01X8848Y16896D01*
G01X8860Y16883D01*
G01X8873Y16871D01*
G01X8886Y16860D01*
G01X8900Y16849D01*
G01X8928Y16829D01*
G01X8943Y16821D01*
G01X8959Y16812D01*
G01X8974Y16805D01*
G01X8990Y16798D01*
G01X9007Y16792D01*
G01X9023Y16787D01*
G01X9057Y16779D01*
G01X9075Y16777D01*
G01X9109Y16773D01*
G01X9144Y16773D01*
G01X9178Y16777D01*
G01X9196Y16779D01*
G01X9230Y16787D01*
G01X9246Y16792D01*
G01X9263Y16798D01*
G01X9279Y16805D01*
G01X9294Y16812D01*
G01X9310Y16821D01*
G01X9325Y16829D01*
G01X9353Y16849D01*
G01X9367Y16860D01*
G01X9380Y16871D01*
G01X9393Y16883D01*
G01X9405Y16896D01*
G01X9416Y16909D01*
G01X9427Y16923D01*
G01X9447Y16951D01*
G01X9456Y16966D01*
G01X9464Y16982D01*
G01X9471Y16997D01*
G01X9478Y17013D01*
G01X9484Y17030D01*
G01X9489Y17046D01*
G01X9497Y17080D01*
G01X9500Y17098D01*
G01X9502Y17115D01*
G01X9503Y17132D01*
G01X9503Y17168D01*
G01X9499Y17204D01*
G01X9496Y17222D01*
G01X9492Y17240D01*
G01X9488Y17257D01*
G01X9482Y17274D01*
G01X9480Y17281D01*
G01X9480Y17294D01*
G01X9481Y17300D01*
G01X9484Y17306D01*
G01X9487Y17311D01*
G01X9491Y17316D01*
G01X11456Y19281D01*
G01X11472Y19299D01*
G01X11484Y19319D01*
G01X11489Y19330D01*
G01X11493Y19341D01*
G01X11496Y19352D01*
G01X11499Y19364D01*
G01X11500Y19369D01*
G01X11502Y19375D01*
G01X11505Y19380D01*
G01X11508Y19384D01*
G01X11512Y19388D01*
G01X11522Y19394D01*
G01X11527Y19396D01*
G01X11532Y19397D01*
G01X11538Y19398D01*
G01X11637Y19398D01*
G01X11647Y19399D01*
G01X11656Y19401D01*
G01X11664Y19404D01*
G01X11673Y19408D01*
G01X11689Y19418D01*
G01X11703Y19430D01*
G01X11709Y19438D01*
G01X11714Y19445D01*
G01X11718Y19453D01*
G01X11722Y19462D01*
G01X11725Y19471D01*
G01X11729Y19489D01*
G01X11729Y20510D01*
G01X11725Y20528D01*
G01X11722Y20537D01*
G01X11718Y20546D01*
G01X11714Y20554D01*
G01X11709Y20561D01*
G01X11703Y20569D01*
G01X11689Y20581D01*
G01X11673Y20591D01*
G01X11664Y20595D01*
G01X11656Y20598D01*
G01X11647Y20600D01*
G01X11637Y20601D01*
G01X11628Y20602D01*
G37*
G36*
G01X1310Y18350D02*
G01X1125Y18350D01*
G01X1125Y18164D01*
G01X1142Y18173D01*
G01X1158Y18182D01*
G01X1174Y18192D01*
G01X1190Y18203D01*
G01X1205Y18215D01*
G01X1233Y18241D01*
G01X1259Y18269D01*
G01X1271Y18284D01*
G01X1282Y18300D01*
G01X1302Y18332D01*
G01X1310Y18350D01*
G37*
G36*
G01X3672Y18350D02*
G01X3486Y18350D01*
G01X3486Y18164D01*
G01X3520Y18182D01*
G01X3536Y18192D01*
G01X3552Y18203D01*
G01X3567Y18215D01*
G01X3595Y18241D01*
G01X3621Y18269D01*
G01X3632Y18284D01*
G01X3644Y18300D01*
G01X3664Y18332D01*
G01X3672Y18350D01*
G37*
G36*
G01X3136Y18350D02*
G01X2951Y18350D01*
G01X2960Y18332D01*
G01X2969Y18316D01*
G01X2979Y18300D01*
G01X2990Y18284D01*
G01X3002Y18269D01*
G01X3028Y18241D01*
G01X3056Y18215D01*
G01X3071Y18203D01*
G01X3087Y18192D01*
G01X3103Y18182D01*
G01X3119Y18173D01*
G01X3136Y18164D01*
G01X3136Y18350D01*
G37*
G36*
G01X775Y18350D02*
G01X589Y18350D01*
G01X597Y18332D01*
G01X617Y18300D01*
G01X628Y18284D01*
G01X640Y18269D01*
G01X666Y18241D01*
G01X694Y18215D01*
G01X709Y18203D01*
G01X725Y18192D01*
G01X741Y18182D01*
G01X757Y18173D01*
G01X775Y18164D01*
G01X775Y18350D01*
G37*
G36*
G01X3136Y18700D02*
G01X3136Y18885D01*
G01X3119Y18877D01*
G01X3087Y18857D01*
G01X3071Y18846D01*
G01X3056Y18834D01*
G01X3028Y18808D01*
G01X3002Y18780D01*
G01X2990Y18765D01*
G01X2979Y18749D01*
G01X2969Y18733D01*
G01X2960Y18717D01*
G01X2951Y18700D01*
G01X3136Y18700D01*
G37*
G36*
G01X3503Y18877D02*
G01X3486Y18885D01*
G01X3486Y18700D01*
G01X3672Y18700D01*
G01X3664Y18717D01*
G01X3644Y18749D01*
G01X3632Y18765D01*
G01X3621Y18780D01*
G01X3595Y18808D01*
G01X3567Y18834D01*
G01X3552Y18846D01*
G01X3536Y18857D01*
G01X3520Y18867D01*
G01X3503Y18877D01*
G37*
G36*
G01X1142Y18877D02*
G01X1125Y18885D01*
G01X1125Y18700D01*
G01X1310Y18700D01*
G01X1302Y18717D01*
G01X1282Y18749D01*
G01X1271Y18765D01*
G01X1259Y18780D01*
G01X1233Y18808D01*
G01X1205Y18834D01*
G01X1190Y18846D01*
G01X1174Y18857D01*
G01X1142Y18877D01*
G37*
G36*
G01X775Y18700D02*
G01X775Y18885D01*
G01X757Y18877D01*
G01X725Y18857D01*
G01X709Y18846D01*
G01X694Y18834D01*
G01X666Y18808D01*
G01X640Y18780D01*
G01X628Y18765D01*
G01X617Y18749D01*
G01X597Y18717D01*
G01X589Y18700D01*
G01X775Y18700D01*
G37*
G36*
G01X5904Y19350D02*
G01X5700Y19350D01*
G01X5700Y19145D01*
G01X5717Y19154D01*
G01X5734Y19164D01*
G01X5750Y19175D01*
G01X5767Y19186D01*
G01X5782Y19198D01*
G01X5797Y19211D01*
G01X5811Y19224D01*
G01X5839Y19252D01*
G01X5863Y19282D01*
G01X5874Y19299D01*
G01X5885Y19315D01*
G01X5895Y19332D01*
G01X5904Y19350D01*
G37*
G36*
G01X5300Y19350D02*
G01X5095Y19350D01*
G01X5104Y19332D01*
G01X5114Y19315D01*
G01X5125Y19299D01*
G01X5136Y19282D01*
G01X5160Y19252D01*
G01X5188Y19224D01*
G01X5202Y19211D01*
G01X5217Y19198D01*
G01X5232Y19186D01*
G01X5249Y19175D01*
G01X5265Y19164D01*
G01X5282Y19154D01*
G01X5300Y19145D01*
G01X5300Y19350D01*
G37*
G36*
G01X10730Y19724D02*
G01X10514Y19724D01*
G01X10514Y19398D01*
G01X10638Y19398D01*
G01X10647Y19399D01*
G01X10656Y19401D01*
G01X10665Y19404D01*
G01X10673Y19408D01*
G01X10682Y19413D01*
G01X10689Y19418D01*
G01X10697Y19424D01*
G01X10703Y19430D01*
G01X10709Y19438D01*
G01X10714Y19445D01*
G01X10719Y19453D01*
G01X10723Y19462D01*
G01X10726Y19471D01*
G01X10728Y19480D01*
G01X10730Y19498D01*
G01X10730Y19724D01*
G37*
G36*
G01X10186Y19724D02*
G01X9971Y19724D01*
G01X9971Y19489D01*
G01X9972Y19480D01*
G01X9974Y19471D01*
G01X9977Y19462D01*
G01X9981Y19453D01*
G01X9986Y19445D01*
G01X9991Y19438D01*
G01X9997Y19430D01*
G01X10003Y19424D01*
G01X10011Y19418D01*
G01X10018Y19413D01*
G01X10027Y19408D01*
G01X10035Y19404D01*
G01X10044Y19401D01*
G01X10053Y19399D01*
G01X10062Y19398D01*
G01X10186Y19398D01*
G01X10186Y19724D01*
G37*
G36*
G01X24228Y20602D02*
G01X23671Y20602D01*
G01X23662Y20601D01*
G01X23652Y20600D01*
G01X23643Y20598D01*
G01X23635Y20595D01*
G01X23626Y20591D01*
G01X23610Y20581D01*
G01X23596Y20569D01*
G01X23590Y20561D01*
G01X23585Y20554D01*
G01X23581Y20546D01*
G01X23577Y20537D01*
G01X23574Y20528D01*
G01X23572Y20519D01*
G01X23570Y20501D01*
G01X23570Y19498D01*
G01X23572Y19480D01*
G01X23574Y19471D01*
G01X23577Y19462D01*
G01X23581Y19453D01*
G01X23585Y19445D01*
G01X23590Y19438D01*
G01X23596Y19430D01*
G01X23610Y19418D01*
G01X23626Y19408D01*
G01X23635Y19404D01*
G01X23643Y19401D01*
G01X23652Y19399D01*
G01X23662Y19398D01*
G01X24237Y19398D01*
G01X24247Y19399D01*
G01X24256Y19401D01*
G01X24264Y19404D01*
G01X24273Y19408D01*
G01X24289Y19418D01*
G01X24303Y19430D01*
G01X24309Y19438D01*
G01X24314Y19445D01*
G01X24318Y19453D01*
G01X24322Y19462D01*
G01X24325Y19471D01*
G01X24327Y19480D01*
G01X24329Y19498D01*
G01X24329Y20501D01*
G01X24327Y20519D01*
G01X24325Y20528D01*
G01X24322Y20537D01*
G01X24318Y20546D01*
G01X24314Y20554D01*
G01X24309Y20561D01*
G01X24303Y20569D01*
G01X24289Y20581D01*
G01X24273Y20591D01*
G01X24264Y20595D01*
G01X24256Y20598D01*
G01X24247Y20600D01*
G01X24237Y20601D01*
G01X24228Y20602D01*
G37*
G36*
G01X9628Y20602D02*
G01X9072Y20602D01*
G01X9062Y20601D01*
G01X9053Y20600D01*
G01X9044Y20598D01*
G01X9035Y20595D01*
G01X9027Y20591D01*
G01X9018Y20586D01*
G01X9011Y20581D01*
G01X9003Y20575D01*
G01X8997Y20569D01*
G01X8991Y20561D01*
G01X8986Y20554D01*
G01X8981Y20546D01*
G01X8977Y20537D01*
G01X8974Y20528D01*
G01X8972Y20519D01*
G01X8971Y20510D01*
G01X8971Y19489D01*
G01X8972Y19480D01*
G01X8974Y19471D01*
G01X8977Y19462D01*
G01X8981Y19453D01*
G01X8986Y19445D01*
G01X8991Y19438D01*
G01X8997Y19430D01*
G01X9003Y19424D01*
G01X9011Y19418D01*
G01X9018Y19413D01*
G01X9027Y19408D01*
G01X9035Y19404D01*
G01X9044Y19401D01*
G01X9053Y19399D01*
G01X9062Y19398D01*
G01X9638Y19398D01*
G01X9647Y19399D01*
G01X9656Y19401D01*
G01X9665Y19404D01*
G01X9673Y19408D01*
G01X9682Y19413D01*
G01X9689Y19418D01*
G01X9697Y19424D01*
G01X9703Y19430D01*
G01X9709Y19438D01*
G01X9714Y19445D01*
G01X9719Y19453D01*
G01X9723Y19462D01*
G01X9726Y19471D01*
G01X9728Y19480D01*
G01X9730Y19498D01*
G01X9730Y20501D01*
G01X9728Y20519D01*
G01X9726Y20528D01*
G01X9723Y20537D01*
G01X9719Y20546D01*
G01X9714Y20554D01*
G01X9709Y20561D01*
G01X9703Y20569D01*
G01X9697Y20575D01*
G01X9689Y20581D01*
G01X9682Y20586D01*
G01X9673Y20591D01*
G01X9665Y20595D01*
G01X9656Y20598D01*
G01X9647Y20600D01*
G01X9638Y20601D01*
G01X9628Y20602D01*
G37*
G36*
G01X22228Y20602D02*
G01X21671Y20602D01*
G01X21662Y20601D01*
G01X21652Y20600D01*
G01X21643Y20598D01*
G01X21635Y20595D01*
G01X21626Y20591D01*
G01X21610Y20581D01*
G01X21596Y20569D01*
G01X21590Y20561D01*
G01X21585Y20554D01*
G01X21581Y20546D01*
G01X21577Y20537D01*
G01X21574Y20528D01*
G01X21572Y20519D01*
G01X21570Y20501D01*
G01X21570Y19498D01*
G01X21572Y19480D01*
G01X21574Y19471D01*
G01X21577Y19462D01*
G01X21581Y19453D01*
G01X21585Y19445D01*
G01X21590Y19438D01*
G01X21596Y19430D01*
G01X21610Y19418D01*
G01X21626Y19408D01*
G01X21635Y19404D01*
G01X21643Y19401D01*
G01X21652Y19399D01*
G01X21662Y19398D01*
G01X22237Y19398D01*
G01X22247Y19399D01*
G01X22256Y19401D01*
G01X22264Y19404D01*
G01X22273Y19408D01*
G01X22289Y19418D01*
G01X22303Y19430D01*
G01X22309Y19438D01*
G01X22314Y19445D01*
G01X22318Y19453D01*
G01X22322Y19462D01*
G01X22325Y19471D01*
G01X22327Y19480D01*
G01X22329Y19498D01*
G01X22329Y20501D01*
G01X22327Y20519D01*
G01X22325Y20528D01*
G01X22322Y20537D01*
G01X22318Y20546D01*
G01X22314Y20554D01*
G01X22309Y20561D01*
G01X22303Y20569D01*
G01X22289Y20581D01*
G01X22273Y20591D01*
G01X22264Y20595D01*
G01X22256Y20598D01*
G01X22247Y20600D01*
G01X22237Y20601D01*
G01X22228Y20602D01*
G37*
G36*
G01X25228Y20602D02*
G01X24671Y20602D01*
G01X24662Y20601D01*
G01X24652Y20600D01*
G01X24643Y20598D01*
G01X24635Y20595D01*
G01X24626Y20591D01*
G01X24610Y20581D01*
G01X24596Y20569D01*
G01X24590Y20561D01*
G01X24585Y20554D01*
G01X24581Y20546D01*
G01X24577Y20537D01*
G01X24574Y20528D01*
G01X24572Y20519D01*
G01X24570Y20501D01*
G01X24570Y19498D01*
G01X24572Y19480D01*
G01X24574Y19471D01*
G01X24577Y19462D01*
G01X24581Y19453D01*
G01X24585Y19445D01*
G01X24590Y19438D01*
G01X24596Y19430D01*
G01X24610Y19418D01*
G01X24626Y19408D01*
G01X24635Y19404D01*
G01X24643Y19401D01*
G01X24652Y19399D01*
G01X24662Y19398D01*
G01X25237Y19398D01*
G01X25247Y19399D01*
G01X25256Y19401D01*
G01X25264Y19404D01*
G01X25273Y19408D01*
G01X25289Y19418D01*
G01X25303Y19430D01*
G01X25309Y19438D01*
G01X25314Y19445D01*
G01X25318Y19453D01*
G01X25322Y19462D01*
G01X25325Y19471D01*
G01X25327Y19480D01*
G01X25329Y19498D01*
G01X25329Y20501D01*
G01X25327Y20519D01*
G01X25325Y20528D01*
G01X25322Y20537D01*
G01X25318Y20546D01*
G01X25314Y20554D01*
G01X25309Y20561D01*
G01X25303Y20569D01*
G01X25289Y20581D01*
G01X25273Y20591D01*
G01X25264Y20595D01*
G01X25256Y20598D01*
G01X25247Y20600D01*
G01X25237Y20601D01*
G01X25228Y20602D01*
G37*
G36*
G01X3330Y20500D02*
G01X3311Y20501D01*
G01X3293Y20500D01*
G01X3276Y20499D01*
G01X3258Y20497D01*
G01X3240Y20494D01*
G01X3222Y20490D01*
G01X3205Y20486D01*
G01X3188Y20481D01*
G01X3171Y20475D01*
G01X3154Y20468D01*
G01X3138Y20461D01*
G01X3122Y20453D01*
G01X3106Y20444D01*
G01X3090Y20434D01*
G01X3076Y20424D01*
G01X3061Y20413D01*
G01X3048Y20402D01*
G01X3034Y20389D01*
G01X3022Y20377D01*
G01X3010Y20363D01*
G01X2998Y20350D01*
G01X2987Y20335D01*
G01X2977Y20321D01*
G01X2967Y20305D01*
G01X2958Y20290D01*
G01X2950Y20273D01*
G01X2943Y20257D01*
G01X2936Y20240D01*
G01X2930Y20223D01*
G01X2925Y20206D01*
G01X2921Y20189D01*
G01X2917Y20171D01*
G01X2914Y20153D01*
G01X2912Y20136D01*
G01X2911Y20117D01*
G01X2910Y20100D01*
G01X2911Y20082D01*
G01X2912Y20063D01*
G01X2914Y20046D01*
G01X2917Y20028D01*
G01X2921Y20010D01*
G01X2925Y19993D01*
G01X2930Y19976D01*
G01X2936Y19959D01*
G01X2943Y19942D01*
G01X2950Y19926D01*
G01X2958Y19909D01*
G01X2967Y19894D01*
G01X2977Y19878D01*
G01X2987Y19864D01*
G01X2998Y19850D01*
G01X3022Y19822D01*
G01X3034Y19810D01*
G01X3048Y19798D01*
G01X3061Y19786D01*
G01X3076Y19775D01*
G01X3090Y19765D01*
G01X3106Y19755D01*
G01X3122Y19746D01*
G01X3138Y19738D01*
G01X3154Y19731D01*
G01X3171Y19724D01*
G01X3188Y19718D01*
G01X3205Y19713D01*
G01X3222Y19709D01*
G01X3240Y19705D01*
G01X3258Y19702D01*
G01X3276Y19700D01*
G01X3293Y19699D01*
G01X3311Y19698D01*
G01X3330Y19699D01*
G01X3347Y19700D01*
G01X3365Y19702D01*
G01X3383Y19705D01*
G01X3401Y19709D01*
G01X3418Y19713D01*
G01X3435Y19718D01*
G01X3452Y19724D01*
G01X3469Y19731D01*
G01X3485Y19738D01*
G01X3502Y19746D01*
G01X3517Y19755D01*
G01X3547Y19775D01*
G01X3561Y19786D01*
G01X3589Y19810D01*
G01X3601Y19822D01*
G01X3614Y19836D01*
G01X3636Y19864D01*
G01X3646Y19878D01*
G01X3656Y19894D01*
G01X3665Y19909D01*
G01X3673Y19926D01*
G01X3680Y19942D01*
G01X3687Y19959D01*
G01X3693Y19976D01*
G01X3698Y19993D01*
G01X3702Y20010D01*
G01X3706Y20028D01*
G01X3709Y20046D01*
G01X3711Y20063D01*
G01X3712Y20082D01*
G01X3713Y20100D01*
G01X3712Y20117D01*
G01X3711Y20136D01*
G01X3709Y20153D01*
G01X3706Y20171D01*
G01X3702Y20189D01*
G01X3698Y20206D01*
G01X3693Y20223D01*
G01X3687Y20240D01*
G01X3680Y20257D01*
G01X3673Y20273D01*
G01X3665Y20290D01*
G01X3656Y20305D01*
G01X3646Y20321D01*
G01X3636Y20335D01*
G01X3625Y20350D01*
G01X3614Y20363D01*
G01X3601Y20377D01*
G01X3589Y20389D01*
G01X3575Y20402D01*
G01X3547Y20424D01*
G01X3517Y20444D01*
G01X3502Y20453D01*
G01X3485Y20461D01*
G01X3469Y20468D01*
G01X3452Y20475D01*
G01X3435Y20481D01*
G01X3418Y20486D01*
G01X3401Y20490D01*
G01X3383Y20494D01*
G01X3365Y20497D01*
G01X3347Y20499D01*
G01X3330Y20500D01*
G37*
G36*
G01X968Y20500D02*
G01X950Y20501D01*
G01X931Y20500D01*
G01X914Y20499D01*
G01X896Y20497D01*
G01X878Y20494D01*
G01X860Y20490D01*
G01X843Y20486D01*
G01X826Y20481D01*
G01X809Y20475D01*
G01X792Y20468D01*
G01X776Y20461D01*
G01X760Y20453D01*
G01X744Y20444D01*
G01X728Y20434D01*
G01X714Y20424D01*
G01X686Y20402D01*
G01X672Y20389D01*
G01X660Y20377D01*
G01X647Y20363D01*
G01X636Y20350D01*
G01X625Y20335D01*
G01X615Y20321D01*
G01X605Y20305D01*
G01X596Y20290D01*
G01X588Y20273D01*
G01X581Y20257D01*
G01X574Y20240D01*
G01X568Y20223D01*
G01X563Y20206D01*
G01X559Y20189D01*
G01X555Y20171D01*
G01X552Y20153D01*
G01X550Y20136D01*
G01X549Y20117D01*
G01X548Y20100D01*
G01X549Y20082D01*
G01X550Y20063D01*
G01X552Y20046D01*
G01X555Y20028D01*
G01X559Y20010D01*
G01X563Y19993D01*
G01X568Y19976D01*
G01X574Y19959D01*
G01X581Y19942D01*
G01X588Y19926D01*
G01X596Y19909D01*
G01X605Y19894D01*
G01X615Y19878D01*
G01X625Y19864D01*
G01X647Y19836D01*
G01X660Y19822D01*
G01X672Y19810D01*
G01X700Y19786D01*
G01X714Y19775D01*
G01X728Y19765D01*
G01X744Y19755D01*
G01X760Y19746D01*
G01X776Y19738D01*
G01X792Y19731D01*
G01X809Y19724D01*
G01X826Y19718D01*
G01X843Y19713D01*
G01X860Y19709D01*
G01X878Y19705D01*
G01X896Y19702D01*
G01X914Y19700D01*
G01X931Y19699D01*
G01X950Y19698D01*
G01X968Y19699D01*
G01X985Y19700D01*
G01X1003Y19702D01*
G01X1021Y19705D01*
G01X1039Y19709D01*
G01X1056Y19713D01*
G01X1073Y19718D01*
G01X1090Y19724D01*
G01X1107Y19731D01*
G01X1123Y19738D01*
G01X1139Y19746D01*
G01X1155Y19755D01*
G01X1171Y19765D01*
G01X1185Y19775D01*
G01X1200Y19786D01*
G01X1213Y19798D01*
G01X1227Y19810D01*
G01X1239Y19822D01*
G01X1252Y19836D01*
G01X1274Y19864D01*
G01X1284Y19878D01*
G01X1294Y19894D01*
G01X1303Y19909D01*
G01X1311Y19926D01*
G01X1318Y19942D01*
G01X1325Y19959D01*
G01X1331Y19976D01*
G01X1336Y19993D01*
G01X1340Y20010D01*
G01X1344Y20028D01*
G01X1347Y20046D01*
G01X1349Y20063D01*
G01X1350Y20082D01*
G01X1351Y20100D01*
G01X1350Y20117D01*
G01X1349Y20136D01*
G01X1347Y20153D01*
G01X1344Y20171D01*
G01X1340Y20189D01*
G01X1336Y20206D01*
G01X1331Y20223D01*
G01X1325Y20240D01*
G01X1318Y20257D01*
G01X1311Y20273D01*
G01X1303Y20290D01*
G01X1294Y20305D01*
G01X1284Y20321D01*
G01X1274Y20335D01*
G01X1263Y20350D01*
G01X1252Y20363D01*
G01X1239Y20377D01*
G01X1227Y20389D01*
G01X1213Y20402D01*
G01X1200Y20413D01*
G01X1185Y20424D01*
G01X1171Y20434D01*
G01X1155Y20444D01*
G01X1139Y20453D01*
G01X1123Y20461D01*
G01X1107Y20468D01*
G01X1090Y20475D01*
G01X1073Y20481D01*
G01X1056Y20486D01*
G01X1039Y20490D01*
G01X1021Y20494D01*
G01X1003Y20497D01*
G01X985Y20499D01*
G01X968Y20500D01*
G37*
G36*
G01X5300Y19750D02*
G01X5300Y19954D01*
G01X5282Y19945D01*
G01X5265Y19935D01*
G01X5249Y19924D01*
G01X5232Y19913D01*
G01X5217Y19901D01*
G01X5202Y19888D01*
G01X5188Y19875D01*
G01X5160Y19847D01*
G01X5136Y19817D01*
G01X5125Y19800D01*
G01X5114Y19784D01*
G01X5104Y19767D01*
G01X5095Y19750D01*
G01X5300Y19750D01*
G37*
G36*
G01X5717Y19945D02*
G01X5700Y19954D01*
G01X5700Y19750D01*
G01X5904Y19750D01*
G01X5895Y19767D01*
G01X5885Y19784D01*
G01X5874Y19800D01*
G01X5863Y19817D01*
G01X5839Y19847D01*
G01X5811Y19875D01*
G01X5797Y19888D01*
G01X5782Y19901D01*
G01X5767Y19913D01*
G01X5750Y19924D01*
G01X5734Y19935D01*
G01X5717Y19945D01*
G37*
G36*
G01X10628Y20602D02*
G01X10514Y20602D01*
G01X10514Y20275D01*
G01X10730Y20275D01*
G01X10730Y20501D01*
G01X10728Y20519D01*
G01X10726Y20528D01*
G01X10723Y20537D01*
G01X10719Y20546D01*
G01X10714Y20554D01*
G01X10709Y20561D01*
G01X10703Y20569D01*
G01X10697Y20575D01*
G01X10689Y20581D01*
G01X10682Y20586D01*
G01X10673Y20591D01*
G01X10665Y20595D01*
G01X10656Y20598D01*
G01X10647Y20600D01*
G01X10638Y20601D01*
G01X10628Y20602D01*
G37*
G36*
G01X10186Y20602D02*
G01X10072Y20602D01*
G01X10062Y20601D01*
G01X10053Y20600D01*
G01X10044Y20598D01*
G01X10035Y20595D01*
G01X10027Y20591D01*
G01X10018Y20586D01*
G01X10011Y20581D01*
G01X10003Y20575D01*
G01X9997Y20569D01*
G01X9991Y20561D01*
G01X9986Y20554D01*
G01X9981Y20546D01*
G01X9977Y20537D01*
G01X9974Y20528D01*
G01X9972Y20519D01*
G01X9971Y20510D01*
G01X9971Y20275D01*
G01X10186Y20275D01*
G01X10186Y20602D01*
G37*

%LPD*%
G54D10*
G01X1150Y4500D02*
G01X1150Y3396D01*
G01X3564Y980D01*
G01X4444Y980D01*
G01X9485Y6021D01*
G01X9485Y14540D01*
G01X9518Y14576D01*
G01X9518Y15273D01*
G01X13350Y19103D01*
G01X13350Y20000D01*
G01X14350Y20611D02*
G01X15702Y20611D01*
G01X15739Y20573D01*
G01X15739Y19450D01*
G01X10402Y14113D01*
G01X10402Y13363D01*
G01X11172Y12592D01*
G01X12150Y12592D01*
G01X12467Y12276D01*
G01X13981Y12276D01*
G01X17235Y9019D01*
G01X14350Y20000D02*
G01X14350Y20611D01*
G01X5150Y7850D02*
G01X5150Y8198D01*
G01X10072Y17150D02*
G01X5518Y12596D01*
G01X5518Y8567D01*
G01X5518Y8567D01*
G01X5150Y8198D01*
G01X19950Y20000D02*
G01X19950Y20611D01*
G01X19950Y20611D02*
G01X17598Y20611D01*
G01X17310Y20323D01*
G01X17310Y19884D01*
G01X10877Y13450D01*
G01X21300Y6900D02*
G01X21300Y7248D01*
G01X11822Y13450D02*
G01X12778Y12494D01*
G01X15538Y12494D01*
G01X18480Y9551D01*
G01X20511Y9551D01*
G01X21793Y8269D01*
G01X21793Y7742D01*
G01X21300Y7248D01*
G01X19350Y6900D02*
G01X18344Y6900D01*
G01X15667Y9578D01*
G01X14936Y9578D01*
G01X12082Y12432D01*
G01X11106Y12432D01*
G01X10219Y13317D01*
G01X10219Y14853D01*
G01X10072Y15000D01*
G01X9650Y950D02*
G01X9650Y1296D01*
G01X15350Y20000D02*
G01X15350Y19388D01*
G01X9650Y1296D02*
G01X9650Y7494D01*
G01X10596Y8440D01*
G01X10596Y12084D01*
G01X9646Y13034D01*
G01X9646Y14473D01*
G01X9681Y14509D01*
G01X9681Y15153D01*
G01X13914Y19388D01*
G01X15350Y19388D01*
G01X23250Y6900D02*
G01X22901Y6900D01*
G01X14072Y13450D02*
G01X14868Y12655D01*
G01X16978Y12655D01*
G01X19901Y9732D01*
G01X20557Y9732D01*
G01X22901Y7390D01*
G01X22901Y6900D01*
G01X15377Y13450D02*
G01X15797Y13030D01*
G01X16455Y13030D01*
G01X17950Y14525D01*
G01X17950Y20000D01*
G01X9127Y15000D02*
G01X9127Y15228D01*
G01X12350Y18451D01*
G01X12350Y20000D01*
G01X9127Y17150D02*
G01X9127Y17165D01*
G01X11350Y19388D01*
G01X11350Y20000D02*
G01X11350Y19388D01*
G01X18950Y20000D02*
G01X18950Y15265D01*
G01X16511Y12826D01*
G01X15448Y12826D01*
G01X14402Y13873D01*
G01X13550Y13873D01*
G01X13127Y13450D01*
G01X14160Y4200D02*
G01X14160Y2401D01*
G01X14950Y1611D01*
G01X14950Y1000D02*
G01X14950Y1611D01*
G01X10150Y4790D02*
G01X10650Y4290D01*
G01X10650Y950D01*
G01X7500Y19550D02*
G01X5150Y17200D01*
G01X5150Y9550D01*
G01X11889Y9019D02*
G01X10150Y7280D01*
G01X10150Y4790D01*
G01X22950Y20000D02*
G01X22950Y13350D01*
G01X25150Y11150D01*
G01X927Y1350D02*
G01X801Y1476D01*
G01X801Y8851D01*
G01X1150Y9201D01*
G01X1150Y9550D02*
G01X1150Y9201D01*
G01X5150Y4500D02*
G01X5150Y4848D01*
G01X5150Y4848D02*
G01X5498Y5198D01*
G01X5498Y6638D01*
G01X4630Y7507D01*
G01X4630Y14600D01*
G01X5150Y6200D02*
G01X5150Y5851D01*
G01X19350Y2900D02*
G01X18236Y2900D01*
G01X16950Y1611D01*
G01X16950Y1000D02*
G01X16950Y1611D01*
G01X21300Y3248D02*
G01X20951Y3598D01*
G01X20951Y7501D01*
G01X21250Y7801D01*
G01X21300Y2900D02*
G01X21300Y3248D01*
G01X21250Y8150D02*
G01X21250Y7801D01*
G01X15950Y388D02*
G01X12211Y388D01*
G01X11650Y950D01*
G01X15950Y1000D02*
G01X15950Y388D01*
G01X12150Y4790D02*
G01X11650Y4290D01*
G01X11650Y950D01*
G01X1150Y7850D02*
G01X1498Y7850D01*
G01X950Y18525D02*
G01X2069Y17405D01*
G01X2069Y14600D01*
G01X2069Y14600D02*
G01X2069Y8421D01*
G01X1498Y7850D01*
G01X4323Y5025D02*
G01X1498Y7850D01*
G01X4300Y1300D02*
G01X4300Y5001D01*
G01X4323Y5025D01*
G01X4323Y5025D02*
G01X5150Y5851D01*
G01X20950Y20000D02*
G01X20950Y16557D01*
G01X18740Y14348D01*
G01X18740Y11446D01*
G01X25200Y6900D02*
G01X24851Y6900D01*
G01X24851Y6900D02*
G01X24851Y7161D01*
G01X20796Y11215D01*
G01X18646Y11215D01*
G01X18293Y11567D01*
G01X18293Y13450D01*
G01X12950Y1000D02*
G01X12950Y9017D01*
G01X11061Y10905D01*
G01X11061Y12248D01*
G01X9877Y13432D01*
G01X9877Y14378D01*
G01X12010Y12178D02*
G01X13660Y10526D01*
G01X13660Y9019D01*
G36*
G01X9414Y1186D02*
G01X9885Y1186D01*
G01X9885Y713D01*
G01X9414Y713D01*
G01X9414Y1186D01*
G37*
G54D13*
G01X10650Y950D03*
G01X11650Y950D03*
G54D14*
G01X7500Y19550D03*
G01X5500Y19550D03*
G54D15*
G01X8000Y950D03*
G01X7000Y950D03*
G36*
G01X5689Y1304D02*
G01X6310Y1304D01*
G01X6310Y595D01*
G01X5689Y595D01*
G01X5689Y1304D01*
G37*
G54D17*
G01X10085Y9020D03*
G01X10085Y11579D03*
G01X8314Y11579D03*
G01X8314Y9020D03*
G01X13660Y9020D03*
G01X13660Y11579D03*
G01X11889Y11579D03*
G01X11889Y9020D03*
G01X17235Y9020D03*
G01X17235Y11579D03*
G01X15464Y11579D03*
G01X15464Y9020D03*
G54D18*
G01X25150Y11150D03*
G01X25150Y10150D03*
G54D19*
G01X25150Y9150D03*
G36*
G01X9072Y19498D02*
G01X9072Y20501D01*
G01X9628Y20501D01*
G01X9628Y19498D01*
G01X9072Y19498D01*
G37*
G36*
G01X10072Y19498D02*
G01X10072Y20501D01*
G01X10628Y20501D01*
G01X10628Y19498D01*
G01X10072Y19498D01*
G37*
G36*
G01X11072Y19498D02*
G01X11072Y20501D01*
G01X11628Y20501D01*
G01X11628Y19498D01*
G01X11072Y19498D01*
G37*
G36*
G01X12071Y19498D02*
G01X12071Y20501D01*
G01X12628Y20501D01*
G01X12628Y19498D01*
G01X12071Y19498D01*
G37*
G36*
G01X13071Y19498D02*
G01X13071Y20501D01*
G01X13628Y20501D01*
G01X13628Y19498D01*
G01X13071Y19498D01*
G37*
G36*
G01X14071Y19498D02*
G01X14071Y20501D01*
G01X14628Y20501D01*
G01X14628Y19498D01*
G01X14071Y19498D01*
G37*
G36*
G01X15071Y19498D02*
G01X15071Y20501D01*
G01X15628Y20501D01*
G01X15628Y19498D01*
G01X15071Y19498D01*
G37*
G36*
G01X16071Y19498D02*
G01X16071Y20501D01*
G01X16628Y20501D01*
G01X16628Y19498D01*
G01X16071Y19498D01*
G37*
G36*
G01X17671Y19498D02*
G01X17671Y20501D01*
G01X18228Y20501D01*
G01X18228Y19498D01*
G01X17671Y19498D01*
G37*
G36*
G01X18671Y19498D02*
G01X18671Y20501D01*
G01X19228Y20501D01*
G01X19228Y19498D01*
G01X18671Y19498D01*
G37*
G36*
G01X19671Y19498D02*
G01X19671Y20501D01*
G01X20228Y20501D01*
G01X20228Y19498D01*
G01X19671Y19498D01*
G37*
G36*
G01X20671Y19498D02*
G01X20671Y20501D01*
G01X21228Y20501D01*
G01X21228Y19498D01*
G01X20671Y19498D01*
G37*
G36*
G01X21671Y19498D02*
G01X21671Y20501D01*
G01X22228Y20501D01*
G01X22228Y19498D01*
G01X21671Y19498D01*
G37*
G36*
G01X22671Y19498D02*
G01X22671Y20501D01*
G01X23228Y20501D01*
G01X23228Y19498D01*
G01X22671Y19498D01*
G37*
G36*
G01X23671Y19498D02*
G01X23671Y20501D01*
G01X24228Y20501D01*
G01X24228Y19498D01*
G01X23671Y19498D01*
G37*
G36*
G01X24671Y19498D02*
G01X24671Y20501D01*
G01X25228Y20501D01*
G01X25228Y19498D01*
G01X24671Y19498D01*
G37*
G36*
G01X12671Y498D02*
G01X12671Y1501D01*
G01X13228Y1501D01*
G01X13228Y498D01*
G01X12671Y498D01*
G37*
G36*
G01X13671Y498D02*
G01X13671Y1501D01*
G01X14228Y1501D01*
G01X14228Y498D01*
G01X13671Y498D01*
G37*
G36*
G01X14671Y498D02*
G01X14671Y1501D01*
G01X15228Y1501D01*
G01X15228Y498D01*
G01X14671Y498D01*
G37*
G36*
G01X15671Y498D02*
G01X15671Y1501D01*
G01X16228Y1501D01*
G01X16228Y498D01*
G01X15671Y498D01*
G37*
G36*
G01X16671Y498D02*
G01X16671Y1501D01*
G01X17228Y1501D01*
G01X17228Y498D01*
G01X16671Y498D01*
G37*
G36*
G01X17671Y498D02*
G01X17671Y1501D01*
G01X18228Y1501D01*
G01X18228Y498D01*
G01X17671Y498D01*
G37*
G36*
G01X19671Y498D02*
G01X19671Y1501D01*
G01X20228Y1501D01*
G01X20228Y498D01*
G01X19671Y498D01*
G37*
G36*
G01X20671Y498D02*
G01X20671Y1501D01*
G01X21228Y1501D01*
G01X21228Y498D01*
G01X20671Y498D01*
G37*
G36*
G01X21671Y498D02*
G01X21671Y1501D01*
G01X22228Y1501D01*
G01X22228Y498D01*
G01X21671Y498D01*
G37*
G36*
G01X22671Y498D02*
G01X22671Y1501D01*
G01X23228Y1501D01*
G01X23228Y498D01*
G01X22671Y498D01*
G37*
G36*
G01X23671Y498D02*
G01X23671Y1501D01*
G01X24228Y1501D01*
G01X24228Y498D01*
G01X23671Y498D01*
G37*
G36*
G01X24671Y498D02*
G01X24671Y1501D01*
G01X25228Y1501D01*
G01X25228Y498D01*
G01X24671Y498D01*
G37*
G36*
G01X911Y8088D02*
G01X1388Y8088D01*
G01X1388Y7611D01*
G01X911Y7611D01*
G01X911Y8088D01*
G37*
G36*
G01X4911Y8088D02*
G01X5388Y8088D01*
G01X5388Y7611D01*
G01X4911Y7611D01*
G01X4911Y8088D01*
G37*
G36*
G01X911Y6438D02*
G01X1388Y6438D01*
G01X1388Y5961D01*
G01X911Y5961D01*
G01X911Y6438D01*
G37*
G36*
G01X4911Y6438D02*
G01X5388Y6438D01*
G01X5388Y5961D01*
G01X4911Y5961D01*
G01X4911Y6438D01*
G37*
G36*
G01X911Y4738D02*
G01X1388Y4738D01*
G01X1388Y4261D01*
G01X911Y4261D01*
G01X911Y4738D01*
G37*
G36*
G01X4911Y4738D02*
G01X5388Y4738D01*
G01X5388Y4261D01*
G01X4911Y4261D01*
G01X4911Y4738D01*
G37*
G54D21*
G01X19350Y8150D03*
G01X19350Y12150D03*
G36*
G01X911Y9788D02*
G01X1388Y9788D01*
G01X1388Y9311D01*
G01X911Y9311D01*
G01X911Y9788D01*
G37*
G36*
G01X4911Y9788D02*
G01X5388Y9788D01*
G01X5388Y9311D01*
G01X4911Y9311D01*
G01X4911Y9788D01*
G37*
G01X21250Y8150D03*
G01X21250Y12150D03*
G01X23200Y8150D03*
G01X23200Y12150D03*
G01X19350Y2900D03*
G01X19350Y6900D03*
G01X21300Y2900D03*
G01X21300Y6900D03*
G01X23250Y2900D03*
G01X23250Y6900D03*
G01X25200Y2900D03*
G01X25200Y6900D03*
G54D13*
G01X12150Y4790D03*
G01X10150Y4790D03*
G01X11150Y5909D03*
G54D22*
G01X3311Y20100D03*
G01X950Y20100D03*
G01X3311Y18525D03*
G01X950Y18525D03*
G54D23*
G01X2069Y14600D03*
G01X4630Y14600D03*
G01X14160Y4200D03*
G01X15739Y4200D03*
G54D24*
G01X9127Y17150D03*
G01X10072Y17150D03*
G01X9127Y15000D03*
G01X10072Y15000D03*
G01X10877Y13450D03*
G01X11822Y13450D03*
G01X13127Y13450D03*
G01X14072Y13450D03*
G01X15377Y13450D03*
G01X16322Y13450D03*
G01X927Y1350D03*
G01X1872Y1350D03*
G54D25*
G01X4300Y1300D03*
G01X3709Y1300D03*
G54D11*
G01X18740Y11446D03*
G01X18293Y13450D03*
G01X9877Y14378D03*
G01X12010Y12178D03*
M00*
M02*
