G04 Layer: TopSilkLayer*
G04 EasyEDA v6.4.7, 2020-11-04T13:22:21+08:00*
G04 c75b3099a9074dceb9129db7a55e819f,07195eaca447455c8232cfd30933a766,10*
G04 Gerber Generator version 0.2*
G04 Scale: 100 percent, Rotated: No, Reflected: No *
G04 Dimensions in inches *
G04 leading zeros omitted , absolute positions ,2 integer and 4 decimal *
%FSLAX24Y24*%
%MOIN*%
G90*
D02*

%ADD10C,0.010000*%
%ADD26C,0.007000*%
%ADD27C,0.008000*%
%ADD28C,0.007992*%
%ADD29C,0.005906*%
%ADD30C,0.005000*%
%ADD31C,0.006000*%

%LPD*%

%LPD*%
G36*
G01X23674Y16898D02*
G01X23360Y16898D01*
G01X23350Y16850D01*
G01X23344Y16823D01*
G01X23337Y16788D01*
G01X23330Y16748D01*
G01X23322Y16709D01*
G01X23315Y16671D01*
G01X23308Y16637D01*
G01X23302Y16611D01*
G01X23297Y16595D01*
G01X23287Y16583D01*
G01X23266Y16568D01*
G01X23233Y16551D01*
G01X23188Y16531D01*
G01X23148Y16515D01*
G01X23114Y16501D01*
G01X23089Y16492D01*
G01X23078Y16488D01*
G01X23058Y16498D01*
G01X23046Y16506D01*
G01X23031Y16515D01*
G01X23014Y16527D01*
G01X22994Y16540D01*
G01X22972Y16555D01*
G01X22948Y16571D01*
G01X22922Y16589D01*
G01X22894Y16608D01*
G01X22864Y16629D01*
G01X22845Y16642D01*
G01X22828Y16653D01*
G01X22815Y16660D01*
G01X22808Y16663D01*
G01X22801Y16659D01*
G01X22787Y16647D01*
G01X22768Y16630D01*
G01X22693Y16555D01*
G01X22668Y16528D01*
G01X22643Y16502D01*
G01X22622Y16478D01*
G01X22606Y16459D01*
G01X22594Y16444D01*
G01X22590Y16436D01*
G01X22592Y16428D01*
G01X22596Y16417D01*
G01X22602Y16406D01*
G01X22609Y16395D01*
G01X22622Y16378D01*
G01X22636Y16358D01*
G01X22652Y16336D01*
G01X22668Y16313D01*
G01X22700Y16265D01*
G01X22714Y16243D01*
G01X22727Y16222D01*
G01X22738Y16204D01*
G01X22747Y16189D01*
G01X22752Y16179D01*
G01X22754Y16173D01*
G01X22751Y16160D01*
G01X22740Y16134D01*
G01X22726Y16098D01*
G01X22708Y16055D01*
G01X22661Y15949D01*
G01X22567Y15932D01*
G01X22547Y15928D01*
G01X22526Y15924D01*
G01X22504Y15920D01*
G01X22483Y15916D01*
G01X22463Y15912D01*
G01X22444Y15908D01*
G01X22427Y15905D01*
G01X22414Y15902D01*
G01X22355Y15891D01*
G01X22355Y15569D01*
G01X22398Y15562D01*
G01X22421Y15558D01*
G01X22446Y15554D01*
G01X22472Y15549D01*
G01X22500Y15544D01*
G01X22527Y15538D01*
G01X22554Y15533D01*
G01X22579Y15528D01*
G01X22602Y15523D01*
G01X22621Y15519D01*
G01X22636Y15515D01*
G01X22647Y15512D01*
G01X22652Y15511D01*
G01X22656Y15505D01*
G01X22663Y15492D01*
G01X22671Y15474D01*
G01X22681Y15451D01*
G01X22691Y15425D01*
G01X22702Y15398D01*
G01X22713Y15370D01*
G01X22722Y15344D01*
G01X22731Y15319D01*
G01X22738Y15299D01*
G01X22744Y15275D01*
G01X22738Y15260D01*
G01X22721Y15232D01*
G01X22697Y15194D01*
G01X22637Y15106D01*
G01X22613Y15067D01*
G01X22597Y15039D01*
G01X22590Y15024D01*
G01X22593Y15019D01*
G01X22599Y15010D01*
G01X22609Y14997D01*
G01X22622Y14982D01*
G01X22638Y14964D01*
G01X22656Y14944D01*
G01X22676Y14924D01*
G01X22697Y14902D01*
G01X22805Y14795D01*
G01X22929Y14879D01*
G01X23052Y14963D01*
G01X23114Y14932D01*
G01X23175Y14901D01*
G01X23203Y14964D01*
G01X23208Y14976D01*
G01X23215Y14992D01*
G01X23222Y15010D01*
G01X23231Y15030D01*
G01X23240Y15053D01*
G01X23251Y15077D01*
G01X23261Y15103D01*
G01X23272Y15129D01*
G01X23296Y15185D01*
G01X23307Y15213D01*
G01X23393Y15416D01*
G01X23363Y15438D01*
G01X23338Y15457D01*
G01X23316Y15475D01*
G01X23296Y15493D01*
G01X23279Y15511D01*
G01X23263Y15530D01*
G01X23249Y15550D01*
G01X23236Y15571D01*
G01X23225Y15593D01*
G01X23215Y15616D01*
G01X23207Y15638D01*
G01X23201Y15662D01*
G01X23196Y15685D01*
G01X23193Y15708D01*
G01X23193Y15754D01*
G01X23196Y15777D01*
G01X23201Y15800D01*
G01X23207Y15823D01*
G01X23215Y15846D01*
G01X23225Y15869D01*
G01X23235Y15889D01*
G01X23247Y15908D01*
G01X23259Y15926D01*
G01X23272Y15942D01*
G01X23286Y15957D01*
G01X23301Y15971D01*
G01X23317Y15984D01*
G01X23332Y15996D01*
G01X23349Y16007D01*
G01X23367Y16017D01*
G01X23384Y16025D01*
G01X23402Y16033D01*
G01X23421Y16039D01*
G01X23440Y16044D01*
G01X23459Y16048D01*
G01X23478Y16051D01*
G01X23497Y16053D01*
G01X23536Y16053D01*
G01X23556Y16051D01*
G01X23575Y16048D01*
G01X23594Y16044D01*
G01X23613Y16039D01*
G01X23631Y16033D01*
G01X23650Y16025D01*
G01X23667Y16017D01*
G01X23685Y16007D01*
G01X23701Y15996D01*
G01X23718Y15984D01*
G01X23733Y15971D01*
G01X23748Y15957D01*
G01X23762Y15942D01*
G01X23775Y15926D01*
G01X23787Y15908D01*
G01X23798Y15889D01*
G01X23809Y15869D01*
G01X23824Y15834D01*
G01X23834Y15803D01*
G01X23838Y15771D01*
G01X23839Y15731D01*
G01X23839Y15709D01*
G01X23837Y15688D01*
G01X23834Y15667D01*
G01X23830Y15647D01*
G01X23824Y15627D01*
G01X23817Y15608D01*
G01X23809Y15590D01*
G01X23799Y15571D01*
G01X23788Y15554D01*
G01X23776Y15536D01*
G01X23762Y15519D01*
G01X23747Y15503D01*
G01X23730Y15486D01*
G01X23712Y15470D01*
G01X23693Y15454D01*
G01X23671Y15438D01*
G01X23642Y15416D01*
G01X23727Y15213D01*
G01X23738Y15185D01*
G01X23750Y15157D01*
G01X23761Y15129D01*
G01X23783Y15077D01*
G01X23793Y15053D01*
G01X23803Y15030D01*
G01X23812Y15010D01*
G01X23819Y14992D01*
G01X23826Y14976D01*
G01X23831Y14964D01*
G01X23859Y14901D01*
G01X23981Y14963D01*
G01X24229Y14795D01*
G01X24378Y14944D01*
G01X24396Y14964D01*
G01X24412Y14982D01*
G01X24425Y14997D01*
G01X24435Y15010D01*
G01X24441Y15019D01*
G01X24443Y15024D01*
G01X24438Y15039D01*
G01X24421Y15067D01*
G01X24397Y15106D01*
G01X24337Y15194D01*
G01X24313Y15232D01*
G01X24296Y15260D01*
G01X24290Y15275D01*
G01X24296Y15299D01*
G01X24303Y15319D01*
G01X24311Y15344D01*
G01X24321Y15370D01*
G01X24332Y15398D01*
G01X24343Y15425D01*
G01X24353Y15451D01*
G01X24363Y15474D01*
G01X24371Y15492D01*
G01X24378Y15505D01*
G01X24382Y15511D01*
G01X24387Y15512D01*
G01X24397Y15515D01*
G01X24413Y15519D01*
G01X24432Y15523D01*
G01X24455Y15528D01*
G01X24480Y15533D01*
G01X24507Y15538D01*
G01X24534Y15544D01*
G01X24588Y15554D01*
G01X24613Y15558D01*
G01X24635Y15562D01*
G01X24679Y15569D01*
G01X24679Y15891D01*
G01X24584Y15909D01*
G01X24564Y15913D01*
G01X24522Y15921D01*
G01X24500Y15925D01*
G01X24480Y15929D01*
G01X24461Y15932D01*
G01X24445Y15936D01*
G01X24431Y15938D01*
G01X24372Y15950D01*
G01X24326Y16056D01*
G01X24308Y16098D01*
G01X24293Y16134D01*
G01X24280Y16173D01*
G01X24282Y16179D01*
G01X24287Y16189D01*
G01X24296Y16204D01*
G01X24307Y16222D01*
G01X24320Y16243D01*
G01X24334Y16265D01*
G01X24366Y16313D01*
G01X24382Y16336D01*
G01X24397Y16358D01*
G01X24412Y16378D01*
G01X24425Y16395D01*
G01X24432Y16406D01*
G01X24438Y16417D01*
G01X24442Y16428D01*
G01X24443Y16436D01*
G01X24439Y16444D01*
G01X24428Y16459D01*
G01X24412Y16478D01*
G01X24391Y16502D01*
G01X24367Y16528D01*
G01X24341Y16555D01*
G01X24289Y16607D01*
G01X24267Y16630D01*
G01X24247Y16647D01*
G01X24234Y16659D01*
G01X24226Y16663D01*
G01X24219Y16660D01*
G01X24206Y16653D01*
G01X24189Y16642D01*
G01X24169Y16629D01*
G01X24140Y16608D01*
G01X24112Y16589D01*
G01X24086Y16571D01*
G01X24062Y16555D01*
G01X24040Y16540D01*
G01X24020Y16527D01*
G01X24003Y16515D01*
G01X23988Y16506D01*
G01X23976Y16498D01*
G01X23956Y16488D01*
G01X23944Y16492D01*
G01X23920Y16501D01*
G01X23886Y16515D01*
G01X23846Y16531D01*
G01X23801Y16551D01*
G01X23768Y16568D01*
G01X23747Y16583D01*
G01X23737Y16595D01*
G01X23732Y16611D01*
G01X23726Y16637D01*
G01X23719Y16671D01*
G01X23712Y16709D01*
G01X23705Y16748D01*
G01X23690Y16823D01*
G01X23685Y16850D01*
G01X23674Y16898D01*
G37*

%LPD*%
G36*
G01X24439Y14560D02*
G01X24424Y14562D01*
G01X24409Y14559D01*
G01X24385Y14548D01*
G01X24372Y14544D01*
G01X24361Y14541D01*
G01X24354Y14541D01*
G01X24352Y14544D01*
G01X24349Y14548D01*
G01X24343Y14551D01*
G01X24333Y14553D01*
G01X24290Y14553D01*
G01X24290Y14246D01*
G01X24351Y14246D01*
G01X24354Y14361D01*
G01X24356Y14426D01*
G01X24360Y14461D01*
G01X24367Y14479D01*
G01X24381Y14488D01*
G01X24393Y14493D01*
G01X24405Y14495D01*
G01X24417Y14495D01*
G01X24441Y14489D01*
G01X24451Y14490D01*
G01X24462Y14496D01*
G01X24473Y14506D01*
G01X24489Y14524D01*
G01X24493Y14536D01*
G01X24484Y14544D01*
G01X24463Y14553D01*
G01X24439Y14560D01*
G37*

%LPD*%
G36*
G01X23081Y14561D02*
G01X23066Y14561D01*
G01X23046Y14556D01*
G01X23028Y14550D01*
G01X23019Y14545D01*
G01X23007Y14537D01*
G01X23003Y14536D01*
G01X23001Y14538D01*
G01X23000Y14542D01*
G01X22997Y14546D01*
G01X22989Y14550D01*
G01X22978Y14553D01*
G01X22928Y14553D01*
G01X22928Y14246D01*
G01X23000Y14246D01*
G01X23000Y14398D01*
G01X23002Y14430D01*
G01X23005Y14454D01*
G01X23010Y14471D01*
G01X23017Y14483D01*
G01X23027Y14490D01*
G01X23040Y14494D01*
G01X23057Y14494D01*
G01X23074Y14493D01*
G01X23087Y14489D01*
G01X23098Y14481D01*
G01X23106Y14468D01*
G01X23112Y14450D01*
G01X23116Y14425D01*
G01X23119Y14394D01*
G01X23121Y14354D01*
G01X23125Y14246D01*
G01X23184Y14246D01*
G01X23184Y14404D01*
G01X23181Y14441D01*
G01X23177Y14471D01*
G01X23171Y14495D01*
G01X23162Y14514D01*
G01X23151Y14528D01*
G01X23136Y14540D01*
G01X23117Y14549D01*
G01X23096Y14558D01*
G01X23081Y14561D01*
G37*

%LPD*%
G36*
G01X24034Y14553D02*
G01X23962Y14553D01*
G01X23962Y14448D01*
G01X23963Y14406D01*
G01X23965Y14371D01*
G01X23968Y14342D01*
G01X23972Y14318D01*
G01X23979Y14299D01*
G01X23987Y14284D01*
G01X23998Y14271D01*
G01X24011Y14261D01*
G01X24042Y14248D01*
G01X24077Y14244D01*
G01X24111Y14248D01*
G01X24137Y14262D01*
G01X24147Y14271D01*
G01X24154Y14275D01*
G01X24156Y14272D01*
G01X24157Y14263D01*
G01X24159Y14255D01*
G01X24164Y14250D01*
G01X24174Y14247D01*
G01X24188Y14246D01*
G01X24218Y14246D01*
G01X24218Y14553D01*
G01X24157Y14553D01*
G01X24157Y14453D01*
G01X24156Y14413D01*
G01X24154Y14381D01*
G01X24150Y14355D01*
G01X24144Y14336D01*
G01X24135Y14323D01*
G01X24124Y14314D01*
G01X24110Y14309D01*
G01X24092Y14308D01*
G01X24074Y14309D01*
G01X24061Y14312D01*
G01X24051Y14318D01*
G01X24043Y14329D01*
G01X24039Y14346D01*
G01X24036Y14370D01*
G01X24034Y14402D01*
G01X24034Y14553D01*
G37*

%LPD*%
G36*
G01X23801Y14557D02*
G01X23769Y14557D01*
G01X23738Y14550D01*
G01X23718Y14542D01*
G01X23701Y14531D01*
G01X23688Y14518D01*
G01X23677Y14502D01*
G01X23669Y14483D01*
G01X23664Y14460D01*
G01X23661Y14432D01*
G01X23660Y14400D01*
G01X23661Y14358D01*
G01X23664Y14330D01*
G01X23671Y14308D01*
G01X23682Y14290D01*
G01X23694Y14276D01*
G01X23709Y14265D01*
G01X23725Y14256D01*
G01X23742Y14249D01*
G01X23760Y14244D01*
G01X23778Y14242D01*
G01X23797Y14243D01*
G01X23816Y14246D01*
G01X23834Y14251D01*
G01X23851Y14259D01*
G01X23867Y14270D01*
G01X23881Y14283D01*
G01X23894Y14299D01*
G01X23902Y14319D01*
G01X23906Y14346D01*
G01X23909Y14388D01*
G01X23910Y14417D01*
G01X23909Y14443D01*
G01X23906Y14464D01*
G01X23902Y14482D01*
G01X23895Y14497D01*
G01X23886Y14511D01*
G01X23874Y14523D01*
G01X23860Y14534D01*
G01X23832Y14549D01*
G01X23801Y14557D01*
G37*

%LPC*%
G36*
G01X23792Y14495D02*
G01X23776Y14495D01*
G01X23761Y14491D01*
G01X23747Y14483D01*
G01X23735Y14470D01*
G01X23726Y14454D01*
G01X23719Y14421D01*
G01X23720Y14381D01*
G01X23727Y14345D01*
G01X23740Y14321D01*
G01X23761Y14308D01*
G01X23786Y14306D01*
G01X23811Y14312D01*
G01X23831Y14328D01*
G01X23839Y14341D01*
G01X23844Y14357D01*
G01X23848Y14377D01*
G01X23850Y14397D01*
G01X23849Y14418D01*
G01X23846Y14437D01*
G01X23842Y14454D01*
G01X23835Y14468D01*
G01X23822Y14482D01*
G01X23808Y14491D01*
G01X23792Y14495D01*
G37*

%LPD*%
G36*
G01X22759Y14559D02*
G01X22738Y14559D01*
G01X22716Y14557D01*
G01X22701Y14551D01*
G01X22686Y14543D01*
G01X22672Y14531D01*
G01X22659Y14517D01*
G01X22647Y14501D01*
G01X22637Y14483D01*
G01X22630Y14465D01*
G01X22626Y14446D01*
G01X22623Y14419D01*
G01X22622Y14394D01*
G01X22623Y14369D01*
G01X22627Y14347D01*
G01X22633Y14327D01*
G01X22641Y14308D01*
G01X22651Y14292D01*
G01X22664Y14277D01*
G01X22681Y14263D01*
G01X22703Y14253D01*
G01X22727Y14246D01*
G01X22752Y14242D01*
G01X22778Y14243D01*
G01X22803Y14248D01*
G01X22827Y14256D01*
G01X22848Y14268D01*
G01X22877Y14289D01*
G01X22852Y14309D01*
G01X22837Y14320D01*
G01X22827Y14324D01*
G01X22816Y14322D01*
G01X22803Y14313D01*
G01X22778Y14301D01*
G01X22754Y14298D01*
G01X22730Y14306D01*
G01X22708Y14323D01*
G01X22693Y14339D01*
G01X22684Y14351D01*
G01X22681Y14361D01*
G01X22685Y14369D01*
G01X22697Y14374D01*
G01X22716Y14377D01*
G01X22744Y14379D01*
G01X22877Y14379D01*
G01X22877Y14423D01*
G01X22876Y14445D01*
G01X22871Y14465D01*
G01X22864Y14484D01*
G01X22855Y14502D01*
G01X22843Y14517D01*
G01X22830Y14530D01*
G01X22814Y14541D01*
G01X22797Y14550D01*
G01X22778Y14556D01*
G01X22759Y14559D01*
G37*

%LPC*%
G36*
G01X22760Y14501D02*
G01X22749Y14502D01*
G01X22728Y14496D01*
G01X22706Y14482D01*
G01X22689Y14463D01*
G01X22682Y14444D01*
G01X22686Y14438D01*
G01X22698Y14434D01*
G01X22718Y14431D01*
G01X22749Y14430D01*
G01X22792Y14433D01*
G01X22813Y14440D01*
G01X22813Y14455D01*
G01X22795Y14480D01*
G01X22785Y14488D01*
G01X22773Y14496D01*
G01X22760Y14501D01*
G37*

%LPD*%
G36*
G01X22170Y14555D02*
G01X22147Y14558D01*
G01X22123Y14556D01*
G01X22100Y14550D01*
G01X22080Y14542D01*
G01X22063Y14531D01*
G01X22050Y14518D01*
G01X22039Y14502D01*
G01X22031Y14483D01*
G01X22026Y14460D01*
G01X22023Y14432D01*
G01X22022Y14400D01*
G01X22023Y14367D01*
G01X22026Y14339D01*
G01X22031Y14315D01*
G01X22040Y14296D01*
G01X22051Y14280D01*
G01X22065Y14267D01*
G01X22084Y14257D01*
G01X22106Y14248D01*
G01X22125Y14244D01*
G01X22145Y14242D01*
G01X22165Y14243D01*
G01X22184Y14248D01*
G01X22202Y14254D01*
G01X22218Y14264D01*
G01X22234Y14276D01*
G01X22246Y14290D01*
G01X22255Y14307D01*
G01X22263Y14331D01*
G01X22268Y14359D01*
G01X22271Y14389D01*
G01X22272Y14420D01*
G01X22271Y14448D01*
G01X22267Y14473D01*
G01X22260Y14491D01*
G01X22248Y14510D01*
G01X22231Y14526D01*
G01X22213Y14540D01*
G01X22192Y14549D01*
G01X22170Y14555D01*
G37*

%LPC*%
G36*
G01X22156Y14494D02*
G01X22140Y14496D01*
G01X22125Y14492D01*
G01X22111Y14486D01*
G01X22098Y14475D01*
G01X22088Y14460D01*
G01X22083Y14447D01*
G01X22081Y14429D01*
G01X22080Y14409D01*
G01X22081Y14387D01*
G01X22084Y14366D01*
G01X22089Y14347D01*
G01X22094Y14332D01*
G01X22102Y14321D01*
G01X22123Y14309D01*
G01X22148Y14306D01*
G01X22173Y14312D01*
G01X22193Y14328D01*
G01X22201Y14341D01*
G01X22206Y14357D01*
G01X22210Y14377D01*
G01X22211Y14397D01*
G01X22211Y14418D01*
G01X22208Y14437D01*
G01X22203Y14454D01*
G01X22197Y14468D01*
G01X22185Y14481D01*
G01X22171Y14490D01*
G01X22156Y14494D01*
G37*

%LPD*%
G36*
G01X23516Y14556D02*
G01X23478Y14558D01*
G01X23444Y14553D01*
G01X23421Y14543D01*
G01X23402Y14530D01*
G01X23387Y14513D01*
G01X23377Y14494D01*
G01X23372Y14475D01*
G01X23373Y14454D01*
G01X23380Y14434D01*
G01X23392Y14414D01*
G01X23408Y14399D01*
G01X23426Y14388D01*
G01X23450Y14381D01*
G01X23483Y14374D01*
G01X23515Y14368D01*
G01X23535Y14362D01*
G01X23547Y14354D01*
G01X23551Y14344D01*
G01X23551Y14329D01*
G01X23544Y14316D01*
G01X23532Y14307D01*
G01X23516Y14301D01*
G01X23497Y14299D01*
G01X23475Y14301D01*
G01X23452Y14307D01*
G01X23428Y14317D01*
G01X23407Y14328D01*
G01X23394Y14332D01*
G01X23385Y14329D01*
G01X23375Y14319D01*
G01X23363Y14304D01*
G01X23360Y14294D01*
G01X23367Y14284D01*
G01X23384Y14271D01*
G01X23408Y14258D01*
G01X23435Y14248D01*
G01X23464Y14243D01*
G01X23493Y14241D01*
G01X23520Y14243D01*
G01X23546Y14249D01*
G01X23569Y14259D01*
G01X23589Y14273D01*
G01X23601Y14286D01*
G01X23609Y14301D01*
G01X23613Y14319D01*
G01X23614Y14342D01*
G01X23610Y14375D01*
G01X23598Y14400D01*
G01X23577Y14416D01*
G01X23547Y14425D01*
G01X23532Y14427D01*
G01X23478Y14436D01*
G01X23459Y14440D01*
G01X23447Y14445D01*
G01X23442Y14453D01*
G01X23440Y14466D01*
G01X23449Y14489D01*
G01X23473Y14501D01*
G01X23506Y14501D01*
G01X23544Y14488D01*
G01X23560Y14481D01*
G01X23571Y14479D01*
G01X23581Y14484D01*
G01X23593Y14496D01*
G01X23614Y14519D01*
G01X23586Y14535D01*
G01X23554Y14548D01*
G01X23516Y14556D01*
G37*

%LPD*%
G36*
G01X24647Y14560D02*
G01X24628Y14562D01*
G01X24624Y14561D01*
G01X24598Y14556D01*
G01X24574Y14550D01*
G01X24553Y14539D01*
G01X24535Y14524D01*
G01X24520Y14506D01*
G01X24508Y14484D01*
G01X24500Y14459D01*
G01X24494Y14430D01*
G01X24493Y14399D01*
G01X24494Y14367D01*
G01X24500Y14339D01*
G01X24509Y14314D01*
G01X24521Y14293D01*
G01X24537Y14276D01*
G01X24557Y14261D01*
G01X24581Y14250D01*
G01X24608Y14242D01*
G01X24638Y14241D01*
G01X24671Y14247D01*
G01X24702Y14259D01*
G01X24724Y14275D01*
G01X24732Y14286D01*
G01X24735Y14294D01*
G01X24731Y14302D01*
G01X24721Y14312D01*
G01X24710Y14321D01*
G01X24701Y14324D01*
G01X24690Y14323D01*
G01X24678Y14317D01*
G01X24666Y14313D01*
G01X24652Y14309D01*
G01X24637Y14306D01*
G01X24623Y14305D01*
G01X24594Y14312D01*
G01X24573Y14330D01*
G01X24560Y14360D01*
G01X24556Y14400D01*
G01X24560Y14440D01*
G01X24573Y14469D01*
G01X24594Y14487D01*
G01X24623Y14494D01*
G01X24637Y14494D01*
G01X24652Y14491D01*
G01X24666Y14487D01*
G01X24690Y14477D01*
G01X24701Y14476D01*
G01X24710Y14479D01*
G01X24721Y14488D01*
G01X24731Y14498D01*
G01X24735Y14506D01*
G01X24732Y14513D01*
G01X24724Y14524D01*
G01X24705Y14538D01*
G01X24676Y14551D01*
G01X24647Y14560D01*
G37*

%LPD*%
G36*
G01X24912Y14557D02*
G01X24891Y14559D01*
G01X24869Y14557D01*
G01X24846Y14553D01*
G01X24831Y14546D01*
G01X24817Y14538D01*
G01X24804Y14528D01*
G01X24793Y14515D01*
G01X24784Y14500D01*
G01X24776Y14484D01*
G01X24770Y14465D01*
G01X24765Y14446D01*
G01X24763Y14424D01*
G01X24762Y14401D01*
G01X24763Y14377D01*
G01X24766Y14352D01*
G01X24772Y14328D01*
G01X24782Y14306D01*
G01X24795Y14287D01*
G01X24812Y14271D01*
G01X24831Y14258D01*
G01X24852Y14248D01*
G01X24874Y14242D01*
G01X24897Y14240D01*
G01X24922Y14242D01*
G01X24946Y14247D01*
G01X24969Y14257D01*
G01X24992Y14271D01*
G01X25003Y14280D01*
G01X25006Y14287D01*
G01X25002Y14295D01*
G01X24990Y14308D01*
G01X24977Y14320D01*
G01X24968Y14325D01*
G01X24958Y14323D01*
G01X24944Y14314D01*
G01X24919Y14301D01*
G01X24894Y14298D01*
G01X24870Y14306D01*
G01X24847Y14323D01*
G01X24832Y14339D01*
G01X24823Y14351D01*
G01X24821Y14361D01*
G01X24825Y14369D01*
G01X24837Y14374D01*
G01X24856Y14377D01*
G01X24884Y14379D01*
G01X25017Y14379D01*
G01X25017Y14415D01*
G01X25015Y14440D01*
G01X25011Y14463D01*
G01X25003Y14484D01*
G01X24993Y14502D01*
G01X24981Y14519D01*
G01X24966Y14532D01*
G01X24950Y14544D01*
G01X24932Y14552D01*
G01X24912Y14557D01*
G37*

%LPC*%
G36*
G01X24913Y14494D02*
G01X24890Y14501D01*
G01X24866Y14497D01*
G01X24843Y14482D01*
G01X24823Y14457D01*
G01X24824Y14442D01*
G01X24846Y14433D01*
G01X24889Y14430D01*
G01X24915Y14431D01*
G01X24936Y14433D01*
G01X24950Y14436D01*
G01X24956Y14440D01*
G01X24954Y14445D01*
G01X24949Y14453D01*
G01X24943Y14464D01*
G01X24934Y14475D01*
G01X24913Y14494D01*
G37*

%LPD*%
G36*
G01X24239Y14062D02*
G01X24208Y14062D01*
G01X24208Y13755D01*
G01X24269Y13755D01*
G01X24269Y13861D01*
G01X24270Y13917D01*
G01X24273Y13951D01*
G01X24279Y13972D01*
G01X24290Y13985D01*
G01X24301Y13993D01*
G01X24313Y13998D01*
G01X24327Y13999D01*
G01X24343Y13998D01*
G01X24361Y13996D01*
G01X24374Y13998D01*
G01X24385Y14005D01*
G01X24396Y14018D01*
G01X24406Y14032D01*
G01X24409Y14040D01*
G01X24408Y14047D01*
G01X24402Y14053D01*
G01X24378Y14060D01*
G01X24347Y14061D01*
G01X24317Y14056D01*
G01X24292Y14046D01*
G01X24280Y14038D01*
G01X24273Y14035D01*
G01X24270Y14038D01*
G01X24269Y14046D01*
G01X24268Y14053D01*
G01X24262Y14058D01*
G01X24252Y14061D01*
G01X24239Y14062D01*
G37*

%LPD*%
G36*
G01X23110Y14062D02*
G01X23082Y14064D01*
G01X23058Y14061D01*
G01X23046Y14057D01*
G01X23034Y14052D01*
G01X23022Y14046D01*
G01X23015Y14041D01*
G01X23007Y14036D01*
G01X23003Y14034D01*
G01X23001Y14038D01*
G01X23000Y14045D01*
G01X22998Y14053D01*
G01X22993Y14058D01*
G01X22983Y14061D01*
G01X22969Y14062D01*
G01X22939Y14062D01*
G01X22939Y13755D01*
G01X23000Y13755D01*
G01X23000Y13850D01*
G01X23001Y13891D01*
G01X23003Y13924D01*
G01X23007Y13950D01*
G01X23013Y13969D01*
G01X23022Y13982D01*
G01X23034Y13990D01*
G01X23050Y13995D01*
G01X23070Y13996D01*
G01X23091Y13998D01*
G01X23108Y14002D01*
G01X23123Y14009D01*
G01X23135Y14019D01*
G01X23143Y14028D01*
G01X23149Y14036D01*
G01X23152Y14043D01*
G01X23152Y14047D01*
G01X23135Y14055D01*
G01X23110Y14062D01*
G37*

%LPD*%
G36*
G01X22495Y14556D02*
G01X22474Y14558D01*
G01X22452Y14556D01*
G01X22429Y14549D01*
G01X22416Y14544D01*
G01X22406Y14541D01*
G01X22398Y14541D01*
G01X22396Y14544D01*
G01X22393Y14548D01*
G01X22387Y14551D01*
G01X22377Y14553D01*
G01X22334Y14553D01*
G01X22334Y13755D01*
G01X22396Y13755D01*
G01X22396Y13928D01*
G01X22399Y13963D01*
G01X22406Y13981D01*
G01X22417Y13990D01*
G01X22443Y13999D01*
G01X22468Y13998D01*
G01X22490Y13988D01*
G01X22506Y13970D01*
G01X22511Y13953D01*
G01X22515Y13925D01*
G01X22518Y13890D01*
G01X22518Y13850D01*
G01X22519Y13755D01*
G01X22580Y13755D01*
G01X22580Y13904D01*
G01X22577Y13939D01*
G01X22574Y13969D01*
G01X22568Y13994D01*
G01X22561Y14014D01*
G01X22552Y14030D01*
G01X22542Y14043D01*
G01X22528Y14052D01*
G01X22503Y14061D01*
G01X22473Y14063D01*
G01X22443Y14061D01*
G01X22418Y14052D01*
G01X22405Y14048D01*
G01X22398Y14057D01*
G01X22396Y14089D01*
G01X22396Y14265D01*
G01X22436Y14249D01*
G01X22459Y14241D01*
G01X22476Y14239D01*
G01X22493Y14243D01*
G01X22515Y14253D01*
G01X22534Y14263D01*
G01X22548Y14276D01*
G01X22559Y14290D01*
G01X22567Y14308D01*
G01X22572Y14326D01*
G01X22576Y14347D01*
G01X22578Y14370D01*
G01X22579Y14394D01*
G01X22579Y14418D01*
G01X22577Y14442D01*
G01X22574Y14464D01*
G01X22569Y14484D01*
G01X22561Y14506D01*
G01X22548Y14524D01*
G01X22533Y14539D01*
G01X22515Y14550D01*
G01X22495Y14556D01*
G37*

%LPC*%
G36*
G01X22471Y14492D02*
G01X22449Y14495D01*
G01X22426Y14488D01*
G01X22412Y14480D01*
G01X22405Y14466D01*
G01X22400Y14443D01*
G01X22398Y14404D01*
G01X22397Y14369D01*
G01X22399Y14344D01*
G01X22403Y14328D01*
G01X22411Y14318D01*
G01X22431Y14309D01*
G01X22454Y14306D01*
G01X22477Y14310D01*
G01X22496Y14321D01*
G01X22503Y14332D01*
G01X22508Y14347D01*
G01X22513Y14366D01*
G01X22515Y14387D01*
G01X22516Y14408D01*
G01X22515Y14428D01*
G01X22511Y14446D01*
G01X22506Y14460D01*
G01X22491Y14480D01*
G01X22471Y14492D01*
G37*

%LPD*%
G36*
G01X23482Y14061D02*
G01X23470Y14062D01*
G01X23456Y14061D01*
G01X23447Y14059D01*
G01X23443Y14055D01*
G01X23443Y14049D01*
G01X23445Y14044D01*
G01X23448Y14033D01*
G01X23453Y14018D01*
G01X23460Y13999D01*
G01X23467Y13976D01*
G01X23475Y13951D01*
G01X23484Y13924D01*
G01X23493Y13895D01*
G01X23538Y13754D01*
G01X23567Y13757D01*
G01X23582Y13760D01*
G01X23592Y13765D01*
G01X23600Y13773D01*
G01X23605Y13786D01*
G01X23610Y13801D01*
G01X23617Y13825D01*
G01X23635Y13885D01*
G01X23644Y13914D01*
G01X23651Y13938D01*
G01X23657Y13954D01*
G01X23660Y13959D01*
G01X23663Y13954D01*
G01X23669Y13938D01*
G01X23677Y13914D01*
G01X23686Y13885D01*
G01X23704Y13825D01*
G01X23711Y13801D01*
G01X23716Y13786D01*
G01X23721Y13773D01*
G01X23728Y13765D01*
G01X23739Y13760D01*
G01X23754Y13757D01*
G01X23784Y13754D01*
G01X23828Y13894D01*
G01X23837Y13923D01*
G01X23846Y13950D01*
G01X23854Y13975D01*
G01X23861Y13998D01*
G01X23867Y14017D01*
G01X23872Y14032D01*
G01X23876Y14043D01*
G01X23877Y14048D01*
G01X23878Y14055D01*
G01X23873Y14059D01*
G01X23863Y14061D01*
G01X23847Y14062D01*
G01X23828Y14061D01*
G01X23817Y14057D01*
G01X23810Y14048D01*
G01X23806Y14034D01*
G01X23801Y14011D01*
G01X23796Y13987D01*
G01X23789Y13963D01*
G01X23783Y13939D01*
G01X23777Y13917D01*
G01X23771Y13898D01*
G01X23761Y13873D01*
G01X23754Y13867D01*
G01X23746Y13876D01*
G01X23734Y13905D01*
G01X23717Y13958D01*
G01X23699Y14013D01*
G01X23686Y14045D01*
G01X23674Y14059D01*
G01X23660Y14062D01*
G01X23646Y14059D01*
G01X23635Y14045D01*
G01X23622Y14014D01*
G01X23604Y13959D01*
G01X23590Y13919D01*
G01X23578Y13888D01*
G01X23569Y13869D01*
G01X23563Y13864D01*
G01X23559Y13873D01*
G01X23552Y13891D01*
G01X23545Y13915D01*
G01X23538Y13943D01*
G01X23528Y13981D01*
G01X23521Y14009D01*
G01X23514Y14030D01*
G01X23507Y14045D01*
G01X23500Y14054D01*
G01X23492Y14059D01*
G01X23482Y14061D01*
G37*

%LPD*%
G36*
G01X24566Y14065D02*
G01X24557Y14066D01*
G01X24544Y14065D01*
G01X24512Y14057D01*
G01X24496Y14051D01*
G01X24481Y14044D01*
G01X24468Y14037D01*
G01X24459Y14032D01*
G01X24450Y14021D01*
G01X24442Y14006D01*
G01X24435Y13988D01*
G01X24430Y13967D01*
G01X24426Y13945D01*
G01X24425Y13921D01*
G01X24425Y13898D01*
G01X24426Y13874D01*
G01X24430Y13852D01*
G01X24435Y13831D01*
G01X24442Y13813D01*
G01X24450Y13798D01*
G01X24468Y13780D01*
G01X24491Y13765D01*
G01X24517Y13756D01*
G01X24545Y13751D01*
G01X24574Y13751D01*
G01X24602Y13755D01*
G01X24629Y13765D01*
G01X24654Y13780D01*
G01X24665Y13789D01*
G01X24668Y13796D01*
G01X24663Y13804D01*
G01X24649Y13815D01*
G01X24635Y13825D01*
G01X24624Y13829D01*
G01X24615Y13828D01*
G01X24603Y13821D01*
G01X24579Y13809D01*
G01X24552Y13807D01*
G01X24526Y13813D01*
G01X24505Y13826D01*
G01X24492Y13841D01*
G01X24484Y13852D01*
G01X24483Y13861D01*
G01X24488Y13868D01*
G01X24500Y13873D01*
G01X24520Y13876D01*
G01X24547Y13877D01*
G01X24583Y13878D01*
G01X24682Y13878D01*
G01X24676Y13933D01*
G01X24672Y13961D01*
G01X24667Y13985D01*
G01X24659Y14004D01*
G01X24648Y14020D01*
G01X24635Y14034D01*
G01X24617Y14045D01*
G01X24594Y14055D01*
G01X24566Y14065D01*
G37*

%LPC*%
G36*
G01X24562Y14007D02*
G01X24542Y14010D01*
G01X24523Y14004D01*
G01X24505Y13990D01*
G01X24486Y13966D01*
G01X24486Y13950D01*
G01X24507Y13942D01*
G01X24550Y13939D01*
G01X24586Y13940D01*
G01X24605Y13942D01*
G01X24611Y13948D01*
G01X24610Y13960D01*
G01X24606Y13969D01*
G01X24600Y13979D01*
G01X24592Y13988D01*
G01X24583Y13996D01*
G01X24562Y14007D01*
G37*

%LPD*%
G36*
G01X23410Y14185D02*
G01X23338Y14185D01*
G01X23338Y14113D01*
G01X23336Y14071D01*
G01X23332Y14048D01*
G01X23324Y14043D01*
G01X23310Y14053D01*
G01X23290Y14062D01*
G01X23260Y14063D01*
G01X23227Y14059D01*
G01X23200Y14048D01*
G01X23188Y14038D01*
G01X23178Y14023D01*
G01X23170Y14006D01*
G01X23163Y13985D01*
G01X23159Y13961D01*
G01X23156Y13935D01*
G01X23155Y13906D01*
G01X23156Y13875D01*
G01X23160Y13840D01*
G01X23165Y13815D01*
G01X23172Y13796D01*
G01X23184Y13781D01*
G01X23209Y13762D01*
G01X23238Y13751D01*
G01X23270Y13751D01*
G01X23302Y13759D01*
G01X23316Y13765D01*
G01X23327Y13767D01*
G01X23335Y13767D01*
G01X23338Y13765D01*
G01X23341Y13761D01*
G01X23348Y13758D01*
G01X23360Y13755D01*
G01X23410Y13755D01*
G01X23410Y14185D01*
G37*

%LPC*%
G36*
G01X23310Y13995D02*
G01X23283Y14001D01*
G01X23255Y13997D01*
G01X23234Y13984D01*
G01X23228Y13972D01*
G01X23224Y13955D01*
G01X23221Y13932D01*
G01X23220Y13906D01*
G01X23221Y13874D01*
G01X23225Y13853D01*
G01X23232Y13838D01*
G01X23244Y13825D01*
G01X23264Y13815D01*
G01X23284Y13811D01*
G01X23304Y13816D01*
G01X23325Y13829D01*
G01X23330Y13838D01*
G01X23334Y13854D01*
G01X23336Y13875D01*
G01X23338Y13899D01*
G01X23337Y13924D01*
G01X23335Y13947D01*
G01X23332Y13967D01*
G01X23327Y13981D01*
G01X23310Y13995D01*
G37*

%LPD*%
G36*
G01X22775Y14063D02*
G01X22748Y14067D01*
G01X22727Y14066D01*
G01X22704Y14062D01*
G01X22690Y14057D01*
G01X22675Y14051D01*
G01X22663Y14044D01*
G01X22654Y14038D01*
G01X22645Y14028D01*
G01X22643Y14021D01*
G01X22647Y14015D01*
G01X22657Y14006D01*
G01X22674Y13996D01*
G01X22688Y13991D01*
G01X22700Y13993D01*
G01X22708Y14001D01*
G01X22724Y14009D01*
G01X22751Y14010D01*
G01X22778Y14004D01*
G01X22799Y13992D01*
G01X22815Y13969D01*
G01X22813Y13953D01*
G01X22792Y13942D01*
G01X22749Y13936D01*
G01X22722Y13933D01*
G01X22697Y13928D01*
G01X22676Y13924D01*
G01X22664Y13919D01*
G01X22649Y13908D01*
G01X22638Y13893D01*
G01X22630Y13874D01*
G01X22626Y13854D01*
G01X22625Y13833D01*
G01X22628Y13813D01*
G01X22636Y13794D01*
G01X22647Y13778D01*
G01X22662Y13767D01*
G01X22681Y13759D01*
G01X22702Y13753D01*
G01X22724Y13750D01*
G01X22747Y13750D01*
G01X22768Y13753D01*
G01X22787Y13759D01*
G01X22803Y13767D01*
G01X22809Y13771D01*
G01X22813Y13773D01*
G01X22815Y13771D01*
G01X22815Y13766D01*
G01X22818Y13762D01*
G01X22825Y13758D01*
G01X22834Y13756D01*
G01X22846Y13755D01*
G01X22877Y13755D01*
G01X22877Y13870D01*
G01X22876Y13915D01*
G01X22873Y13952D01*
G01X22869Y13983D01*
G01X22862Y14008D01*
G01X22853Y14027D01*
G01X22842Y14041D01*
G01X22828Y14051D01*
G01X22811Y14057D01*
G01X22775Y14063D01*
G37*

%LPC*%
G36*
G01X22787Y13877D02*
G01X22756Y13878D01*
G01X22732Y13877D01*
G01X22712Y13876D01*
G01X22697Y13873D01*
G01X22689Y13871D01*
G01X22683Y13858D01*
G01X22684Y13842D01*
G01X22690Y13828D01*
G01X22702Y13817D01*
G01X22721Y13809D01*
G01X22741Y13806D01*
G01X22760Y13807D01*
G01X22777Y13811D01*
G01X22793Y13819D01*
G01X22805Y13829D01*
G01X22813Y13842D01*
G01X22815Y13858D01*
G01X22814Y13868D01*
G01X22805Y13874D01*
G01X22787Y13877D01*
G37*

%LPD*%
G36*
G01X24035Y14062D02*
G01X24002Y14064D01*
G01X23974Y14061D01*
G01X23959Y14057D01*
G01X23945Y14051D01*
G01X23932Y14044D01*
G01X23923Y14038D01*
G01X23915Y14028D01*
G01X23912Y14021D01*
G01X23915Y14014D01*
G01X23923Y14005D01*
G01X23933Y13996D01*
G01X23943Y13993D01*
G01X23957Y13995D01*
G01X23977Y14001D01*
G01X24012Y14009D01*
G01X24042Y14005D01*
G01X24063Y13992D01*
G01X24073Y13969D01*
G01X24073Y13953D01*
G01X24066Y13944D01*
G01X24045Y13939D01*
G01X24004Y13935D01*
G01X23967Y13930D01*
G01X23942Y13924D01*
G01X23925Y13915D01*
G01X23911Y13901D01*
G01X23897Y13873D01*
G01X23892Y13842D01*
G01X23897Y13811D01*
G01X23911Y13783D01*
G01X23923Y13771D01*
G01X23937Y13761D01*
G01X23954Y13754D01*
G01X23972Y13750D01*
G01X23990Y13748D01*
G01X24009Y13748D01*
G01X24027Y13752D01*
G01X24044Y13758D01*
G01X24056Y13763D01*
G01X24066Y13766D01*
G01X24072Y13767D01*
G01X24075Y13764D01*
G01X24077Y13761D01*
G01X24084Y13757D01*
G01X24094Y13755D01*
G01X24136Y13755D01*
G01X24136Y13913D01*
G01X24135Y13948D01*
G01X24132Y13977D01*
G01X24128Y14000D01*
G01X24122Y14018D01*
G01X24115Y14031D01*
G01X24107Y14041D01*
G01X24097Y14047D01*
G01X24068Y14057D01*
G01X24035Y14062D01*
G37*

%LPC*%
G36*
G01X24050Y13877D02*
G01X24020Y13878D01*
G01X23984Y13876D01*
G01X23963Y13872D01*
G01X23954Y13861D01*
G01X23952Y13841D01*
G01X23956Y13825D01*
G01X23967Y13814D01*
G01X23987Y13808D01*
G01X24018Y13806D01*
G01X24043Y13809D01*
G01X24061Y13818D01*
G01X24072Y13833D01*
G01X24075Y13854D01*
G01X24073Y13867D01*
G01X24067Y13874D01*
G01X24050Y13877D01*
G37*

%LPD*%
G36*
G01X20931Y16328D02*
G01X20892Y16328D01*
G01X20881Y16326D01*
G01X20875Y16325D01*
G01X20875Y16323D01*
G01X20879Y16319D01*
G01X20883Y16312D01*
G01X20885Y16302D01*
G01X20886Y16291D01*
G01X20886Y16280D01*
G01X20888Y16271D01*
G01X20891Y16265D01*
G01X20894Y16263D01*
G01X20897Y16265D01*
G01X20900Y16271D01*
G01X20902Y16280D01*
G01X20902Y16292D01*
G01X20903Y16305D01*
G01X20905Y16314D01*
G01X20909Y16319D01*
G01X20914Y16321D01*
G01X20920Y16319D01*
G01X20924Y16314D01*
G01X20926Y16305D01*
G01X20927Y16292D01*
G01X20929Y16273D01*
G01X20934Y16264D01*
G01X20940Y16265D01*
G01X20946Y16277D01*
G01X20948Y16285D01*
G01X20949Y16288D01*
G01X20950Y16285D01*
G01X20951Y16277D01*
G01X20953Y16267D01*
G01X20959Y16263D01*
G01X20966Y16267D01*
G01X20972Y16277D01*
G01X20976Y16285D01*
G01X20978Y16287D01*
G01X20981Y16284D01*
G01X20985Y16275D01*
G01X20988Y16269D01*
G01X20990Y16270D01*
G01X20992Y16278D01*
G01X20992Y16294D01*
G01X20990Y16317D01*
G01X20984Y16327D01*
G01X20975Y16323D01*
G01X20968Y16303D01*
G01X20962Y16284D01*
G01X20956Y16306D01*
G01X20952Y16319D01*
G01X20944Y16325D01*
G01X20931Y16328D01*
G37*

%LPD*%
G36*
G01X20305Y16386D02*
G01X20276Y16386D01*
G01X20245Y16385D01*
G01X20214Y16383D01*
G01X20188Y16382D01*
G01X20165Y16380D01*
G01X20145Y16377D01*
G01X20125Y16373D01*
G01X20106Y16368D01*
G01X20085Y16362D01*
G01X20062Y16354D01*
G01X20041Y16347D01*
G01X20020Y16338D01*
G01X19998Y16329D01*
G01X19956Y16309D01*
G01X19914Y16285D01*
G01X19893Y16272D01*
G01X19873Y16258D01*
G01X19852Y16244D01*
G01X19832Y16228D01*
G01X19812Y16213D01*
G01X19792Y16197D01*
G01X19772Y16180D01*
G01X19752Y16162D01*
G01X19734Y16144D01*
G01X19715Y16126D01*
G01X19696Y16107D01*
G01X19660Y16067D01*
G01X19643Y16046D01*
G01X19627Y16026D01*
G01X19610Y16004D01*
G01X19595Y15982D01*
G01X19579Y15960D01*
G01X19565Y15942D01*
G01X19555Y15930D01*
G01X19551Y15925D01*
G01X19546Y15930D01*
G01X19536Y15941D01*
G01X19522Y15958D01*
G01X19507Y15978D01*
G01X19490Y16000D01*
G01X19474Y16021D01*
G01X19440Y16061D01*
G01X19406Y16099D01*
G01X19370Y16135D01*
G01X19352Y16152D01*
G01X19333Y16168D01*
G01X19315Y16184D01*
G01X19277Y16214D01*
G01X19257Y16228D01*
G01X19238Y16242D01*
G01X19218Y16255D01*
G01X19178Y16279D01*
G01X19159Y16290D01*
G01X19138Y16300D01*
G01X19118Y16310D01*
G01X19076Y16328D01*
G01X19034Y16344D01*
G01X19013Y16351D01*
G01X18992Y16357D01*
G01X18948Y16367D01*
G01X18927Y16371D01*
G01X18905Y16375D01*
G01X18883Y16378D01*
G01X18814Y16384D01*
G01X18791Y16385D01*
G01X18724Y16385D01*
G01X18702Y16384D01*
G01X18681Y16382D01*
G01X18661Y16380D01*
G01X18623Y16374D01*
G01X18602Y16370D01*
G01X18581Y16365D01*
G01X18560Y16359D01*
G01X18539Y16352D01*
G01X18497Y16336D01*
G01X18477Y16327D01*
G01X18437Y16307D01*
G01X18418Y16296D01*
G01X18398Y16284D01*
G01X18380Y16272D01*
G01X18361Y16259D01*
G01X18343Y16246D01*
G01X18325Y16232D01*
G01X18291Y16202D01*
G01X18274Y16186D01*
G01X18258Y16170D01*
G01X18243Y16153D01*
G01X18227Y16136D01*
G01X18213Y16118D01*
G01X18198Y16100D01*
G01X18185Y16082D01*
G01X18172Y16063D01*
G01X18159Y16043D01*
G01X18135Y16003D01*
G01X18125Y15983D01*
G01X18114Y15962D01*
G01X18105Y15941D01*
G01X18096Y15919D01*
G01X18088Y15898D01*
G01X18080Y15876D01*
G01X18073Y15853D01*
G01X18067Y15831D01*
G01X18062Y15809D01*
G01X18058Y15784D01*
G01X18055Y15757D01*
G01X18052Y15728D01*
G01X18051Y15697D01*
G01X18050Y15667D01*
G01X18050Y15636D01*
G01X18051Y15607D01*
G01X18053Y15579D01*
G01X18055Y15553D01*
G01X18059Y15530D01*
G01X18063Y15510D01*
G01X18069Y15487D01*
G01X18076Y15465D01*
G01X18084Y15444D01*
G01X18092Y15422D01*
G01X18101Y15401D01*
G01X18110Y15381D01*
G01X18121Y15361D01*
G01X18131Y15341D01*
G01X18143Y15321D01*
G01X18155Y15303D01*
G01X18168Y15284D01*
G01X18182Y15265D01*
G01X18196Y15247D01*
G01X18211Y15230D01*
G01X18227Y15212D01*
G01X18244Y15195D01*
G01X18278Y15163D01*
G01X18296Y15148D01*
G01X18313Y15133D01*
G01X18332Y15119D01*
G01X18350Y15106D01*
G01X18369Y15093D01*
G01X18389Y15081D01*
G01X18408Y15069D01*
G01X18428Y15059D01*
G01X18449Y15048D01*
G01X18469Y15038D01*
G01X18490Y15030D01*
G01X18512Y15021D01*
G01X18533Y15013D01*
G01X18555Y15006D01*
G01X18577Y15000D01*
G01X18600Y14994D01*
G01X18622Y14989D01*
G01X18645Y14984D01*
G01X18668Y14980D01*
G01X18716Y14974D01*
G01X18740Y14972D01*
G01X18764Y14971D01*
G01X18838Y14971D01*
G01X18863Y14973D01*
G01X18911Y14977D01*
G01X18935Y14980D01*
G01X18958Y14984D01*
G01X18981Y14989D01*
G01X19003Y14994D01*
G01X19025Y15000D01*
G01X19047Y15007D01*
G01X19068Y15014D01*
G01X19089Y15022D01*
G01X19131Y15040D01*
G01X19171Y15062D01*
G01X19191Y15074D01*
G01X19210Y15086D01*
G01X19230Y15100D01*
G01X19268Y15130D01*
G01X19287Y15146D01*
G01X19325Y15180D01*
G01X19344Y15199D01*
G01X19363Y15219D01*
G01X19381Y15239D01*
G01X19419Y15283D01*
G01X19438Y15306D01*
G01X19456Y15330D01*
G01X19475Y15355D01*
G01X19494Y15382D01*
G01X19541Y15447D01*
G01X19568Y15408D01*
G01X19584Y15385D01*
G01X19600Y15363D01*
G01X19617Y15341D01*
G01X19633Y15320D01*
G01X19667Y15280D01*
G01X19685Y15261D01*
G01X19702Y15242D01*
G01X19721Y15224D01*
G01X19739Y15206D01*
G01X19758Y15189D01*
G01X19796Y15157D01*
G01X19815Y15142D01*
G01X19835Y15127D01*
G01X19856Y15113D01*
G01X19876Y15100D01*
G01X19897Y15086D01*
G01X19939Y15062D01*
G01X19983Y15040D01*
G01X20006Y15030D01*
G01X20028Y15021D01*
G01X20051Y15011D01*
G01X20075Y15003D01*
G01X20098Y14995D01*
G01X20146Y14981D01*
G01X20166Y14976D01*
G01X20185Y14972D01*
G01X20205Y14969D01*
G01X20227Y14967D01*
G01X20252Y14966D01*
G01X20281Y14965D01*
G01X20352Y14965D01*
G01X20381Y14966D01*
G01X20405Y14967D01*
G01X20426Y14969D01*
G01X20445Y14971D01*
G01X20462Y14974D01*
G01X20498Y14984D01*
G01X20544Y15000D01*
G01X20588Y15018D01*
G01X20610Y15028D01*
G01X20631Y15038D01*
G01X20652Y15050D01*
G01X20672Y15061D01*
G01X20692Y15073D01*
G01X20730Y15099D01*
G01X20784Y15141D01*
G01X20818Y15171D01*
G01X20834Y15187D01*
G01X20849Y15203D01*
G01X20879Y15237D01*
G01X20893Y15254D01*
G01X20919Y15290D01*
G01X20931Y15308D01*
G01X20955Y15346D01*
G01X20985Y15403D01*
G01X20993Y15423D01*
G01X21002Y15443D01*
G01X21009Y15463D01*
G01X21016Y15484D01*
G01X21022Y15504D01*
G01X21028Y15525D01*
G01X21038Y15567D01*
G01X21047Y15630D01*
G01X21048Y15651D01*
G01X21049Y15673D01*
G01X21049Y15715D01*
G01X21047Y15737D01*
G01X21046Y15758D01*
G01X21043Y15780D01*
G01X21035Y15822D01*
G01X21030Y15843D01*
G01X21018Y15885D01*
G01X21008Y15913D01*
G01X20998Y15938D01*
G01X20988Y15962D01*
G01X20976Y15985D01*
G01X20952Y16029D01*
G01X20922Y16071D01*
G01X20905Y16091D01*
G01X20887Y16112D01*
G01X20867Y16134D01*
G01X20845Y16156D01*
G01X20822Y16178D01*
G01X20800Y16198D01*
G01X20777Y16217D01*
G01X20755Y16235D01*
G01X20709Y16267D01*
G01X20685Y16281D01*
G01X20661Y16294D01*
G01X20636Y16307D01*
G01X20610Y16319D01*
G01X20584Y16330D01*
G01X20556Y16340D01*
G01X20530Y16350D01*
G01X20504Y16357D01*
G01X20480Y16364D01*
G01X20456Y16370D01*
G01X20432Y16375D01*
G01X20408Y16379D01*
G01X20383Y16382D01*
G01X20358Y16384D01*
G01X20332Y16385D01*
G01X20305Y16386D01*
G37*

%LPC*%
G36*
G01X20294Y16142D02*
G01X20269Y16142D01*
G01X20244Y16141D01*
G01X20196Y16135D01*
G01X20173Y16131D01*
G01X20151Y16126D01*
G01X20130Y16119D01*
G01X20113Y16113D01*
G01X20094Y16105D01*
G01X20076Y16095D01*
G01X20056Y16084D01*
G01X20035Y16071D01*
G01X20015Y16057D01*
G01X19994Y16042D01*
G01X19973Y16026D01*
G01X19952Y16009D01*
G01X19932Y15992D01*
G01X19912Y15973D01*
G01X19893Y15955D01*
G01X19878Y15939D01*
G01X19862Y15921D01*
G01X19846Y15902D01*
G01X19829Y15882D01*
G01X19795Y15838D01*
G01X19778Y15817D01*
G01X19763Y15795D01*
G01X19748Y15774D01*
G01X19734Y15754D01*
G01X19722Y15736D01*
G01X19712Y15719D01*
G01X19704Y15705D01*
G01X19698Y15693D01*
G01X19695Y15684D01*
G01X19695Y15679D01*
G01X19702Y15663D01*
G01X19714Y15641D01*
G01X19731Y15614D01*
G01X19749Y15585D01*
G01X19769Y15554D01*
G01X19790Y15524D01*
G01X19810Y15496D01*
G01X19828Y15471D01*
G01X19862Y15431D01*
G01X19880Y15412D01*
G01X19898Y15394D01*
G01X19917Y15377D01*
G01X19935Y15360D01*
G01X19955Y15344D01*
G01X19975Y15329D01*
G01X19994Y15315D01*
G01X20015Y15301D01*
G01X20035Y15289D01*
G01X20056Y15277D01*
G01X20078Y15266D01*
G01X20099Y15257D01*
G01X20121Y15247D01*
G01X20143Y15239D01*
G01X20164Y15232D01*
G01X20186Y15226D01*
G01X20209Y15220D01*
G01X20231Y15216D01*
G01X20253Y15213D01*
G01X20276Y15210D01*
G01X20298Y15209D01*
G01X20321Y15208D01*
G01X20343Y15209D01*
G01X20366Y15210D01*
G01X20388Y15213D01*
G01X20410Y15217D01*
G01X20454Y15229D01*
G01X20475Y15237D01*
G01X20517Y15255D01*
G01X20538Y15267D01*
G01X20558Y15279D01*
G01X20578Y15292D01*
G01X20597Y15307D01*
G01X20617Y15322D01*
G01X20635Y15339D01*
G01X20654Y15357D01*
G01X20672Y15375D01*
G01X20688Y15393D01*
G01X20703Y15411D01*
G01X20717Y15429D01*
G01X20729Y15448D01*
G01X20741Y15466D01*
G01X20752Y15485D01*
G01X20770Y15523D01*
G01X20784Y15563D01*
G01X20789Y15584D01*
G01X20797Y15626D01*
G01X20800Y15648D01*
G01X20802Y15694D01*
G01X20801Y15718D01*
G01X20800Y15740D01*
G01X20796Y15763D01*
G01X20792Y15785D01*
G01X20786Y15806D01*
G01X20770Y15848D01*
G01X20760Y15869D01*
G01X20749Y15888D01*
G01X20737Y15908D01*
G01X20723Y15928D01*
G01X20708Y15946D01*
G01X20691Y15965D01*
G01X20673Y15984D01*
G01X20654Y16002D01*
G01X20639Y16015D01*
G01X20622Y16028D01*
G01X20604Y16041D01*
G01X20585Y16053D01*
G01X20565Y16065D01*
G01X20545Y16076D01*
G01X20524Y16087D01*
G01X20503Y16097D01*
G01X20481Y16105D01*
G01X20460Y16113D01*
G01X20440Y16120D01*
G01X20420Y16126D01*
G01X20396Y16131D01*
G01X20371Y16135D01*
G01X20345Y16138D01*
G01X20320Y16141D01*
G01X20294Y16142D01*
G37*
G36*
G01X18781Y16139D02*
G01X18757Y16139D01*
G01X18732Y16138D01*
G01X18686Y16134D01*
G01X18665Y16130D01*
G01X18645Y16126D01*
G01X18627Y16121D01*
G01X18602Y16111D01*
G01X18578Y16101D01*
G01X18555Y16090D01*
G01X18533Y16078D01*
G01X18512Y16064D01*
G01X18492Y16050D01*
G01X18472Y16034D01*
G01X18453Y16017D01*
G01X18435Y16000D01*
G01X18418Y15980D01*
G01X18384Y15938D01*
G01X18371Y15918D01*
G01X18347Y15878D01*
G01X18337Y15858D01*
G01X18328Y15838D01*
G01X18320Y15817D01*
G01X18313Y15797D01*
G01X18306Y15776D01*
G01X18302Y15756D01*
G01X18297Y15736D01*
G01X18294Y15715D01*
G01X18292Y15675D01*
G01X18292Y15655D01*
G01X18294Y15615D01*
G01X18297Y15596D01*
G01X18301Y15576D01*
G01X18311Y15538D01*
G01X18318Y15520D01*
G01X18326Y15501D01*
G01X18334Y15483D01*
G01X18343Y15466D01*
G01X18354Y15448D01*
G01X18365Y15431D01*
G01X18377Y15415D01*
G01X18390Y15399D01*
G01X18404Y15383D01*
G01X18418Y15368D01*
G01X18434Y15353D01*
G01X18450Y15339D01*
G01X18486Y15313D01*
G01X18505Y15300D01*
G01X18524Y15288D01*
G01X18545Y15277D01*
G01X18566Y15267D01*
G01X18588Y15257D01*
G01X18611Y15248D01*
G01X18634Y15240D01*
G01X18652Y15233D01*
G01X18688Y15225D01*
G01X18707Y15223D01*
G01X18731Y15222D01*
G01X18760Y15221D01*
G01X18851Y15221D01*
G01X18875Y15222D01*
G01X18896Y15224D01*
G01X18915Y15226D01*
G01X18933Y15230D01*
G01X18950Y15234D01*
G01X18967Y15239D01*
G01X18985Y15245D01*
G01X19003Y15253D01*
G01X19022Y15262D01*
G01X19044Y15272D01*
G01X19056Y15279D01*
G01X19070Y15288D01*
G01X19084Y15298D01*
G01X19099Y15310D01*
G01X19114Y15323D01*
G01X19131Y15337D01*
G01X19164Y15370D01*
G01X19181Y15388D01*
G01X19215Y15426D01*
G01X19233Y15447D01*
G01X19251Y15469D01*
G01X19268Y15490D01*
G01X19302Y15536D01*
G01X19318Y15559D01*
G01X19335Y15583D01*
G01X19350Y15607D01*
G01X19365Y15630D01*
G01X19405Y15694D01*
G01X19355Y15769D01*
G01X19336Y15796D01*
G01X19317Y15821D01*
G01X19299Y15846D01*
G01X19280Y15869D01*
G01X19261Y15891D01*
G01X19243Y15913D01*
G01X19224Y15933D01*
G01X19205Y15952D01*
G01X19186Y15970D01*
G01X19167Y15987D01*
G01X19148Y16003D01*
G01X19128Y16019D01*
G01X19109Y16033D01*
G01X19069Y16059D01*
G01X19029Y16081D01*
G01X19009Y16090D01*
G01X18988Y16099D01*
G01X18967Y16107D01*
G01X18946Y16114D01*
G01X18924Y16121D01*
G01X18902Y16126D01*
G01X18856Y16134D01*
G01X18806Y16138D01*
G01X18781Y16139D01*
G37*

%LPD*%
G36*
G01X19039Y15752D02*
G01X18545Y15752D01*
G01X18545Y15645D01*
G01X19039Y15645D01*
G01X19039Y15752D01*
G37*

%LPD*%
G36*
G01X20350Y15909D02*
G01X20210Y15909D01*
G01X20210Y15768D01*
G01X20078Y15768D01*
G01X20078Y15628D01*
G01X20209Y15628D01*
G01X20214Y15492D01*
G01X20346Y15492D01*
G01X20351Y15628D01*
G01X20490Y15628D01*
G01X20490Y15768D01*
G01X20350Y15768D01*
G01X20350Y15909D01*
G37*

%LPD*%
G36*
G01X20145Y14853D02*
G01X19831Y14853D01*
G01X19831Y14771D01*
G01X19938Y14771D01*
G01X19938Y14442D01*
G01X19830Y14442D01*
G01X19832Y14402D01*
G01X19835Y14363D01*
G01X20140Y14363D01*
G01X20145Y14442D01*
G01X20037Y14442D01*
G01X20037Y14770D01*
G01X20088Y14773D01*
G01X20140Y14775D01*
G01X20142Y14814D01*
G01X20145Y14853D01*
G37*

%LPD*%
G36*
G01X18360Y14845D02*
G01X18226Y14845D01*
G01X18211Y14794D01*
G01X18207Y14779D01*
G01X18201Y14758D01*
G01X18194Y14733D01*
G01X18185Y14703D01*
G01X18176Y14671D01*
G01X18165Y14636D01*
G01X18155Y14600D01*
G01X18144Y14564D01*
G01X18134Y14528D01*
G01X18123Y14494D01*
G01X18114Y14462D01*
G01X18105Y14433D01*
G01X18098Y14409D01*
G01X18092Y14389D01*
G01X18088Y14376D01*
G01X18086Y14369D01*
G01X18086Y14365D01*
G01X18094Y14361D01*
G01X18108Y14359D01*
G01X18179Y14359D01*
G01X18192Y14407D01*
G01X18204Y14454D01*
G01X18288Y14456D01*
G01X18372Y14459D01*
G01X18385Y14409D01*
G01X18399Y14359D01*
G01X18477Y14359D01*
G01X18493Y14361D01*
G01X18501Y14365D01*
G01X18502Y14369D01*
G01X18501Y14373D01*
G01X18498Y14380D01*
G01X18495Y14392D01*
G01X18490Y14407D01*
G01X18485Y14424D01*
G01X18479Y14445D01*
G01X18472Y14468D01*
G01X18464Y14494D01*
G01X18456Y14521D01*
G01X18447Y14550D01*
G01X18438Y14581D01*
G01X18429Y14613D01*
G01X18360Y14845D01*
G37*

%LPC*%
G36*
G01X18297Y14728D02*
G01X18293Y14737D01*
G01X18290Y14736D01*
G01X18284Y14723D01*
G01X18275Y14695D01*
G01X18261Y14648D01*
G01X18252Y14616D01*
G01X18238Y14567D01*
G01X18235Y14555D01*
G01X18235Y14547D01*
G01X18241Y14543D01*
G01X18258Y14541D01*
G01X18289Y14540D01*
G01X18311Y14541D01*
G01X18330Y14542D01*
G01X18343Y14544D01*
G01X18347Y14546D01*
G01X18345Y14555D01*
G01X18340Y14577D01*
G01X18331Y14607D01*
G01X18322Y14643D01*
G01X18311Y14678D01*
G01X18303Y14708D01*
G01X18297Y14728D01*
G37*

%LPD*%
G36*
G01X18636Y14850D02*
G01X18601Y14851D01*
G01X18576Y14850D01*
G01X18564Y14848D01*
G01X18562Y14846D01*
G01X18560Y14842D01*
G01X18559Y14834D01*
G01X18557Y14824D01*
G01X18556Y14811D01*
G01X18556Y14794D01*
G01X18555Y14773D01*
G01X18554Y14748D01*
G01X18554Y14718D01*
G01X18553Y14684D01*
G01X18553Y14359D01*
G01X18652Y14359D01*
G01X18652Y14567D01*
G01X18675Y14561D01*
G01X18687Y14557D01*
G01X18697Y14552D01*
G01X18707Y14544D01*
G01X18717Y14534D01*
G01X18727Y14519D01*
G01X18737Y14500D01*
G01X18749Y14476D01*
G01X18763Y14445D01*
G01X18798Y14363D01*
G01X18846Y14361D01*
G01X18865Y14360D01*
G01X18881Y14361D01*
G01X18893Y14362D01*
G01X18900Y14365D01*
G01X18898Y14375D01*
G01X18890Y14399D01*
G01X18876Y14431D01*
G01X18859Y14467D01*
G01X18841Y14505D01*
G01X18823Y14538D01*
G01X18809Y14565D01*
G01X18798Y14579D01*
G01X18792Y14587D01*
G01X18791Y14592D01*
G01X18797Y14598D01*
G01X18811Y14605D01*
G01X18831Y14618D01*
G01X18846Y14633D01*
G01X18859Y14651D01*
G01X18868Y14671D01*
G01X18873Y14692D01*
G01X18875Y14714D01*
G01X18873Y14736D01*
G01X18868Y14758D01*
G01X18859Y14778D01*
G01X18847Y14796D01*
G01X18831Y14813D01*
G01X18812Y14826D01*
G01X18792Y14835D01*
G01X18766Y14841D01*
G01X18730Y14845D01*
G01X18677Y14848D01*
G01X18636Y14850D01*
G37*

%LPC*%
G36*
G01X18687Y14771D02*
G01X18652Y14771D01*
G01X18652Y14639D01*
G01X18685Y14639D01*
G01X18709Y14641D01*
G01X18729Y14646D01*
G01X18746Y14654D01*
G01X18760Y14665D01*
G01X18769Y14678D01*
G01X18774Y14694D01*
G01X18775Y14711D01*
G01X18771Y14729D01*
G01X18766Y14738D01*
G01X18759Y14747D01*
G01X18751Y14755D01*
G01X18743Y14761D01*
G01X18732Y14765D01*
G01X18718Y14768D01*
G01X18702Y14770D01*
G01X18687Y14771D01*
G37*

%LPD*%
G36*
G01X20356Y14845D02*
G01X20234Y14845D01*
G01X20236Y14604D01*
G01X20239Y14363D01*
G01X20282Y14361D01*
G01X20325Y14358D01*
G01X20329Y14696D01*
G01X20404Y14530D01*
G01X20478Y14363D01*
G01X20593Y14363D01*
G01X20597Y14845D01*
G01X20507Y14845D01*
G01X20505Y14680D01*
G01X20502Y14514D01*
G01X20429Y14680D01*
G01X20356Y14845D01*
G37*

%LPD*%
G36*
G01X19079Y14850D02*
G01X18965Y14855D01*
G01X18965Y14357D01*
G01X19062Y14361D01*
G01X19095Y14363D01*
G01X19125Y14366D01*
G01X19152Y14370D01*
G01X19177Y14376D01*
G01X19199Y14383D01*
G01X19219Y14391D01*
G01X19238Y14401D01*
G01X19254Y14413D01*
G01X19269Y14426D01*
G01X19282Y14442D01*
G01X19294Y14459D01*
G01X19306Y14478D01*
G01X19313Y14498D01*
G01X19319Y14525D01*
G01X19324Y14557D01*
G01X19327Y14591D01*
G01X19328Y14626D01*
G01X19327Y14659D01*
G01X19325Y14688D01*
G01X19320Y14711D01*
G01X19313Y14729D01*
G01X19305Y14746D01*
G01X19296Y14762D01*
G01X19285Y14777D01*
G01X19273Y14791D01*
G01X19260Y14803D01*
G01X19246Y14813D01*
G01X19231Y14823D01*
G01X19218Y14829D01*
G01X19207Y14834D01*
G01X19194Y14838D01*
G01X19179Y14841D01*
G01X19161Y14844D01*
G01X19139Y14846D01*
G01X19112Y14848D01*
G01X19079Y14850D01*
G37*

%LPC*%
G36*
G01X19099Y14771D02*
G01X19056Y14771D01*
G01X19056Y14439D01*
G01X19101Y14444D01*
G01X19123Y14447D01*
G01X19143Y14451D01*
G01X19160Y14457D01*
G01X19176Y14465D01*
G01X19188Y14475D01*
G01X19199Y14486D01*
G01X19207Y14500D01*
G01X19214Y14517D01*
G01X19219Y14536D01*
G01X19222Y14557D01*
G01X19224Y14582D01*
G01X19225Y14610D01*
G01X19224Y14640D01*
G01X19222Y14665D01*
G01X19218Y14687D01*
G01X19213Y14705D01*
G01X19206Y14720D01*
G01X19196Y14733D01*
G01X19184Y14745D01*
G01X19169Y14755D01*
G01X19155Y14762D01*
G01X19138Y14767D01*
G01X19120Y14770D01*
G01X19099Y14771D01*
G37*

%LPD*%
G36*
G01X20855Y14857D02*
G01X20836Y14858D01*
G01X20817Y14857D01*
G01X20800Y14855D01*
G01X20785Y14851D01*
G01X20768Y14845D01*
G01X20752Y14836D01*
G01X20736Y14826D01*
G01X20722Y14814D01*
G01X20708Y14801D01*
G01X20695Y14786D01*
G01X20684Y14770D01*
G01X20674Y14752D01*
G01X20663Y14727D01*
G01X20655Y14702D01*
G01X20651Y14671D01*
G01X20648Y14628D01*
G01X20647Y14592D01*
G01X20648Y14561D01*
G01X20650Y14532D01*
G01X20654Y14507D01*
G01X20660Y14484D01*
G01X20668Y14463D01*
G01X20677Y14444D01*
G01X20688Y14426D01*
G01X20702Y14409D01*
G01X20717Y14394D01*
G01X20733Y14382D01*
G01X20751Y14373D01*
G01X20769Y14365D01*
G01X20790Y14360D01*
G01X20812Y14357D01*
G01X20836Y14356D01*
G01X20860Y14357D01*
G01X20882Y14360D01*
G01X20903Y14365D01*
G01X20922Y14373D01*
G01X20939Y14382D01*
G01X20956Y14394D01*
G01X20971Y14407D01*
G01X20984Y14423D01*
G01X20996Y14440D01*
G01X21006Y14459D01*
G01X21014Y14480D01*
G01X21021Y14504D01*
G01X21027Y14529D01*
G01X21031Y14556D01*
G01X21033Y14585D01*
G01X21034Y14616D01*
G01X21033Y14644D01*
G01X21031Y14670D01*
G01X21027Y14695D01*
G01X21022Y14718D01*
G01X21016Y14739D01*
G01X21008Y14759D01*
G01X20998Y14776D01*
G01X20988Y14792D01*
G01X20976Y14807D01*
G01X20963Y14819D01*
G01X20948Y14829D01*
G01X20932Y14838D01*
G01X20914Y14844D01*
G01X20895Y14850D01*
G01X20875Y14854D01*
G01X20855Y14857D01*
G37*

%LPC*%
G36*
G01X20863Y14770D02*
G01X20847Y14771D01*
G01X20821Y14768D01*
G01X20799Y14763D01*
G01X20782Y14752D01*
G01X20769Y14736D01*
G01X20760Y14715D01*
G01X20754Y14686D01*
G01X20751Y14650D01*
G01X20750Y14606D01*
G01X20751Y14563D01*
G01X20754Y14527D01*
G01X20760Y14498D01*
G01X20768Y14476D01*
G01X20780Y14460D01*
G01X20794Y14449D01*
G01X20813Y14443D01*
G01X20835Y14442D01*
G01X20858Y14443D01*
G01X20877Y14449D01*
G01X20893Y14459D01*
G01X20906Y14473D01*
G01X20917Y14491D01*
G01X20924Y14515D01*
G01X20930Y14543D01*
G01X20933Y14577D01*
G01X20934Y14607D01*
G01X20934Y14634D01*
G01X20931Y14659D01*
G01X20928Y14683D01*
G01X20922Y14703D01*
G01X20915Y14722D01*
G01X20907Y14738D01*
G01X20898Y14750D01*
G01X20887Y14760D01*
G01X20876Y14766D01*
G01X20863Y14770D01*
G37*

%LPD*%
G36*
G01X19483Y14853D02*
G01X19394Y14853D01*
G01X19394Y14554D01*
G01X19395Y14518D01*
G01X19397Y14492D01*
G01X19399Y14473D01*
G01X19402Y14458D01*
G01X19406Y14445D01*
G01X19413Y14433D01*
G01X19423Y14416D01*
G01X19437Y14400D01*
G01X19454Y14386D01*
G01X19473Y14374D01*
G01X19494Y14364D01*
G01X19516Y14357D01*
G01X19539Y14353D01*
G01X19562Y14351D01*
G01X19592Y14353D01*
G01X19621Y14361D01*
G01X19649Y14371D01*
G01X19674Y14386D01*
G01X19697Y14404D01*
G01X19715Y14425D01*
G01X19730Y14448D01*
G01X19740Y14473D01*
G01X19742Y14482D01*
G01X19743Y14498D01*
G01X19744Y14520D01*
G01X19746Y14546D01*
G01X19747Y14575D01*
G01X19747Y14608D01*
G01X19748Y14642D01*
G01X19748Y14853D01*
G01X19658Y14853D01*
G01X19657Y14728D01*
G01X19656Y14671D01*
G01X19656Y14623D01*
G01X19655Y14583D01*
G01X19653Y14550D01*
G01X19651Y14522D01*
G01X19648Y14501D01*
G01X19645Y14484D01*
G01X19640Y14470D01*
G01X19635Y14461D01*
G01X19628Y14453D01*
G01X19621Y14447D01*
G01X19611Y14442D01*
G01X19578Y14435D01*
G01X19544Y14438D01*
G01X19515Y14451D01*
G01X19497Y14472D01*
G01X19495Y14479D01*
G01X19493Y14492D01*
G01X19492Y14512D01*
G01X19491Y14536D01*
G01X19489Y14565D01*
G01X19488Y14598D01*
G01X19487Y14633D01*
G01X19486Y14670D01*
G01X19483Y14853D01*
G37*

%LPD*%
G54D10*
G01X9150Y450D02*
G01X9150Y1450D01*
G01X9150Y1450D02*
G01X10150Y1450D01*
G01X10150Y1450D02*
G01X12150Y1450D01*
G01X12150Y1450D02*
G01X12150Y450D01*
G01X12150Y450D02*
G01X10150Y450D01*
G01X10150Y450D02*
G01X9150Y450D01*
G01X10150Y450D02*
G01X10150Y1450D01*
G54D26*
G01X4900Y19550D02*
G01X4900Y20550D01*
G01X8100Y20550D01*
G01X8100Y18550D01*
G01X4900Y18550D01*
G01X4900Y19550D01*
G54D27*
G01X6250Y1450D02*
G01X5500Y1450D01*
G01X5500Y450D01*
G01X8500Y450D01*
G01X8500Y1450D01*
G54D28*
G01X8500Y1450D02*
G01X6250Y1450D01*
G54D10*
G01X8018Y9404D02*
G01X8018Y11166D01*
G01X8788Y11481D02*
G01X9611Y11481D01*
G01X8788Y9118D02*
G01X9611Y9118D01*
G01X10381Y9404D02*
G01X10381Y11195D01*
G01X11593Y9404D02*
G01X11593Y11166D01*
G01X12363Y11481D02*
G01X13186Y11481D01*
G01X12363Y9118D02*
G01X13186Y9118D01*
G01X13956Y9404D02*
G01X13956Y11195D01*
G01X15168Y9404D02*
G01X15168Y11166D01*
G01X15938Y11481D02*
G01X16761Y11481D01*
G01X15938Y9118D02*
G01X16761Y9118D01*
G01X17531Y9404D02*
G01X17531Y11195D01*
G54D29*
G01X24650Y9400D02*
G01X24650Y8650D01*
G01X25650Y8650D01*
G01X25650Y11650D01*
G01X24650Y11650D01*
G01X24650Y11650D02*
G01X24650Y9400D01*
G54D10*
G01X15100Y20500D02*
G01X15600Y20500D01*
G01X15600Y20500D02*
G01X15850Y20250D01*
G01X15850Y20250D02*
G01X15850Y19750D01*
G01X15850Y19750D02*
G01X15600Y19500D01*
G01X13850Y20250D02*
G01X14100Y20500D01*
G01X14100Y20500D02*
G01X14600Y20500D01*
G01X14600Y20500D02*
G01X14850Y20250D01*
G01X14850Y20250D02*
G01X14850Y19750D01*
G01X14850Y19750D02*
G01X14600Y19500D01*
G01X14600Y19500D02*
G01X14100Y19500D01*
G01X14100Y19500D02*
G01X13850Y19750D01*
G01X15100Y20500D02*
G01X14850Y20250D01*
G01X14850Y19750D02*
G01X15100Y19500D01*
G01X15600Y19500D02*
G01X15100Y19500D01*
G01X12100Y20500D02*
G01X12600Y20500D01*
G01X12600Y20500D02*
G01X12850Y20250D01*
G01X12850Y20250D02*
G01X12850Y19750D01*
G01X12850Y19750D02*
G01X12600Y19500D01*
G01X12850Y20250D02*
G01X13100Y20500D01*
G01X13100Y20500D02*
G01X13600Y20500D01*
G01X13600Y20500D02*
G01X13850Y20250D01*
G01X13850Y20250D02*
G01X13850Y19750D01*
G01X13850Y19750D02*
G01X13600Y19500D01*
G01X13600Y19500D02*
G01X13100Y19500D01*
G01X13100Y19500D02*
G01X12850Y19750D01*
G01X10850Y20250D02*
G01X11100Y20500D01*
G01X11100Y20500D02*
G01X11600Y20500D01*
G01X11600Y20500D02*
G01X11850Y20250D01*
G01X11850Y20250D02*
G01X11850Y19750D01*
G01X11850Y19750D02*
G01X11600Y19500D01*
G01X11600Y19500D02*
G01X11100Y19500D01*
G01X11100Y19500D02*
G01X10850Y19750D01*
G01X12100Y20500D02*
G01X11850Y20250D01*
G01X11850Y19750D02*
G01X12100Y19500D01*
G01X12600Y19500D02*
G01X12100Y19500D01*
G01X9100Y20500D02*
G01X9600Y20500D01*
G01X9600Y20500D02*
G01X9850Y20250D01*
G01X9850Y20250D02*
G01X9850Y19750D01*
G01X9850Y19750D02*
G01X9600Y19500D01*
G01X9850Y20250D02*
G01X10100Y20500D01*
G01X10100Y20500D02*
G01X10600Y20500D01*
G01X10600Y20500D02*
G01X10850Y20250D01*
G01X10850Y20250D02*
G01X10850Y19750D01*
G01X10850Y19750D02*
G01X10600Y19500D01*
G01X10600Y19500D02*
G01X10100Y19500D01*
G01X10100Y19500D02*
G01X9850Y19750D01*
G01X8850Y20250D02*
G01X8850Y19750D01*
G01X9100Y20500D02*
G01X8850Y20250D01*
G01X8850Y19750D02*
G01X9100Y19500D01*
G01X9600Y19500D02*
G01X9100Y19500D01*
G01X16100Y20500D02*
G01X16600Y20500D01*
G01X16600Y20500D02*
G01X16850Y20250D01*
G01X16850Y20250D02*
G01X16850Y19750D01*
G01X16850Y19750D02*
G01X16600Y19500D01*
G01X16100Y20500D02*
G01X15850Y20250D01*
G01X15850Y19750D02*
G01X16100Y19500D01*
G01X16600Y19500D02*
G01X16100Y19500D01*
G01X23700Y20500D02*
G01X24200Y20500D01*
G01X24200Y20500D02*
G01X24450Y20250D01*
G01X24450Y20250D02*
G01X24450Y19750D01*
G01X24450Y19750D02*
G01X24200Y19500D01*
G01X22450Y20250D02*
G01X22700Y20500D01*
G01X22700Y20500D02*
G01X23200Y20500D01*
G01X23200Y20500D02*
G01X23450Y20250D01*
G01X23450Y20250D02*
G01X23450Y19750D01*
G01X23450Y19750D02*
G01X23200Y19500D01*
G01X23200Y19500D02*
G01X22700Y19500D01*
G01X22700Y19500D02*
G01X22450Y19750D01*
G01X23700Y20500D02*
G01X23450Y20250D01*
G01X23450Y19750D02*
G01X23700Y19500D01*
G01X24200Y19500D02*
G01X23700Y19500D01*
G01X20700Y20500D02*
G01X21200Y20500D01*
G01X21200Y20500D02*
G01X21450Y20250D01*
G01X21450Y20250D02*
G01X21450Y19750D01*
G01X21450Y19750D02*
G01X21200Y19500D01*
G01X21450Y20250D02*
G01X21700Y20500D01*
G01X21700Y20500D02*
G01X22200Y20500D01*
G01X22200Y20500D02*
G01X22450Y20250D01*
G01X22450Y20250D02*
G01X22450Y19750D01*
G01X22450Y19750D02*
G01X22200Y19500D01*
G01X22200Y19500D02*
G01X21700Y19500D01*
G01X21700Y19500D02*
G01X21450Y19750D01*
G01X19450Y20250D02*
G01X19700Y20500D01*
G01X19700Y20500D02*
G01X20200Y20500D01*
G01X20200Y20500D02*
G01X20450Y20250D01*
G01X20450Y20250D02*
G01X20450Y19750D01*
G01X20450Y19750D02*
G01X20200Y19500D01*
G01X20200Y19500D02*
G01X19700Y19500D01*
G01X19700Y19500D02*
G01X19450Y19750D01*
G01X20700Y20500D02*
G01X20450Y20250D01*
G01X20450Y19750D02*
G01X20700Y19500D01*
G01X21200Y19500D02*
G01X20700Y19500D01*
G01X17700Y20500D02*
G01X18200Y20500D01*
G01X18200Y20500D02*
G01X18450Y20250D01*
G01X18450Y20250D02*
G01X18450Y19750D01*
G01X18450Y19750D02*
G01X18200Y19500D01*
G01X18450Y20250D02*
G01X18700Y20500D01*
G01X18700Y20500D02*
G01X19200Y20500D01*
G01X19200Y20500D02*
G01X19450Y20250D01*
G01X19450Y20250D02*
G01X19450Y19750D01*
G01X19450Y19750D02*
G01X19200Y19500D01*
G01X19200Y19500D02*
G01X18700Y19500D01*
G01X18700Y19500D02*
G01X18450Y19750D01*
G01X17450Y20250D02*
G01X17450Y19750D01*
G01X17700Y20500D02*
G01X17450Y20250D01*
G01X17450Y19750D02*
G01X17700Y19500D01*
G01X18200Y19500D02*
G01X17700Y19500D01*
G01X24700Y20500D02*
G01X25200Y20500D01*
G01X25200Y20500D02*
G01X25450Y20250D01*
G01X25450Y20250D02*
G01X25450Y19750D01*
G01X25450Y19750D02*
G01X25200Y19500D01*
G01X24700Y20500D02*
G01X24450Y20250D01*
G01X24450Y19750D02*
G01X24700Y19500D01*
G01X25200Y19500D02*
G01X24700Y19500D01*
G01X17700Y1500D02*
G01X18200Y1500D01*
G01X18200Y1500D02*
G01X18450Y1250D01*
G01X18450Y750D02*
G01X18200Y500D01*
G01X16450Y1250D02*
G01X16700Y1500D01*
G01X16700Y1500D02*
G01X17200Y1500D01*
G01X17200Y1500D02*
G01X17450Y1250D01*
G01X17450Y1250D02*
G01X17450Y750D01*
G01X17450Y750D02*
G01X17200Y500D01*
G01X17200Y500D02*
G01X16700Y500D01*
G01X16700Y500D02*
G01X16450Y750D01*
G01X17700Y1500D02*
G01X17450Y1250D01*
G01X17450Y750D02*
G01X17700Y500D01*
G01X18200Y500D02*
G01X17700Y500D01*
G01X14700Y1500D02*
G01X15200Y1500D01*
G01X15200Y1500D02*
G01X15450Y1250D01*
G01X15450Y1250D02*
G01X15450Y750D01*
G01X15450Y750D02*
G01X15200Y500D01*
G01X15450Y1250D02*
G01X15700Y1500D01*
G01X15700Y1500D02*
G01X16200Y1500D01*
G01X16200Y1500D02*
G01X16450Y1250D01*
G01X16450Y1250D02*
G01X16450Y750D01*
G01X16450Y750D02*
G01X16200Y500D01*
G01X16200Y500D02*
G01X15700Y500D01*
G01X15700Y500D02*
G01X15450Y750D01*
G01X13450Y1250D02*
G01X13700Y1500D01*
G01X13700Y1500D02*
G01X14200Y1500D01*
G01X14200Y1500D02*
G01X14450Y1250D01*
G01X14450Y1250D02*
G01X14450Y750D01*
G01X14450Y750D02*
G01X14200Y500D01*
G01X14200Y500D02*
G01X13700Y500D01*
G01X13700Y500D02*
G01X13450Y750D01*
G01X14700Y1500D02*
G01X14450Y1250D01*
G01X14450Y750D02*
G01X14700Y500D01*
G01X15200Y500D02*
G01X14700Y500D01*
G01X12450Y1250D02*
G01X12450Y750D01*
G01X12450Y1250D02*
G01X12700Y1500D01*
G01X12700Y1500D02*
G01X13200Y1500D01*
G01X13200Y1500D02*
G01X13450Y1250D01*
G01X13450Y1250D02*
G01X13450Y750D01*
G01X13450Y750D02*
G01X13200Y500D01*
G01X13200Y500D02*
G01X12700Y500D01*
G01X12700Y500D02*
G01X12450Y750D01*
G01X24700Y1500D02*
G01X25200Y1500D01*
G01X25200Y1500D02*
G01X25450Y1250D01*
G01X25450Y1250D02*
G01X25450Y750D01*
G01X25450Y750D02*
G01X25200Y500D01*
G01X23450Y1250D02*
G01X23700Y1500D01*
G01X23700Y1500D02*
G01X24200Y1500D01*
G01X24200Y1500D02*
G01X24450Y1250D01*
G01X24450Y1250D02*
G01X24450Y750D01*
G01X24450Y750D02*
G01X24200Y500D01*
G01X24200Y500D02*
G01X23700Y500D01*
G01X23700Y500D02*
G01X23450Y750D01*
G01X24700Y1500D02*
G01X24450Y1250D01*
G01X24450Y750D02*
G01X24700Y500D01*
G01X25200Y500D02*
G01X24700Y500D01*
G01X21700Y1500D02*
G01X22200Y1500D01*
G01X22200Y1500D02*
G01X22450Y1250D01*
G01X22450Y1250D02*
G01X22450Y750D01*
G01X22450Y750D02*
G01X22200Y500D01*
G01X22450Y1250D02*
G01X22700Y1500D01*
G01X22700Y1500D02*
G01X23200Y1500D01*
G01X23200Y1500D02*
G01X23450Y1250D01*
G01X23450Y1250D02*
G01X23450Y750D01*
G01X23450Y750D02*
G01X23200Y500D01*
G01X23200Y500D02*
G01X22700Y500D01*
G01X22700Y500D02*
G01X22450Y750D01*
G01X20450Y1250D02*
G01X20700Y1500D01*
G01X20700Y1500D02*
G01X21200Y1500D01*
G01X21200Y1500D02*
G01X21450Y1250D01*
G01X21450Y1250D02*
G01X21450Y750D01*
G01X21450Y750D02*
G01X21200Y500D01*
G01X21200Y500D02*
G01X20700Y500D01*
G01X20700Y500D02*
G01X20450Y750D01*
G01X21700Y1500D02*
G01X21450Y1250D01*
G01X21450Y750D02*
G01X21700Y500D01*
G01X22200Y500D02*
G01X21700Y500D01*
G01X19450Y1250D02*
G01X19450Y750D01*
G01X19450Y1250D02*
G01X19700Y1500D01*
G01X19700Y1500D02*
G01X20200Y1500D01*
G01X20200Y1500D02*
G01X20450Y1250D01*
G01X20450Y1250D02*
G01X20450Y750D01*
G01X20450Y750D02*
G01X20200Y500D01*
G01X20200Y500D02*
G01X19700Y500D01*
G01X19700Y500D02*
G01X19450Y750D01*
G01X18450Y1250D02*
G01X18450Y750D01*
G01X1900Y7500D02*
G01X1900Y8200D01*
G01X2000Y8300D02*
G01X2150Y8300D01*
G01X2200Y8250D02*
G01X2150Y8300D01*
G01X2000Y7400D02*
G01X2150Y7400D01*
G01X2200Y7450D02*
G01X2150Y7400D01*
G01X4100Y8250D02*
G01X4150Y8300D01*
G01X4100Y8250D02*
G01X2200Y8250D01*
G01X4100Y7450D02*
G01X4150Y7400D01*
G01X4100Y7450D02*
G01X2200Y7450D01*
G01X4300Y8300D02*
G01X4150Y8300D01*
G01X4300Y7400D02*
G01X4150Y7400D01*
G01X4400Y7500D02*
G01X4400Y8200D01*
G01X1900Y5850D02*
G01X1900Y6550D01*
G01X2000Y6650D02*
G01X2150Y6650D01*
G01X2200Y6600D02*
G01X2150Y6650D01*
G01X2000Y5750D02*
G01X2150Y5750D01*
G01X2200Y5800D02*
G01X2150Y5750D01*
G01X4100Y6600D02*
G01X4150Y6650D01*
G01X4100Y6600D02*
G01X2200Y6600D01*
G01X4100Y5800D02*
G01X4150Y5750D01*
G01X4100Y5800D02*
G01X2200Y5800D01*
G01X4300Y6650D02*
G01X4150Y6650D01*
G01X4300Y5750D02*
G01X4150Y5750D01*
G01X4400Y5850D02*
G01X4400Y6550D01*
G01X1900Y4150D02*
G01X1900Y4850D01*
G01X2000Y4950D02*
G01X2150Y4950D01*
G01X2200Y4900D02*
G01X2150Y4950D01*
G01X2000Y4050D02*
G01X2150Y4050D01*
G01X2200Y4100D02*
G01X2150Y4050D01*
G01X4100Y4900D02*
G01X4150Y4950D01*
G01X4100Y4900D02*
G01X2200Y4900D01*
G01X4100Y4100D02*
G01X4150Y4050D01*
G01X4100Y4100D02*
G01X2200Y4100D01*
G01X4300Y4950D02*
G01X4150Y4950D01*
G01X4300Y4050D02*
G01X4150Y4050D01*
G01X4400Y4150D02*
G01X4400Y4850D01*
G01X19700Y8900D02*
G01X19000Y8900D01*
G01X18900Y9000D02*
G01X18900Y9150D01*
G01X18950Y9200D02*
G01X18900Y9150D01*
G01X19800Y9000D02*
G01X19800Y9150D01*
G01X19750Y9200D02*
G01X19800Y9150D01*
G01X18950Y11100D02*
G01X18900Y11150D01*
G01X18950Y11100D02*
G01X18950Y9200D01*
G01X19750Y11100D02*
G01X19800Y11150D01*
G01X19750Y11100D02*
G01X19750Y9200D01*
G01X18900Y11300D02*
G01X18900Y11150D01*
G01X19800Y11300D02*
G01X19800Y11150D01*
G01X19700Y11400D02*
G01X19000Y11400D01*
G01X1900Y9200D02*
G01X1900Y9900D01*
G01X2000Y10000D02*
G01X2150Y10000D01*
G01X2200Y9950D02*
G01X2150Y10000D01*
G01X2000Y9100D02*
G01X2150Y9100D01*
G01X2200Y9150D02*
G01X2150Y9100D01*
G01X4100Y9950D02*
G01X4150Y10000D01*
G01X4100Y9950D02*
G01X2200Y9950D01*
G01X4100Y9150D02*
G01X4150Y9100D01*
G01X4100Y9150D02*
G01X2200Y9150D01*
G01X4300Y10000D02*
G01X4150Y10000D01*
G01X4300Y9100D02*
G01X4150Y9100D01*
G01X4400Y9200D02*
G01X4400Y9900D01*
G01X21600Y8900D02*
G01X20900Y8900D01*
G01X20800Y9000D02*
G01X20800Y9150D01*
G01X20850Y9200D02*
G01X20800Y9150D01*
G01X21700Y9000D02*
G01X21700Y9150D01*
G01X21650Y9200D02*
G01X21700Y9150D01*
G01X20850Y11100D02*
G01X20800Y11150D01*
G01X20850Y11100D02*
G01X20850Y9200D01*
G01X21650Y11100D02*
G01X21700Y11150D01*
G01X21650Y11100D02*
G01X21650Y9200D01*
G01X20800Y11300D02*
G01X20800Y11150D01*
G01X21700Y11300D02*
G01X21700Y11150D01*
G01X21600Y11400D02*
G01X20900Y11400D01*
G01X23550Y8900D02*
G01X22850Y8900D01*
G01X22750Y9000D02*
G01X22750Y9150D01*
G01X22800Y9200D02*
G01X22750Y9150D01*
G01X23650Y9000D02*
G01X23650Y9150D01*
G01X23600Y9200D02*
G01X23650Y9150D01*
G01X22800Y11100D02*
G01X22750Y11150D01*
G01X22800Y11100D02*
G01X22800Y9200D01*
G01X23600Y11100D02*
G01X23650Y11150D01*
G01X23600Y11100D02*
G01X23600Y9200D01*
G01X22750Y11300D02*
G01X22750Y11150D01*
G01X23650Y11300D02*
G01X23650Y11150D01*
G01X23550Y11400D02*
G01X22850Y11400D01*
G01X19700Y3650D02*
G01X19000Y3650D01*
G01X18900Y3750D02*
G01X18900Y3900D01*
G01X18950Y3950D02*
G01X18900Y3900D01*
G01X19800Y3750D02*
G01X19800Y3900D01*
G01X19750Y3950D02*
G01X19800Y3900D01*
G01X18950Y5850D02*
G01X18900Y5900D01*
G01X18950Y5850D02*
G01X18950Y3950D01*
G01X19750Y5850D02*
G01X19800Y5900D01*
G01X19750Y5850D02*
G01X19750Y3950D01*
G01X18900Y6050D02*
G01X18900Y5900D01*
G01X19800Y6050D02*
G01X19800Y5900D01*
G01X19700Y6150D02*
G01X19000Y6150D01*
G01X21650Y3650D02*
G01X20950Y3650D01*
G01X20850Y3750D02*
G01X20850Y3900D01*
G01X20900Y3950D02*
G01X20850Y3900D01*
G01X21750Y3750D02*
G01X21750Y3900D01*
G01X21700Y3950D02*
G01X21750Y3900D01*
G01X20900Y5850D02*
G01X20850Y5900D01*
G01X20900Y5850D02*
G01X20900Y3950D01*
G01X21700Y5850D02*
G01X21750Y5900D01*
G01X21700Y5850D02*
G01X21700Y3950D01*
G01X20850Y6050D02*
G01X20850Y5900D01*
G01X21750Y6050D02*
G01X21750Y5900D01*
G01X21650Y6150D02*
G01X20950Y6150D01*
G01X23600Y3650D02*
G01X22900Y3650D01*
G01X22800Y3750D02*
G01X22800Y3900D01*
G01X22850Y3950D02*
G01X22800Y3900D01*
G01X23700Y3750D02*
G01X23700Y3900D01*
G01X23650Y3950D02*
G01X23700Y3900D01*
G01X22850Y5850D02*
G01X22800Y5900D01*
G01X22850Y5850D02*
G01X22850Y3950D01*
G01X23650Y5850D02*
G01X23700Y5900D01*
G01X23650Y5850D02*
G01X23650Y3950D01*
G01X22800Y6050D02*
G01X22800Y5900D01*
G01X23700Y6050D02*
G01X23700Y5900D01*
G01X23600Y6150D02*
G01X22900Y6150D01*
G01X25550Y3650D02*
G01X24850Y3650D01*
G01X24750Y3750D02*
G01X24750Y3900D01*
G01X24800Y3950D02*
G01X24750Y3900D01*
G01X25650Y3750D02*
G01X25650Y3900D01*
G01X25600Y3950D02*
G01X25650Y3900D01*
G01X24800Y5850D02*
G01X24750Y5900D01*
G01X24800Y5850D02*
G01X24800Y3950D01*
G01X25600Y5850D02*
G01X25650Y5900D01*
G01X25600Y5850D02*
G01X25600Y3950D01*
G01X24750Y6050D02*
G01X24750Y5900D01*
G01X25650Y6050D02*
G01X25650Y5900D01*
G01X25550Y6150D02*
G01X24850Y6150D01*
G01X9850Y6150D02*
G01X12450Y6150D01*
G01X12450Y6150D02*
G01X12450Y3400D01*
G01X12450Y3400D02*
G01X9850Y3400D01*
G01X9850Y3400D02*
G01X9850Y6150D01*
G01X11280Y5040D02*
G01X11480Y5040D01*
G01X11480Y5040D02*
G01X11680Y5040D01*
G01X11280Y4780D02*
G01X11480Y4780D01*
G01X11480Y4780D02*
G01X11680Y4780D01*
G01X11019Y4780D02*
G01X11019Y4580D01*
G01X11019Y4580D02*
G01X11019Y4380D01*
G01X11019Y4780D02*
G01X10819Y4780D01*
G01X10819Y4780D02*
G01X10619Y4780D01*
G01X11019Y5040D02*
G01X10819Y5040D01*
G01X10819Y5040D02*
G01X10619Y5040D01*
G01X11019Y5040D02*
G01X11019Y5240D01*
G01X11019Y5240D02*
G01X11019Y5440D01*
G01X11280Y5040D02*
G01X11280Y5240D01*
G01X11280Y5240D02*
G01X11280Y5440D01*
G01X11280Y4780D02*
G01X11280Y4580D01*
G01X11280Y4580D02*
G01X11280Y4380D01*
G01X11480Y5040D02*
G01X11480Y4780D01*
G01X10819Y5040D02*
G01X10819Y4780D01*
G01X11019Y5240D02*
G01X11280Y5240D01*
G01X11019Y4580D02*
G01X11280Y4580D01*
G01X11519Y4380D02*
G01X11810Y4030D01*
G01X11610Y4459D02*
G01X11900Y4109D01*
G01X10780Y4380D02*
G01X10489Y4030D01*
G01X10689Y4459D02*
G01X10400Y4100D01*
G01X11719Y4619D02*
G01X11939Y4530D01*
G01X10580Y4619D02*
G01X10360Y4530D01*
G01X11780Y5040D02*
G01X12010Y5059D01*
G01X10519Y5040D02*
G01X10289Y5059D01*
G01X11710Y5219D02*
G01X11910Y5350D01*
G01X10589Y5219D02*
G01X10389Y5350D01*
G01X11650Y5319D02*
G01X11839Y5450D01*
G01X10650Y5319D02*
G01X10460Y5450D01*
G01X11500Y5450D02*
G01X11610Y5650D01*
G01X10800Y5450D02*
G01X10689Y5650D01*
G01X11400Y5500D02*
G01X11510Y5709D01*
G01X10900Y5500D02*
G01X10789Y5709D01*
G01X12050Y4009D02*
G01X12100Y3959D01*
G01X12100Y3959D02*
G01X12100Y3859D01*
G01X12100Y3859D02*
G01X12050Y3809D01*
G01X11950Y3809D02*
G01X12050Y3809D01*
G01X12050Y3809D02*
G01X12100Y3759D01*
G01X12100Y3759D02*
G01X12100Y3659D01*
G01X12050Y4009D02*
G01X11900Y4009D01*
G01X11900Y4009D02*
G01X11850Y3959D01*
G01X12100Y3659D02*
G01X12050Y3609D01*
G01X12050Y3609D02*
G01X11900Y3609D01*
G01X11900Y3609D02*
G01X11850Y3659D01*
G01X10400Y4009D02*
G01X10400Y3609D01*
G01X10400Y3609D02*
G01X10500Y3609D01*
G01X10400Y3609D02*
G01X10300Y3609D01*
G01X10400Y4009D02*
G01X10300Y3909D01*
G01X950Y18131D02*
G01X950Y20493D01*
G01X3312Y20493D01*
G01X3312Y18131D01*
G01X950Y18131D01*
G01X14560Y4990D02*
G01X15339Y4990D01*
G01X15339Y3409D02*
G01X14560Y3409D01*
G01X2903Y1130D02*
G01X2903Y1440D01*
G01X3063Y1280D02*
G01X2733Y1280D01*
G54D31*
G01X450Y2655D02*
G01X450Y2176D01*
G01X450Y2655D02*
G01X655Y2655D01*
G01X722Y2632D01*
G01X744Y2609D01*
G01X768Y2563D01*
G01X768Y2494D01*
G01X744Y2450D01*
G01X722Y2426D01*
G01X655Y2405D01*
G01X450Y2405D01*
G01X1055Y2655D02*
G01X1009Y2632D01*
G01X964Y2586D01*
G01X940Y2540D01*
G01X918Y2473D01*
G01X918Y2359D01*
G01X940Y2290D01*
G01X964Y2244D01*
G01X1009Y2200D01*
G01X1055Y2176D01*
G01X1144Y2176D01*
G01X1190Y2200D01*
G01X1235Y2244D01*
G01X1259Y2290D01*
G01X1281Y2359D01*
G01X1281Y2473D01*
G01X1259Y2540D01*
G01X1235Y2586D01*
G01X1190Y2632D01*
G01X1144Y2655D01*
G01X1055Y2655D01*
G01X1431Y2655D02*
G01X1544Y2176D01*
G01X1659Y2655D02*
G01X1544Y2176D01*
G01X1659Y2655D02*
G01X1772Y2176D01*
G01X1885Y2655D02*
G01X1772Y2176D01*
G01X2035Y2655D02*
G01X2035Y2176D01*
G01X2035Y2655D02*
G01X2331Y2655D01*
G01X2035Y2426D02*
G01X2218Y2426D01*
G01X2035Y2176D02*
G01X2331Y2176D01*
G01X2481Y2655D02*
G01X2481Y2176D01*
G01X2481Y2655D02*
G01X2685Y2655D01*
G01X2755Y2632D01*
G01X2777Y2609D01*
G01X2800Y2563D01*
G01X2800Y2517D01*
G01X2777Y2473D01*
G01X2755Y2450D01*
G01X2685Y2426D01*
G01X2481Y2426D01*
G01X2640Y2426D02*
G01X2800Y2176D01*
G01X15704Y3255D02*
G01X15522Y2776D01*
G01X15704Y3255D02*
G01X15886Y2776D01*
G01X15590Y2936D02*
G01X15817Y2936D01*
G01X16036Y3163D02*
G01X16081Y3186D01*
G01X16149Y3255D01*
G01X16149Y2776D01*
G01X11800Y3255D02*
G01X11618Y2776D01*
G01X11800Y3255D02*
G01X11982Y2776D01*
G01X11686Y2936D02*
G01X11913Y2936D01*
G01X12268Y3255D02*
G01X12200Y3232D01*
G01X12154Y3163D01*
G01X12132Y3050D01*
G01X12132Y2982D01*
G01X12154Y2867D01*
G01X12200Y2800D01*
G01X12268Y2776D01*
G01X12313Y2776D01*
G01X12382Y2800D01*
G01X12427Y2867D01*
G01X12450Y2982D01*
G01X12450Y3050D01*
G01X12427Y3163D01*
G01X12382Y3232D01*
G01X12313Y3255D01*
G01X12268Y3255D01*
G01X25744Y10400D02*
G01X26222Y10400D01*
G01X25744Y10400D02*
G01X25744Y10559D01*
G01X25768Y10626D01*
G01X25814Y10673D01*
G01X25859Y10694D01*
G01X25927Y10717D01*
G01X26040Y10717D01*
G01X26109Y10694D01*
G01X26155Y10673D01*
G01X26200Y10626D01*
G01X26222Y10559D01*
G01X26222Y10400D01*
G01X25744Y10867D02*
G01X26222Y10867D01*
G01X25744Y11186D02*
G01X26222Y11186D01*
G01X25972Y10867D02*
G01X25972Y11186D01*
G01X25744Y11494D02*
G01X26222Y11494D01*
G01X25744Y11336D02*
G01X25744Y11655D01*
G01X16638Y14805D02*
G01X16411Y14326D01*
G01X16320Y14805D02*
G01X16638Y14805D01*
G01X14366Y14736D02*
G01X14343Y14782D01*
G01X14275Y14805D01*
G01X14229Y14805D01*
G01X14161Y14782D01*
G01X14116Y14713D01*
G01X14093Y14600D01*
G01X14093Y14486D01*
G01X14116Y14394D01*
G01X14161Y14350D01*
G01X14229Y14326D01*
G01X14252Y14326D01*
G01X14320Y14350D01*
G01X14366Y14394D01*
G01X14388Y14463D01*
G01X14388Y14486D01*
G01X14366Y14555D01*
G01X14320Y14600D01*
G01X14252Y14623D01*
G01X14229Y14623D01*
G01X14161Y14600D01*
G01X14116Y14555D01*
G01X14093Y14486D01*
G01X12093Y14805D02*
G01X11865Y14805D01*
G01X11843Y14600D01*
G01X11865Y14623D01*
G01X11934Y14644D01*
G01X12002Y14644D01*
G01X12070Y14623D01*
G01X12115Y14576D01*
G01X12138Y14509D01*
G01X12138Y14463D01*
G01X12115Y14394D01*
G01X12070Y14350D01*
G01X12002Y14326D01*
G01X11934Y14326D01*
G01X11865Y14350D01*
G01X11843Y14373D01*
G01X11820Y14417D01*
G01X10200Y16013D02*
G01X10244Y16036D01*
G01X10314Y16105D01*
G01X10314Y15626D01*
G01X10485Y15990D02*
G01X10485Y16013D01*
G01X10509Y16059D01*
G01X10531Y16082D01*
G01X10577Y16105D01*
G01X10668Y16105D01*
G01X10714Y16082D01*
G01X10735Y16059D01*
G01X10759Y16013D01*
G01X10759Y15967D01*
G01X10735Y15923D01*
G01X10690Y15855D01*
G01X10464Y15626D01*
G01X10781Y15626D01*
G01X10200Y18313D02*
G01X10244Y18336D01*
G01X10314Y18405D01*
G01X10314Y17927D01*
G01X10509Y18405D02*
G01X10759Y18405D01*
G01X10622Y18223D01*
G01X10690Y18223D01*
G01X10735Y18200D01*
G01X10759Y18177D01*
G01X10781Y18109D01*
G01X10781Y18063D01*
G01X10759Y17994D01*
G01X10714Y17950D01*
G01X10644Y17927D01*
G01X10577Y17927D01*
G01X10509Y17950D01*
G01X10485Y17973D01*
G01X10464Y18017D01*
G01X10385Y1942D02*
G01X10344Y1984D01*
G01X10284Y2003D01*
G01X10202Y2003D01*
G01X10140Y1984D01*
G01X10100Y1942D01*
G01X10100Y1901D01*
G01X10119Y1861D01*
G01X10140Y1840D01*
G01X10181Y1819D01*
G01X10305Y1778D01*
G01X10344Y1759D01*
G01X10365Y1738D01*
G01X10385Y1696D01*
G01X10385Y1636D01*
G01X10344Y1594D01*
G01X10284Y1575D01*
G01X10202Y1575D01*
G01X10140Y1594D01*
G01X10100Y1636D01*
G01X10521Y2003D02*
G01X10521Y1575D01*
G01X10521Y2003D02*
G01X10786Y2003D01*
G01X10521Y1800D02*
G01X10685Y1800D01*
G01X10521Y1575D02*
G01X10786Y1575D01*
G01X10922Y2003D02*
G01X10922Y1575D01*
G01X10922Y2003D02*
G01X11106Y2003D01*
G01X11168Y1984D01*
G01X11188Y1963D01*
G01X11209Y1921D01*
G01X11209Y1880D01*
G01X11188Y1840D01*
G01X11168Y1819D01*
G01X11106Y1800D01*
G01X10922Y1800D01*
G01X11064Y1800D02*
G01X11209Y1575D01*
G01X11343Y2003D02*
G01X11506Y1575D01*
G01X11671Y2003D02*
G01X11506Y1575D01*
G01X11928Y2003D02*
G01X11888Y1984D01*
G01X11847Y1942D01*
G01X11826Y1901D01*
G01X11806Y1840D01*
G01X11806Y1738D01*
G01X11826Y1676D01*
G01X11847Y1636D01*
G01X11888Y1594D01*
G01X11928Y1575D01*
G01X12010Y1575D01*
G01X12051Y1594D01*
G01X12092Y1636D01*
G01X12113Y1676D01*
G01X12132Y1738D01*
G01X12132Y1840D01*
G01X12113Y1901D01*
G01X12092Y1942D01*
G01X12051Y1984D01*
G01X12010Y2003D01*
G01X11928Y2003D01*
G01X7640Y2003D02*
G01X7865Y2003D01*
G01X7742Y1840D01*
G01X7804Y1840D01*
G01X7845Y1819D01*
G01X7865Y1800D01*
G01X7885Y1738D01*
G01X7885Y1696D01*
G01X7865Y1636D01*
G01X7824Y1594D01*
G01X7763Y1575D01*
G01X7701Y1575D01*
G01X7640Y1594D01*
G01X7620Y1615D01*
G01X7599Y1655D01*
G01X8041Y1676D02*
G01X8020Y1655D01*
G01X8041Y1636D01*
G01X8061Y1655D01*
G01X8041Y1676D01*
G01X8237Y2003D02*
G01X8462Y2003D01*
G01X8340Y1840D01*
G01X8401Y1840D01*
G01X8442Y1819D01*
G01X8462Y1800D01*
G01X8483Y1738D01*
G01X8483Y1696D01*
G01X8462Y1636D01*
G01X8421Y1594D01*
G01X8360Y1575D01*
G01X8299Y1575D01*
G01X8237Y1594D01*
G01X8217Y1615D01*
G01X8196Y1655D01*
G01X8618Y2003D02*
G01X8781Y1575D01*
G01X8945Y2003D02*
G01X8781Y1575D01*
G01X6894Y2003D02*
G01X6690Y2003D01*
G01X6669Y1819D01*
G01X6690Y1840D01*
G01X6752Y1861D01*
G01X6814Y1861D01*
G01X6875Y1840D01*
G01X6915Y1800D01*
G01X6935Y1738D01*
G01X6935Y1696D01*
G01X6915Y1636D01*
G01X6875Y1594D01*
G01X6814Y1575D01*
G01X6752Y1575D01*
G01X6690Y1594D01*
G01X6669Y1615D01*
G01X6650Y1655D01*
G01X7071Y2003D02*
G01X7235Y1575D01*
G01X7398Y2003D02*
G01X7235Y1575D01*
G01X5150Y2003D02*
G01X5314Y1575D01*
G01X5477Y2003D02*
G01X5314Y1575D01*
G01X5918Y1901D02*
G01X5898Y1942D01*
G01X5857Y1984D01*
G01X5817Y2003D01*
G01X5735Y2003D01*
G01X5693Y1984D01*
G01X5652Y1942D01*
G01X5632Y1901D01*
G01X5611Y1840D01*
G01X5611Y1738D01*
G01X5632Y1676D01*
G01X5652Y1636D01*
G01X5693Y1594D01*
G01X5735Y1575D01*
G01X5817Y1575D01*
G01X5857Y1594D01*
G01X5898Y1636D01*
G01X5918Y1676D01*
G01X6360Y1901D02*
G01X6339Y1942D01*
G01X6300Y1984D01*
G01X6259Y2003D01*
G01X6177Y2003D01*
G01X6135Y1984D01*
G01X6094Y1942D01*
G01X6075Y1901D01*
G01X6053Y1840D01*
G01X6053Y1738D01*
G01X6075Y1676D01*
G01X6094Y1636D01*
G01X6135Y1594D01*
G01X6177Y1575D01*
G01X6259Y1575D01*
G01X6300Y1594D01*
G01X6339Y1636D01*
G01X6360Y1676D01*
G01X17087Y8413D02*
G01X17132Y8436D01*
G01X17201Y8505D01*
G01X17201Y8026D01*
G01X17487Y8505D02*
G01X17419Y8482D01*
G01X17373Y8413D01*
G01X17351Y8300D01*
G01X17351Y8232D01*
G01X17373Y8117D01*
G01X17419Y8050D01*
G01X17487Y8026D01*
G01X17532Y8026D01*
G01X17601Y8050D01*
G01X17646Y8117D01*
G01X17669Y8232D01*
G01X17669Y8300D01*
G01X17646Y8413D01*
G01X17601Y8482D01*
G01X17532Y8505D01*
G01X17487Y8505D01*
G01X13890Y8505D02*
G01X13821Y8482D01*
G01X13799Y8436D01*
G01X13799Y8390D01*
G01X13821Y8344D01*
G01X13867Y8323D01*
G01X13958Y8300D01*
G01X14026Y8276D01*
G01X14071Y8232D01*
G01X14094Y8186D01*
G01X14094Y8117D01*
G01X14071Y8073D01*
G01X14049Y8050D01*
G01X13981Y8026D01*
G01X13890Y8026D01*
G01X13821Y8050D01*
G01X13799Y8073D01*
G01X13776Y8117D01*
G01X13776Y8186D01*
G01X13799Y8232D01*
G01X13844Y8276D01*
G01X13912Y8300D01*
G01X14003Y8323D01*
G01X14049Y8344D01*
G01X14071Y8390D01*
G01X14071Y8436D01*
G01X14049Y8482D01*
G01X13981Y8505D01*
G01X13890Y8505D01*
G01X10405Y8505D02*
G01X10178Y8186D01*
G01X10519Y8186D01*
G01X10405Y8505D02*
G01X10405Y8026D01*
G54D27*
G01X3896Y18600D02*
G01X4325Y18600D01*
G01X3896Y18600D02*
G01X3896Y18784D01*
G01X3915Y18844D01*
G01X3936Y18865D01*
G01X3977Y18886D01*
G01X4018Y18886D01*
G01X4060Y18865D01*
G01X4080Y18844D01*
G01X4100Y18784D01*
G01X4100Y18600D01*
G01X4100Y18742D02*
G01X4325Y18886D01*
G01X3896Y19021D02*
G01X4325Y19021D01*
G01X3896Y19021D02*
G01X3896Y19286D01*
G01X4100Y19021D02*
G01X4100Y19184D01*
G01X4325Y19021D02*
G01X4325Y19286D01*
G01X3956Y19709D02*
G01X3915Y19667D01*
G01X3896Y19605D01*
G01X3896Y19525D01*
G01X3915Y19463D01*
G01X3956Y19421D01*
G01X3997Y19421D01*
G01X4039Y19442D01*
G01X4060Y19463D01*
G01X4080Y19503D01*
G01X4121Y19627D01*
G01X4140Y19667D01*
G01X4161Y19688D01*
G01X4202Y19709D01*
G01X4264Y19709D01*
G01X4305Y19667D01*
G01X4325Y19605D01*
G01X4325Y19525D01*
G01X4305Y19463D01*
G01X4264Y19421D01*
G01X3896Y19844D02*
G01X4325Y19844D01*
G01X3896Y19844D02*
G01X3896Y20109D01*
G01X4100Y19844D02*
G01X4100Y20007D01*
G01X4325Y19844D02*
G01X4325Y20109D01*
G01X3896Y20388D02*
G01X4325Y20388D01*
G01X3896Y20244D02*
G01X3896Y20530D01*
G54D31*
G01X26296Y2150D02*
G01X26677Y2150D01*
G01X26296Y2150D02*
G01X26296Y2276D01*
G01X26314Y2332D01*
G01X26351Y2367D01*
G01X26386Y2386D01*
G01X26442Y2405D01*
G01X26532Y2405D01*
G01X26586Y2386D01*
G01X26623Y2367D01*
G01X26660Y2332D01*
G01X26677Y2276D01*
G01X26677Y2150D01*
G01X26532Y2525D02*
G01X26532Y2742D01*
G01X26496Y2742D01*
G01X26460Y2725D01*
G01X26442Y2705D01*
G01X26423Y2669D01*
G01X26423Y2615D01*
G01X26442Y2578D01*
G01X26477Y2542D01*
G01X26532Y2525D01*
G01X26568Y2525D01*
G01X26623Y2542D01*
G01X26660Y2578D01*
G01X26677Y2615D01*
G01X26677Y2669D01*
G01X26660Y2705D01*
G01X26623Y2742D01*
G01X26477Y3063D02*
G01X26442Y3044D01*
G01X26423Y2990D01*
G01X26423Y2934D01*
G01X26442Y2880D01*
G01X26477Y2863D01*
G01X26514Y2880D01*
G01X26532Y2917D01*
G01X26551Y3007D01*
G01X26568Y3044D01*
G01X26605Y3063D01*
G01X26623Y3063D01*
G01X26660Y3044D01*
G01X26677Y2990D01*
G01X26677Y2934D01*
G01X26660Y2880D01*
G01X26623Y2863D01*
G01X26296Y3182D02*
G01X26314Y3201D01*
G01X26296Y3219D01*
G01X26277Y3201D01*
G01X26296Y3182D01*
G01X26423Y3201D02*
G01X26677Y3201D01*
G01X26423Y3557D02*
G01X26714Y3557D01*
G01X26768Y3538D01*
G01X26786Y3521D01*
G01X26805Y3484D01*
G01X26805Y3430D01*
G01X26786Y3394D01*
G01X26477Y3557D02*
G01X26442Y3521D01*
G01X26423Y3484D01*
G01X26423Y3430D01*
G01X26442Y3394D01*
G01X26477Y3357D01*
G01X26532Y3338D01*
G01X26568Y3338D01*
G01X26623Y3357D01*
G01X26660Y3394D01*
G01X26677Y3430D01*
G01X26677Y3484D01*
G01X26660Y3521D01*
G01X26623Y3557D01*
G01X26423Y3676D02*
G01X26677Y3676D01*
G01X26496Y3676D02*
G01X26442Y3732D01*
G01X26423Y3767D01*
G01X26423Y3823D01*
G01X26442Y3859D01*
G01X26496Y3876D01*
G01X26677Y3876D01*
G01X26532Y3996D02*
G01X26532Y4215D01*
G01X26496Y4215D01*
G01X26460Y4196D01*
G01X26442Y4178D01*
G01X26423Y4142D01*
G01X26423Y4088D01*
G01X26442Y4051D01*
G01X26477Y4015D01*
G01X26532Y3996D01*
G01X26568Y3996D01*
G01X26623Y4015D01*
G01X26660Y4051D01*
G01X26677Y4088D01*
G01X26677Y4142D01*
G01X26660Y4178D01*
G01X26623Y4215D01*
G01X26296Y4553D02*
G01X26677Y4553D01*
G01X26477Y4553D02*
G01X26442Y4517D01*
G01X26423Y4480D01*
G01X26423Y4426D01*
G01X26442Y4390D01*
G01X26477Y4353D01*
G01X26532Y4334D01*
G01X26568Y4334D01*
G01X26623Y4353D01*
G01X26660Y4390D01*
G01X26677Y4426D01*
G01X26677Y4480D01*
G01X26660Y4517D01*
G01X26623Y4553D01*
G01X26296Y4953D02*
G01X26677Y4953D01*
G01X26296Y4953D02*
G01X26296Y5117D01*
G01X26314Y5171D01*
G01X26332Y5190D01*
G01X26368Y5207D01*
G01X26405Y5207D01*
G01X26442Y5190D01*
G01X26460Y5171D01*
G01X26477Y5117D01*
G01X26477Y4953D02*
G01X26477Y5117D01*
G01X26496Y5171D01*
G01X26514Y5190D01*
G01X26551Y5207D01*
G01X26605Y5207D01*
G01X26642Y5190D01*
G01X26660Y5171D01*
G01X26677Y5117D01*
G01X26677Y4953D01*
G01X26423Y5346D02*
G01X26677Y5455D01*
G01X26423Y5565D02*
G01X26677Y5455D01*
G01X26751Y5419D01*
G01X26786Y5382D01*
G01X26805Y5346D01*
G01X26805Y5328D01*
G01X26296Y6146D02*
G01X26586Y6146D01*
G01X26642Y6128D01*
G01X26660Y6109D01*
G01X26677Y6073D01*
G01X26677Y6036D01*
G01X26660Y6001D01*
G01X26642Y5982D01*
G01X26586Y5965D01*
G01X26551Y5965D01*
G01X26423Y6484D02*
G01X26677Y6484D01*
G01X26477Y6484D02*
G01X26442Y6448D01*
G01X26423Y6411D01*
G01X26423Y6357D01*
G01X26442Y6321D01*
G01X26477Y6284D01*
G01X26532Y6265D01*
G01X26568Y6265D01*
G01X26623Y6284D01*
G01X26660Y6321D01*
G01X26677Y6357D01*
G01X26677Y6411D01*
G01X26660Y6448D01*
G01X26623Y6484D01*
G01X26477Y6823D02*
G01X26442Y6786D01*
G01X26423Y6750D01*
G01X26423Y6694D01*
G01X26442Y6659D01*
G01X26477Y6623D01*
G01X26532Y6605D01*
G01X26568Y6605D01*
G01X26623Y6623D01*
G01X26660Y6659D01*
G01X26677Y6694D01*
G01X26677Y6750D01*
G01X26660Y6786D01*
G01X26623Y6823D01*
G01X26296Y6942D02*
G01X26677Y6942D01*
G01X26423Y7125D02*
G01X26605Y6942D01*
G01X26532Y7015D02*
G01X26677Y7142D01*
G01X26423Y7280D02*
G01X26677Y7390D01*
G01X26423Y7498D02*
G01X26677Y7390D01*
G01X26751Y7353D01*
G01X26786Y7317D01*
G01X26805Y7280D01*
G01X26805Y7263D01*
G01X26296Y7898D02*
G01X26677Y7898D01*
G01X26677Y7898D02*
G01X26677Y8117D01*
G01X26532Y8236D02*
G01X26532Y8455D01*
G01X26496Y8455D01*
G01X26460Y8436D01*
G01X26442Y8419D01*
G01X26423Y8382D01*
G01X26423Y8328D01*
G01X26442Y8292D01*
G01X26477Y8255D01*
G01X26532Y8236D01*
G01X26568Y8236D01*
G01X26623Y8255D01*
G01X26660Y8292D01*
G01X26677Y8328D01*
G01X26677Y8382D01*
G01X26660Y8419D01*
G01X26623Y8455D01*
G01X26423Y8575D02*
G01X26605Y8575D01*
G01X26660Y8594D01*
G01X26677Y8630D01*
G01X26677Y8684D01*
G01X26660Y8721D01*
G01X26605Y8775D01*
G01X26423Y8775D02*
G01X26677Y8775D01*
G01X26423Y8894D02*
G01X26677Y8894D01*
G01X26496Y8894D02*
G01X26442Y8950D01*
G01X26423Y8986D01*
G01X26423Y9040D01*
G01X26442Y9076D01*
G01X26496Y9094D01*
G01X26677Y9094D01*
G01X26423Y9434D02*
G01X26714Y9434D01*
G01X26768Y9415D01*
G01X26786Y9396D01*
G01X26805Y9361D01*
G01X26805Y9305D01*
G01X26786Y9269D01*
G01X26477Y9434D02*
G01X26442Y9396D01*
G01X26423Y9361D01*
G01X26423Y9305D01*
G01X26442Y9269D01*
G01X26477Y9234D01*
G01X26532Y9215D01*
G01X26568Y9215D01*
G01X26623Y9234D01*
G01X26660Y9269D01*
G01X26677Y9305D01*
G01X26677Y9361D01*
G01X26660Y9396D01*
G01X26623Y9434D01*
G01X13950Y18555D02*
G01X13750Y18030D01*
G01X13950Y18555D02*
G01X14150Y18030D01*
G01X13825Y18205D02*
G01X14075Y18205D01*
G01X14314Y18380D02*
G01X14314Y18030D01*
G01X14314Y18230D02*
G01X14339Y18305D01*
G01X14389Y18355D01*
G01X14439Y18380D01*
G01X14514Y18380D01*
G01X14980Y18555D02*
G01X14980Y18030D01*
G01X14980Y18305D02*
G01X14930Y18355D01*
G01X14880Y18380D01*
G01X14805Y18380D01*
G01X14755Y18355D01*
G01X14705Y18305D01*
G01X14680Y18230D01*
G01X14680Y18180D01*
G01X14705Y18105D01*
G01X14755Y18055D01*
G01X14805Y18030D01*
G01X14880Y18030D01*
G01X14930Y18055D01*
G01X14980Y18105D01*
G01X15144Y18380D02*
G01X15144Y18130D01*
G01X15169Y18055D01*
G01X15219Y18030D01*
G01X15294Y18030D01*
G01X15344Y18055D01*
G01X15419Y18130D01*
G01X15419Y18380D02*
G01X15419Y18030D01*
G01X15585Y18555D02*
G01X15610Y18530D01*
G01X15635Y18555D01*
G01X15610Y18580D01*
G01X15585Y18555D01*
G01X15610Y18380D02*
G01X15610Y18030D01*
G01X15800Y18380D02*
G01X15800Y18030D01*
G01X15800Y18280D02*
G01X15875Y18355D01*
G01X15925Y18380D01*
G01X16000Y18380D01*
G01X16050Y18355D01*
G01X16075Y18280D01*
G01X16075Y18030D01*
G01X16364Y18380D02*
G01X16314Y18355D01*
G01X16264Y18305D01*
G01X16239Y18230D01*
G01X16239Y18180D01*
G01X16264Y18105D01*
G01X16314Y18055D01*
G01X16364Y18030D01*
G01X16439Y18030D01*
G01X16489Y18055D01*
G01X16539Y18105D01*
G01X16564Y18180D01*
G01X16564Y18230D01*
G01X16539Y18305D01*
G01X16489Y18355D01*
G01X16439Y18380D01*
G01X16364Y18380D01*
G01X17114Y18555D02*
G01X17114Y18030D01*
G01X17114Y18555D02*
G01X17339Y18555D01*
G01X17414Y18530D01*
G01X17439Y18505D01*
G01X17464Y18455D01*
G01X17464Y18380D01*
G01X17439Y18330D01*
G01X17414Y18305D01*
G01X17339Y18280D01*
G01X17114Y18280D01*
G01X17630Y18380D02*
G01X17630Y18030D01*
G01X17630Y18230D02*
G01X17655Y18305D01*
G01X17705Y18355D01*
G01X17755Y18380D01*
G01X17830Y18380D01*
G01X18119Y18380D02*
G01X18069Y18355D01*
G01X18019Y18305D01*
G01X17994Y18230D01*
G01X17994Y18180D01*
G01X18019Y18105D01*
G01X18069Y18055D01*
G01X18119Y18030D01*
G01X18194Y18030D01*
G01X18244Y18055D01*
G01X18294Y18105D01*
G01X18319Y18180D01*
G01X18319Y18230D01*
G01X18294Y18305D01*
G01X18244Y18355D01*
G01X18194Y18380D01*
G01X18119Y18380D01*
G01X18785Y18380D02*
G01X18785Y17980D01*
G01X18760Y17905D01*
G01X18735Y17880D01*
G01X18685Y17855D01*
G01X18610Y17855D01*
G01X18560Y17880D01*
G01X18785Y18305D02*
G01X18735Y18355D01*
G01X18685Y18380D01*
G01X18610Y18380D01*
G01X18560Y18355D01*
G01X18510Y18305D01*
G01X18485Y18230D01*
G01X18485Y18180D01*
G01X18510Y18105D01*
G01X18560Y18055D01*
G01X18610Y18030D01*
G01X18685Y18030D01*
G01X18735Y18055D01*
G01X18785Y18105D01*
G01X18950Y18380D02*
G01X18950Y18030D01*
G01X18950Y18230D02*
G01X18975Y18305D01*
G01X19025Y18355D01*
G01X19075Y18380D01*
G01X19150Y18380D01*
G01X19614Y18380D02*
G01X19614Y18030D01*
G01X19614Y18305D02*
G01X19564Y18355D01*
G01X19514Y18380D01*
G01X19439Y18380D01*
G01X19389Y18355D01*
G01X19339Y18305D01*
G01X19314Y18230D01*
G01X19314Y18180D01*
G01X19339Y18105D01*
G01X19389Y18055D01*
G01X19439Y18030D01*
G01X19514Y18030D01*
G01X19564Y18055D01*
G01X19614Y18105D01*
G01X19780Y18380D02*
G01X19780Y18030D01*
G01X19780Y18280D02*
G01X19855Y18355D01*
G01X19905Y18380D01*
G01X19980Y18380D01*
G01X20030Y18355D01*
G01X20055Y18280D01*
G01X20055Y18030D01*
G01X20055Y18280D02*
G01X20130Y18355D01*
G01X20180Y18380D01*
G01X20255Y18380D01*
G01X20305Y18355D01*
G01X20330Y18280D01*
G01X20330Y18030D01*
G01X20494Y18380D02*
G01X20494Y18030D01*
G01X20494Y18280D02*
G01X20569Y18355D01*
G01X20619Y18380D01*
G01X20694Y18380D01*
G01X20744Y18355D01*
G01X20769Y18280D01*
G01X20769Y18030D01*
G01X20769Y18280D02*
G01X20844Y18355D01*
G01X20894Y18380D01*
G01X20969Y18380D01*
G01X21019Y18355D01*
G01X21044Y18280D01*
G01X21044Y18030D01*
G01X21210Y18555D02*
G01X21235Y18530D01*
G01X21260Y18555D01*
G01X21235Y18580D01*
G01X21210Y18555D01*
G01X21235Y18380D02*
G01X21235Y18030D01*
G01X21425Y18380D02*
G01X21425Y18030D01*
G01X21425Y18280D02*
G01X21500Y18355D01*
G01X21550Y18380D01*
G01X21625Y18380D01*
G01X21675Y18355D01*
G01X21700Y18280D01*
G01X21700Y18030D01*
G01X22164Y18380D02*
G01X22164Y17980D01*
G01X22139Y17905D01*
G01X22114Y17880D01*
G01X22064Y17855D01*
G01X21989Y17855D01*
G01X21939Y17880D01*
G01X22164Y18305D02*
G01X22114Y18355D01*
G01X22064Y18380D01*
G01X21989Y18380D01*
G01X21939Y18355D01*
G01X21889Y18305D01*
G01X21864Y18230D01*
G01X21864Y18180D01*
G01X21889Y18105D01*
G01X21939Y18055D01*
G01X21989Y18030D01*
G01X22064Y18030D01*
G01X22114Y18055D01*
G01X22164Y18105D01*
G01X23064Y18480D02*
G01X23014Y18530D01*
G01X22939Y18555D01*
G01X22839Y18555D01*
G01X22764Y18530D01*
G01X22714Y18480D01*
G01X22714Y18430D01*
G01X22739Y18380D01*
G01X22764Y18355D01*
G01X22814Y18330D01*
G01X22964Y18280D01*
G01X23014Y18255D01*
G01X23039Y18230D01*
G01X23064Y18180D01*
G01X23064Y18105D01*
G01X23014Y18055D01*
G01X22939Y18030D01*
G01X22839Y18030D01*
G01X22764Y18055D01*
G01X22714Y18105D01*
G01X23230Y18555D02*
G01X23230Y18030D01*
G01X23230Y18280D02*
G01X23305Y18355D01*
G01X23355Y18380D01*
G01X23430Y18380D01*
G01X23480Y18355D01*
G01X23505Y18280D01*
G01X23505Y18030D01*
G01X23669Y18555D02*
G01X23694Y18530D01*
G01X23719Y18555D01*
G01X23694Y18580D01*
G01X23669Y18555D01*
G01X23694Y18380D02*
G01X23694Y18030D01*
G01X23885Y18230D02*
G01X24185Y18230D01*
G01X24185Y18280D01*
G01X24160Y18330D01*
G01X24135Y18355D01*
G01X24085Y18380D01*
G01X24010Y18380D01*
G01X23960Y18355D01*
G01X23910Y18305D01*
G01X23885Y18230D01*
G01X23885Y18180D01*
G01X23910Y18105D01*
G01X23960Y18055D01*
G01X24010Y18030D01*
G01X24085Y18030D01*
G01X24135Y18055D01*
G01X24185Y18105D01*
G01X24350Y18555D02*
G01X24350Y18030D01*
G01X24814Y18555D02*
G01X24814Y18030D01*
G01X24814Y18305D02*
G01X24764Y18355D01*
G01X24714Y18380D01*
G01X24639Y18380D01*
G01X24589Y18355D01*
G01X24539Y18305D01*
G01X24514Y18230D01*
G01X24514Y18180D01*
G01X24539Y18105D01*
G01X24589Y18055D01*
G01X24639Y18030D01*
G01X24714Y18030D01*
G01X24764Y18055D01*
G01X24814Y18105D01*
G01X11735Y353D02*
G01X11735Y134D01*
G01X11722Y94D01*
G01X11708Y80D01*
G01X11681Y65D01*
G01X11654Y65D01*
G01X11626Y80D01*
G01X11613Y94D01*
G01X11599Y134D01*
G01X11599Y161D01*
G01X11825Y298D02*
G01X11853Y311D01*
G01X11894Y353D01*
G01X11894Y65D01*
G01X12011Y353D02*
G01X12161Y353D01*
G01X12079Y244D01*
G01X12120Y244D01*
G01X12147Y230D01*
G01X12161Y215D01*
G01X12174Y175D01*
G01X12174Y148D01*
G01X12161Y107D01*
G01X12134Y80D01*
G01X12093Y65D01*
G01X12052Y65D01*
G01X12011Y80D01*
G01X11997Y94D01*
G01X11984Y121D01*
G01X7786Y18873D02*
G01X7751Y18855D01*
G01X7714Y18817D01*
G01X7696Y18782D01*
G01X7696Y18709D01*
G01X7714Y18673D01*
G01X7751Y18636D01*
G01X7786Y18617D01*
G01X7842Y18600D01*
G01X7932Y18600D01*
G01X7986Y18617D01*
G01X8023Y18636D01*
G01X8060Y18673D01*
G01X8077Y18709D01*
G01X8077Y18782D01*
G01X8060Y18817D01*
G01X8023Y18855D01*
G01X7986Y18873D01*
G01X7751Y19211D02*
G01X7714Y19192D01*
G01X7696Y19138D01*
G01X7696Y19102D01*
G01X7714Y19046D01*
G01X7768Y19011D01*
G01X7860Y18992D01*
G01X7951Y18992D01*
G01X8023Y19011D01*
G01X8060Y19046D01*
G01X8077Y19102D01*
G01X8077Y19119D01*
G01X8060Y19175D01*
G01X8023Y19211D01*
G01X7968Y19228D01*
G01X7951Y19228D01*
G01X7896Y19211D01*
G01X7860Y19175D01*
G01X7842Y19119D01*
G01X7842Y19102D01*
G01X7860Y19046D01*
G01X7896Y19011D01*
G01X7951Y18992D01*
G01X8150Y353D02*
G01X8150Y65D01*
G01X8340Y353D02*
G01X8340Y65D01*
G01X8150Y215D02*
G01X8340Y215D01*
G01X8431Y298D02*
G01X8457Y311D01*
G01X8498Y353D01*
G01X8498Y65D01*
G01X9947Y9700D02*
G01X10281Y9700D01*
G01X9947Y9923D02*
G01X10169Y9700D01*
G01X10089Y9780D02*
G01X10281Y9923D01*
G01X9947Y10028D02*
G01X10281Y10028D01*
G01X9947Y10028D02*
G01X9947Y10234D01*
G01X10106Y10028D02*
G01X10106Y10155D01*
G01X10281Y10028D02*
G01X10281Y10234D01*
G01X9947Y10340D02*
G01X10106Y10467D01*
G01X10281Y10467D01*
G01X9947Y10594D02*
G01X10106Y10467D01*
G01X10010Y10698D02*
G01X9994Y10730D01*
G01X9947Y10778D01*
G01X10281Y10778D01*
G01X13522Y9700D02*
G01X13856Y9700D01*
G01X13522Y9923D02*
G01X13744Y9700D01*
G01X13664Y9780D02*
G01X13856Y9923D01*
G01X13522Y10028D02*
G01X13856Y10028D01*
G01X13522Y10028D02*
G01X13522Y10234D01*
G01X13681Y10028D02*
G01X13681Y10155D01*
G01X13856Y10028D02*
G01X13856Y10234D01*
G01X13522Y10340D02*
G01X13681Y10467D01*
G01X13856Y10467D01*
G01X13522Y10594D02*
G01X13681Y10467D01*
G01X13601Y10715D02*
G01X13585Y10715D01*
G01X13553Y10730D01*
G01X13538Y10746D01*
G01X13522Y10778D01*
G01X13522Y10842D01*
G01X13538Y10873D01*
G01X13553Y10890D01*
G01X13585Y10905D01*
G01X13617Y10905D01*
G01X13648Y10890D01*
G01X13697Y10857D01*
G01X13856Y10698D01*
G01X13856Y10921D01*
G01X17097Y9700D02*
G01X17431Y9700D01*
G01X17097Y9923D02*
G01X17319Y9700D01*
G01X17239Y9780D02*
G01X17431Y9923D01*
G01X17097Y10028D02*
G01X17431Y10028D01*
G01X17097Y10028D02*
G01X17097Y10234D01*
G01X17256Y10028D02*
G01X17256Y10155D01*
G01X17431Y10028D02*
G01X17431Y10234D01*
G01X17097Y10340D02*
G01X17256Y10467D01*
G01X17431Y10467D01*
G01X17097Y10594D02*
G01X17256Y10467D01*
G01X17097Y10730D02*
G01X17097Y10905D01*
G01X17223Y10809D01*
G01X17223Y10857D01*
G01X17239Y10890D01*
G01X17256Y10905D01*
G01X17303Y10921D01*
G01X17335Y10921D01*
G01X17382Y10905D01*
G01X17414Y10873D01*
G01X17431Y10826D01*
G01X17431Y10778D01*
G01X17414Y10730D01*
G01X17398Y10715D01*
G01X17367Y10698D01*
G01X24096Y10150D02*
G01X24525Y10150D01*
G01X24096Y10150D02*
G01X24096Y10334D01*
G01X24115Y10394D01*
G01X24136Y10415D01*
G01X24177Y10436D01*
G01X24239Y10436D01*
G01X24280Y10415D01*
G01X24300Y10394D01*
G01X24321Y10334D01*
G01X24321Y10150D01*
G01X24177Y10571D02*
G01X24156Y10611D01*
G01X24096Y10673D01*
G01X24525Y10673D01*
G01X25350Y503D02*
G01X25350Y230D01*
G01X25368Y176D01*
G01X25405Y140D01*
G01X25459Y121D01*
G01X25494Y121D01*
G01X25550Y140D01*
G01X25585Y176D01*
G01X25605Y230D01*
G01X25605Y503D01*
G01X25725Y430D02*
G01X25760Y448D01*
G01X25814Y503D01*
G01X25814Y121D01*
G01X3150Y8903D02*
G01X3150Y8475D01*
G01X3150Y8903D02*
G01X3334Y8903D01*
G01X3394Y8884D01*
G01X3415Y8863D01*
G01X3435Y8821D01*
G01X3435Y8780D01*
G01X3415Y8740D01*
G01X3394Y8719D01*
G01X3334Y8700D01*
G01X3150Y8700D01*
G01X3293Y8700D02*
G01X3435Y8475D01*
G01X3611Y8903D02*
G01X3836Y8903D01*
G01X3714Y8740D01*
G01X3776Y8740D01*
G01X3817Y8719D01*
G01X3836Y8700D01*
G01X3857Y8638D01*
G01X3857Y8596D01*
G01X3836Y8536D01*
G01X3796Y8494D01*
G01X3735Y8475D01*
G01X3673Y8475D01*
G01X3611Y8494D01*
G01X3592Y8515D01*
G01X3571Y8555D01*
G01X3150Y7253D02*
G01X3150Y6825D01*
G01X3150Y7253D02*
G01X3334Y7253D01*
G01X3394Y7234D01*
G01X3415Y7213D01*
G01X3435Y7171D01*
G01X3435Y7130D01*
G01X3415Y7090D01*
G01X3394Y7069D01*
G01X3334Y7050D01*
G01X3150Y7050D01*
G01X3293Y7050D02*
G01X3435Y6825D01*
G01X3817Y7253D02*
G01X3611Y7253D01*
G01X3592Y7069D01*
G01X3611Y7090D01*
G01X3673Y7111D01*
G01X3735Y7111D01*
G01X3796Y7090D01*
G01X3836Y7050D01*
G01X3857Y6988D01*
G01X3857Y6946D01*
G01X3836Y6886D01*
G01X3796Y6844D01*
G01X3735Y6825D01*
G01X3673Y6825D01*
G01X3611Y6844D01*
G01X3592Y6865D01*
G01X3571Y6905D01*
G01X3150Y5553D02*
G01X3150Y5125D01*
G01X3150Y5553D02*
G01X3334Y5553D01*
G01X3394Y5534D01*
G01X3415Y5513D01*
G01X3435Y5471D01*
G01X3435Y5430D01*
G01X3415Y5390D01*
G01X3394Y5369D01*
G01X3334Y5350D01*
G01X3150Y5350D01*
G01X3293Y5350D02*
G01X3435Y5125D01*
G01X3817Y5492D02*
G01X3796Y5534D01*
G01X3735Y5553D01*
G01X3693Y5553D01*
G01X3632Y5534D01*
G01X3592Y5471D01*
G01X3571Y5369D01*
G01X3571Y5267D01*
G01X3592Y5186D01*
G01X3632Y5144D01*
G01X3693Y5125D01*
G01X3714Y5125D01*
G01X3776Y5144D01*
G01X3817Y5186D01*
G01X3836Y5246D01*
G01X3836Y5267D01*
G01X3817Y5328D01*
G01X3776Y5369D01*
G01X3714Y5390D01*
G01X3693Y5390D01*
G01X3632Y5369D01*
G01X3592Y5328D01*
G01X3571Y5267D01*
G01X18296Y10150D02*
G01X18725Y10150D01*
G01X18296Y10150D02*
G01X18296Y10334D01*
G01X18315Y10394D01*
G01X18336Y10415D01*
G01X18377Y10436D01*
G01X18418Y10436D01*
G01X18460Y10415D01*
G01X18480Y10394D01*
G01X18500Y10334D01*
G01X18500Y10150D01*
G01X18500Y10292D02*
G01X18725Y10436D01*
G01X18296Y10857D02*
G01X18725Y10653D01*
G01X18296Y10571D02*
G01X18296Y10857D01*
G01X3150Y10603D02*
G01X3150Y10175D01*
G01X3150Y10603D02*
G01X3334Y10603D01*
G01X3394Y10584D01*
G01X3415Y10563D01*
G01X3435Y10521D01*
G01X3435Y10480D01*
G01X3415Y10440D01*
G01X3394Y10419D01*
G01X3334Y10400D01*
G01X3150Y10400D01*
G01X3293Y10400D02*
G01X3435Y10175D01*
G01X3571Y10521D02*
G01X3611Y10542D01*
G01X3673Y10603D01*
G01X3673Y10175D01*
G01X20196Y10150D02*
G01X20625Y10150D01*
G01X20196Y10150D02*
G01X20196Y10334D01*
G01X20215Y10394D01*
G01X20236Y10415D01*
G01X20277Y10436D01*
G01X20318Y10436D01*
G01X20360Y10415D01*
G01X20380Y10394D01*
G01X20400Y10334D01*
G01X20400Y10150D01*
G01X20400Y10292D02*
G01X20625Y10436D01*
G01X20196Y10673D02*
G01X20215Y10611D01*
G01X20256Y10592D01*
G01X20297Y10592D01*
G01X20339Y10611D01*
G01X20360Y10653D01*
G01X20380Y10734D01*
G01X20400Y10796D01*
G01X20440Y10836D01*
G01X20481Y10857D01*
G01X20543Y10857D01*
G01X20585Y10836D01*
G01X20605Y10817D01*
G01X20625Y10755D01*
G01X20625Y10673D01*
G01X20605Y10611D01*
G01X20585Y10592D01*
G01X20543Y10571D01*
G01X20481Y10571D01*
G01X20440Y10592D01*
G01X20400Y10632D01*
G01X20380Y10694D01*
G01X20360Y10776D01*
G01X20339Y10817D01*
G01X20297Y10836D01*
G01X20256Y10836D01*
G01X20215Y10817D01*
G01X20196Y10755D01*
G01X20196Y10673D01*
G01X22146Y10150D02*
G01X22575Y10150D01*
G01X22146Y10150D02*
G01X22146Y10334D01*
G01X22165Y10394D01*
G01X22186Y10415D01*
G01X22227Y10436D01*
G01X22268Y10436D01*
G01X22310Y10415D01*
G01X22330Y10394D01*
G01X22350Y10334D01*
G01X22350Y10150D01*
G01X22350Y10292D02*
G01X22575Y10436D01*
G01X22289Y10836D02*
G01X22350Y10817D01*
G01X22390Y10776D01*
G01X22411Y10715D01*
G01X22411Y10694D01*
G01X22390Y10632D01*
G01X22350Y10592D01*
G01X22289Y10571D01*
G01X22268Y10571D01*
G01X22206Y10592D01*
G01X22165Y10632D01*
G01X22146Y10694D01*
G01X22146Y10715D01*
G01X22165Y10776D01*
G01X22206Y10817D01*
G01X22289Y10836D01*
G01X22390Y10836D01*
G01X22493Y10817D01*
G01X22555Y10776D01*
G01X22575Y10715D01*
G01X22575Y10673D01*
G01X22555Y10611D01*
G01X22514Y10592D01*
G01X18296Y4900D02*
G01X18725Y4900D01*
G01X18296Y4900D02*
G01X18296Y5084D01*
G01X18315Y5144D01*
G01X18336Y5165D01*
G01X18377Y5186D01*
G01X18418Y5186D01*
G01X18460Y5165D01*
G01X18480Y5144D01*
G01X18500Y5084D01*
G01X18500Y4900D01*
G01X18500Y5042D02*
G01X18725Y5186D01*
G01X18377Y5321D02*
G01X18356Y5361D01*
G01X18296Y5423D01*
G01X18725Y5423D01*
G01X18296Y5680D02*
G01X18315Y5619D01*
G01X18377Y5578D01*
G01X18480Y5559D01*
G01X18540Y5559D01*
G01X18643Y5578D01*
G01X18705Y5619D01*
G01X18725Y5680D01*
G01X18725Y5721D01*
G01X18705Y5784D01*
G01X18643Y5825D01*
G01X18540Y5844D01*
G01X18480Y5844D01*
G01X18377Y5825D01*
G01X18315Y5784D01*
G01X18296Y5721D01*
G01X18296Y5680D01*
G01X20246Y4900D02*
G01X20675Y4900D01*
G01X20246Y4900D02*
G01X20246Y5084D01*
G01X20265Y5144D01*
G01X20286Y5165D01*
G01X20327Y5186D01*
G01X20368Y5186D01*
G01X20410Y5165D01*
G01X20430Y5144D01*
G01X20450Y5084D01*
G01X20450Y4900D01*
G01X20450Y5042D02*
G01X20675Y5186D01*
G01X20327Y5321D02*
G01X20306Y5361D01*
G01X20246Y5423D01*
G01X20675Y5423D01*
G01X20327Y5559D02*
G01X20306Y5600D01*
G01X20246Y5661D01*
G01X20675Y5661D01*
G01X22196Y4900D02*
G01X22625Y4900D01*
G01X22196Y4900D02*
G01X22196Y5084D01*
G01X22215Y5144D01*
G01X22236Y5165D01*
G01X22277Y5186D01*
G01X22318Y5186D01*
G01X22360Y5165D01*
G01X22380Y5144D01*
G01X22400Y5084D01*
G01X22400Y4900D01*
G01X22400Y5042D02*
G01X22625Y5186D01*
G01X22277Y5321D02*
G01X22256Y5361D01*
G01X22196Y5423D01*
G01X22625Y5423D01*
G01X22297Y5578D02*
G01X22277Y5578D01*
G01X22236Y5600D01*
G01X22215Y5619D01*
G01X22196Y5661D01*
G01X22196Y5742D01*
G01X22215Y5784D01*
G01X22236Y5803D01*
G01X22277Y5825D01*
G01X22318Y5825D01*
G01X22360Y5803D01*
G01X22421Y5763D01*
G01X22625Y5559D01*
G01X22625Y5844D01*
G01X24146Y4900D02*
G01X24575Y4900D01*
G01X24146Y4900D02*
G01X24146Y5084D01*
G01X24165Y5144D01*
G01X24186Y5165D01*
G01X24227Y5186D01*
G01X24268Y5186D01*
G01X24310Y5165D01*
G01X24330Y5144D01*
G01X24350Y5084D01*
G01X24350Y4900D01*
G01X24350Y5042D02*
G01X24575Y5186D01*
G01X24227Y5321D02*
G01X24206Y5361D01*
G01X24146Y5423D01*
G01X24575Y5423D01*
G01X24146Y5600D02*
G01X24146Y5825D01*
G01X24310Y5701D01*
G01X24310Y5763D01*
G01X24330Y5803D01*
G01X24350Y5825D01*
G01X24411Y5844D01*
G01X24452Y5844D01*
G01X24514Y5825D01*
G01X24555Y5784D01*
G01X24575Y5721D01*
G01X24575Y5661D01*
G01X24555Y5600D01*
G01X24535Y5578D01*
G01X24493Y5559D01*
G01X10850Y3953D02*
G01X10850Y3525D01*
G01X10850Y3953D02*
G01X11034Y3953D01*
G01X11094Y3934D01*
G01X11115Y3913D01*
G01X11135Y3871D01*
G01X11135Y3830D01*
G01X11115Y3790D01*
G01X11094Y3769D01*
G01X11034Y3750D01*
G01X10850Y3750D01*
G01X10993Y3750D02*
G01X11135Y3525D01*
G01X11292Y3851D02*
G01X11292Y3871D01*
G01X11311Y3913D01*
G01X11332Y3934D01*
G01X11373Y3953D01*
G01X11455Y3953D01*
G01X11496Y3934D01*
G01X11517Y3913D01*
G01X11536Y3871D01*
G01X11536Y3830D01*
G01X11517Y3790D01*
G01X11476Y3728D01*
G01X11271Y3525D01*
G01X11557Y3525D01*
G01X1346Y18250D02*
G01X1652Y18250D01*
G01X1714Y18269D01*
G01X1755Y18311D01*
G01X1775Y18373D01*
G01X1775Y18413D01*
G01X1755Y18475D01*
G01X1714Y18515D01*
G01X1652Y18536D01*
G01X1346Y18536D01*
G01X1346Y18876D02*
G01X1631Y18671D01*
G01X1631Y18978D01*
G01X1346Y18876D02*
G01X1775Y18876D01*
G01X4085Y13692D02*
G01X4044Y13734D01*
G01X3984Y13753D01*
G01X3902Y13753D01*
G01X3840Y13734D01*
G01X3800Y13692D01*
G01X3800Y13651D01*
G01X3819Y13611D01*
G01X3840Y13590D01*
G01X3881Y13569D01*
G01X4005Y13528D01*
G01X4044Y13509D01*
G01X4065Y13488D01*
G01X4085Y13446D01*
G01X4085Y13386D01*
G01X4044Y13344D01*
G01X3984Y13325D01*
G01X3902Y13325D01*
G01X3840Y13344D01*
G01X3800Y13386D01*
G01X4527Y13651D02*
G01X4507Y13692D01*
G01X4467Y13734D01*
G01X4426Y13753D01*
G01X4343Y13753D01*
G01X4302Y13734D01*
G01X4261Y13692D01*
G01X4242Y13651D01*
G01X4221Y13590D01*
G01X4221Y13488D01*
G01X4242Y13426D01*
G01X4261Y13386D01*
G01X4302Y13344D01*
G01X4343Y13325D01*
G01X4426Y13325D01*
G01X4467Y13344D01*
G01X4507Y13386D01*
G01X4527Y13426D01*
G01X4527Y13488D01*
G01X4426Y13488D02*
G01X4527Y13488D01*
G01X4663Y13671D02*
G01X4703Y13692D01*
G01X4764Y13753D01*
G01X4764Y13325D01*
G01X14650Y3953D02*
G01X14650Y3525D01*
G01X14650Y3953D02*
G01X14834Y3953D01*
G01X14894Y3934D01*
G01X14915Y3913D01*
G01X14935Y3871D01*
G01X14935Y3830D01*
G01X14915Y3790D01*
G01X14894Y3769D01*
G01X14834Y3750D01*
G01X14650Y3750D01*
G01X14793Y3750D02*
G01X14935Y3525D01*
G01X15276Y3953D02*
G01X15071Y3667D01*
G01X15377Y3667D01*
G01X15276Y3953D02*
G01X15276Y3525D01*
G01X9447Y16600D02*
G01X9734Y16600D01*
G01X9734Y16600D02*
G01X9734Y16763D01*
G01X9447Y16853D02*
G01X9734Y16853D01*
G01X9447Y16853D02*
G01X9447Y17030D01*
G01X9584Y16853D02*
G01X9584Y16963D01*
G01X9734Y16853D02*
G01X9734Y17030D01*
G01X9447Y17121D02*
G01X9734Y17121D01*
G01X9447Y17121D02*
G01X9447Y17215D01*
G01X9460Y17257D01*
G01X9488Y17284D01*
G01X9514Y17298D01*
G01X9556Y17311D01*
G01X9625Y17311D01*
G01X9664Y17298D01*
G01X9693Y17284D01*
G01X9719Y17257D01*
G01X9734Y17215D01*
G01X9734Y17121D01*
G01X9514Y17415D02*
G01X9502Y17415D01*
G01X9475Y17428D01*
G01X9460Y17442D01*
G01X9447Y17469D01*
G01X9447Y17525D01*
G01X9460Y17552D01*
G01X9475Y17565D01*
G01X9502Y17578D01*
G01X9528Y17578D01*
G01X9556Y17565D01*
G01X9597Y17538D01*
G01X9734Y17402D01*
G01X9734Y17592D01*
G01X9447Y14450D02*
G01X9734Y14450D01*
G01X9734Y14450D02*
G01X9734Y14613D01*
G01X9447Y14703D02*
G01X9734Y14703D01*
G01X9447Y14703D02*
G01X9447Y14880D01*
G01X9584Y14703D02*
G01X9584Y14813D01*
G01X9734Y14703D02*
G01X9734Y14880D01*
G01X9447Y14971D02*
G01X9734Y14971D01*
G01X9447Y14971D02*
G01X9447Y15065D01*
G01X9460Y15107D01*
G01X9488Y15134D01*
G01X9514Y15148D01*
G01X9556Y15161D01*
G01X9625Y15161D01*
G01X9664Y15148D01*
G01X9693Y15134D01*
G01X9719Y15107D01*
G01X9734Y15065D01*
G01X9734Y14971D01*
G01X9447Y15278D02*
G01X9447Y15428D01*
G01X9556Y15346D01*
G01X9556Y15388D01*
G01X9569Y15415D01*
G01X9584Y15428D01*
G01X9625Y15442D01*
G01X9652Y15442D01*
G01X9693Y15428D01*
G01X9719Y15401D01*
G01X9734Y15361D01*
G01X9734Y15319D01*
G01X9719Y15278D01*
G01X9706Y15265D01*
G01X9678Y15251D01*
G01X11197Y12900D02*
G01X11484Y12900D01*
G01X11484Y12900D02*
G01X11484Y13063D01*
G01X11197Y13153D02*
G01X11484Y13153D01*
G01X11197Y13153D02*
G01X11197Y13330D01*
G01X11334Y13153D02*
G01X11334Y13263D01*
G01X11484Y13153D02*
G01X11484Y13330D01*
G01X11197Y13421D02*
G01X11484Y13421D01*
G01X11197Y13421D02*
G01X11197Y13515D01*
G01X11210Y13557D01*
G01X11238Y13584D01*
G01X11264Y13598D01*
G01X11306Y13611D01*
G01X11375Y13611D01*
G01X11414Y13598D01*
G01X11443Y13584D01*
G01X11469Y13557D01*
G01X11484Y13515D01*
G01X11484Y13421D01*
G01X11197Y13838D02*
G01X11388Y13701D01*
G01X11388Y13905D01*
G01X11197Y13838D02*
G01X11484Y13838D01*
G01X13447Y12900D02*
G01X13734Y12900D01*
G01X13734Y12900D02*
G01X13734Y13063D01*
G01X13447Y13153D02*
G01X13734Y13153D01*
G01X13447Y13153D02*
G01X13447Y13330D01*
G01X13584Y13153D02*
G01X13584Y13263D01*
G01X13734Y13153D02*
G01X13734Y13330D01*
G01X13447Y13421D02*
G01X13734Y13421D01*
G01X13447Y13421D02*
G01X13447Y13515D01*
G01X13460Y13557D01*
G01X13488Y13584D01*
G01X13514Y13598D01*
G01X13556Y13611D01*
G01X13625Y13611D01*
G01X13664Y13598D01*
G01X13693Y13584D01*
G01X13719Y13557D01*
G01X13734Y13515D01*
G01X13734Y13421D01*
G01X13447Y13865D02*
G01X13447Y13728D01*
G01X13569Y13715D01*
G01X13556Y13728D01*
G01X13543Y13769D01*
G01X13543Y13811D01*
G01X13556Y13851D01*
G01X13584Y13878D01*
G01X13625Y13892D01*
G01X13652Y13892D01*
G01X13693Y13878D01*
G01X13719Y13851D01*
G01X13734Y13811D01*
G01X13734Y13769D01*
G01X13719Y13728D01*
G01X13706Y13715D01*
G01X13678Y13701D01*
G01X15697Y12900D02*
G01X15984Y12900D01*
G01X15984Y12900D02*
G01X15984Y13063D01*
G01X15697Y13153D02*
G01X15984Y13153D01*
G01X15697Y13153D02*
G01X15697Y13330D01*
G01X15834Y13153D02*
G01X15834Y13263D01*
G01X15984Y13153D02*
G01X15984Y13330D01*
G01X15697Y13421D02*
G01X15984Y13421D01*
G01X15697Y13421D02*
G01X15697Y13515D01*
G01X15710Y13557D01*
G01X15738Y13584D01*
G01X15764Y13598D01*
G01X15806Y13611D01*
G01X15875Y13611D01*
G01X15914Y13598D01*
G01X15943Y13584D01*
G01X15969Y13557D01*
G01X15984Y13515D01*
G01X15984Y13421D01*
G01X15738Y13865D02*
G01X15710Y13851D01*
G01X15697Y13811D01*
G01X15697Y13784D01*
G01X15710Y13742D01*
G01X15752Y13715D01*
G01X15819Y13701D01*
G01X15888Y13701D01*
G01X15943Y13715D01*
G01X15969Y13742D01*
G01X15984Y13784D01*
G01X15984Y13796D01*
G01X15969Y13838D01*
G01X15943Y13865D01*
G01X15902Y13878D01*
G01X15888Y13878D01*
G01X15847Y13865D01*
G01X15819Y13838D01*
G01X15806Y13796D01*
G01X15806Y13784D01*
G01X15819Y13742D01*
G01X15847Y13715D01*
G01X15888Y13701D01*
G01X1247Y850D02*
G01X1534Y850D01*
G01X1534Y850D02*
G01X1534Y1013D01*
G01X1247Y1103D02*
G01X1534Y1103D01*
G01X1247Y1103D02*
G01X1247Y1280D01*
G01X1384Y1103D02*
G01X1384Y1213D01*
G01X1534Y1103D02*
G01X1534Y1280D01*
G01X1247Y1371D02*
G01X1534Y1371D01*
G01X1247Y1371D02*
G01X1247Y1465D01*
G01X1260Y1507D01*
G01X1288Y1534D01*
G01X1314Y1548D01*
G01X1356Y1561D01*
G01X1425Y1561D01*
G01X1464Y1548D01*
G01X1493Y1534D01*
G01X1519Y1507D01*
G01X1534Y1465D01*
G01X1534Y1371D01*
G01X1302Y1651D02*
G01X1288Y1678D01*
G01X1247Y1719D01*
G01X1534Y1719D01*
G01X3922Y913D02*
G01X3905Y948D01*
G01X3868Y984D01*
G01X3831Y1003D01*
G01X3759Y1003D01*
G01X3722Y984D01*
G01X3685Y948D01*
G01X3668Y913D01*
G01X3650Y857D01*
G01X3650Y767D01*
G01X3668Y713D01*
G01X3685Y676D01*
G01X3722Y640D01*
G01X3759Y621D01*
G01X3831Y621D01*
G01X3868Y640D01*
G01X3905Y676D01*
G01X3922Y713D01*
G01X4260Y1003D02*
G01X4078Y1003D01*
G01X4060Y840D01*
G01X4078Y857D01*
G01X4134Y876D01*
G01X4188Y876D01*
G01X4243Y857D01*
G01X4278Y821D01*
G01X4297Y767D01*
G01X4297Y730D01*
G01X4278Y676D01*
G01X4243Y640D01*
G01X4188Y621D01*
G01X4134Y621D01*
G01X4078Y640D01*
G01X4060Y657D01*
G01X4043Y694D01*
G54D10*
G75*
G01X1900Y8200D02*
G02X2000Y8300I100J0D01*
G01*
G75*
G01X1900Y7500D02*
G03X2000Y7400I100J0D01*
G01*
G75*
G01X4300Y7400D02*
G03X4400Y7500I0J100D01*
G01*
G75*
G01X4300Y8300D02*
G02X4400Y8200I0J-100D01*
G01*
G75*
G01X1900Y6550D02*
G02X2000Y6650I100J0D01*
G01*
G75*
G01X1900Y5850D02*
G03X2000Y5750I100J0D01*
G01*
G75*
G01X4300Y5750D02*
G03X4400Y5850I0J100D01*
G01*
G75*
G01X4300Y6650D02*
G02X4400Y6550I0J-100D01*
G01*
G75*
G01X1900Y4850D02*
G02X2000Y4950I100J0D01*
G01*
G75*
G01X1900Y4150D02*
G03X2000Y4050I100J0D01*
G01*
G75*
G01X4300Y4050D02*
G03X4400Y4150I0J100D01*
G01*
G75*
G01X4300Y4950D02*
G02X4400Y4850I0J-100D01*
G01*
G75*
G01X19000Y8900D02*
G02X18900Y9000I0J100D01*
G01*
G75*
G01X19700Y8900D02*
G03X19800Y9000I0J100D01*
G01*
G75*
G01X19800Y11300D02*
G03X19700Y11400I-100J0D01*
G01*
G75*
G01X18900Y11300D02*
G02X19000Y11400I100J0D01*
G01*
G75*
G01X1900Y9900D02*
G02X2000Y10000I100J0D01*
G01*
G75*
G01X1900Y9200D02*
G03X2000Y9100I100J0D01*
G01*
G75*
G01X4300Y9100D02*
G03X4400Y9200I0J100D01*
G01*
G75*
G01X4300Y10000D02*
G02X4400Y9900I0J-100D01*
G01*
G75*
G01X20900Y8900D02*
G02X20800Y9000I0J100D01*
G01*
G75*
G01X21600Y8900D02*
G03X21700Y9000I0J100D01*
G01*
G75*
G01X21700Y11300D02*
G03X21600Y11400I-100J0D01*
G01*
G75*
G01X20800Y11300D02*
G02X20900Y11400I100J0D01*
G01*
G75*
G01X22850Y8900D02*
G02X22750Y9000I0J100D01*
G01*
G75*
G01X23550Y8900D02*
G03X23650Y9000I0J100D01*
G01*
G75*
G01X23650Y11300D02*
G03X23550Y11400I-100J0D01*
G01*
G75*
G01X22750Y11300D02*
G02X22850Y11400I100J0D01*
G01*
G75*
G01X19000Y3650D02*
G02X18900Y3750I0J100D01*
G01*
G75*
G01X19700Y3650D02*
G03X19800Y3750I0J100D01*
G01*
G75*
G01X19800Y6050D02*
G03X19700Y6150I-100J0D01*
G01*
G75*
G01X18900Y6050D02*
G02X19000Y6150I100J0D01*
G01*
G75*
G01X20950Y3650D02*
G02X20850Y3750I0J100D01*
G01*
G75*
G01X21650Y3650D02*
G03X21750Y3750I0J100D01*
G01*
G75*
G01X21750Y6050D02*
G03X21650Y6150I-100J0D01*
G01*
G75*
G01X20850Y6050D02*
G02X20950Y6150I100J0D01*
G01*
G75*
G01X22900Y3650D02*
G02X22800Y3750I0J100D01*
G01*
G75*
G01X23600Y3650D02*
G03X23700Y3750I0J100D01*
G01*
G75*
G01X23700Y6050D02*
G03X23600Y6150I-100J0D01*
G01*
G75*
G01X22800Y6050D02*
G02X22900Y6150I100J0D01*
G01*
G75*
G01X24850Y3650D02*
G02X24750Y3750I0J100D01*
G01*
G75*
G01X25550Y3650D02*
G03X25650Y3750I0J100D01*
G01*
G75*
G01X25650Y6050D02*
G03X25550Y6150I-100J0D01*
G01*
G75*
G01X24750Y6050D02*
G02X24850Y6150I100J0D01*
G01*
G75*
G01X10784Y4382D02*
G03X11516Y4382I366J528D01*
G01*
G75*
G01X11607Y4457D02*
G03X11721Y4615I-457J453D01*
G01*
G75*
G01X10693Y4457D02*
G02X10579Y4615I457J453D01*
G01*
G75*
G01X11768Y4725D02*
G03X11795Y4918I-618J185D01*
G01*
G75*
G01X10532Y4725D02*
G02X10505Y4918I618J185D01*
G01*
G75*
G01X11780Y5036D02*
G03X11712Y5221I-630J-126D01*
G01*
G75*
G01X10520Y5036D02*
G02X10588Y5221I630J-126D01*
G01*
G75*
G01X11650Y5316D02*
G03X11503Y5448I-500J-406D01*
G01*
G75*
G01X10650Y5316D02*
G02X10797Y5448I500J-406D01*
G01*
G75*
G01X11398Y5504D02*
G03X11209Y5551I-248J-594D01*
G01*
G75*
G01X10902Y5504D02*
G02X11091Y5551I248J-594D01*
G01*
G75*
G01X11812Y4029D02*
G03X11903Y4105I-662J881D01*
G01*
G75*
G01X10488Y4029D02*
G02X10397Y4105I662J881D01*
G01*
G75*
G01X11905Y5348D02*
G03X11839Y5446I-755J-438D01*
G01*
G75*
G01X10395Y5348D02*
G02X10461Y5446I755J-438D01*
G01*
G75*
G01X11611Y5651D02*
G03X11507Y5707I-461J-741D01*
G01*
G75*
G01X10689Y5651D02*
G02X10793Y5707I461J-741D01*
G01*
G54D30*
G75*
G01X2147Y19887D02*
G03X2156Y19887I5J-535D01*
G01*
G75*
G01X2131Y20095D02*
G03X2144Y20095I7J-743D01*
G01*
G54D10*
G75*
G01X14556Y3413D02*
G02X14084Y3756I-2J492D01*
G01*
G75*
G01X15344Y3413D02*
G03X15816Y3756I2J492D01*
G01*
G75*
G01X14556Y4987D02*
G03X14084Y4644I-2J-492D01*
G01*
G75*
G01X15344Y4987D02*
G02X15816Y4644I2J-492D01*
G01*
G75*
G01X4004Y2087D02*
G03X4017Y2087I6J-787D01*
G01*
G75*
G01X9476Y10282D02*
G03X9476Y10282I-295J0D01*
G01*
G75*
G01X9870Y10282D02*
G03X9870Y10282I-689J0D01*
G01*
G75*
G01X13051Y10282D02*
G03X13051Y10282I-295J0D01*
G01*
G75*
G01X13445Y10282D02*
G03X13445Y10282I-689J0D01*
G01*
G75*
G01X16626Y10282D02*
G03X16626Y10282I-295J0D01*
G01*
G75*
G01X17020Y10282D02*
G03X17020Y10282I-689J0D01*
G01*
G75*
G01X11700Y4910D02*
G03X11700Y4910I-550J0D01*
G01*
G75*
G01X5670Y14600D02*
G03X5670Y14600I-2320J0D01*
G01*
G75*
G01X10192Y17149D02*
G03X10192Y17149I-591J0D01*
G01*
G75*
G01X10290Y17149D02*
G03X10290Y17149I-689J0D01*
G01*
G75*
G01X10192Y14999D02*
G03X10192Y14999I-591J0D01*
G01*
G75*
G01X10290Y14999D02*
G03X10290Y14999I-689J0D01*
G01*
G75*
G01X11942Y13449D02*
G03X11942Y13449I-591J0D01*
G01*
G75*
G01X12040Y13449D02*
G03X12040Y13449I-689J0D01*
G01*
G75*
G01X14192Y13449D02*
G03X14192Y13449I-591J0D01*
G01*
G75*
G01X14290Y13449D02*
G03X14290Y13449I-689J0D01*
G01*
G75*
G01X16442Y13449D02*
G03X16442Y13449I-591J0D01*
G01*
G75*
G01X16540Y13449D02*
G03X16540Y13449I-689J0D01*
G01*
G75*
G01X1992Y1349D02*
G03X1992Y1349I-591J0D01*
G01*
G75*
G01X2090Y1349D02*
G03X2090Y1349I-689J0D01*
G01*

%LPD*%
G36*
G01X10191Y17385D02*
G01X9797Y17739D01*
G01X9797Y16519D01*
G01X10152Y16715D01*
G01X10230Y17109D01*
G01X10191Y17385D01*
G37*

%LPD*%
G36*
G01X10191Y15235D02*
G01X9797Y15589D01*
G01X9797Y14369D01*
G01X10152Y14565D01*
G01X10230Y14959D01*
G01X10191Y15235D01*
G37*

%LPD*%
G36*
G01X11941Y13685D02*
G01X11547Y14039D01*
G01X11547Y12819D01*
G01X11902Y13015D01*
G01X11980Y13409D01*
G01X11941Y13685D01*
G37*

%LPD*%
G36*
G01X14191Y13685D02*
G01X13797Y14039D01*
G01X13797Y12819D01*
G01X14152Y13015D01*
G01X14230Y13409D01*
G01X14191Y13685D01*
G37*

%LPD*%
G36*
G01X16441Y13685D02*
G01X16047Y14039D01*
G01X16047Y12819D01*
G01X16402Y13015D01*
G01X16480Y13409D01*
G01X16441Y13685D01*
G37*

%LPD*%
G36*
G01X1991Y1585D02*
G01X1597Y1939D01*
G01X1597Y719D01*
G01X1952Y915D01*
G01X2030Y1309D01*
G01X1991Y1585D01*
G37*

%LPD*%
G36*
G01X4554Y1835D02*
G01X4536Y1851D01*
G01X4536Y748D01*
G01X4554Y764D01*
G01X4572Y779D01*
G01X4606Y813D01*
G01X4622Y831D01*
G01X4652Y867D01*
G01X4666Y886D01*
G01X4680Y906D01*
G01X4693Y926D01*
G01X4705Y947D01*
G01X4717Y967D01*
G01X4728Y989D01*
G01X4738Y1010D01*
G01X4756Y1054D01*
G01X4764Y1077D01*
G01X4771Y1100D01*
G01X4783Y1146D01*
G01X4787Y1169D01*
G01X4791Y1193D01*
G01X4795Y1216D01*
G01X4799Y1264D01*
G01X4799Y1335D01*
G01X4795Y1383D01*
G01X4791Y1406D01*
G01X4787Y1430D01*
G01X4783Y1453D01*
G01X4771Y1499D01*
G01X4764Y1522D01*
G01X4756Y1545D01*
G01X4738Y1589D01*
G01X4728Y1610D01*
G01X4717Y1632D01*
G01X4705Y1652D01*
G01X4693Y1673D01*
G01X4680Y1693D01*
G01X4666Y1713D01*
G01X4652Y1732D01*
G01X4622Y1768D01*
G01X4606Y1786D01*
G01X4572Y1820D01*
G01X4554Y1835D01*
G37*
M00*
M02*
